<svg id="il_permission_denied" xmlns="http://www.w3.org/2000/svg" viewBox="0 0 500 360"><g fill="#3f51b5" stroke-width="1.012"><path d="M492.08 242.03c-11.6 24.07-35.14 40.16-59.54 50.77-32.86 14.3-69.04 19.96-104.71 17.56a234.8 234.8 0 01-81.23-20.32 224.4 224.4 0 01-16.9-8.52 215.92 215.92 0 01-32.6-22.34c-1.42-1.17-2.83-2.38-4.26-3.54-3-2.47-6.1-4.8-9.56-6.56-1.05-.53-2.12-1-3.2-1.42-10.95-4.19-23.58-2.6-34.97.66-8.67 2.48-17.12 5.89-25.78 8.31a85.08 85.08 0 01-11.74 2.52 62.14 62.14 0 01-26.4-2.34l-.72-.22a65.4 65.4 0 01-3.64-1.27l-.73-.28c-1.16-.46-2.3-.94-3.41-1.46l-.73-.33a63.82 63.82 0 01-3.42-1.73c-.4-.2-.8-.44-1.2-.65a71.5 71.5 0 01-17.08-13.39c-.15-.14-.28-.3-.44-.44-.7-.75-1.38-1.52-2.03-2.3-.25-.3-.5-.59-.73-.89a65.46 65.46 0 01-2.27-2.94 63.61 63.61 0 01-9.44-18.86 47.22 47.22 0 01-.7-2.56c-2.42-9.54-2.7-19.45-2.7-29.32v-3.44c.08-15.95.32-32.18 2.66-47.91 0-.11.03-.22.05-.33.78-5.3 1.85-10.54 3.2-15.72 1.4-5.44 3.2-10.77 5.36-15.94 5.39-12.73 13.21-24.32 21.9-35.06 21.89-27.03 50.6-49.71 84.2-58.2 36.2-9.15 76.44-.39 105.65 23 8.9 7.13 16.9 15.58 26.9 21.04 8.73 4.76 18.95 6.73 28.3 2.99 7.72-3.1 12.75-4.63 21.43-4.16a178.7 178.7 0 0154.57 11.83C430.12 75.2 467.9 108.8 487.55 152c.52 1.14 1.02 2.3 1.51 3.45 11.71 27.52 15.94 59.77 3.03 86.59zM52.5 326.23c21.29 0 38.54-2.79 38.54-6.23 0-3.43-17.25-6.22-38.53-6.22s-38.53 2.79-38.53 6.22c0 3.44 17.25 6.23 38.53 6.23zM398.17 360c37.73 0 68.32-2.99 68.32-6.67 0-3.69-30.59-6.68-68.32-6.68-37.73 0-68.32 2.99-68.32 6.68 0 3.68 30.59 6.67 68.32 6.67z" opacity=".1"/></g><g stroke-width="1.012"><path fill="gray" fill-opacity=".25" d="M460.02 47.31H56.14a5.47 5.47 0 00-5.45 5.48v225.4a5.47 5.47 0 005.45 5.49h403.88a5.47 5.47 0 005.45-5.49V52.8a5.47 5.47 0 00-5.45-5.48z" opacity=".35"/><path fill="#fff" d="M459.41 50.63H56.81a5.47 5.47 0 00-5.46 5.49V277.4a5.47 5.47 0 005.45 5.48h402.61a5.47 5.47 0 005.45-5.48V56.1a5.47 5.47 0 00-5.45-5.48z"/><path fill="#5a5773" d="M462.76 47.97H53.44a2.1 2.1 0 00-2.1 2.11v8.93h413.5v-8.93a2.12 2.12 0 00-2.08-2.11z"/></g><g fill="#fff" stroke-width="1.012"><path d="M59.6 56.34a2.85 2.85 0 002.85-2.85 2.85 2.85 0 00-2.84-2.86 2.85 2.85 0 00-2.84 2.86 2.85 2.85 0 002.84 2.85zM67.25 56.34a2.85 2.85 0 002.83-2.85 2.85 2.85 0 00-2.83-2.86 2.85 2.85 0 00-2.84 2.86 2.85 2.85 0 002.84 2.85zM74.88 56.34a2.85 2.85 0 002.84-2.85 2.84 2.84 0 10-5.67 0 2.85 2.85 0 002.83 2.85z"/></g><g stroke-width="1.012"><path fill="#3f51b5" d="M196.38 79.77H85.41v9.47h110.97z" opacity=".2"/><path fill="#5a5773" d="M430.81 117.76H85.41v145.75h345.4z" opacity=".1"/><path d="M287.64 127.26h-5.91V115.7c0-13.04-10.34-23.88-23.3-24.08a23.57 23.57 0 00-16.89 6.87 23.85 23.85 0 00-7.05 16.9v11.87h-5.9c-2.6 0-5.1 1.05-6.95 2.9a9.97 9.97 0 00-2.9 7v47.52a9.96 9.96 0 002.9 6.99 9.85 9.85 0 006.95 2.9h59.05c2.61 0 5.1-1.05 6.95-2.9a9.96 9.96 0 002.89-7v-47.5a9.96 9.96 0 00-2.89-7 9.84 9.84 0 00-6.95-2.91zm-26.08 30.89v17.02a3.57 3.57 0 01-3.27 3.56 3.45 3.45 0 01-3.61-3.47v-17.12a7.88 7.88 0 01-4.22-8.88 7.9 7.9 0 017.66-6.13 7.83 7.83 0 017.65 6.13 7.95 7.95 0 01-4.2 8.88zm13.29-30.89h-33.47v-11.88c0-4.46 1.76-8.74 4.9-11.9a16.68 16.68 0 0123.66 0 16.88 16.88 0 014.9 11.9z" opacity=".1"/><path fill="#ffc107" d="M287.64 126.39h-5.91v-11.56c0-13.04-10.34-23.88-23.3-24.08a23.57 23.57 0 00-16.89 6.87 23.85 23.85 0 00-7.05 16.9v11.87h-5.9c-2.6 0-5.1 1.05-6.95 2.9a9.97 9.97 0 00-2.9 7v47.52a9.96 9.96 0 002.9 6.99 9.85 9.85 0 006.95 2.9h59.05c2.61 0 5.1-1.05 6.95-2.9a9.96 9.96 0 002.89-7V136.3a9.96 9.96 0 00-2.89-7 9.84 9.84 0 00-6.95-2.9zm-26.08 30.89v17.02a3.57 3.57 0 01-3.27 3.56 3.41 3.41 0 01-2.55-.95 3.48 3.48 0 01-1.06-2.52v-17.12a7.88 7.88 0 01-4.22-8.88 7.9 7.9 0 017.66-6.13 7.83 7.83 0 017.65 6.13 7.95 7.95 0 01-4.2 8.88zm13.29-30.89h-33.47v-11.88c0-4.46 1.76-8.74 4.9-11.9a16.68 16.68 0 0123.66 0 16.88 16.88 0 014.9 11.9z"/><path fill="#5a5773" d="M430.81 103.73h-34.96v8.3h34.96z" opacity=".1"/></g><path fill="gray" fill-opacity=".25" d="M442.7 355.34a12.57 12.57 0 00-1.17-3.34l-5.24-7.87h.03s-.82-3.95 0-5.9c.83-1.93-2.94-6.7-2.94-6.7s-.46-1.2.74-2.68c1.2-1.47-.74-5.8-.74-5.8s-.91-9.02-1-10.4c-.1-1.37-.84-9.01-.84-9.01l-1.74-16.2-3.1-42.93-.07-.8c.39-.2.6-.31.6-.31l-.63-23.74.54-.49c4.69-4.26 15.5-14.14 15.4-14.36-.12-.21-1.32-16.5-1.46-20.57-.12-2.9-.75-5.74-1.86-8.42-.27-.54-1.05-4.1-1.37-5.6-.09-.42-.15-.68-.15-.68s-3.17-6.07-2.9-8.84c.29-2.76.83-4.83-5.92-5.8 0 0-5.68-.84-9.05-3.17-2-1.39-4.19-2.49-6.49-3.26 0 0-1.9-3.52-3.21-2.33a18.5 18.5 0 01-1.25-3.9l-.04-.26c2.5-1.75 4.3-4.34 5.08-7.31.05-.17.08-.34.12-.5.13.04.27.07.4.07 1.16 0 1.86-1.29 2.94-1.7.43-.17.97-.2 1.3-.54a1.3 1.3 0 00.3-.97c0-.12 0-.24 0-.36 0-.04 0-.08 0-.13v.05c-.3-1.6-1.53-3.02-1.4-4.64.14-1.53 1.47-2.88 1.36-4.36 0-.12 0-.24-.03-.36v.06a3.76 3.76 0 00-.87-1.56 4.97 4.97 0 00-1.8-1.52c-.6-.26-1.3-.33-1.87-.65-1.67-.9-1.67-3.29-2.66-4.91a4.34 4.34 0 00-4.04-2.02c-1.24.12-2.37.79-3.6 1-1.67.3-3.37-.25-4.96-.88-1.6-.62-3.2-1.31-4.9-1.31-1.72 0-3.56.87-4.08 2.5-.27.87-.14 1.82-.35 2.7-.37 1.58-1.74 2.7-3.16 3.49-.87.48-1.91 1.04-2.18 1.96v-.07a1.54 1.54 0 00-.05.52c0 .63.34 1.23.56 1.84.41 1.14.4 2.4-.03 3.54-.32.83-.87 1.56-1.19 2.4-.14.38-.24.78-.28 1.2v-.07c-.01.18-.01.37 0 .56 0 .64.14 1.27.43 1.84a3.3 3.3 0 001.96 1.66c.88.2 1.42-.66 2.34-.44.17.04.33.09.49.15a12.92 12.92 0 004.52 8.13c0 .1.03.2.05.32.28 1.75.4 3.52.36 5.3 0 0-1.38-2.03-3.26 1.88 0 0-4.92 2.85-6.62 3.18-1.7.32-7.72 2.43-7.72 2.43-.91.67-2 1.02-3.13 1.02-1.88 0-3.44 4.14-3.22 6.4.23 2.24-.13 3.9-1.88 4-1.75.09-.8 3.66-.78 3.72l-.16.77a60.13 60.13 0 01-1.35 5.47 24.68 24.68 0 00-1.86 8.42c-.14 4.07-1.31 20.3-1.45 20.57-.09.18 7.32 6.99 12.53 11.75l.75.68-2.4 22.52a6.05 6.05 0 002.47 4.4c0 .25 0 .52-.03.8-.1 2.63-.31 5.82-.73 6.66-.74 1.47-.55 9.38-.55 9.38s-.74 16.1-1.66 17.86c-.91 1.75-1.1 5.43-.83 6.15.28.72-.92 20.06-.92 20.06l-.91 8.65s.27 8.28-.56 8.47c-.83.18-1.29 5.9-1.29 5.9s-2.93 4.04-1.65 5.5c1.28 1.48-.19 2.13-.32 2.5-.14.36-2.8 1.75-.88 6.9.02.05.04.1.06.15-1.8 2.52-7.53 10.67-7.18 11.9.26.8.8 1.45 1.53 1.85 1.35.81 3.66 1.19 7.34 0 6.11-1.98 5.67-3.41 5.67-3.41a2.62 2.62 0 012.58-2.48c2.53-.19 4.41-2.53 4.41-2.53l-.3-1.11-.4-1.54c.05-.44.36-1.2 1.74-1.64 2.12-.64 1.57-4.69 1.57-4.69s-.19-4.23.73-4.78c.92-.56.55-7.55.55-7.55s1.02-5.06 2.48-8.47c1.47-3.41 3.23-23.65 3.23-23.65s1.19-9.94 2.29-12.8c1.1-2.85 2.12-10.85 2.12-10.85s6.8-13.26 6.89-16.2c0 0 .87-2.77 1.74.27.88 3.04 3.33 10.31 3.33 10.31l2.39 8.93 2.85 13.34 1.84 11.23s-.28 4.23.44 5.7c.71 1.48 1.74 4.88 1.2 5.53-.56.64 1.1 3.68 1.56 4.32.46.64 0 14.27 0 14.27s2.1 11.6 5.14 13.61c.21.14.44.26.67.35a49.33 49.33 0 00-.03 3.82c0 .2.03.39.1.57.27.37 3.4 2.86 4.04 2.86.65 0 2.94 1.6 3.04 2.39.1.78 6.72 4.09 7.65 4.19.94.1 5.5.91 6.11-.37.16-.38.2-.8.13-1.2zm-16.27-165.85l.47.4s.49 3.8.83 4.94c.35 1.14-.07 3.35-.07 3.35.04.83.2 1.65.49 2.42.4.83-.83 2.63-.83 2.63h-1.1l-.35-14.21zm-32.83-42.45v-.08c-.01.02-.01.05-.01.08zm-16.96 54.73c-.17-.37-.2-.79-.07-1.17.1-.21.18-.43.23-.65a10.11 10.11 0 00.26-1.78c-.04-.21-.4-2.25-.07-3.33s.83-4.93.83-4.93l.31-.27.73-.64s0-.23.05-.63c.15 3.34.28 7.03.08 7.21-.37.37-1.7 3.96-1.38 4.1.1.04-.04 1.48-.28 3.41-.28-.41-.5-.86-.69-1.32z" opacity=".35"/><path fill="#c37098" d="M411.82 150.55v5.46l-11.14 5.64s-11.06-6.74-8.33-9.41c1.75-1.7 1.41-6.35.94-9.55-.28-1.87-.6-3.23-.6-3.23s19.87-5.7 16.87-1.38c-1 1.45-1.08 3.33-.75 5.19.69 3.68 3.01 7.28 3.01 7.28z"/><g fill="#3f3d56" stroke-width="1.012"><path d="M381.31 203.96l-1.43 17.8s-2.16-1.97-4.94-4.53c-5.16-4.73-12.5-11.51-12.41-11.69.14-.28 1.3-16.42 1.44-20.47.12-2.88.74-5.72 1.84-8.38.26-.53 1-3.88 1.3-5.45.11-.49.18-.8.18-.8l2.4-.98s10.05 11.27 10.05 11.48c0 .2-.69 8.86-.69 8.86l-.71.62-.31.27s-.48 3.78-.82 4.91c-.34 1.13.02 3.1.06 3.31-.03.6-.11 1.18-.25 1.76-.05.22-.13.44-.23.64-.12.39-.1.8.07 1.17.2.51.45 1 .75 1.44zM442.15 205.54c.1.21-10.6 10.05-15.24 14.3l-2.1 1.91-1.43-17.79h3.7s1.22-1.79.81-2.61a7.69 7.69 0 01-.47-2.4s.4-2.2.06-3.34a54.04 54.04 0 01-.82-4.91l-.47-.4-.55-.5s-.69-8.65-.69-8.85c0-.2 10.04-11.48 10.04-11.48l2.4.97s.05.26.13.67c.33 1.5 1.1 5.04 1.37 5.58 1.1 2.66 1.72 5.5 1.84 8.38.11 4.05 1.28 20.2 1.42 20.47zM442.2 356.56c-.65 1.28-5.15.44-6.08.37-.93-.07-7.5-3.4-7.59-4.17-.1-.78-2.37-2.38-3-2.38s-3.73-2.48-4.01-2.84a1.4 1.4 0 01-.1-.57c-.09-1.51.1-5.39.1-5.39l13.2.74 6.42 9.7c.54 1.05.93 2.17 1.16 3.33.08.4.04.82-.1 1.21z"/></g><g stroke-width="1.012"><path d="M442.2 356.56c-.65 1.28-5.15.44-6.08.37-.93-.07-7.5-3.4-7.59-4.17-.1-.78-2.37-2.38-3-2.38s-3.73-2.48-4.01-2.84a1.4 1.4 0 01-.1-.57c-.09-1.51.1-5.39.1-5.39l13.2.74 6.42 9.7c.54 1.05.93 2.17 1.16 3.33.08.4.04.82-.1 1.21z" opacity=".1"/><path d="M442.2 356.56c-.65 1.28-5.15.44-6.08.37-.93-.07-7.5-3.4-7.59-4.17-.1-.78-2.37-2.38-3-2.38s-3.73-2.48-4.01-2.84a1.4 1.4 0 01-.1-.57l4.29 2.72s2.73 1.75 3.46 2.8c.73 1.04 6.47 3.2 6.95 3.24.35.04 4.12-.69 6.18-.38.08.4.04.82-.1 1.21z" opacity=".1"/><path fill="#3f3d56" d="M379.78 348.54s-1.87 2.34-4.36 2.52a2.56 2.56 0 00-2.55 2.47s.43 1.42-5.6 3.4c-3.65 1.17-5.94.8-7.27 0a3.26 3.26 0 01-1.52-1.84c-.4-1.47 7.65-12.6 7.65-12.6l7.33-.44 5.24 2.38.8 3.02z"/><path d="M379.78 348.54s-1.87 2.34-4.36 2.52a2.56 2.56 0 00-2.55 2.47s.43 1.42-5.6 3.4c-3.65 1.17-5.94.8-7.27 0a3.26 3.26 0 01-1.52-1.84c-.4-1.47 7.65-12.6 7.65-12.6l7.33-.44 5.24 2.38.8 3.02z" opacity=".1"/><path d="M379.78 348.54s-1.87 2.34-4.36 2.52a2.57 2.57 0 00-2.55 2.47s.43 1.42-5.6 3.4c-3.65 1.17-5.94.8-7.27 0 3.43-.37 11.02-2.55 11.78-3.3.91-.92 2.05-3.44 2.82-3.49.54-.03 3.27-1.68 4.9-2.7z" opacity=".1"/><path fill="#3f3d56" d="M436 338.33c-.82 1.92 0 5.86 0 5.86s-12.22.64-15.2-1.37c-3-2.02-5.1-13.56-5.1-13.56s.43-13.55 0-14.2c-.44-.64-2.1-3.66-1.55-4.3.54-.64-.44-4.03-1.19-5.5-.74-1.46-.43-5.67-.43-5.67l-1.83-11.18-2.82-13.28-2.4-8.89s-2.45-7.23-3.28-10.25c-.84-3.02-1.72-.28-1.72-.28-.09 2.93-6.83 16.12-6.83 16.12s-1 7.97-2.09 10.81c-1.1 2.84-2.28 12.73-2.28 12.73s-1.74 20.15-3.18 23.54c-1.45 3.4-2.44 8.43-2.44 8.43s.37 6.96-.54 7.51c-.91.55-.77 4.76-.77 4.76s.55 4.03-1.54 4.68c-2.1.64-1.75 2.01-1.75 2.01s-11.65 1.92-13.57-3.2c-1.9-5.14.73-6.5.88-6.88.14-.36 1.6-1 .32-2.47-1.27-1.47 1.64-5.5 1.64-5.5s.45-5.67 1.27-5.86c.82-.18.55-8.42.55-8.42l.9-8.61s1.2-19.24.92-19.97c-.27-.73-.1-4.4.82-6.15.91-1.76 1.64-17.77 1.64-17.77s-.18-7.88.54-9.34c.44-.83.62-4.02.73-6.63.08-1.99.1-3.63.1-3.63l10.2-3.85 13.08-4.21 11.02 5.31 16.12 3.12.2 2.8 3.08 42.72 1.74 16.12s.73 7.6.82 8.97c.1 1.38 1 10.36 1 10.36s1.91 4.3.73 5.77c-1.18 1.46-.73 2.63-.73 2.63s3.76 4.8 2.94 6.72z"/><path d="M409.57 138.08c-1 1.45-1.08 3.32-.75 5.18a12.75 12.75 0 01-15.52-.58c-.28-1.86-.6-3.23-.6-3.23s19.87-5.7 16.87-1.37z" opacity=".1"/><path fill="#c37098" d="M414.22 132.48a12.92 12.92 0 01-7.9 11.89 12.72 12.72 0 01-13.93-2.8 12.89 12.89 0 019.04-21.95 12.66 12.66 0 019.06 3.75 12.82 12.82 0 013.73 9.11z"/><path d="M416.88 153.86l-4.19 75.06-22.76-4.8-4.51-30.1 4.47-40.4 3.36.44 5.92.76 5.87.37 6.37-.72z" opacity=".1"/><path fill="#3f51b5" d="M416.88 154.41l-4.19 75.06-22.76-4.8-4.51-30.1 4.47-40.39 3.36.43 5.92.76 5.87.37 6.37-.72z"/><path fill="#3f3d56" d="M398.17 156.42l8.2.28-2.3 3.24s.15 6.56 1.25 8.44.77 30.9.77 30.9l-2.18 4.17-3.73-4.67.05-38.33z"/><path d="M398.17 156.42l8.2.28-2.3 3.24s.15 6.56 1.25 8.44.77 30.9.77 30.9l-2.18 4.17-3.73-4.67.05-38.33z" opacity=".1"/><path d="M411 147.91l-7.65 8.52 4.37 4.58 7.24-7.1z" opacity=".1"/><path fill="#3f51b5" d="M411 147.36l-7.65 8.52 4.37 4.58 7.24-7.1z"/><path d="M400.13 156.01l-7.74-7.79-.73 4.08 3.55 8.93z" opacity=".1"/><path fill="#3f51b5" d="M400.4 155.46l-7.74-7.79-.73 4.08 3.56 8.93z"/></g><g stroke-width="1.012"><path d="M426.46 245.05a37.63 37.63 0 01-11.78 3.43c-7.51.96-12.43-8.65-12.43-8.65l-2.87 3.75c-.9 3.99-14.8 5-20.44 3.48a9.01 9.01 0 01-3.23-1.54c.07-1.99.1-3.64.1-3.64l10.19-3.84 13.1-4.21 11 5.31 16.13 3.11zM416.88 154.41l-4.18 75.06-22.77-4.81-4.52-30.09 4.46-40.4 3.36.45a41.36 41.36 0 01-.49 4.39c-.55 2.57 2.82 20.8 2.82 20.8s6.4 20.43 9.29 17.48c2.88-2.94 6.98-18.5 6.98-18.5 2.78-5.77.05-21.95-.16-22.28a6.6 6.6 0 01-.26-1.47zM426.71 212.49l.2 7.35-2.11 1.92-1.42-17.8h3.14zM377.28 198.93c-.03.6-.11 1.18-.25 1.76 0-.17 0-.26-.03-.27-.13-.04.02-.7.28-1.49zM381.31 203.96l-1.44 17.8s-2.15-1.97-4.93-4.53l.33-3.15s1.17-7.75 1.6-11.57c.2.51.45 1 .75 1.45z" opacity=".1"/></g><g fill="#3f3d56" stroke-width="1.012"><path d="M393.66 147.95s-1.36-2.02-3.23 1.88c0 0-4.87 2.84-6.55 3.16-1.67.32-7.63 2.42-7.63 2.42-.9.66-1.99 1.01-3.1 1.01-1.87 0-3.42 4.12-3.19 6.37.23 2.24-.13 3.9-1.86 3.98-1.73.1-.78 3.7-.78 3.7l11.52 13.3s.73 12.22.36 12.59c-.36.37-1.68 3.95-1.36 4.07.32.13-1.75 13.65-1.75 13.65l-2.77 26.24s0 4.4 5.64 5.91c5.65 1.51 19.54.51 20.44-3.47l2.87-3.76s4.91 9.62 12.42 8.66c7.51-.96 12.3-3.71 12.3-3.71l-.82-31.46-.55-22.66 11.73-19.39s-3.14-6.05-2.87-8.78c.28-2.74.82-4.8-5.87-5.77 0 0-5.65-.85-8.97-3.16a25.6 25.6 0 00-6.42-3.25s-1.88-3.51-3.18-2.31c0 0 1.31 4.97 1.2 5.7-.1.75.2 4.1.41 4.45.2.35 2.94 16.51.16 22.28 0 0-4.08 15.56-6.99 18.5-2.9 2.95-9.28-17.49-9.28-17.49s-3.37-18.23-2.82-20.8c.54-2.56.94-11.86.94-11.86z"/><path d="M403.4 207.99c1.1 0 2-.9 2-2.02 0-1.1-.9-2.01-2-2.01a2.01 2.01 0 000 4.03zM403.4 217.49c1.1 0 2-.9 2-2.02 0-1.1-.9-2.01-2-2.01a2.01 2.01 0 000 4.03z"/></g><g stroke-width="1.012"><path d="M403.4 207.99c1.1 0 2-.9 2-2.02 0-1.1-.9-2.01-2-2.01a2.01 2.01 0 000 4.03zM403.4 217.49c1.1 0 2-.9 2-2.02 0-1.1-.9-2.01-2-2.01a2.01 2.01 0 000 4.03z" opacity=".1"/><g stroke="#3f51b5" stroke-miterlimit="10"><path d="M421.4 335.58s8.22.64 9.04 1.28c.82.64-9.04-1.28-9.04-1.28zM372.45 329.08s1.75 2.2 1 3.2c-.74 1.01-1-3.2-1-3.2zM374.54 337s3.19-2.1 4.46-.7c1.28 1.4-4.46.7-4.46.7z" opacity=".1"/></g><path d="M414.22 132.48c0 1.1-.13 2.19-.4 3.25a1.45 1.45 0 01-.86-1.43c.06-.52.4-1 .33-1.52-.1-.8-1.07-1.12-1.57-1.75-.63-.77-.5-1.88-.44-2.87.05-.98-.2-2.2-1.12-2.53-.27-.1-.57-.11-.84-.22-.73-.31-.95-1.22-1.43-1.84-.97-1.26-2.9-1.23-4.37-.63-.64.3-1.3.58-1.96.82a2.56 2.56 0 01-2.06-.15c-.28-.18-.52-.44-.81-.62-.99-.6-2.28 0-3.14.76-.85.77-1.54 1.8-2.61 2.28-.49.21-1.09.35-1.31.82-.12.26-.16.54-.14.82 0 1.71.2 3.44-.16 5.12-.22 1.07-.97 2.3-2.06 2.16a2.06 2.06 0 01-.4-.1 12.95 12.95 0 016.34-13.6 12.74 12.74 0 0117.93 6.03c.72 1.63 1.09 3.4 1.09 5.2z" opacity=".1"/></g><path fill="#3f3d56" d="M388.3 134.12c.32.07.63.25.96.29 1.1.13 1.84-1.09 2.07-2.16.35-1.68.17-3.41.16-5.12-.03-.28.02-.56.13-.82.25-.48.85-.6 1.31-.83 1.06-.47 1.75-1.48 2.62-2.27s2.14-1.36 3.13-.76c.3.17.53.43.82.62a2.6 2.6 0 002.06.15c.67-.2 1.3-.56 1.96-.82 1.45-.6 3.38-.62 4.36.62.48.63.7 1.53 1.43 1.84.27.11.57.13.84.23.92.35 1.16 1.54 1.12 2.53-.04.99-.17 2.1.44 2.86.5.63 1.46.95 1.57 1.76.07.52-.27 1-.32 1.52a1.47 1.47 0 00.81 1.41c.17.09.36.13.55.14 1.14 0 1.84-1.27 2.9-1.68.44-.17.97-.2 1.31-.55a1.46 1.46 0 00.27-1.19c-.21-1.68-1.55-3.14-1.4-4.83.13-1.61 1.61-3.02 1.3-4.61a3.75 3.75 0 00-.87-1.57 5.07 5.07 0 00-1.78-1.51c-.61-.27-1.31-.33-1.87-.65-1.65-.9-1.64-3.28-2.62-4.9a4.3 4.3 0 00-3.98-1.99c-1.22.13-2.34.78-3.55 1-1.66.3-3.35-.25-4.92-.88-1.58-.63-3.17-1.32-4.86-1.32-1.69 0-3.52.88-4.03 2.49-.27.88-.14 1.82-.35 2.7-.36 1.57-1.74 2.68-3.13 3.46-.96.54-2.1 1.15-2.22 2.24-.07.7.3 1.32.55 2a5.1 5.1 0 01-.03 3.5c-.32.83-.85 1.56-1.17 2.39a4.3 4.3 0 00.1 3.51 3.3 3.3 0 002 1.65c.86.2 1.4-.65 2.32-.45z"/><g stroke-width="1.012"><path d="M391.33 131.29c-.23 1.08-.98 2.3-2.07 2.17-.33-.05-.64-.22-.97-.3-.91-.2-1.45.66-2.31.44a3.27 3.27 0 01-2-1.64 3.81 3.81 0 01-.4-1.44c-.1.78.05 1.57.4 2.26a3.3 3.3 0 002 1.65c.87.2 1.4-.66 2.31-.44.32.11.64.2.97.29 1.09.13 1.84-1.09 2.07-2.16.18-.95.25-1.92.21-2.89 0 .7-.07 1.38-.2 2.06zM385.35 124.68a5.08 5.08 0 00-.29-2.12c-.2-.45-.36-.92-.5-1.39-.02.08-.03.15-.04.23-.08.68.3 1.31.54 1.98.15.42.25.86.3 1.3zM418.7 122.36c-.2 1.25-1.2 2.42-1.3 3.73-.03.23-.03.45 0 .68.21-1.53 1.56-2.9 1.3-4.41zM418.77 131.63c-.04.18-.12.35-.25.5-.32.34-.87.37-1.3.54-1.07.4-1.75 1.7-2.9 1.68a1.46 1.46 0 01-1.3-1.02c-.04.1-.06.2-.08.3a1.48 1.48 0 00.37 1.05 1.45 1.45 0 001 .5c1.14 0 1.84-1.28 2.9-1.69.43-.17.97-.2 1.3-.54a1.46 1.46 0 00.28-1.2c0-.05-.01-.08-.02-.12zM413.3 131.26c-.1-.8-1.07-1.12-1.57-1.76a2.41 2.41 0 01-.48-1.44c-.04.82-.03 1.65.48 2.27.5.61 1.26.88 1.5 1.51.07-.19.09-.38.07-.58zM411.27 126.67c.04-.99-.2-2.2-1.12-2.53-.27-.1-.57-.12-.84-.23-.72-.3-.95-1.2-1.43-1.83-.97-1.25-2.9-1.23-4.36-.63-.66.26-1.28.62-1.96.82a2.56 2.56 0 01-2.06-.15c-.29-.19-.52-.44-.82-.63-.99-.6-2.28 0-3.13.77-.85.77-1.54 1.8-2.62 2.27-.49.22-1.08.35-1.33.83-.12.26-.16.54-.14.82v.51c0-.17.05-.35.13-.5.25-.48.84-.61 1.33-.83 1.06-.48 1.75-1.49 2.62-2.27.87-.79 2.14-1.37 3.14-.77.29.17.52.44.81.62a2.53 2.53 0 002.06.15 20.1 20.1 0 001.96-.82c1.46-.6 3.38-.62 4.36.63.48.62.7 1.53 1.43 1.83.27.12.57.13.84.23.75.28 1.04 1.13 1.11 1.96z" opacity=".01"/><path d="M389.77 131.26a3.38 3.38 0 012.52-3.15c1.95-.48 4-.38 5.89.27 4.14 1.38-.53 6.34-.53 6.34s-3.1 3.07-6 .93a4.56 4.56 0 01-1.68-2.64 6.73 6.73 0 01-.2-1.75zM412.54 131.26a3.38 3.38 0 00-2.53-3.15 10.4 10.4 0 00-5.87.27c-4.15 1.38.52 6.34.52 6.34s3.1 3.07 6 .93a4.56 4.56 0 001.68-2.64c.15-.57.21-1.16.2-1.75z" opacity=".01"/><path d="M397.4 127.98v.2h7.56v-.24zM399.81 130.18h.24v-.7s.77-.6 2.04 0v.62h.44v-.4h-.21s.08-.85-1.34-.71c0 0-1.14-.11-1.12.62h-.26z" opacity=".01"/></g><g fill="#3f51b5" stroke-width="1.012"><path d="M389.77 130.98a3.38 3.38 0 012.52-3.15c1.95-.47 4-.38 5.89.27 4.14 1.38-.53 6.34-.53 6.34s-3.1 3.07-6 .93a4.53 4.53 0 01-1.68-2.64 6.74 6.74 0 01-.2-1.75zM412.54 130.98a3.38 3.38 0 00-2.53-3.15 10.45 10.45 0 00-5.87.27c-4.15 1.38.52 6.34.52 6.34s3.1 3.07 6 .93a4.54 4.54 0 001.68-2.64c.15-.57.21-1.16.2-1.75z"/><path d="M397.4 127.7v.21h7.56v-.25zM399.81 129.9h.24v-.7s.77-.6 2.04 0v.63h.44v-.41h-.21s.08-.85-1.34-.71c0 0-1.14-.11-1.12.61h-.26z"/></g><path fill="#535461" d="M53.75 200.74h-2.48v56.16h2.48z"/><path fill="#3f3d56" d="M69.33 256.73l-.16 2.53-.22 3.57-.09 1.49-.22 3.57-.1 1.49-.21 3.57-2.5 40.6A6.9 6.9 0 0159 320H46a6.8 6.8 0 01-6.82-6.45l-2.51-40.6-.22-3.57-.1-1.49-.2-3.58-.1-1.49-.22-3.57-.15-2.53a3.58 3.58 0 012.13-3.49c.44-.19.92-.29 1.4-.29H65.8a3.52 3.52 0 013.33 2.36c.16.46.23.94.2 1.43z"/><g fill="#9d9cb5" stroke-width="1.012"><path d="M69.17 259.25l-.22 3.57h-32.9l-.21-3.57zM68.86 264.31l-.22 3.57H36.37l-.22-3.57zM68.55 269.38l-.22 3.57H36.68l-.22-3.57z"/></g><path fill="#3f51b5" d="M32.05 221.79c14.44 10.5 20.46 26.95 20.46 26.95s-17.4-.6-31.86-11.11S.19 210.68.19 210.68s17.42.6 31.86 11.11z"/><path fill="none" stroke="#535461" stroke-miterlimit="10" stroke-width="2.024" d="M.21 210.68s18.07 10.1 23.86 18.44c5.79 8.34 28.44 19.62 28.44 19.62"/><path fill="#3f51b5" d="M41.37 200.64c7.86 5.7 11.14 14.66 11.14 14.66s-9.47-.32-17.33-6.04-11.13-14.67-11.13-14.67 9.47.3 17.32 6.05z"/><path fill="none" stroke="#535461" stroke-miterlimit="10" stroke-width="2.024" d="M24.05 194.57s9.82 5.49 12.98 10.03c3.15 4.55 15.48 10.68 15.48 10.68"/><path fill="#3f51b5" d="M63.93 214.83c-9.03 9.98-10.94 23.02-10.94 23.02s12.73-3.14 21.75-13.12c9.03-9.98 10.94-23.02 10.94-23.02s-12.73 3.14-21.75 13.12z"/><path fill="none" stroke="#535461" stroke-miterlimit="10" stroke-width="2.024" d="M85.68 201.71s-11.76 10.23-14.75 17.28C67.94 226.04 53 237.87 53 237.87"/></svg>
