<svg id="il_apple" xmlns="http://www.w3.org/2000/svg" fill="none" viewBox="0 0 162 140"><g stroke-width=".9"><path fill="#009239" d="M32.2 59S3 60.6.5 85.2c-2.5 24.5 5 31.9 5 31.9s.9.7 3.3.2L6 112.2s6.8-10.3 19.4-8.4l-.1 1.4c-.1.9 1 20 1 20h90.5S89 60.6 51.8 59.7z"/><path fill="#fff" d="M42.3 71c9.8 0 10.8-7.8 10.8-11.3h-1.4L32.2 59 31 59C31 62 31.5 71 42.3 71zM8.8 117.3L6 112.2s6.8-10.3 19.4-8.4l-.8-2.3S8.9 98.3 3 113.1c1.3 2.9 2.5 4 2.5 4s.8.7 3.2.2z"/><path fill="#288b4c" d="M25.4 103.8s-3.5-8.9-2.7-12.5c0 0 3.4 13.3 5.3 15.9 2 2.6-2.4.2-2.6-3.4zM71.7 101.1s-1.2-9.5-3.5-12.3a90 90 0 002.8 16.6c-.5 3.3 2.2-1 .7-4.3z" style="mix-blend-mode:multiply"/><path fill="#f9cfd2" d="M33.6 56.8L32.2 59s-1 11.2 11.6 10.1c11-.9 7.1-12.5 7.1-12.5s-17.3.5-17.3.2z"/><path fill="#288b4c" d="M5.6 117s.8.8 3.2.3L6 112.2c-.7 1-1 3-.7 4.6l.3.3z" style="mix-blend-mode:multiply"/><path fill="#288b4c" d="M5.6 117s.8.8 3.2.3L6 112.2c-.7 1-1 3-.7 4.6l.3.3z" style="mix-blend-mode:multiply"/><path fill="#f6ada0" d="M51 57l-1-.4c-3.6 0-16.4.5-16.4.2L32.2 59s-1 10.9 11.2 10.1c-4.7-.5-9-4-2.7-3.7 6.4.4 10-7.3 10.4-8.3z"/><path fill="#f9cfd2" d="M42.5 59c11.6 0 21-10.7 21-24 0-13.4-9.4-24.2-21-24.2-11.7 0-21.1 10.8-21.1 24.2 0 13.3 9.4 24 21 24z"/><path fill="#f6ada0" d="M41 13S32 29.2 23 32.4c-.5-.2-1-.3-1.5-.2l.4-1.7z"/><path fill="#ef7d00" d="M41 13S25.7 35 17.3 30.8c-8.4-4.2 13.1-38 21-27 0 0 10.4-11.3 25 5C77.6 25 66.5 50.8 41 13z"/></g><g fill="#f9cfd2" stroke-width=".9"><path d="M21.8 42.4c2.4 0 4.4-2.3 4.4-5.1 0-2.9-2-5.1-4.4-5.1-2.4 0-4.4 2.2-4.4 5 0 2.9 2 5.2 4.4 5.2zM63.5 42.4c2.4 0 4.3-2.3 4.3-5.1 0-2.9-2-5.1-4.3-5.1-2.5 0-4.4 2.2-4.4 5 0 2.9 2 5.2 4.4 5.2zM6 112.2s2.4 13.3 21.4 13.3h56.9l-14.2-12.9s-30.9 1.7-37.7-2.5c-6.7-4.2-7-6.3-7-6.3s-11.7-3-19.4 8.4z"/></g><path fill="#f6ada0" d="M40.1 50.3S48 55 50.3 46c0 0-3.6 4-10.2 4.2z"/><path stroke="#f6ada0" stroke-linecap="round" stroke-miterlimit="10" stroke-width="1.4" d="M22 35s-2.2.2-1.8 2.7c.5 2.4 2.6 1.5 2.6 1.5M63.6 35.2c.1 0 2.1-.7 1.8 2.1-.3 2.8-1.5 2-1.5 2"/><g stroke-width=".9"><path fill="#4a368c" d="M35.7 36.5c.7 0 1.3-.7 1.3-1.7s-.6-1.7-1.3-1.7c-.7 0-1.3.7-1.3 1.7s.6 1.7 1.3 1.7zM50.7 36c.7 0 1.3-.7 1.3-1.6 0-.9-.6-1.6-1.3-1.6s-1.3.7-1.3 1.6c0 1 .6 1.6 1.3 1.6z"/><path stroke="#f6ada0" stroke-linecap="round" stroke-miterlimit="10" d="M43.3 33s0 5.5-.8 7c-.8 1.6-.6 2.5 1.3 2.6"/><path fill="#ef7d00" d="M44.8 10.7c-1.8-5-1.5-8-.7-10.2C42 1 40 2.2 38.2 3.8c-7.9-11-29.4 22.8-21 27C25.6 35 41 13 41 13 48.8 24.5 55.3 30 60 31.9a49.8 49.8 0 01-15.3-21.2z" opacity=".5" style="mix-blend-mode:multiply"/></g><g fill="#f6ada0" stroke-width=".9"><path d="M61 41.5c.4.7.8 1.2 1.3 1.7l.3-1c-.9-.3-1.5-.7-1.5-.7zM22.7 43.4c.5-.5.9-1.2 1.1-1.9a3 3 0 01-1.4.8c0 .4.2.8.3 1.1zM6 112.2a14.4 14.4 0 002.4 5c2-12.9 17-13.2 17-13.2v-.2s-11.7-3-19.4 8.4z"/></g><g stroke-width=".9"><path fill="#eb5d53" d="M31.4 28.5l.2-.1.8-.4 1-.4 1.3-.3.6-.2h.6l.6-.1H38.2l.6.3a.9.9 0 010 1.2c-.2.2-.4.3-.7.3H38l-1-.1H35l-1.1.2-1 .3-.7.3H32c-.1.2-.3.2-.4.1a.6.6 0 01-.4-.3V29c0-.2.1-.3.3-.4zM47.8 27.1h1.1l1 .1a11.5 11.5 0 012.5.6l.5.3.5.2.4.3.3.2.2.1.3.4-.1.4c-.1.2-.2.3-.4.3h-.4l-.3-.2-.2-.2-.3-.1-.4-.2-.5-.1a7.3 7.3 0 00-2.2-.4H48c-.2.1-.5 0-.6-.1a1 1 0 01-.2-1.3c.1-.1.3-.3.6-.3z"/><path fill="#f6ada0" d="M31 46.4c1.3 0 2.4-1.2 2.4-2.6 0-1.5-1-2.7-2.5-2.7a2.6 2.6 0 00-2.5 2.7c0 1.4 1.1 2.6 2.5 2.6zM55.6 46.4c1.4 0 2.6-1.2 2.6-2.6 0-1.5-1.2-2.7-2.6-2.7s-2.5 1.2-2.5 2.7c0 1.4 1.1 2.6 2.5 2.6z"/></g><g stroke="#288b4c" stroke-miterlimit="10"><path d="M22.8 92.1S19.6 70 8.2 69M68.4 89.2S60.6 71 64.2 62.3M9.6 69.1s9.7-8 21.3-8.7M53 60.7s7.9.8 10.8 2.8M1.8 109.3S7.3 96 23.9 99.1" opacity=".7" style="mix-blend-mode:multiply"/></g><path fill="#000" fill-opacity=".1" d="M159 133.3s-112 10.4-120 5.3c-4.2-2.8-28.7-14-28.7-14s-2.9-.5 6.3-.5 14.4-.6 21.9-.2c7.4.4 120.2 9.2 120.2 9.2z" style="mix-blend-mode:multiply"/><g fill="#deeaf8" stroke-width=".9"><path d="M95.2 120.5l-67.3.7c-.5-.2-1.1.2-1.4 1-.3.8 0 1.5.4 1.7l32.6 12.5 11.3-.4s44.7-6.3 46-6.3c1.4 0-21.6-9.2-21.6-9.2z"/><path d="M53.6 121l-25.8.2c-.5-.2-1.2.3-1.4 1 8 2.8 31.6 10.7 36.5 9.9 6-1 48.6-3.6 48.6-3.6s-32-5.4-58-7.6z" style="mix-blend-mode:multiply"/><path d="M42.8 124.3s15 4.7 17.5 4.7c2.6 0 28.8-1.4 28.8-1.4l-5.9-4.7s-43.1.3-40.4 1.4z" style="mix-blend-mode:multiply"/><path d="M64.4 120.8l-36.5.4c-.5-.2-1.1.2-1.4 1-.2.7 0 1.4.3 1.6 0-.3 0-1.6 1.8-1.6l35.2 1z" style="mix-blend-mode:multiply"/></g><g stroke="#deeaf8" stroke-linecap="round" stroke-miterlimit="10" stroke-width=".3"><path d="M44.6 124.6l25-1.2M47.6 125.3l25-1.2M50 126l25-1.1M53.2 126.8l25-1.2M57 127.6l25-1.2M47.9 124l13.9 3.5M50.8 123.8l9 2.4M56 124l9 2.4"/></g><g stroke-width=".9"><path fill="#dae9f9" d="M151.7 125.2c-1.2 7-4.1 8.5-6.5 8.5l-80.4 3.6c-2.4 0-4-2.5-3.5-5.6L74.6 64c.4-3 3.5-5.4 5.9-5.4h78c2.3 0 3.9 2.5 3.4 5.5z"/><path fill="#deeaf8" d="M62.1 132.1l13.3-67.7c.5-3 3.5-5.4 5.9-5.4h78l.9.1a3 3 0 00-1.8-.5h-78c-2.3 0-5.4 2.4-5.8 5.4l-13.3 67.7c-.4 2.7.7 4.9 2.5 5.5-1.3-1-2-2.9-1.7-5z" style="mix-blend-mode:multiply"/><path fill="#e6ecf8" d="M121.8 102.4s-.3 3.8-3.8 4.8c-.5 0-.9 0-1.2-.3-.5-.4-1.4-.2-2 0a2 2 0 01-2 0 4.9 4.9 0 01-1.6-2.4s2.8 0 3.2-2.7c.3-2.7-1.7-2.5-1.7-2.5 1-1 1.6-2.1 1.9-3.4.4-2 1.5-3.4 2.6-2.7 1 .6.8-.2 1.7-.2 1 0 1.4 1 1.3 2.1 0 1.2 0 2.7.8 3.9.7 1 1 2.2.7 3.4zM118 92.8s.3-2.8-2.2-3.5c0 0-1 3.2 2.1 3.5z" opacity=".7" style="mix-blend-mode:multiply"/><path fill="#deeaf8" d="M151 128.2c-56-7.9-67.5-48.7-69.7-69.6h-.8c-2.4 0-5.5 2.4-6 5.5l-13.2 67.6c-.5 3.1 1 5.6 3.5 5.6l80.4-3.5c2 0 4.3-1.2 5.7-5.6z" opacity=".5" style="mix-blend-mode:multiply"/></g></svg>
