<svg id="il_ege" xmlns="http://www.w3.org/2000/svg" viewBox="0 0 390 390"><defs><filter id="a" width="73.94" height="108.96" x="33" y="254" color-interpolation-filters="sRGB" filterUnits="userSpaceOnUse"><feFlood flood-opacity="0" result="BackgroundImageFix"/><feColorMatrix in="SourceAlpha" values="0 0 0 0 0 0 0 0 0 0 0 0 0 0 0 0 0 0 127 0"/><feOffset dy="4"/><feGaussianBlur stdDeviation="2"/><feColorMatrix values="0 0 0 0 0 0 0 0 0 0 0 0 0 0 0 0 0 0 0.25 0"/><feBlend in2="BackgroundImageFix" result="effect1_dropShadow"/><feBlend in="SourceGraphic" in2="effect1_dropShadow" result="shape"/></filter></defs><g stroke-width=".99"><path fill="#e0a337" d="M329.9 30.089H52.61a8.005 8.005 0 00-8.001 8.004v180.37c0 4.418 3.584 8.004 8.001 8.004H329.9c4.417 0 8.002-3.586 8.002-8.004V38.093a8.005 8.005 0 00-8.002-8.004z"/><path fill="#3d604f" d="M325.47 42.527H57.04v171.51h268.43z"/><path fill="#ededed" d="M160.47 98.328c.437-.306 1.004-.459 1.703-.459 1.005 0 2.01.328 3.014.983.48 0 .873.197 1.18.59.305.394.458.875.458 1.443 0 .743-.219 1.398-.655 1.967-.437.568-1.049.852-1.835.852-.568 0-1.179-.175-1.834-.525-.35.35-.808.525-1.376.525-.611 0-1.245-.219-1.9-.656-.437.219-1.092.328-1.965.328-1.267 0-2.25-.197-2.948-.59a4.748 4.748 0 01-2.031.459 5.141 5.141 0 01-1.638-.262 4.553 4.553 0 01-1.638.327c-.699 0-1.398-.196-2.096-.59-.786.437-1.485.7-2.097.787.306.743.459 1.552.459 2.426 0 1.093-.24 1.967-.72 2.622.523.83.785 1.749.785 2.754 0 .787-.196 1.573-.59 2.36.394.437.59.984.59 1.64 0 .436-.152.96-.458 1.573.393-.219.873-.328 1.441-.328.437 0 .743.044.917.131.48-.35 1.005-.525 1.573-.525s1.135.24 1.703.722c.524-.131.96-.197 1.31-.197.219 0 .59.044 1.114.131.524-.087.895-.131 1.114-.131.742 0 1.288.175 1.637.524.35-.218.743-.327 1.18-.327.524 0 .851.109.982.327.393-.13.7-.196.917-.196.306 0 .721.087 1.245.262.568-.306 1.114-.459 1.638-.459.743 0 1.376.284 1.9.852.524.525.786 1.115.786 1.77 0 .569-.196 1.05-.59 1.443-.393.393-1.004.612-1.834.656-.393.524-1.048.786-1.965.786-.83 0-1.573-.218-2.228-.655-.436.437-1.07.655-1.9.655-.742 0-1.354-.175-1.834-.524-.35.262-.72.393-1.114.393a.889.889 0 01-.655-.262c-.48.437-1.135.656-1.965.656-.612 0-1.18-.132-1.704-.394-.436.219-.808.328-1.113.328-.437 0-.874-.153-1.31-.459-.306.175-.547.284-.721.328-.175.044-.415.044-.72 0 .392.787.589 1.398.589 1.836 0 .393-.131.852-.393 1.376.305.35.458.787.458 1.312 0 .393-.109.808-.327 1.245.305.35.458.809.458 1.377 0 .525-.153.962-.458 1.311.262.525.393.94.393 1.246 0 .262-.175.7-.524 1.311.174.175.262.415.262.721 0 .394-.131.656-.393.787.436.393.655.896.655 1.508 0 .219-.044.59-.131 1.115l.393-.066c.48 0 .983.218 1.507.656.655-.481 1.506-.722 2.555-.722.393 0 .808.044 1.244.131.262-.305.634-.546 1.114-.72a4.565 4.565 0 011.572-.263c.918 0 1.616.197 2.097.59.262-.437.72-.787 1.376-1.049a5.254 5.254 0 011.965-.393c.48 0 .874.065 1.18.196.48-.262.916-.393 1.31-.393.698 0 1.31.284 1.834.852.524.569.786 1.224.786 1.967 0 .918-.415 1.64-1.245 2.164-.174.35-.524.655-1.048.917a4.382 4.382 0 01-1.703.328c-.612 0-1.092-.109-1.441-.328-.35.35-.808.656-1.376.918a4.713 4.713 0 01-1.704.328c-.873 0-1.55-.24-2.03-.721-.743.787-1.704 1.18-2.883 1.18-.218 0-.59-.044-1.114-.131-.873.524-1.725.787-2.555.787-.655 0-1.223-.175-1.703-.525-.48.743-1.18 1.115-2.096 1.115-.787 0-1.485-.306-2.097-.918-.568-.612-.764-1.333-.59-2.164-.262-.262-.458-.655-.59-1.18a6.47 6.47 0 01-.196-1.573c0-.394.022-.678.066-.853-.568-.568-.852-1.53-.852-2.884 0-.568.066-1.093.197-1.574.13-.524.284-.896.458-1.114a3.041 3.041 0 01-.327-1.377c0-.219.043-.503.13-.852-.392-.394-.589-.918-.589-1.574 0-.612.153-1.093.459-1.442-.219-.437-.328-.83-.328-1.18 0-.481.153-.94.459-1.377-.35-.787-.524-1.552-.524-2.295 0-.917.284-1.792.851-2.622-.262-.568-.502-1.268-.72-2.098a11.48 11.48 0 01-.262-2.36c0-1.399.327-2.36.982-2.885-.218-.961-.327-1.464-.327-1.508-.262-1.049-.393-1.792-.393-2.229 0-.656.153-1.442.458-2.36-.218-.306-.393-.809-.524-1.508-.13-.7-.175-1.202-.13-1.508a2.591 2.591 0 01-.787-1.901c0-.568.175-1.093.524-1.574a2.806 2.806 0 011.507-1.049c.306-.306.72-.546 1.245-.72a4.214 4.214 0 011.637-.329c.743 0 1.376.197 1.9.59a7.855 7.855 0 012.228-.327c1.048 0 1.9.24 2.555.72.393-.174.851-.261 1.376-.261.48 0 .851.109 1.113.327.262-.218.896-.327 1.9-.327 1.31 0 2.337.218 3.08.655.48-.48 1.07-.721 1.768-.721.437 0 .94.11 1.507.328zm17.283 42.942c.044.7-.284 1.333-.983 1.901-.655.568-1.354.853-2.096.853-.612 0-1.114-.197-1.507-.59-.35-.438-.502-1.093-.458-1.967-.35-.568-.525-1.42-.525-2.557s.153-1.967.459-2.491a2.069 2.069 0 01-.328-1.115c0-.524.175-1.027.525-1.508-.219-.437-.328-.983-.328-1.639 0-.48.065-.918.197-1.311s.327-.678.59-.852a7.241 7.241 0 01-.394-2.295c0-.568.087-1.005.262-1.311-.262-.525-.393-1.399-.393-2.623 0-1.136.087-1.9.262-2.294-.437-.437-.655-1.071-.655-1.901 0-.875.218-1.64.655-2.295-.175-.306-.262-.678-.262-1.115 0-.524.11-.94.328-1.245-.262-.394-.393-.853-.393-1.377 0-.306.065-.59.196-.852-.35-.569-.524-1.115-.524-1.64 0-.568.175-1.092.524-1.573-.35-.787-.524-1.88-.524-3.278 0-1.66.284-2.863.852-3.606-.262-.48-.393-.94-.393-1.377 0-.612.196-1.07.59-1.376.13-.656.48-1.137 1.047-1.443a3.94 3.94 0 011.9-.459c.437 0 .83.066 1.18.197.349.131.567.284.655.459.611-.437 1.485-.656 2.62-.656 1.092 0 1.813.24 2.162.722.568-.481 1.18-.722 1.834-.722.787 0 1.463.328 2.031.984.175-.088.437-.131.786-.131.612-.787 1.376-1.18 2.293-1.18.394 0 .808.109 1.245.327a2.31 2.31 0 011.31-.393c.48 0 .896.153 1.245.459.874 0 1.529.262 1.966.787.436.48.655 1.07.655 1.77a3.42 3.42 0 01-.655 2.032c-.437.568-1.027.852-1.77.852-.305 0-.72-.109-1.244-.327-.437.262-.939.393-1.507.393-.262 0-.458-.022-.59-.066-.349.306-.916.547-1.703.722a9.69 9.69 0 01-2.227.262c-.83 0-1.42-.11-1.769-.328a2.65 2.65 0 01-1.31.328c-.786 0-1.616-.284-2.49-.852-.349.218-.808.35-1.375.393h-1.18a2.922 2.922 0 01-.262.721c-.13.262-.284.46-.458.59.043.131.065.35.065.656 0 .393-.065.765-.196 1.114.48.962.72 1.88.72 2.754 0 .393-.065.765-.196 1.114.262.437.393.94.393 1.508 0 .35-.066.7-.197 1.05.219.436.328.917.328 1.442s-.131 1.027-.393 1.507c.218.525.327.94.327 1.246 0 .525-.283 1.071-.851 1.64.699.655 1.048 1.267 1.048 1.835 0 .437-.262.983-.786 1.639.35.7.524 1.267.524 1.704 0 .35-.066.765-.197 1.246.175.481.262.984.262 1.508 0 .525-.087 1.05-.262 1.574.044.218.066.611.066 1.18 0 1.049-.197 1.857-.59 2.425.262.525.393 1.028.393 1.508 0 .481-.109.94-.327 1.377.218.437.327.83.327 1.18s-.109.743-.327 1.18c.043.132.065.35.065.656 0 .262-.065.568-.196.918.13.262.196.612.196 1.049 0 .48-.087.808-.262.983zm59.734-17.111c.218.568.328 1.158.328 1.77 0 .525-.088 1.027-.262 1.508-.175.437-.415.743-.721.918.087.48-.022 1.114-.328 1.901-.262.743-.567 1.29-.917 1.64.131.83-.11 1.595-.72 2.294-.568.655-1.202 1.027-1.9 1.114-.088.743-.59 1.574-1.507 2.492-.874.874-1.704 1.486-2.49 1.835-.13.525-.633 1.071-1.507 1.64-.83.568-1.637.852-2.424.852-.13 0-.37-.044-.72-.131-.393.611-1.092 1.158-2.097 1.639a7.648 7.648 0 01-3.079.655c-1.354 0-2.402-.35-3.144-1.049l-.786.066c-.874 0-1.791-.131-2.752-.394-.917-.262-1.681-.633-2.293-1.114-.655-.219-1.332-.721-2.03-1.508-.656-.787-.962-1.442-.918-1.967-.568-.13-1.092-.568-1.572-1.311-.437-.743-.677-1.333-.72-1.77a1.951 1.951 0 01-.263-.984c0-.612.24-1.114.72-1.508.481-.437 1.027-.655 1.638-.655.961 0 1.682.502 2.162 1.508.568.13 1.092.568 1.573 1.311.48.743.655 1.42.524 2.032 1.31.219 2.424.787 3.34 1.705.35-.131.809-.197 1.377-.197.611 0 1.223.088 1.834.263.612.174 1.048.393 1.31.655.35-.524 1.114-1.005 2.293-1.442 1.223-.481 2.315-.721 3.276-.721.393-1.137 1.376-2.055 2.948-2.754.087-.743.415-1.42.983-2.032a5.745 5.745 0 012.03-1.508c.044-.568.154-1.027.328-1.377.175-.35.48-.678.917-.983-.087-.35-.13-.612-.13-.787 0-.787.327-1.508.982-2.164-.175-.306-.262-.72-.262-1.245 0-.656.153-1.268.459-1.836a1.374 1.374 0 01-.721.197c-.437 0-.786-.132-1.048-.394-.437.35-1.027.525-1.769.525-.611 0-1.092-.153-1.441-.46-.437.176-.786.263-1.049.263-.218 0-.458-.066-.72-.197-.393.35-.852.525-1.376.525-.306 0-.655-.066-1.048-.197-.48.35-1.18.525-2.097.525-.83 0-1.463-.153-1.9-.46a2.025 2.025 0 01-.917.197c-.393 0-.808-.109-1.244-.327-.437.262-.874.393-1.31.393-.656 0-1.202-.262-1.638-.787a3.044 3.044 0 01-.656-1.901c0-.612.175-1.136.524-1.574.394-.48.961-.743 1.704-.786a2.31 2.31 0 011.31-.394c.437 0 .874.11 1.31.328.35-.175.721-.262 1.114-.262.655 0 1.245.197 1.769.59.393-.393.96-.59 1.703-.59.393 0 .743.065 1.048.197.48-.306 1.092-.46 1.835-.46.35 0 .611.022.786.066.48-.306.939-.459 1.376-.459.524 0 .96.153 1.31.46.611-.176 1.398-.22 2.358-.132.088-.262.175-.459.263-.59-.306-.48-.503-1.18-.59-2.098-.743-.306-1.289-.961-1.638-1.967-.35-1.005-.459-1.967-.327-2.884-.394-.306-.765-.787-1.114-1.443-.306-.7-.437-1.29-.393-1.77a1.806 1.806 0 01-.72-.787c-.612.044-1.42-.196-2.425-.72-.96-.57-1.616-1.115-1.965-1.64a1.703 1.703 0 01-.524.066c-.612 0-1.158-.131-1.638-.394-.393.263-.852.394-1.376.394a2.297 2.297 0 01-1.834-.853c-.306.394-.721.678-1.245.853-.48.174-1.158.35-2.031.524-.786.175-1.354.328-1.703.46-.393 1.485-1.595 2.556-3.604 3.212-.174.611-.546 1.289-1.113 2.032-.524.743-.983 1.158-1.376 1.246.087.48.044.918-.131 1.31-.131.35-.415.7-.852 1.05-.437.393-.939.59-1.507.59-.698 0-1.31-.24-1.834-.721-.524-.525-.786-1.137-.786-1.836 0-.393.087-.743.262-1.049-.044-.612.175-1.29.655-2.032.48-.787 1.005-1.268 1.572-1.443a2.31 2.31 0 01.655-1.245c.35-.35.765-.59 1.245-.722.437-1.267 1.027-2.229 1.769-2.884.742-.7 1.9-1.399 3.472-2.098.437-.612 1.31-1.18 2.62-1.705 1.355-.568 2.643-.852 3.866-.852.83 0 1.529.153 2.096.459.35-.131.7-.197 1.049-.197.83 0 1.463.284 1.9.853a7.301 7.301 0 011.768-.197c1.747 0 2.686.743 2.817 2.229.262.087.48.218.655.393.918.088 1.704.306 2.359.656.655.35 1.026.808 1.114 1.377a2.79 2.79 0 011.244.983c.35.437.524.94.524 1.508 0 .131-.043.371-.13.721.698.219 1.2.612 1.506 1.18.35.525.524 1.115.524 1.77 0 .656-.13 1.224-.393 1.705.524.131.917.437 1.18.918.305.48.458.983.458 1.508 0 .175-.044.393-.13.655.742.83 1.113 1.705 1.113 2.623 0 .524-.11.983-.328 1.377.219.393.328.917.328 1.573 0 .656-.11 1.268-.328 1.836.393.568.59 1.158.59 1.77 0 .393-.087.743-.262 1.049z"/><path fill="#f2b2a4" d="M166.98 176.55s-3.86-10.099-3.552-12.981c.308-2.88 6.95-15.837 9.587-19.398 2.638-3.56-7.904.349-9.918 4.143-2.015 3.796-11.803 3.286-17.353-7.242-3.965-6.645-7.58-14.275-8.957-13.062-1.374 1.214 3.197 10.942 5.008 15.554 1.813 4.613-6.949-7.996-9.012-12.131-2.062-4.135-4.45-3.997-4.329-1.335.123 2.662 7.217 15.133 9.119 17.642-2.006-.55-8.803-11.55-10.477-13.33-1.675-1.78-2.476.713-1.174 3.197 1.304 2.485 5.64 9.922 7.873 12.73-2.12-.202-6.853-7.064-8.487-8.4-1.634-1.336 1.723 8.214 5.437 12.341 3.713 4.128 13.85 11.548 16.479 13.83 2.629 2.282 6.763 13.2 6.763 13.2z"/><path fill="#fbfffb" d="M248.74 207.37c-27.643 15.271-51.275 30.865-53.216 28.276-4.522-6.029-27.838-65.948-27.838-65.948l-20.161 5.762s20.953 69.014 33.251 83.063c9.06 10.36 60.918-18.233 60.918-18.233-.033-8.74 4.668-23.056 8.6-33.56-1.011.406-1.553.64-1.553.64z"/><path fill="#a0d3d5" d="M241.64 242.42a36.73 36.73 0 00.04-2.129s-.023.737-.04 2.129z"/><path fill="#0e9b4a" d="M347.57 239.4c-2.306-23.331-10.372-36.587-36.001-42.349-22.539-5.066-54.009 6.757-61.282 9.686-3.924 10.505-8.624 24.813-8.6 33.56 0 .721-.016 1.433-.04 2.129-.089 6.102-.073 24.747 2.564 48.483 1.683 15.15-11.286 58.923-11.286 58.923h97.381c-.008 0 19.57-87.101 17.265-110.43z"/><path fill="#182236" d="M285.44 117.89s-7.589-.704-14.781 15.805c-7.191 16.51-11.099 51.672-12.378 63.301-1.278 11.629 3.86 12.519 16.229 16.412 12.361 3.892 28.752 10.447 34.852 17.326 6.1 6.871 21.819-24.562 26.616-53.468 4.79-28.908-4.628-46.04-20.063-53.825-15.436-7.785-30.475-5.552-30.475-5.552z"/><path fill="#423c63" d="M286.27 196.37s-14.238 27.2-18.121 58.276c-3.883 31.084-7.12 95.186-7.12 95.186h-31.72s7.766-31.084 8.413-48.564c.648-17.48-1.804-54.059-1.804-54.059s-46.097 23.623-54.511 19.738c-8.414-3.884-33.898-79-33.898-79l25.557-9.825s21.14 53.979 25.023 54.626c3.883.646 42.23-29.911 53.232-31.854 11.003-1.934 34.949-4.524 34.949-4.524z"/><path fill="#393558" d="M229.31 349.83h14.376c2.257-14.486 6.327-44.72 5.485-70.358-1.148-35.146-9.789-48.402-9.789-48.402s-34.561 34.572-48.386 23.048c-7.807-6.506-15.978-26.414-21.609-42.518-3.689-10.545-11.593-19.074-21.795-23.623l-.073-.032s25.484 75.116 33.898 79c8.414 3.885 54.511-19.738 54.511-19.738s2.452 36.571 1.805 54.06c-.656 17.48-8.422 48.563-8.422 48.563z"/><path fill="#555078" d="M264.55 293.68c1.068-14.283 2.298-28.543 3.616-39.031 3.884-31.084 18.122-58.276 18.122-58.276s-8.778.948-18.146 2.129l-22.903 16.04 14.205 10.335-13.882 6.781z"/><path fill="#393558" d="M314.76 197.02s-8.413 5.827-12.944 37.559c-4.53 31.731-5.178 115.26-5.178 115.26h46.606s-1.294-30.436 1.295-72.527c2.589-42.09 5.178-55.039-1.295-66.044-6.48-11.006-28.485-14.244-28.485-14.244z"/><path fill="#555078" d="M326.6 238.76l-8.398-8.077 19.376-4.2-12.62-27.005c-5.607-1.789-10.21-2.468-10.21-2.468s-8.413 5.827-12.945 37.559c-1.294 9.079-2.273 22.408-3.01 36.797z"/><path fill="#fbfffb" d="M309.17 193.21s-1.934 16.477-15.177 23.258c0 0 12.92 13.887 14.206 13.571 1.294-.323 10.007-10.334 10.007-23.258s-9.036-13.571-9.036-13.571z"/><path fill="#e09b8c" d="M288.82 178.61s-1.44 21.607.866 27.944c2.305 6.337 3.171 10.375 6.625 10.375 3.455 0 12.961-6.053 12.961-14.979 0-8.934-.574-23.914-.574-23.914z"/><path fill="#fbfffb" d="M288.41 193.33s1.7 15.061 5.575 23.137l-23.251 6.782c.008 0 1.852-27.337 17.677-29.92z"/><path fill="#fbfbfb" d="M325.97 268.71s-51.809-23.533-55.587-24.318c-3.787-.785-30.937 5.81-39.44 22.068 0 0-12.345-3.884-26.252.987-13.908 4.873-16.415 10.011-16.415 10.011l.307 2.299 68.378 19.738s3.988-9.695 25.136-10.829c0 0 5.703-6.579 18.349-11.71 12.645-5.139 25.087-4.257 25.087-4.257z"/><path fill="#d73330" d="M328.68 272.17l-59.705-24.125s-15.663 3.852-24.157 11.16c-8.494 7.315-8.665 10.043-8.665 10.043l-5.144 1.958s-12.54-2.338-25.21.421c-12.677 2.76-18.866 9.76-18.866 9.76l68.224 23.655s10.647-8.181 20.516-11.394c9.878-3.214 11.343-3.302 11.343-3.302l4.458-1.182s4.522-6.563 12.855-9.963c8.332-3.398 24.35-7.031 24.35-7.031z"/><path fill="#e04c48" d="M328.68 272.17l-59.705-24.125s-15.663 3.852-24.157 11.16c-8.495 7.315-8.665 10.043-8.665 10.043l55.321 19.924s4.523-6.563 12.854-9.961c8.333-3.4 24.352-7.041 24.352-7.041z"/><path fill="#f2b2a4" d="M296.27 285.69s-10.573-2.242-12.823-4.063c-2.25-1.82-9.522-14.428-11.084-18.58-1.561-4.152-3.996 6.83-1.9 10.584 2.094 3.755-3.65 11.703-15.502 10.651-7.726-.275-16.099-1.383-15.824.437.275 1.812 10.922 3.253 15.776 4.232 4.854.98-10.477 1.498-15.072.987-4.595-.51-5.768 1.563-3.471 2.914 2.298 1.344 16.625 2.152 19.756 1.918-1.545 1.384-14.472 1.125-16.883 1.57-2.403.445-.745 2.468 2.047 2.727 2.791.26 11.39.648 14.959.3-1.32 1.667-9.653 1.918-11.658 2.565-2.006.648 7.84 3.01 13.308 2.129 5.477-.882 17.216-5.366 20.557-6.337 3.34-.971 14.748 1.48 14.748 1.48z"/><path fill="#fbfffb" d="M338.8 211.38s8.608 1.003 18.478 28.186c9.879 27.184 13.81 74.72 1.505 78.871-12.306 4.152-76.791-16.622-76.791-16.622l9.279-21.227 47.902 8.772s-7.565-31.966-9.312-52.068c-1.74-20.11 8.94-25.913 8.94-25.913z"/><path fill="#423c63" d="M322.53 230.68l11.649 55.686-28.485-3.885-7.12 29.79s58.905 17.48 70.554 9.063c11.65-8.416-14.238-93.244-18.768-103.6-4.53-10.359-23.3-18.775-25.896-16.832-2.58 1.942-1.934 29.781-1.934 29.781z"/><path fill="#393558" d="M350.37 217.73c-2.735-6.264-10.68-11.807-17.103-14.793 6.407 19.892 28.477 89.893 26.511 104.19-1.561 11.322-35.661-1.165-57.48-10.398l-3.713 15.538s58.904 17.48 70.553 9.063c11.65-8.416-14.238-93.244-18.768-103.6z"/><path fill="#f2b2a4" d="M267.25 133.65s-3.828 18.524-1.828 28.616c1.99 10.099 4.967 19.6 14.174 28.292 11.723 11.071 36.542-10.091 40.548-35.932 3.996-25.84-8.495-41.306-26.965-41.313-18.47-.008-24.424 15.158-25.928 20.337z"/><path fill="#eda798" d="M320.13 154.63c3.997-25.84-8.494-41.306-26.964-41.313-7.427 0-12.824 2.445-16.723 5.714 1.384 4.523 2.783 8.206 2.783 8.206s19.756 3.075 23.396 18.629c3.641 15.554 4.96 28.454-6.618 38.383-5.452 4.678-11.415 6.191-16.205 6.49 11.813 10.626 36.359-10.415 40.33-36.109z"/><path fill="#e1b3c2" d="M323.95 155.86s2.88-8.934 9.79-5.761c6.909 3.171 3.453 20.45-12.67 18.435z"/><path fill="#182236" d="M279.23 127.23s9.4 2.865 23.396 18.629c13.316 14.996 8.146 35.422-.64 45.465-8.777 10.051-13.51 24.108-13.914 34.281-.413 10.173 19.9 24.117 35.062 9.266 15.16-14.85 16.156-23.218 18.55-43.619 4.847-41.208-7.305-72.528-23.396-82.659-15.727-9.906-27.03-.567-27.03-.567s-5.606-4.208-16.794 3.618c-11.197 7.825-18.98 27.24-16.924 43.539 4.546 36.053-6.44 50.83-13.575 54.586-7.144 3.762 17.06 25.119 21.309-3.003 4.482-29.628-2.24-35.964.292-55.176 2.556-19.431 13.664-24.36 13.664-24.36z"/><path fill="#222f4c" d="M318.29 108.6c-4.571-2.873-8.754-4.127-12.41-4.451-3.544.753-6.222 2.476-5.575 5.989 1.651 8.934 16.205 11.249 22.822 31.432 6.618 20.183 7.605 34.41-1.327 51.616-8.105 15.61-19.472 40.762-5.201 46.273 2.225-1.036 4.425-2.525 6.529-4.58 15.16-14.85 16.156-23.219 18.55-43.62 4.854-41.208-7.297-72.527-23.388-82.659z"/><path fill="#a93341" d="M278.59 174.2l13.041.607c.146.008.195.226.072.357-1.536 1.69-5.703 6.975-10.42 4.515-2.596-1.36-2.896-4.62-2.896-5.245.008-.129.105-.242.202-.234z"/></g><path fill="#fbfffb" stroke-width=".99" d="M291.64 174.81l-12.596-.582c.081.793.324 2.006 1.125 2.443 1.1.607 6.949 1.158 9.668.535.809-.794 1.447-1.555 1.885-2.031.105-.139.064-.365-.082-.365zM269.36 165.81c-4.887-.64-8.333-5.139-7.694-10.027.64-4.888 5.137-8.335 10.023-7.696 4.887.64 8.333 5.14 7.694 10.027-.64 4.888-5.137 8.335-10.023 7.696zm2.257-17.092c-4.538-.599-8.713 2.606-9.312 7.145-.598 4.54 2.605 8.717 7.144 9.315 4.539.599 8.712-2.606 9.312-7.145.59-4.54-2.614-8.716-7.144-9.315zM292.86 166.34c-4.887-.639-8.333-5.139-7.694-10.027.64-4.887 5.137-8.335 10.023-7.695 4.887.638 8.333 5.138 7.694 10.027-.64 4.887-5.138 8.335-10.023 7.695zm2.248-17.092c-4.538-.599-8.712 2.607-9.31 7.146-.6 4.54 2.604 8.716 7.142 9.315 4.539.599 8.714-2.606 9.312-7.146.599-4.54-2.604-8.716-7.144-9.315z"/><path fill="#1c2744" stroke-width=".99" d="M274.25 156.9a2.236 2.236 0 01-2.515 1.926 2.237 2.237 0 01-1.926-2.517 2.236 2.236 0 012.515-1.925 2.242 2.242 0 011.926 2.516zM295.45 157.13a2.236 2.236 0 01-2.516 1.926 2.237 2.237 0 01-1.926-2.516 2.236 2.236 0 012.516-1.926 2.251 2.251 0 011.926 2.516zM264.84 149.26s2.152-7.162 6.877-7c4.725.153 4.062 3.794 4.062 3.794s-2.55-1.82-5.542-1.01c-2.994.809-5.397 4.216-5.397 4.216zM287.56 146.25s2.265-3.05 6.497-2.031c4.24 1.02 7.686 3.803 7.686 3.803s-2.396-5.154-8.285-6.304c-5.89-1.149-5.898 4.532-5.898 4.532z"/><g stroke-width=".99"><path fill="#fbfffb" d="M285.36 157.35a.423.423 0 01-.355-.202c-.01-.017-1.004-1.732-2.727-1.732-1.723 0-2.719 1.62-2.727 1.635a.404.404 0 01-.558.137.398.398 0 01-.138-.55c.049-.08 1.23-2.023 3.423-2.023 2.2 0 3.382 2.064 3.43 2.145a.41.41 0 01-.153.55.496.496 0 01-.195.04zM311 155.77l-8.48.9.085.805 8.48-.9z"/><path fill="none" stroke="#c5846c" stroke-linecap="round" stroke-linejoin="round" stroke-miterlimit="10" d="M282.33 159.08s-4.943 6.91-3.746 8.32c1.958 2.306 4.814 1.034 4.814 1.034"/><path fill="#fffaec" d="M181.11 336.67v-3.18c0-3.14 2.168-5.762 5.088-6.482v-.203h-59.13a6.672 6.672 0 00-6.674 6.677v3.18a6.671 6.671 0 006.674 6.676h59.13v-.201a6.65 6.65 0 01-5.088-6.467z"/><path fill="#eae6ed" d="M184.32 343.35h1.876v-.203a6.598 6.598 0 01-2.232-1.02c.072.43.194.835.356 1.223z"/><path fill="#f4e8c9" d="M123.12 340.88v-3.18a6.671 6.671 0 016.674-6.677h51.793a6.689 6.689 0 014.611-4.014v-.203h-59.13a6.672 6.672 0 00-6.674 6.678v3.18a6.669 6.669 0 002.856 5.47 5.774 5.774 0 01-.13-1.254z"/><path fill="#ca475d" d="M186.2 344.66h-59.131c-4.41 0-7.993-3.585-7.993-7.995v-3.18c0-4.41 3.584-7.996 7.993-7.996H186.2a1.31 1.31 0 110 2.622h-59.131a5.371 5.371 0 00-5.363 5.365v3.18a5.37 5.37 0 005.363 5.366H186.2c.728 0 1.31.59 1.31 1.31 0 .746-.59 1.328-1.31 1.328z"/><path fill="#fffaec" d="M175.42 317.4v-3.18c0-3.14 2.168-5.763 5.09-6.483v-.202h-59.132a6.672 6.672 0 00-6.674 6.676v3.181a6.672 6.672 0 006.674 6.676h59.131v-.202a6.642 6.642 0 01-5.089-6.466z"/><path fill="#eae6ed" d="M178.63 324.08h1.877v-.203a6.595 6.595 0 01-2.232-1.019c.08.43.201.834.355 1.222z"/><path fill="#f4e8c9" d="M117.43 321.62v-3.18a6.672 6.672 0 016.674-6.677h51.793a6.689 6.689 0 014.612-4.013v-.203h-59.13a6.672 6.672 0 00-6.675 6.677v3.18a6.668 6.668 0 002.857 5.47 5.82 5.82 0 01-.13-1.254z"/><path fill="#a0d3d5" d="M180.5 325.4h-59.13c-4.41 0-7.993-3.585-7.993-7.995v-3.181c0-4.41 3.584-7.996 7.993-7.996h59.13a1.31 1.31 0 110 2.622h-59.13a5.372 5.372 0 00-5.364 5.366v3.18a5.367 5.367 0 005.364 5.366h59.13c.729 0 1.311.59 1.311 1.31s-.582 1.328-1.311 1.328z"/><path fill="#8fc686" d="M102.23 12.447S96.179 5.754 104.195 0c0 0 7.63 7.032-1.965 12.447z"/><path fill="#e04c48" d="M88.068 15.028c2.16-5.649 6.739-5.317 10.129-4.103 2.322.834 4.838.049 6.27-1.966 2.087-2.93 5.654-5.82 10.654-2.412 7.646 5.212 7.93 20.612 2.096 24.634-3.398 2.339-5.938 2.185-7.419 1.691-.922-.307-1.893-.064-2.54.648-1.14 1.27-3.293 2.913-6.852 2.93-7.087.032-15.646-12.77-12.337-21.422z"/><path fill="#d73330" d="M88.068 15.028c.21-.55.453-1.028.704-1.473 1.456 5.746 7.443 21.122 29.4 16.8a6.46 6.46 0 01-.955.818c-3.398 2.338-5.938 2.185-7.419 1.69-.922-.307-1.893-.064-2.54.648-1.14 1.27-3.293 2.914-6.852 2.93-7.087.04-15.646-12.762-12.337-21.413z" opacity=".5"/><path fill="#fffaec" d="M181.11 298.64v-3.18c0-3.14 2.168-5.762 5.088-6.482v-.203h-59.13a6.671 6.671 0 00-6.674 6.676v3.181a6.671 6.671 0 006.674 6.676h59.13v-.202a6.648 6.648 0 01-5.088-6.466z"/><path fill="#eae6ed" d="M184.32 305.31h1.876v-.202a6.598 6.598 0 01-2.232-1.02c.072.43.194.834.356 1.222z"/><path fill="#f4e8c9" d="M123.12 302.84v-3.18a6.671 6.671 0 016.674-6.676h51.793a6.689 6.689 0 014.611-4.014v-.203h-59.13a6.671 6.671 0 00-6.674 6.677v3.18a6.667 6.667 0 002.856 5.47 5.768 5.768 0 01-.13-1.254z"/><path fill="#e1ad4e" d="M186.2 306.62h-59.131c-4.41 0-7.993-3.585-7.993-7.995v-3.181c0-4.41 3.584-7.996 7.993-7.996H186.2a1.31 1.31 0 010 2.623h-59.131a5.37 5.37 0 00-5.363 5.365v3.18a5.371 5.371 0 005.363 5.366H186.2c.728 0 1.31.59 1.31 1.31 0 .746-.59 1.328-1.31 1.328z"/><path fill="#e0a337" d="M359.47 352.97H23.04v35.43h336.43z"/><path fill="#eace8d" d="M369.88 344.66H12.63c-4.587 0-8.309 3.723-8.309 8.311 0 4.589 3.722 8.312 8.309 8.312h357.25c4.587 0 8.308-3.723 8.308-8.312 0-4.588-3.721-8.311-8.308-8.311z"/><path fill="#d73330" d="M147.03 240.45l-2.37-2.557a4.42 4.42 0 00-6.246-.234l-23.041 21.364 8.382 9.04 23.04-21.365a4.425 4.425 0 00.235-6.248z"/><path fill="#1c2744" d="M145.73 247.69l1.068-.987a4.425 4.425 0 00.234-6.249l-2.37-2.556a4.42 4.42 0 00-6.246-.235l-1.068.987z"/><path fill="#fff" d="M144.45 248.87l2.346-2.176c.008-.01.016-.017.016-.017l-8.373-9.04c-.008.008-.016.008-.024.017l-2.347 2.177zM141.82 246.1l-3.19-3.443-20.66 19.156 3.19 3.443z"/><path fill="#eace8d" d="M115.37 259.01l-3.988 12.107 12.37-3.06z"/><path fill="#1c2744" d="M113.28 265.39l-1.893 5.73 5.858-1.449z"/><path fill="#ffd54f" d="M341.04 57.256L317.377 3.278 281.27 19.115zm-28.639-41.232l6.982 15.926-17.628-11.257z"/><path fill="#ffd54f" d="M328.72 29.142c-3.86-.21-7.565-.64-11.099-1.23l1.772 4.038-8.398-5.357a108.703 108.703 0 01-25.37-9.388l-4.337 1.902 59.762 38.141z" opacity=".5"/><path fill="#e04c48" d="M52.382 177.65L.978 197.437a1.521 1.521 0 00-.874 1.975l13.737 35.72a6.316 6.316 0 008.155 3.626l51.76-19.925s-5.647 2.153-7.823-5.964z"/><path fill="#d73330" d="M13.138 233.31l.704 1.82a6.316 6.316 0 008.155 3.626l51.76-19.925s-5.598 2.13-7.79-5.858z"/><path fill="#fffaec" d="M60.133 179.29l-1.998.769a4.48 4.48 0 01-5.3-1.634l-.12.048 14.302 37.185a4.491 4.491 0 005.81 2.582l1.997-.769a4.493 4.493 0 002.581-5.81l-14.31-37.186-.122.049a4.502 4.502 0 01-2.84 4.766z"/><path fill="#eae6ed" d="M63.547 175.66l-.453-1.182-.121.048a4.521 4.521 0 01-.098 1.651c.243-.154.47-.323.672-.517z"/><path fill="#ebe9af" d="M76.806 214.74l-1.998.769a4.495 4.495 0 01-5.809-2.582l-12.532-32.565a4.505 4.505 0 01-3.64-1.926l-.122.049 14.303 37.186a4.49 4.49 0 005.809 2.58l1.998-.768a4.508 4.508 0 002.75-3.116 4.403 4.403 0 01-.76.373z"/><path fill="#a02a44" d="M63.919 174.16l14.303 37.186c1.068 2.768-.324 5.892-3.09 6.96l-1.999.768c-2.766 1.069-5.89-.323-6.957-3.091l-14.303-37.185a.876.876 0 01.51-1.141.88.88 0 011.14.51l14.303 37.185a3.606 3.606 0 004.668 2.071l1.999-.768a3.609 3.609 0 002.07-4.67L62.262 174.8a.876.876 0 01.51-1.142.872.872 0 011.148.502z"/><path fill="#fffaec" d="M9.579 203.21l7.385 19.199 11.409-4.39-7.385-19.2zM73.764 56.778l1.699-2.8c1.675-2.76 4.983-3.909 7.936-2.978l.106-.178-52.011-31.594a6.875 6.875 0 00-9.442 2.306l-1.699 2.8a6.873 6.873 0 002.306 9.444L74.67 65.38l.105-.178c-2.176-2.193-2.686-5.656-1.011-8.424z"/><path fill="#eae6ed" d="M73.021 64.369l1.65 1.004.106-.179a6.99 6.99 0 01-1.424-2.087 7.854 7.854 0 00-.332 1.262z"/><path fill="#f4e8c9" d="M20.507 29.498l1.699-2.8c1.966-3.245 6.197-4.273 9.441-2.307l45.555 27.677A6.889 6.889 0 0183.4 51l.105-.178-52.01-31.594a6.875 6.875 0 00-9.442 2.307l-1.699 2.8a6.844 6.844 0 00-.412 6.336c.153-.404.34-.793.566-1.173z"/><path fill="#423c63" d="M73.975 66.53L21.964 34.928c-3.875-2.355-5.113-7.42-2.759-11.297l1.7-2.8c2.353-3.877 7.418-5.115 11.293-2.76L84.21 49.673c.64.389.842 1.222.453 1.854a1.346 1.346 0 01-1.852.453L30.79 20.378c-2.604-1.578-6.002-.753-7.58 1.853l-1.699 2.8c-1.577 2.606-.752 6.005 1.853 7.583l52.01 31.602c.64.388.842 1.222.454 1.853a1.34 1.34 0 01-1.853.461z"/><path fill="#aae4ff" d="M49.785 157.65l2.589 2.137c1.812 1.489 4.49 1.237 5.978-.575l19.215-23.307-9.142-7.543L49.21 151.67c-1.489 1.813-1.238 4.492.574 5.981z"/><path fill="#1c2744" d="M50.101 150.6l-.89 1.076c-1.488 1.813-1.238 4.492.574 5.98l2.59 2.137c1.812 1.49 4.49 1.238 5.978-.575l.89-1.075z"/><path fill="#fff" d="M51.169 149.3l-1.958 2.38c-.008.008-.008.016-.016.024l9.142 7.534c.008-.008.008-.016.016-.016l1.958-2.38zM54.031 151.61l3.483 2.873 17.227-20.897-3.483-2.873z"/><path fill="#eace8d" d="M77.567 135.91l2.25-12.049-11.392 4.507z"/><path fill="#1c2744" d="M78.748 129.56l1.068-5.705-5.396 2.136z"/><path fill="#0e9b4a" d="M161.79 15.117l-24.497 24.505 32.037 32.047 24.497-24.505a2.043 2.043 0 000-2.881L164.67 15.117a2.04 2.04 0 00-2.88 0z"/><path fill="#fff" d="M141.32 35.586l-4.033 4.034 32.036 32.045 4.032-4.034zM162.64 22.854l-12.677 12.681c-.59.59-.542 1.61.121 2.266l5.97 5.972c.664.664 1.675.712 2.266.122l12.677-12.681c.59-.591.542-1.61-.121-2.266l-5.97-5.973c-.656-.655-1.675-.712-2.266-.121z"/></g><path fill="#ffe44c" stroke-width=".99" d="M141.32 41.265l-2.386 2.387c-.349.348-.39.874-.09 1.174l.55.55c.3.3.826.259 1.174-.089l2.386-2.387c.348-.348.389-.874.09-1.174l-.55-.55c-.3-.3-.827-.259-1.174.089zM147.5 47.447l-2.387 2.387c-.348.348-.388.874-.089 1.174l.55.55c.3.3.825.259 1.174-.089l2.386-2.387c.347-.348.388-.874.09-1.174l-.552-.55c-.298-.3-.825-.259-1.172.089zM153.68 53.638l-2.386 2.387c-.349.348-.388.874-.09 1.174l.55.55c.3.3.826.259 1.174-.089l2.386-2.387c.348-.348.39-.874.09-1.174l-.55-.55c-.3-.308-.825-.259-1.174.089zM159.87 59.821l-2.386 2.387c-.348.348-.388.874-.09 1.174l.551.55c.3.3.825.259 1.173-.089l2.387-2.387c.347-.348.388-.874.088-1.174l-.55-.55c-.308-.3-.825-.259-1.173.089zM166.05 66.004l-2.386 2.387c-.349.348-.39.874-.09 1.174l.55.55c.3.3.826.259 1.174-.089l2.386-2.387c.348-.348.39-.874.09-1.174l-.55-.55c-.3-.3-.826-.259-1.174.089z"/><g stroke-width=".99"><path fill="#fff" d="M217.15 42.592s24.205-10.48 51.881-18.67c-2.961 5.293-17.119 32.84-17.119 32.84z"/><path fill="#e3e3e3" d="M227.19 46.695l35.345-18.354-26.058 22.133-3.018 11.791z"/><path fill="#c6c6c6" d="M233.46 62.265l10.509-8.74-7.491-3.051z"/><path fill="#74a9ff" d="M124.42 206.93l-2.824-4.742-8.947 5.325 2.823 4.743a3.881 3.881 0 005.315 1.35l2.29-1.36a3.889 3.889 0 001.343-5.316z"/><path fill="#ffd54f" d="M98.925 174.24c-7.087 4.216-9.409 13.376-5.202 20.466a14.912 14.912 0 0010.477 7.113c4.854.867 7.476 4.144 8.462 5.698l8.924-5.31c-.89-1.61-2.516-5.477-.963-10.155a14.891 14.891 0 00-1.246-12.601c-4.206-7.097-13.365-9.428-20.452-5.211z"/><path fill="#fff" d="M113.24 189.04l-.906.008a.86.86 0 00-.776.486l-.3.615a.844.844 0 01-.76.485l-.93.017a.869.869 0 00-.737.436l-.462.81a.858.858 0 01-.792.437l-.68-.033a.863.863 0 00-.8.446l-.438.793a.536.536 0 01-.444.275l-.567.033c-.469.024-.68.598-.363.978 2.815 3.367 7.062 2.412 7.83 3.699l4.086 6.863 1.197-.713 1.197-.712s-3.252-5.47-4.085-6.862c-.769-1.295 2.104-4.572.485-8.65-.186-.463-.784-.551-1.035-.147l-.3.486c-.065.154-.226.25-.42.25z"/></g><path fill="#ecc934" stroke-width=".99" d="M97.298 170.99a3.362 3.362 0 01-.85-.51 4.823 4.823 0 01-.647-.631c-.396-.437-.517-1.044-.752-1.579a35.563 35.563 0 01-.688-1.618c-.202-.55-.428-1.093-.623-1.659-.016-.04.008-.09.049-.097.032-.008.065 0 .08.025.405.437.77.89 1.158 1.335.372.453.736.915 1.092 1.375.356.461.825.858 1.027 1.417.106.275.195.558.243.865.057.308.081.624.04.988-.008.056-.056.089-.113.089h-.016zM111.67 168.92a3.244 3.244 0 01-.243-.963 4.198 4.198 0 01-.008-.899c.033-.59.372-1.1.582-1.65.203-.55.421-1.092.656-1.627.242-.534.47-1.076.727-1.61a.072.072 0 01.105-.033c.033.016.049.041.041.073-.024.591-.088 1.174-.129 1.765a41.87 41.87 0 01-.202 1.747c-.08.576-.024 1.19-.275 1.725-.114.266-.26.533-.437.785-.179.25-.38.501-.672.728-.04.033-.105.024-.137-.016-.008-.008-.008-.017-.008-.025zM123.28 177.62a3.3 3.3 0 01.51-.85 4.76 4.76 0 01.63-.647c.437-.396 1.044-.518 1.578-.753a36.565 36.565 0 011.618-.687c.55-.203 1.092-.43 1.659-.623.04-.017.089.008.105.047.008.033 0 .066-.025.082-.437.404-.89.769-1.334 1.157-.454.373-.914.736-1.376 1.093-.47.355-.858.825-1.415 1.027a4.282 4.282 0 01-.866.243c-.308.057-.623.08-.988.04-.056-.008-.088-.057-.088-.113-.017 0-.017-.008-.008-.016zM125.35 191.99c.34-.146.655-.21.962-.243.308-.04.607-.032.898-.008.59.032 1.101.372 1.65.583.55.202 1.093.42 1.627.655.534.243 1.076.47 1.61.728.04.016.056.065.032.106-.016.032-.04.048-.073.04-.59-.024-1.173-.089-1.764-.13a43.696 43.696 0 01-1.747-.201c-.575-.082-1.189-.025-1.723-.275a4.208 4.208 0 01-.785-.438 3.306 3.306 0 01-.728-.672.1.1 0 01.016-.137c.008 0 .016-.008.025-.008zM88.715 182.7a3.24 3.24 0 01-.963.243c-.307.04-.607.032-.898.008-.59-.032-1.1-.372-1.65-.583-.55-.201-1.092-.42-1.626-.655-.534-.243-1.076-.47-1.61-.728-.04-.016-.057-.065-.033-.106.017-.032.041-.048.073-.04.591.024 1.173.089 1.764.13.583.056 1.165.12 1.747.202.575.08 1.19.024 1.724.275.267.114.534.259.784.437.251.178.502.38.728.672a.1.1 0 01-.016.137c-.008 0-.016.008-.024.008zM90.932 197.05c-.137.34-.315.607-.51.85a4.78 4.78 0 01-.63.647c-.438.396-1.044.518-1.578.753-.534.242-1.068.469-1.618.687-.55.203-1.093.43-1.659.623-.04.017-.089-.008-.097-.048-.008-.032 0-.065.024-.08.437-.405.89-.77 1.335-1.158.453-.373.914-.736 1.376-1.093.46-.355.857-.825 1.415-1.027a4.27 4.27 0 01.866-.243c.307-.057.623-.08.987-.041.057.009.089.057.089.113v.017zM102.64 205.64c.146.34.21.655.243.963.04.308.032.607.008.898-.033.59-.372 1.1-.582 1.65-.203.55-.421 1.093-.656 1.628-.243.533-.47 1.075-.728 1.61-.016.04-.065.056-.105.033-.032-.017-.049-.041-.041-.074.025-.59.09-1.173.13-1.764.057-.582.121-1.165.202-1.747.08-.576.024-1.19.275-1.725.114-.267.26-.533.437-.785.178-.25.38-.501.671-.728a.1.1 0 01.138.016c0 .008.008.016.008.025z"/><path fill="#74a9ff" stroke-width=".99" d="M118.4 207.2a.435.435 0 00.276.203.46.46 0 00.34-.049c2.354-1.4 3.559-2.614 3.898-2.978l-.46-.778c-.04.025-.082.049-.113.09-.01.015-1.15 1.335-3.77 2.897a.447.447 0 00-.171.615zM124.89 208.12a3.502 3.502 0 00-.138-.494.439.439 0 00-.622.073c-.008.016-.996 1.238-3.342 2.638a.437.437 0 00-.153.607.433.433 0 00.275.203.46.46 0 00.339-.049c2.5-1.489 3.544-2.792 3.584-2.849.016-.04.041-.09.057-.129zM114.99 211.45c.485-.121 2.12-.599 4.474-2.008a.437.437 0 00.154-.607.437.437 0 00-.607-.153c-2.621 1.562-4.328 1.927-4.345 1.934-.048.008-.088.032-.137.057z" opacity=".5"/><g stroke-width=".99"><path fill="#fff" d="M100.47 175.96c.963-.866 2.961-1.586 3.52-1.748 2.41-.728 4.959-.526 7.257.485 1.423.623 3.017 1.57 3.794 2.979.154.275.501.833.105 1.068-.162.097-.372.097-.558.08-1.117-.097-2.128-.542-3.204-.809a23.125 23.125 0 00-6.06-.68c-1.028.025-2.022.155-3.042.268-.647.073-1.812.307-2.232-.357-.267-.445-.04-.882.42-1.286z"/><path fill="#ffd54f" d="M5.679 79.948c-.599 1.675 9.927 8.206 9.927 8.206l1.472-4.103 1.472-4.103c0-.008-12.273-1.667-12.87 0z"/><path fill="#ffbe66" d="M19.602 79.235l-3.64 10.132-1.635-.59a.696.696 0 01-.42-.899l3.163-8.813a.696.696 0 01.898-.42z"/><path fill="#ffd54f" d="M51.25 99.224l1.845-5.13a4.19 4.19 0 00-2.516-5.35L21.317 78.24a2.204 2.204 0 00-2.816 1.327l-3.18 8.853a2.205 2.205 0 001.328 2.817l29.254 10.512a4.185 4.185 0 005.347-2.525z"/><path fill="#fff" d="M37.813 88c5.946 2.136 10.258 5.252 9.643 6.968-.614 1.715-5.93 1.367-11.876-.769s-10.258-5.252-9.643-6.968c.615-1.707 5.93-1.367 11.876.769z"/><path fill="#ffbe66" d="M23.489 79.019l-4.666 12.993 2.55.917 4.666-12.993z"/><path fill="#94ddac" d="M112.04 62.629c-4.474 6.256-14.085 5.649-17.96 8.368-1.812 1.254-3.382 2.946-4.102 5.058-.42 1.214-1.116 3.674.267 4.572.858.558 1.724-.47 2.411-.914a19.354 19.354 0 012.92-1.546c.72-.316 1.465-.559 2.185-.793.316-.105.623-.203.922-.308.971-.372 1.91-.825 2.783-1.351 1.87-1.141 3.471-2.574 4.636-4.136a.578.578 0 01.38-.234.57.57 0 01.566.858c-.526.865-1.213 1.715-2.144 2.654a15.685 15.685 0 01-2.645 2.136 19.249 19.249 0 01-3.001 1.587c-.526.202-1.076.404-1.57.574l-.275.097c-.153.057-.307.105-.46.17l-.729.308c-1.375.607-7.03 3.302-3.422 4.944 2.872 1.311 6.585 1.676 9.635.963a11.638 11.638 0 004.943-2.517c6.95-6.012 5.194-16.307 4.66-20.49z"/><path fill="#0e9b4a" d="M284.93 51.429c4.474 6.256 14.084 5.649 17.959 8.368 1.813 1.254 3.382 2.946 4.101 5.058.421 1.214 1.117 3.674-.267 4.572-.857.558-1.723-.47-2.41-.914a19.4 19.4 0 00-2.92-1.546c-.72-.316-1.465-.559-2.185-.793-.315-.105-.623-.203-.922-.308-.97-.372-1.91-.825-2.783-1.351-1.87-1.141-3.471-2.574-4.636-4.136a.581.581 0 00-.38-.234.554.554 0 00-.42.105.57.57 0 00-.147.753c.526.865 1.214 1.715 2.144 2.654a15.73 15.73 0 002.646 2.136 19.27 19.27 0 003.001 1.587 48.65 48.65 0 001.57.574l.275.097c.153.057.307.105.461.17l.728.308c1.376.607 7.03 3.302 3.422 4.944-2.871 1.311-6.585 1.676-9.635.963a11.563 11.563 0 01-4.943-2.525c-6.95-6.004-5.202-16.29-4.66-20.483z"/></g><g fill="none" stroke="#fff8fa" stroke-miterlimit="10" stroke-width="1.53"><path d="M350.39 119.79l8.384-3.68 6.288 13.65-1.57-27.554 25.422-11.814"/><path d="M369.13 107.58s-.921 9.188 2.358 9.188c3.28 0 3.666-6.035 3.666-6.035l.395 13.254M384.98 101.94s-3.929 0-2.885 4.594c1.052 4.593 4.98 2.362 5.507.527s.132-5.121-2.622-5.121z"/><path d="M387.6 104.31s3.666 14.308 0 15.616c-3.666 1.31-4.06-2.757-4.06-2.757"/></g><path d="M54.052 274.99c.56-.323.377-1.757-.408-3.204-.785-1.446-1.874-2.357-2.434-2.035-.56.323-.377 1.756.408 3.204.785 1.446 1.875 2.357 2.434 2.035zM93.324 303.58c.665-1.509.732-2.954.148-3.227-.584-.274-1.596.728-2.261 2.237-.666 1.509-.732 2.954-.148 3.227.583.273 1.596-.728 2.261-2.237zM75.896 299.93c.665-1.509.732-2.953.148-3.226-.584-.274-1.596.728-2.261 2.237-.666 1.509-.732 2.953-.148 3.226.583.274 1.596-.728 2.261-2.237z" opacity=".5" style="mix-blend-mode:multiply" fill="#eb5954" stroke-width=".99"/><path fill="#f9f3e3" d="M42.989 344.71s4.866 7.035 12.656 9.022c7.79 1.987 3.197-1.788 7.3 1.22 4.102 3.008 7.789-.43 10.222 2.293 2.433 2.723 10.917-.215 10.917-.215l10.5-3.8s5.305-7.19 4.82-7.904c-.486-.715 7.372 3.08 2.641 16.005-3.374 9.224-.023 22.574-8.098 22.073 0 0-2.699-1.506-3.686-.505s-.771 3.299-.278 4.014c.494.715 23.411 15.17 30.548-25.344l-13.257-15.957-10.754-3.06a42.42 42.42 0 00-12.339 4.3c-6.12 3.347-18.725 1.15-23.642.768-4.916-.382-13.35-1.34-13.35-1.34z" style="mix-blend-mode:multiply"/><path fill="#9b9890" d="M100.21 340.7s28.646 1.148 19.469 25.086c-9.394 24.494-33.656 14.904-31.709 11.323 1.947-3.581 4.157-2.143 5.842-3.577 8.206-7.023 16.407-24.081 4.172-29.668z"/><path fill="#494543" stroke-width=".99" d="M102.79 347.99a9.436 9.436 0 00-1.688-2.08 13.72 13.72 0 014.284-4.49c2.81.566 5.53 1.538 8.078 2.886-6.267-.068-9.375 2.281-10.674 3.684zM102.49 381.68c1.978-10.449.084-10.54-2.98-14.769a33.818 33.818 0 002.798-5.166c9.09 5.166 6.101 17.813 6.101 17.813v.115a19.83 19.83 0 01-5.919 2.007zM103.93 356.47a15.23 15.23 0 00.174-4.544c3.783-.977 10.558-1.482 17.352 4.162.165 2.583-.29 5.604-1.57 9.141-2.899-3.287-8.564-8.377-15.956-8.759z"/><path fill="#7e7972" d="M100.21 340.7l-1.543 2.174c-.066.42-.106.846-.12 1.272 9.336 4.809 5.6 16.843-.504 24.828 13.53-15.818 3.428-23.72 2.795-25.547a2.955 2.955 0 01.29-2.655c-.582-.056-.918-.072-.918-.072z" style="mix-blend-mode:multiply"/><path fill="#9c9992" d="M45.412 272.81s2.614 15.392-3.174 28.859c-5.788 13.468-12.89 48.292 15.893 53.101l3.36.192 4.021-1.256s10.741 2.889 25.78-.768l6.258-1.925s9.323-8.946 3.457-34.244c0 0 1.491-2.801.186-6.542-1.305-3.74-7.322-24.137-7.866-42.418l.652-11.831s1.403-2.8-3.546-1.732-9.436 4.425-9.436 4.425-15.784-2.116-23.254 3.945c-.28-.292-8.22-5.601-13.076-2.985 0 0-.467 7.214.745 13.179z" filter="url(#a)" transform="matrix(.99262 0 0 .99335 0 0)"/><g stroke-width=".99"><path fill="#e4d8cc" d="M48.878 269.17c2.26-3.525-1.778-8.58-4.434-11.327l-.109.052s-.428 6.61.606 12.38c1.45.627 2.88.544 3.937-1.105z"/><path fill="#7e7972" d="M46.283 315.99s-1.184 2.917 1.947 6.36c2.453 2.702 7.327 4.872 7.327 4.872l.771-3.18zM100.28 314.86c0-.068-.028-.131-.043-.199 0 0 .05-.1.127-.282.285-1.875-.081-2.781-.081-2.781l-7.839 11.064 1.859 3.319s3.582-4.63 5.012-8.029c.425-.993.749-2.03.965-3.092z" style="mix-blend-mode:multiply"/><path fill="#e4d8cc" d="M93.285 254.27s.443-.882-.054-1.462c-3.039 1.964-8.183 5.54-6.995 6.733 1.188 1.192 4.377 4.097 6.417 6.128z"/><path fill="#e1e0e0" d="M72.702 304.16c-13.257 1.625-21.88 33.921-21.88 33.921l12.235 9.367 1.967 3.911h.285l.139.032h.058l.239.051h.096l.328.068.208.04.158.027.25.044.155.028.428.072.162.023.332.052.212.028.324.047.239.032.358.044.236.028.601.067c6.954.66 13.965.135 20.753-1.553l2.873-.882c-1.496-8.394-8.962-46.894-20.757-45.447z"/><path fill="#deeaf8" d="M54.614 326.77s1.878.838 3.085.838l-.417-2.246-.883-1.1-1.014.667zM73.748 315.69s-1.25-7.095 7.79-11.108l.485 5.306z"/><path fill="#fff" d="M56.707 307.37s12.031-.795 16.828 7.027c0 0 5.356-8.815 18.706-9.03L76.666 316.62l-9.459.072z"/><path fill="#7e7972" d="M61.019 352.6l1.762-.548c-.563-2.532-2.294-9.611-3.67-7.659-1.67 2.384-.248 6.664-.248 6.664-11.063.032-16.63-7.097-18.216-9.538 3.162 5.381 8.51 9.467 17.036 10.894z" style="mix-blend-mode:multiply"/><path fill="#e04c48" d="M54.02 307.45s5.132 34.112 8.615 39.557c0 0 8.768 2.15 12.247 6.593l.347 1.59h4.38l.278-1.507s5.98-6.306 11.615-6.52l2.7-3.439v-39.143s-9.946 2.781-17.739 9.316l-.278 1.792-5.286.214.208-1.716s-7.766-6.594-17.086-6.737z"/></g><g fill="#eb5954" stroke-width=".99"><path d="M66.721 345.03s-.694-4.658-4.52-4.153a16.022 16.022 0 014.038 7.289c2.834 1.06 6.625 2.865 8.642 5.44l.347 1.59h.185L71.17 316.49c.428 4.078 2.788 29.168-4.45 28.54zM71.165 316.47l-.062-.568z" opacity=".25" style="mix-blend-mode:multiply"/><path d="M91.504 347.15l.644-.795c.07-3.18.166-7.317.166-7.317-3.41 1.288-3.617 6.017-3.617 6.017-10.917-3.724-12.212-31.139-12.212-31.139l-.278 1.792 3.405 39.49.278-1.507s5.98-6.315 11.615-6.541z" opacity=".5" style="mix-blend-mode:multiply"/></g><path fill="#524e4d" stroke-width=".99" d="M62.568 353.17c2.083 0 3.771-2.76 3.771-6.164s-1.688-6.164-3.771-6.164-3.771 2.76-3.771 6.164 1.688 6.164 3.771 6.164zM94.05 351.15c2.13-.275 3.524-3.236 3.113-6.615-.41-3.377-2.47-5.893-4.6-5.618-2.13.275-3.524 3.236-3.113 6.615.41 3.377 2.47 5.893 4.6 5.618zM72.497 276.78s-1.392-15.552 7.438-10.966c8.83 4.587 17.314 14.189 10.986 16.124-6.328 1.936-12.864 1.22-12.864 1.22zM70.756 276.99s-3.27-14.764-11.611-6.736c-8.34 8.028-12.447 15.694-7.095 15.265 5.352-.429 17.244-1.22 17.244-1.22z"/><g stroke-width=".99"><path fill="#7e7972" d="M78.1 287.6s-5.73 6.112-11.888 1.287c-4.543-3.577.694-8.314.694-8.314z" style="mix-blend-mode:multiply"/><path fill="#e1e0e0" d="M69.99 278.14s-10.708 5.878-1.947 10.822c8.76 4.944 17.522-7.738 8.275-10.535z"/><path fill="#2a2624" d="M72.495 276.78s-4.589.215-1.184 3.724c3.405 3.51 5.013-2.079 5.013-2.079s.76-2.146-3.829-1.645z"/><path fill="#e1e0e0" d="M64.068 267.89c-1.392-.091-3.027.553-4.924 2.385-8.345 8.024-12.448 15.695-7.095 15.266l.77-.06c1.512-9.451 8.623-15.604 11.249-17.59zM91.6 281.66c4.967-2.425-3.185-11.45-11.665-15.854a6.063 6.063 0 00-5.079-.06c3.328.577 11.38 3.28 16.743 15.913z"/><path fill="#2a2624" d="M65.965 275.72c.66-.213.988-1.074.731-1.925s-1.001-1.369-1.662-1.156c-.66.211-.988 1.073-.731 1.924s1.001 1.369 1.662 1.157zM78.433 274.62c.66-.212.988-1.074.731-1.924-.257-.851-1.001-1.369-1.662-1.157-.661.212-.988 1.073-.731 1.925.257.85 1.001 1.368 1.662 1.156z"/><path fill="#eb5954" d="M90.862 314.54s-1.226.834-.324 5.35c.902 4.514 3.825 4.252 3.825 4.252v-1.013zM56.386 320.67c.347 1.959.625 3.576 1.018 5.623 1.616.032 3.147-.397 3.856-1.757 2.271-4.348.312-6.58.312-6.58z" opacity=".5" style="mix-blend-mode:multiply"/></g><path fill="none" stroke="#2a2624" stroke-linecap="round" stroke-miterlimit="10" stroke-width="1.56" d="M69.015 282.59s1.357 1.988 2.78 1.988c1.423 0 1.843-3.01 1.843-3.01s1.67 5.053 3.756.895"/><path fill="#9b9890" d="M50.87 308.03s4.658 7.738 7.3 8.239c2.641.5 5.286 1.507 3.616 6.522-1.67 5.016-9.038 1.987-14.117-1.987-5.078-3.975 3.201-12.774 3.201-12.774zM100.79 310.27s-4.727.072-6.397 1.987c-1.67 1.916-4.82.572-3.894 5.922.659 3.8 2.64 7.312 6.05 3.576a15.809 15.809 0 003.918-7.98z"/></svg>
