<svg id="il_enot" xmlns="http://www.w3.org/2000/svg" fill="none" viewBox="0 0 150 238"><g fill="#eb5954"><path d="M33.4 39.2c1-.6.7-3-.7-5.5-1.3-2.5-3.2-4.1-4.2-3.6-1 .6-.6 3 .7 5.6 1.4 2.5 3.3 4 4.2 3.5zM101.3 88.6c1.2-2.6 1.3-5 .3-5.6-1-.4-2.8 1.3-4 4-1 2.5-1.2 5-.2 5.5s2.8-1.3 4-3.9zM71.2 82.3c1.1-2.6 1.3-5 .2-5.6-1-.4-2.7 1.3-3.9 4-1.1 2.5-1.2 5-.2 5.5s2.7-1.3 3.9-3.9z" opacity=".5" style="mix-blend-mode:multiply"/></g><path fill="#f9f3e3" d="M14.3 159.7s8.4 12.2 21.9 15.6c13.5 3.4 5.5-3 12.6 2.1 7.1 5.2 13.5-.7 17.7 4 4.2 4.7 18.8-.4 18.8-.4l18.2-6.6s9.2-12.4 8.3-13.6c-.8-1.3 12.8 5.3 4.6 27.7-5.8 15.9 0 39-14 38.1 0 0-4.7-2.6-6.4-.9-1.7 1.8-1.3 5.7-.5 7 .9 1.2 40.5 26.2 52.8-43.8l-22.9-27.6-18.6-5.3a73.3 73.3 0 00-21.3 7.4c-10.6 5.8-32.4 2-40.9 1.3-8.5-.6-23-2.3-23-2.3z" style="mix-blend-mode:multiply"/><path fill="#9b9890" d="M113.2 152.8s49.5 2 33.7 43.3C130.6 238.5 88.7 222 92 215.7c3.3-6.2 7.1-3.7 10-6.2 14.2-12.1 28.4-41.6 7.3-51.3z"/><g fill="#494543"><path d="M117.7 165.4c-.8-1.4-1.8-2.6-3-3.6 2-3.2 4.5-5.8 7.5-7.8 4.8 1 9.5 2.7 14 5-10.9-.1-16.3 4-18.5 6.4zM117.2 223.6c3.4-18 .1-18.2-5.2-25.5 1.9-2.8 3.5-5.8 4.8-9 15.8 9 10.6 30.8 10.6 30.8v.2a34.3 34.3 0 01-10.2 3.5zM119.6 180c.5-2.5.6-5.2.3-7.8a32.8 32.8 0 0130 7.2c.3 4.4-.5 9.7-2.7 15.8-5-5.7-14.8-14.5-27.6-15.2z"/></g><path fill="#7e7972" d="M113.2 152.8l-2.7 3.7-.2 2.2c16.2 8.4 9.7 29.2-.8 43 23.4-27.4 5.9-41 4.8-44.2a5.1 5.1 0 01.5-4.6l-1.6-.1z" style="mix-blend-mode:multiply"/><path fill="#9c9992" d="M20.6 37s5.1 30.3-6.3 56.8C3 120.3-11 188.8 45.6 198.3l6.6.4 8-2.5s21 5.7 50.6-1.5l12.4-3.8s18.3-17.6 6.8-67.4c0 0 2.9-5.5.3-12.9a338.8 338.8 0 01-15.5-83.4l1.3-23.3s2.8-5.5-7-3.4c-9.7 2-18.5 8.7-18.5 8.7s-31-4.2-45.8 7.7c-.5-.5-16.2-11-25.7-5.8 0 0-1 14.2 1.5 26z" filter="url(#a)" transform="scale(.87183 .87248)"/><path fill="#e4d8cc" d="M24.5 29.1c3.9-6-3-14.8-7.7-19.5h-.2s-.7 11.5 1 21.5c2.6 1 5 .9 6.9-2z"/><path fill="#7e7972" d="M20 110s-2 5.1 3.4 11a45.8 45.8 0 0012.6 8.5l1.4-5.5zM113.3 108.1v-.3l.2-.5c.5-3.3-.1-4.8-.1-4.8l-13.6 19.1 3.2 5.7s6.2-8 8.7-13.8c.7-1.8 1.3-3.5 1.6-5.4z" style="mix-blend-mode:multiply"/><path fill="#e4d8cc" d="M101.3 3.4s.7-1.5-.1-2.5C95.9 4.3 87 10.4 89 12.5c2 2 7.5 7 11 10.6z"/><path fill="#e1e0e0" d="M65.7 89.6c-23 2.8-37.8 58.6-37.8 58.6L49 164.4l3.4 6.8H53.2l.4.1h.2l.3.1h.3l.3.1h.3l.4.2h.3l.8.1h.2l.6.2h.9l.4.1.7.1h.4l1 .2c12 1.1 24.2.2 35.9-2.7l5-1.5c-2.6-14.5-15.5-81-36-78.6z"/><path fill="#deeaf8" d="M34.4 128.7s3.3 1.5 5.3 1.5l-.7-4-1.5-1.8-1.8 1.1zM67.5 109.5s-2.2-12.2 13.4-19.2l.9 9.2z"/><path fill="#fff" d="M38 95.2s20.8-1.4 29.1 12.1c0 0 9.3-15.2 32.3-15.6l-26.9 19.5H56.2z"/><path fill="#7e7972" d="M45.5 173.3l3-.9c-1-4.4-4-16.6-6.3-13.2-3 4-.4 11.5-.4 11.5a36.8 36.8 0 01-31.5-16.5A39.6 39.6 0 0039.7 173z" style="mix-blend-mode:multiply"/><path fill="#e04c48" d="M33.4 95.3s8.9 59 14.9 68.4c0 0 15.1 3.7 21.1 11.4l.6 2.7h7.6l.5-2.6s10.3-10.9 20-11.3l4.7-5.9V90.3s-17.2 4.9-30.6 16.1l-.5 3.1-9.1.4.3-3S49.5 95.7 33.4 95.4z"/><g fill="#eb5954"><path d="M55.3 160.3s-1.2-8-7.8-7.2c3.4 3.5 5.8 7.8 7 12.6 4.9 1.8 11.5 5 15 9.4l.5 2.7h.4L63 111c.8 7 4.8 50.5-7.7 49.4zM63 110.9v-1z" opacity=".3" style="mix-blend-mode:multiply"/><path d="M98.2 164l1-1.4.4-12.7c-6 2.2-6.3 10.4-6.3 10.4-18.8-6.4-21-53.8-21-53.8l-.6 3 6 68.4.4-2.7s10.3-10.9 20-11.3z" opacity=".5" style="mix-blend-mode:multiply"/></g><g fill="#524e4d"><path d="M48.2 174.3c3.6 0 6.5-4.7 6.5-10.6 0-6-3-10.7-6.5-10.7-3.6 0-6.6 4.8-6.6 10.7 0 5.9 3 10.6 6.6 10.6zM102.6 170.8c3.7-.4 6-5.5 5.4-11.4-.8-5.8-4.3-10.2-8-9.7s-6 5.6-5.4 11.4c.7 5.9 4.3 10.2 8 9.8zM65.3 42.3s-2.4-26.9 12.9-19c15.2 8 29.9 24.6 19 28-11 3.3-22.3 2-22.3 2zM62.3 42.7S56.7 17 42.3 31C27.7 45 20.6 58.1 30 57.4l29.8-2.1z"/></g><path fill="#7e7972" d="M75 61s-9.9 10.6-20.5 2.2c-7.9-6.2 1.2-14.4 1.2-14.4z" style="mix-blend-mode:multiply"/><path fill="#e1e0e0" d="M61 44.6s-18.5 10.2-3.4 18.8C72.8 71.9 88 50 72 45z"/><path fill="#2a2624" d="M65.3 42.3s-8 .4-2 6.4c5.9 6 8.6-3.6 8.6-3.6s1.3-3.7-6.6-2.8z"/><path fill="#e1e0e0" d="M50.8 27c-2.5-.2-5.3.9-8.6 4C27.8 45 20.7 58.2 30 57.4h1.3a50.3 50.3 0 0119.5-30.5zM98.3 50.7c8.6-4.2-5.5-19.8-20.1-27.4a10.5 10.5 0 00-8.8 0c5.7 1 19.7 5.6 29 27.4z"/><path fill="#2a2624" d="M54 40.5c1.2-.4 1.7-1.9 1.3-3.4-.5-1.4-1.7-2.3-2.9-2-1.1.4-1.7 1.9-1.2 3.4.4 1.4 1.7 2.3 2.8 2zM75.6 38.6c1.1-.4 1.7-1.9 1.2-3.4-.4-1.4-1.7-2.3-2.8-2-1.2.4-1.7 1.9-1.3 3.4.5 1.4 1.7 2.3 2.9 2z"/><path fill="#eb5954" d="M97 107.6s-2 1.4-.5 9.2c1.6 7.8 6.6 7.4 6.6 7.4v-1.8zM37.5 118.2l1.7 9.7c2.8 0 5.5-.7 6.7-3 4-7.6.5-11.4.5-11.4z" opacity=".5" style="mix-blend-mode:multiply"/><path stroke="#2a2624" stroke-linecap="round" stroke-miterlimit="10" d="M59.3 52.3s2.3 3.5 4.8 3.5 3.2-5.2 3.2-5.2 2.9 8.7 6.5 1.5"/><path fill="#9b9890" d="M28 96.3s8 13.4 12.6 14.3c4.5.8 9 2.6 6.2 11.2-2.9 8.7-15.6 3.5-24.4-3.4-8.8-6.9 5.5-22 5.5-22zM114.2 100.2s-8.1.1-11 3.4c-3 3.3-8.4 1-6.8 10.3 1.2 6.5 4.6 12.6 10.5 6.1 3.5-3.8 5.9-8.6 6.8-13.8z"/><defs><filter id="a" width="137.8" height="206.7" x="0" y="0" color-interpolation-filters="sRGB" filterUnits="userSpaceOnUse"><feFlood flood-opacity="0" result="BackgroundImageFix"/><feColorMatrix in="SourceAlpha" values="0 0 0 0 0 0 0 0 0 0 0 0 0 0 0 0 0 0 127 0"/><feOffset dy="4"/><feGaussianBlur stdDeviation="2"/><feColorMatrix values="0 0 0 0 0 0 0 0 0 0 0 0 0 0 0 0 0 0 0.25 0"/><feBlend in2="BackgroundImageFix" result="effect1_dropShadow"/><feBlend in="SourceGraphic" in2="effect1_dropShadow" result="shape"/></filter></defs></svg>
