<svg id="il_home_slide__one" xmlns="http://www.w3.org/2000/svg" fill="none" viewBox="0 0 480 340"><g stroke-width="2.13"><path fill="#f9f3e3" d="M84.93 306.17s-132.7-74.49-66.35-203.1C84.92-25.54 217.72 58.96 254.16 36.83 290.59 14.7 305.73-5.2 349.78 1.2c44.04 6.4 64.71 61.7 70.7 100.11 5.99 38.41 6.5 49.47 17.4 57.04 10.9 7.56 47.97 48.41 41.34 93.7-6.45 44.01-32.1 54.71-32.1 54.71z"/><path fill="#c0bdbd" d="M389.06 208.52l1.9-.93-1.9-.5v-.01H361.9v13.24h.04l1.47.63 1.3-.63h24.35z"/><path fill="#e3dbc9" d="M390.97 207.6h-27.56v13.36h27.56z"/></g><g fill="#c0bdbd" stroke-width="2.13"><path d="M368.98 210.73c-.2 0-.41.02-.61.06a3.4 3.4 0 010 6.66 3.28 3.28 0 002.75-.73 3.39 3.39 0 001.2-2.6 3.33 3.33 0 00-3.35-3.39zm15.53.01c-.25 0-.51.03-.76.09a3.34 3.34 0 012.56 3.3 3.34 3.34 0 01-2.56 3.3 3.31 3.31 0 003.63-1.59 3.44 3.44 0 00-.38-3.98 3.33 3.33 0 00-2.49-1.13zm-17.66 3.79a.45.45 0 000-.89.45.45 0 000 .89z"/><path d="M369.31 214.53a.44.44 0 000-.89.45.45 0 000 .89zm13.55 0a.44.44 0 000-.89.45.45 0 000 .89zm2.46 0a.45.45 0 000-.89.45.45 0 000 .89z"/></g><path stroke="#e1bc78" stroke-miterlimit="10" stroke-width="2.05" d="M119.56 70.98v123.46m28.53-163.51v202.15M26.14 91.57v161.25M182.1 36.44v176.91M214.64 9.62l.01 185.06m46.33-175.55v175.44m32.15-182.41v174.35m25.96-144.03v184.47m27.21-119.14v109.38m0-215.93v67.92m34.01 158.48v40.25M375.23 20.8v179.42m32.83-116.24v163.17m35.59-81.69V271.7"/><g stroke-width="2.13"><path fill="#f9f3e3" d="M284.04 128.07l-89.82 3.16.69-126.62z" style="mix-blend-mode:multiply"/><path fill="#fff" d="M194.91 4.6v126.24l89.13-2.77V3.43z"/><path fill="#e8433f" d="M218.95 40.32l34.9-27L260 60.2z"/></g><path stroke="#4a368c" stroke-miterlimit="10" stroke-width="10.68" d="M202.04 94.04l63.72-78.35"/><g stroke-width="2.13"><path fill="#fff" d="M252.57 87.9l.3 23.94 23.55-.89V87.21z"/><path fill="#ef7d00" d="M216.17 84.83a8.7 8.7 0 008.65-8.76 8.7 8.7 0 00-8.65-8.75 8.7 8.7 0 00-8.65 8.75 8.7 8.7 0 008.65 8.76z"/><path fill="#d74c46" d="M241.68 112.68c2.67 0 4.84-2.2 4.84-4.9s-2.17-4.9-4.84-4.9a4.87 4.87 0 00-4.84 4.9c0 2.7 2.17 4.9 4.84 4.9z"/><path fill="#009239" d="M270.41 30.23c2.67 0 4.84-2.2 4.84-4.9s-2.17-4.9-4.84-4.9a4.87 4.87 0 00-4.84 4.9c0 2.7 2.17 4.9 4.84 4.9z"/></g><path stroke="#fed100" stroke-miterlimit="10" stroke-width="6.17" d="M231.75 20.05l15.41 91.8"/><g stroke-width="2.13"><path fill="#e0a337" fill-rule="evenodd" d="M21.8 245.34c25.16 39.51 63.13 60.83 63.13 60.83l362.2.6s17.48-7.3 27.2-34.61z" clip-rule="evenodd"/><path fill="#d3943e" fill-rule="evenodd" d="M473.99 273.09l-427.91 2.37a180.22 180.22 0 01-25.32-31.75h379.1l75.44 25.56a93.86 93.86 0 01-1.32 3.82z" clip-rule="evenodd"/><path fill="#f9f3e3" d="M358.78 256.56S245.5 266.8 237.59 261.8c-4.35-2.74-29.05-13.79-29.05-13.79s-2.91-.6 6.38-.6c9.28 0 14.55-.56 22.08-.16 7.53.4 121.4 9.1 121.4 9.1z" style="mix-blend-mode:multiply"/></g><g fill="#deeaf8" stroke-width="2.13"><path d="M294.22 243.88l-67.89.67c-.51-.19-1.15.26-1.43 1.01-.27.76-.07 1.51.44 1.7l32.88 12.31c.14.05 11.41-.36 11.41-.36s45.12-6.23 46.47-6.23c1.35 0-21.88-9.1-21.88-9.1z"/><path d="M252.22 244.31l-26.02.26c-.51-.2-1.15.25-1.43 1 0 0 0 .04-.02.06 8.1 2.74 31.91 10.55 36.89 9.69 6-1.04 49.1-3.56 49.1-3.56s-32.4-5.33-58.52-7.45z" style="mix-blend-mode:multiply"/><path d="M241.4 247.61s15.1 4.67 17.66 4.67c2.57 0 29.03-1.33 29.03-1.33l-5.93-4.68s-43.55.28-40.76 1.34z" style="mix-blend-mode:multiply"/><path d="M263.13 244.18l-36.78.37c-.52-.2-1.16.25-1.43 1-.25.67-.12 1.35.28 1.63 0-.34.05-1.6 1.83-1.6 2.03 0 35.55.89 35.55.89z" style="mix-blend-mode:multiply"/></g><path stroke="#deeaf8" stroke-linecap="round" stroke-miterlimit="10" stroke-width=".77" d="M243.16 247.96l25.25-1.19m-22.17 1.86l25.25-1.19m-22.84 1.97l25.25-1.19m-22.05 1.93l25.25-1.19m-21.41 1.93l25.26-1.19m-34.46-2.41l14 3.52m-11.02-3.67l9.13 2.34m-3.89-2.08l9.12 2.34"/><g stroke-width="2.13"><path fill="#009239" d="M230.92 179.55s-29.54 1.56-32.03 25.9c-2.5 24.33 5.13 31.6 5.13 31.6s.81.7 3.23.2l-2.8-5.05s6.85-10.18 19.58-8.3c.02.46-.01.92-.1 1.38-.14.89 1.05 19.78 1.05 19.78h91.34s-28.1-63.9-65.68-64.84z"/><path fill="#fff" d="M241.11 191.42c9.9 0 10.87-7.69 10.87-11.14-.45-.03-.89-.06-1.34-.06l-19.72-.67s-.48.02-1.31.11c-.1 2.8.63 11.76 11.5 11.76zm-33.87 45.83l-2.79-5.04s6.83-10.18 19.55-8.32l-.78-2.27s-15.89-3.17-21.67 11.44c1.28 2.88 2.46 4 2.46 4s.84.67 3.23.19z"/><path fill="#288b4c" d="M224 223.89s-3.47-8.8-2.72-12.37c0 0 3.42 13.13 5.4 15.73 1.98 2.6-2.49.25-2.68-3.36zm46.78-2.66s-1.22-9.4-3.57-12.15c0 0 3.34 13.17 2.85 16.4-.49 3.23 2.29-1 .72-4.25z" style="mix-blend-mode:multiply"/><path fill="#f9cfd2" d="M232.31 177.4l-1.4 2.15s-.99 11.04 11.76 10.04c11.12-.9 7.12-12.43 7.12-12.43s-17.48.54-17.48.24z"/><path fill="#288b4c" d="M204.01 237.05s.81.7 3.23.2l-2.8-5.05a7.08 7.08 0 00-.72 4.53l.29.32z" style="mix-blend-mode:multiply"/><path fill="#288b4c" d="M204.01 237.05s.81.7 3.23.2l-2.8-5.05a7.08 7.08 0 00-.72 4.53l.29.32z" style="mix-blend-mode:multiply"/><path fill="#f6ada0" d="M249.92 177.57l-1.08-.41c-3.64.11-16.53.48-16.53.23l-1.4 2.15s-.95 10.77 11.31 10.04c-4.78-.55-9.17-4.04-2.78-3.7 6.5.37 10.1-7.26 10.52-8.23z"/><path fill="#f9cfd2" d="M241.28 179.64c11.77 0 21.3-10.7 21.3-23.89 0-13.2-9.53-23.89-21.3-23.89-11.77 0-21.3 10.7-21.3 23.9 0 13.18 9.53 23.88 21.3 23.88z"/><path fill="#f6ada0" d="M239.86 134s-9.31 16.1-18.4 19.21a2.32 2.32 0 00-1.44-.2l.34-1.64z"/><path fill="#ef7d00" d="M239.86 134s-15.61 21.8-24.12 17.66c-8.5-4.16 13.27-37.62 21.26-26.71 0 0 10.48-11.2 25.15 4.9 14.66 16.1 3.45 41.54-22.29 4.15z"/></g><path fill="#f9cfd2" stroke-width="2.13" d="M220.39 163.08c2.44 0 4.42-2.26 4.42-5.04 0-2.79-1.98-5.05-4.42-5.05s-4.42 2.26-4.42 5.05c0 2.78 1.98 5.04 4.42 5.04zm42.07 0c2.44 0 4.42-2.26 4.42-5.04 0-2.79-1.98-5.05-4.42-5.05s-4.42 2.26-4.42 5.05c0 2.78 1.98 5.04 4.42 5.04zm-58.01 69.12s2.44 13.17 21.6 13.17h57.47l-14.37-12.76s-31.18 1.68-38.02-2.47c-6.84-4.15-7.13-6.23-7.13-6.23s-11.83-2.99-19.55 8.29z"/><path fill="#f6ada0" d="M238.92 170.93s7.84 4.65 10.25-4.16c0 0-3.64 4.07-10.25 4.16z"/><path stroke="#f6ada0" stroke-linecap="round" stroke-miterlimit="10" stroke-width="3.08" d="M220.53 155.89s-2.2.15-1.7 2.57c.48 2.43 2.53 1.54 2.53 1.54m41.25-3.96c.15 0 2.15-.7 1.86 2.06-.3 2.75-1.52 2.05-1.52 2.05"/><g stroke-width="2.13"><path fill="#4a368c" d="M234.43 157.32c.74 0 1.34-.77 1.34-1.72 0-.94-.6-1.71-1.34-1.71-.74 0-1.34.77-1.34 1.71 0 .95.6 1.72 1.34 1.72zm15.18-.49c.72 0 1.3-.72 1.3-1.62s-.58-1.61-1.3-1.61c-.71 0-1.3.72-1.3 1.61s.59 1.62 1.3 1.62z"/><path stroke="#f6ada0" stroke-linecap="round" stroke-miterlimit="10" d="M242.13 153.91s-.11 5.3-.88 6.86c-.76 1.56-.55 2.47 1.4 2.6"/><path fill="#ef7d00" d="M243.6 131.75c-1.76-5-1.48-7.93-.65-10.14a13.54 13.54 0 00-5.95 3.34c-7.99-10.9-29.76 22.55-21.26 26.7 8.5 4.16 24.12-17.65 24.12-17.65 7.84 11.4 14.33 16.94 19.16 18.71-7.04-5.55-12.83-13.62-15.42-20.96z" opacity=".5" style="mix-blend-mode:multiply"/></g><path fill="#f6ada0" stroke-width="2.13" d="M260.04 162.22v.1c.34.6.77 1.13 1.27 1.6l.28-.96c-.87-.37-1.55-.74-1.55-.74zm-38.72 1.92c.5-.54.89-1.18 1.14-1.88-.41.4-.93.65-1.48.76.1.38.22.75.34 1.12zm-16.87 68.07a14.13 14.13 0 002.38 5.04v-.04c2.03-12.81 17.2-13.11 17.2-13.11l-.03-.13v-.07s-11.83-2.97-19.55 8.31z"/><g stroke-width="2.13"><path fill="#eb5d53" d="M230.06 149.39l.07-.04.2-.1c.18-.1.43-.21.74-.35.3-.13.66-.25 1.05-.4.4-.16.81-.27 1.26-.34l.65-.14c.21-.04.43-.07.64-.08l.6-.06.3-.02h.26l1.13.04c.23 0 .45.1.6.27a.87.87 0 01-.65 1.46h-.18l-.95-.1-.22-.03h-.78c-.18 0-.37 0-.56.02l-.58.07c-.4.04-.78.15-1.15.21-.37.06-.7.19-.98.29l-.67.24a1.4 1.4 0 00-.18.08l-.07.03a.58.58 0 01-.79-.27.6.6 0 01.27-.8zm16.6-1.39h1.11c.32 0 .69.05 1.09.1a11.73 11.73 0 012.44.62l.54.23c.17.1.33.16.47.25l.4.22.3.2.24.18a.6.6 0 01.15.8.58.58 0 01-.77.2l-.06-.03-.21-.12-.25-.15-.34-.16-.41-.16a7.47 7.47 0 00-1.54-.39 9.3 9.3 0 00-1.1-.1h-.96a5 5 0 00-.67.04h-.24a.87.87 0 01-.65-.17.89.89 0 01.4-1.58z"/><path fill="#f6ada0" d="M229.6 167.06a2.58 2.58 0 002.57-2.6c0-1.44-1.15-2.6-2.57-2.6s-2.57 1.16-2.57 2.6c0 1.44 1.15 2.6 2.57 2.6zm24.94 0a2.58 2.58 0 002.57-2.6c0-1.44-1.15-2.6-2.57-2.6a2.59 2.59 0 00-2.57 2.6c0 1.44 1.15 2.6 2.57 2.6z"/></g><path stroke="#288b4c" stroke-miterlimit="10" stroke-width="2.31" d="M221.37 212.37s-3.16-22.07-14.68-23.04m60.81 20.13s-7.96-18.04-4.27-26.6m-55.13 6.69s9.79-7.86 21.49-8.64m22.38.35s7.88.79 10.86 2.74m-62.62 45.37s5.51-13.27 22.36-10.14" opacity=".7" style="mix-blend-mode:multiply"/><g stroke-width="2.13"><path fill="#dae9f9" d="M351.28 248.48c-1.19 6.95-4.13 8.5-6.53 8.5l-81.22 3.51c-2.4 0-3.96-2.46-3.5-5.51l13.42-67c.47-3.04 3.53-5.4 5.94-5.4h78.76c2.4 0 3.97 2.47 3.5 5.51z"/><path fill="#deeaf8" d="M260.86 255.37l13.42-67c.46-3.04 3.53-5.4 5.93-5.4h78.76c.32 0 .63.05.93.14a3.16 3.16 0 00-1.75-.52h-78.77c-2.4 0-5.46 2.35-5.93 5.4l-13.42 67c-.4 2.62.72 4.82 2.57 5.37-1.34-.88-2.08-2.78-1.74-4.99z" style="mix-blend-mode:multiply"/><path fill="#e6ecf8" d="M321.08 225.93s-.22 3.84-3.82 4.82c-.43.04-.86-.07-1.22-.32-.5-.4-1.41-.24-1.89.05a2.07 2.07 0 01-2.1-.08 4.83 4.83 0 01-1.6-2.34s2.84.07 3.16-2.64c.33-2.7-1.7-2.54-1.7-2.54a6.89 6.89 0 001.95-3.35c.4-1.98 1.46-3.32 2.59-2.68 1.12.65.81-.2 1.78-.16.96.05 1.4.95 1.33 2.08-.07 1.13-.06 2.68.79 3.84.65.97.91 2.16.73 3.32zm-3.86-9.5s.43-2.77-2.19-3.43c.01 0-.96 3.15 2.19 3.43z" opacity=".7" style="mix-blend-mode:multiply"/><path fill="#deeaf8" d="M350.56 251.45c-56.4-7.76-68.05-48.16-70.28-68.85h-.9c-2.4 0-5.46 2.36-5.93 5.4l-13.41 67c-.47 3.04 1.1 5.52 3.5 5.52l81.21-3.53c2.01 0 4.4-1.1 5.81-5.54z" opacity=".5" style="mix-blend-mode:multiply"/><path fill="#f6a300" d="M145.82 223.83l4.89 20.18H96.76l-43.2-22.95z"/><path fill="#f6a300" d="M147.35 230.14l-1.53-6.32-18.23-.55c-17.03 6.64-46.55 11.3-42.69 14.43l.95.5c1.67.65 5.22-1.53 10.74-.73 30.8 4.45 45.36-3.14 50.76-7.33z" opacity=".5" style="mix-blend-mode:multiply"/><path fill="#fdc000" d="M104.77 6.78S85.62 7.98 72.52 32.9c-13.1 24.93-15.64 25.51-24.63 38.78-9 13.26-24.04 46.49-7.62 64.5 16.42 18 92.46-24.14 88.33-35.22-4.12-11.08-9.57-21.56-6.84-47.88 2.74-26.32-16.99-46.3-16.99-46.3z"/><path fill="#f6a300" d="M86.07 32.68s-2.68-3.24 2.11-11.25c0 0-7.64 11-7.64 18.57s-3.3 10.7-6.9 15.36c-3.58 4.65-26.31 35.46-18.7 53.57 7.62 18.1 52.8 5.78 52.8 5.78l-1.5-48.37z" opacity=".5" style="mix-blend-mode:multiply"/><path fill="#e04c48" d="M79.94 89.78s-34.98 16.53-41.63 50.95c-6.65 34.43-12.5 79.93 19.15 81.51 31.67 1.59 47.7 13.85 47.7 13.85s21.11 4.23 37.6-9.57c0 0 5.8-4.38 4.18-5.72-1.6-1.34-2.78-1.85-2.56-3.63.22-1.78-.22-.83-.52-3.12s-1.31-23.6-1.31-23.6l.22-21.29 17.95-10.84s-5.06-59.2-47.94-65.42z"/><path fill="#eb5954" d="M112.79 92.9l-32.84-3.12s-1.38.65-3.63 1.96c2.38 2.6 9.8 9.4 22.25 9.4 10.2 0 16.47-4.21 19.51-7.2-1.67-.37-3.46-.87-5.29-1.04z" opacity=".5" style="mix-blend-mode:multiply"/><path fill="#f9cfd2" d="M94.31 64.4s-4.13 14.02-14.4 25.36c.45.15 13.23 14.28 32.73 3.09l-1.9-26.74z"/></g><path fill="#eb5954" stroke-width="2.13" d="M92.37 193.04c.59-.33.4-1.82-.43-3.32s-1.98-2.44-2.57-2.1c-.59.33-.4 1.82.43 3.31.83 1.5 1.98 2.44 2.57 2.11zm13.29-47.08c.59-.33.4-1.82-.43-3.32-.83-1.5-1.98-2.44-2.57-2.1-.59.33-.4 1.82.43 3.31.83 1.5 1.98 2.44 2.57 2.11zm39.44 10.73c.59-.33.4-1.82-.43-3.32-.83-1.5-1.98-2.44-2.57-2.1-.59.33-.4 1.82.43 3.31.83 1.5 1.98 2.44 2.57 2.11zm-43.55-41.2c.59-.33.4-1.82-.43-3.32-.83-1.5-1.98-2.44-2.57-2.1-.59.33-.4 1.82.43 3.31.83 1.5 1.98 2.44 2.57 2.11zm-51.99 69.93c.59-.33.4-1.82-.43-3.32-.83-1.5-1.98-2.44-2.57-2.1-.59.33-.4 1.82.43 3.31s1.98 2.44 2.57 2.11zm25.31-53.62c.59-.33.4-1.82-.43-3.32-.83-1.5-1.98-2.44-2.57-2.1-.59.33-.4 1.82.43 3.31.83 1.5 1.98 2.44 2.57 2.11zm56.68-21.37c.59-.33.4-1.82-.43-3.32-.83-1.5-1.98-2.44-2.57-2.1-.59.33-.4 1.82.43 3.31.83 1.5 1.98 2.44 2.57 2.11zm-57.91-6.18c.6-.33.4-1.82-.42-3.32-.83-1.5-1.98-2.44-2.57-2.1-.6.33-.4 1.82.43 3.31.83 1.5 1.97 2.44 2.56 2.11zm-35.56 37.66a610.6 610.6 0 00-.64 3.4c.69.83 1.41 1.29 1.85 1.04.58-.33.4-1.81-.44-3.31-.22-.4-.48-.78-.77-1.13zm104.47 43l.14-13.71-9.07-30.97z" opacity=".5" style="mix-blend-mode:multiply"/><g stroke-width="2.13"><path fill="#f6ada0" d="M110.72 66.1L94.3 64.4s-4.13 14.02-14.4 25.36c.26.08 4.36 4.46 11.32 6.41-2.97-2.24 3.9-21.07 10.48-20.63a11.43 11.43 0 009.45-3.9z"/><path fill="#f9cfd2" d="M126.43 41.83c1.87-15.9-5.77-29.9-17.07-31.27-11.3-1.37-21.98 10.43-23.85 26.34-1.88 15.9 5.76 29.9 17.06 31.27 11.3 1.37 21.98-10.43 23.86-26.34z"/><path fill="#f6a300" d="M97.75 34.82s.4-.24 1-.55a18.08 18.08 0 013.69-1.35l.65-.12.6-.07h.93l.37.03a1.17 1.17 0 011.04.81 1.21 1.21 0 01-.74 1.52 1.17 1.17 0 01-.71.01l-.08-.02-.22-.07a2.74 2.74 0 00-.28-.08l-.37-.07-.47-.05c-.17 0-.35 0-.54-.03-.38 0-.8 0-1.22.05a16.9 16.9 0 00-3.35.7.4.4 0 01-.42-.23.42.42 0 01.1-.48z"/><path fill="#f6ada0" d="M109.65 22.27s-10 16.98-19.06 14.31c0 0-3.37-1.78-4.53-3.9-1.37-2.47 23.59-10.41 23.59-10.41z" opacity=".5" style="mix-blend-mode:multiply"/><path fill="#f9cfd2" d="M91 39.2c.3-3.88-1.95-7.22-5.04-7.47s-5.84 2.68-6.15 6.56c-.3 3.87 1.95 7.2 5.04 7.46 3.09.25 5.84-2.69 6.15-6.56z"/><path fill="#fff" d="M154.43 144.09l27.95-3.56 9.8-18.55 7.2-.05 3.53 20.77-23.26 42.94-39.46 4.88-5.52-3.9z"/><path fill="#5d58a2" d="M202.94 142.47l-45.13 5.71-18.48 42.4.7.53 39.68-5.54 23.3-42.72z"/><path fill="#f6ada0" d="M90.65 36.47a4.98 4.98 0 00-4.68-3.79c.52 2.77 4.5 3.88 4.5 3.88.28.14-.08-.18.18-.1z"/><path fill="#fdc000" d="M85.51 32.2s7.04 12.32 24.04-9.94c0 0 8.65 18.7 18.48 14.54s2.05-30.72-20.97-30.72C84.03 6.08 85.5 32.2 85.5 32.2z"/><path fill="#f6a300" d="M120.48 37.36l-.21-.2-.25-.22-.28-.25c-.1-.09-.2-.18-.34-.28l-.4-.3-.48-.3c-.17-.08-.33-.18-.5-.27a9.73 9.73 0 00-2.03-.73c-.29-.07-.53-.1-.7-.13l-.26-.03h-.04a.36.36 0 01-.25-.14.37.37 0 01-.09-.27.38.38 0 01.32-.34h.09l.22-.03a9.29 9.29 0 013.25.21c.22.04.44.12.66.17.22.05.4.14.62.2.22.07.41.16.58.24a20.3 20.3 0 01.95.47l.29.16.25.14a1.18 1.18 0 01.6 1.18 1.2 1.2 0 01-.85 1.01 1.17 1.17 0 01-1.15-.29z"/><path fill="#f6ada0" d="M102.36 56.43s3.12 7.27 9.28 2.1c0 0-5.6-.73-9.28-2.1z"/></g><path stroke="#f6ada0" stroke-linecap="round" stroke-miterlimit="10" stroke-width="3.08" d="M85.96 37.26s-3.6.44-2.57 4.08"/><g stroke-width="2.13"><path fill="#4a368c" d="M102.01 41c.91 0 1.65-.75 1.65-1.67 0-.93-.74-1.67-1.65-1.67-.91 0-1.65.74-1.65 1.67 0 .92.74 1.67 1.65 1.67zm15.2.86c.84 0 1.52-.69 1.52-1.54a1.52 1.52 0 10-3.04 0c0 .85.68 1.54 1.52 1.54z"/><path stroke="#f6ada0" stroke-linecap="round" stroke-miterlimit="10" d="M110.21 39.98s.33 4.11 1.24 6.11c.91 2 .15 3.98-2.94 4.4"/><path fill="#f6ada0" d="M101.68 68.03c-12.71-3.22-14.63-21.6-14.63-21.6a3.2 3.2 0 01-1.5.32c1.47 11.08 7.7 19.74 16.13 21.28z"/><path fill="#f6a300" d="M108.97 13.88s-.93 2.6.92 9.05c1.33 2.65 6.56 12.24 13.04 14.13-2.96-1.38-11.4-6.04-13.96-23.18z" opacity=".5" style="mix-blend-mode:multiply"/></g><path fill="#eb5954" stroke-width="2.13" d="M65.8 144.09s-5.09 42.14.98 51.84zm70.82 76.63c.32-1.69.04-3.16-.62-3.28-.66-.14-1.46 1.13-1.78 2.81s-.05 3.16.62 3.28c.66.13 1.46-1.13 1.78-2.81zm-.87-37.6c.7-1.56.77-3.06.16-3.34-.62-.28-1.69.75-2.39 2.32-.7 1.56-.77 3.05-.15 3.34.61.28 1.68-.76 2.38-2.32zm-16.84 24.38c.7-1.56.77-3.06.16-3.34-.62-.28-1.69.75-2.39 2.32-.7 1.56-.77 3.05-.15 3.34.61.28 1.68-.76 2.38-2.32zm-27.95 7.52c.7-1.56.77-3.06.15-3.34-.61-.28-1.68.75-2.38 2.31-.7 1.57-.77 3.06-.15 3.34.61.29 1.68-.75 2.38-2.31zm-18.38-3.77c.7-1.56.77-3.06.16-3.34-.62-.28-1.68.75-2.39 2.31-.7 1.57-.77 3.06-.15 3.34.61.29 1.68-.75 2.38-2.31zm39.23-29.92c.7-1.56.77-3.06.16-3.34-.62-.28-1.69.75-2.39 2.32-.7 1.56-.77 3.05-.15 3.34.61.28 1.68-.76 2.38-2.32zm11.53-50.44c.7-1.56.77-3.06.16-3.34-.62-.28-1.69.75-2.39 2.32-.7 1.56-.77 3.05-.15 3.34.61.28 1.68-.76 2.38-2.32zm27.96 3.56c.7-1.56.77-3.06.16-3.34-.62-.28-1.69.75-2.39 2.32-.7 1.56-.77 3.05-.15 3.34.61.28 1.68-.76 2.38-2.32zm-98.32-7.72c.7-1.56.77-3.06.15-3.34-.61-.28-1.68.75-2.38 2.32-.7 1.56-.77 3.05-.16 3.34.62.28 1.69-.76 2.39-2.32zm28.05 32.74c.7-1.56.77-3.06.15-3.34-.61-.28-1.68.75-2.38 2.32-.7 1.56-.77 3.05-.16 3.34.62.28 1.69-.76 2.39-2.32zm-19.55-3.4c.7-1.56.76-3.05.15-3.33-.62-.29-1.68.75-2.38 2.31-.7 1.57-.76 3.06-.14 3.34.61.28 1.68-.76 2.37-2.32z" opacity=".5" style="mix-blend-mode:multiply"/><g stroke-width="2.13"><path fill="#4a368c" d="M158.45 149.04l44.43-6 .07-.12-.03-.13-.2-.23-44.98 5.69-18.48 42.4.65.5z"/><path fill="#4a368c" d="M202.87 142.51l-3.52-21.64-.73-.03.01.08v-.05l-.48 1.06h.68l3.6 20.75z"/><path fill="#deeaf8" d="M192.17 121.98l-9.76 18.47 12.07-1.44c-4.5-10.24-2.3-16.92-2.3-16.92z"/></g><g fill="#4a368c" stroke-width="2.13"><path d="M186.25 173.58c-5.8-1.23-12.63-4.53-13-6.03-.19.2-.33.45-.41.72-.32 1.4 6.84 4.88 12.91 6.23z" opacity=".7" style="mix-blend-mode:multiply"/><path d="M182.21 165.21c2.4.7 4.76 1.62 4.76 1.62s-12.5-5.76-12.64-8.07a.67.67 0 00-.3.32c-.52 1.3 4.35 4.13 8.18 6.13zm-3.61-6.42c1.59.55 3.11 1.13 4.28 1.6-2.4-1.06-5.87-2.89-5.34-4.39-.14.1-.25.23-.33.38-.4.76.3 1.61 1.39 2.41z"/><path d="M171.45 163.52c-.24.9 3.66 3.23 6.81 4.76 2.18.52 4.13 1.19 4.13 1.19s-9.7-4.53-10.4-6.28c-.24-.1-.5.19-.54.33z" opacity=".7" style="mix-blend-mode:multiply"/></g><path fill="#f9cfd2" d="M173.8 158.19s-1.59 1.58 10.21 7.44c0 0-11.58-4.93-12.27-3.62-.7 1.32-.7 2.62 10.13 7.28 0 0-9.76-4.1-10.42-2.36-.66 1.76 10.11 6 10.11 6s8.45 2.54 9.67.73c1.21-1.81 6.65-12.1 2.12-13.89-4.53-1.79-15.24-5.52-15.97-3.5-.33.96.43 1.82 8.54 5.44 0 .01-11.87-5.98-12.12-3.52z"/><path fill="#f6ada0" stroke-width="2.13" d="M184.15 166.01a50.9 50.9 0 003.43 1.3c-12.95-6.32-13.78-8.48-13.78-8.48l.03.18c1.44 2.01 7.4 5.41 10.32 7zm-1.66 3.73c2.03.67 1.02.07 1.02.07-13.32-5.5-11.8-6.58-11.8-6.58l.06.17c1.56 1.92 7.7 4.94 10.72 6.34zm-5.06-13.06l-.13.04c.42 1.15 2.68 2.3 4.65 3.11l3.66 1.2c-8.68-3.19-8.18-4.35-8.18-4.35z"/><path fill="#fff" stroke-width="2.13" d="M176.25 159.32c.21-.41-.2-1.06-.93-1.45-.72-.38-1.48-.36-1.7.06-.21.41.2 1.06.93 1.44.72.39 1.49.36 1.7-.05zm-2.42 4.33c.21-.41-.2-1.06-.93-1.45-.72-.38-1.48-.36-1.7.06-.21.41.2 1.06.93 1.44.72.39 1.49.36 1.7-.05zm.11 4.51c.21-.41-.2-1.06-.93-1.45-.72-.38-1.48-.36-1.7.06-.21.41.2 1.06.93 1.44.72.39 1.49.36 1.7-.05zm5.94-11.05c.14-.46-.4-1.03-1.2-1.28-.8-.26-1.55-.09-1.7.37-.14.46.4 1.03 1.2 1.28.8.25 1.56.09 1.7-.37z"/><path fill="#f9cfd2" d="M68.79 183.01s42.48-5.8 45.41-11.31c2.94-5.52 6.43-19.38 12.3-22.35 5.87-2.97 19.14-6.79 15.23-3.4-3.9 3.4-8.8 3.87-5.91 3.87 2.89 0 10 .19 8.9 5.28-1.13 5.1-12.35 5.8-12.86 8.25s-1.51 7.5-7.18 14.07c-6.2 7.24-52.49 38.4-75.97 45-23.47 6.6 20.08-39.41 20.08-39.41z"/><path fill="#f6ada0" stroke-width="2.13" d="M144.37 152.39c-.86-.07-3.25-.25-5.64-.36-.75-.04-1.5-.06-2.2-.08-.7-.03-1.37 0-1.93 0-.57 0-1.04.04-1.38.04l-.52.03a.3.3 0 00-.21.1.32.32 0 00-.08.24.32.32 0 00.22.27.3.3 0 00.12.02h.03l.5-.04c.33 0 .79-.08 1.34-.1s1.22-.04 1.91-.04h2.2c2.53.03 5.05.13 5.77.16-.04-.1-.09-.17-.13-.24zm.44 2.01c-.85-.05-3.25-.2-5.66-.27l-2.2-.06h-1.93c-.56 0-1.04.05-1.37.05l-.52.03a.32.32 0 00-.28.23.33.33 0 00.33.43h.03l.5-.05c.33-.02.78-.08 1.34-.1.56-.02 1.22-.06 1.91-.07.7 0 1.45-.03 2.2-.03 2.4 0 4.78.05 5.65.07v-.23zm-.65 2l-1.1.05c-1.1.06-2.58.11-4.05.22l-5.87.36a.32.32 0 00-.18.57.31.31 0 00.24.06l5.84-.58c1.46-.15 2.93-.26 4.03-.36l.9-.07c.08-.08.13-.16.19-.25z"/><path fill="#fff" stroke-width="2.13" d="M141.24 145.23c.54-.07.94-.33.91-.57-.03-.24-.5-.37-1.03-.3-.53.08-.94.33-.9.57.02.24.48.37 1.02.3zm3.71 8.25c.02-.24-.4-.47-.94-.51-.54-.04-1 .12-1.01.36-.02.24.4.47.94.5.54.05 1-.11 1.01-.35zm-.3 2.01c.02-.24-.4-.47-.94-.51-.54-.04-1 .12-1.01.36-.02.24.4.47.94.5.54.05 1-.11 1.01-.35zm-2 2.47c.54-.04.96-.26.95-.5-.02-.25-.47-.4-1.01-.37-.54.04-.96.26-.95.5.02.24.47.4 1.01.37z"/><path fill="#f9f3e3" d="M37.9 257.6s5.12 7.28 13.34 9.34c8.2 2.06 3.37-1.85 7.7 1.26 4.32 3.12 8.2-.44 10.77 2.38 2.56 2.82 11.5-.22 11.5-.22l11.08-3.94s5.59-7.44 5.08-8.18c-.52-.74 7.77 3.19 2.78 16.57-3.56 9.55-.02 23.37-8.54 22.85 0 0-2.84-1.56-3.88-.52-1.04 1.03-.82 3.41-.3 4.15.53.74 24.68 15.7 32.2-26.24l-13.97-16.52-11.33-3.16c-4.54.8-8.92 2.3-13.01 4.45-6.45 3.46-19.74 1.19-24.93.8-5.18-.4-14.07-1.4-14.07-1.4z" style="mix-blend-mode:multiply"/><path fill="#9b9890" d="M98.21 253.45s30.2 1.19 20.52 25.97c-9.9 25.36-35.48 15.43-33.42 11.72 2.05-3.7 4.38-2.21 6.16-3.7 8.65-7.27 17.3-24.93 4.4-30.71z"/><path fill="#494543" stroke-width="2.13" d="M100.93 260.99a9.75 9.75 0 00-1.78-2.15 14.32 14.32 0 014.52-4.65c2.96.58 5.83 1.59 8.51 2.99-6.6-.07-9.88 2.36-11.25 3.81zm-.31 34.88c2.09-10.82.09-10.91-3.14-15.29a34.97 34.97 0 002.95-5.35c9.58 5.35 6.43 18.44 6.43 18.44v.12a21.15 21.15 0 01-6.24 2.08zm1.51-26.1c.3-1.55.36-3.14.18-4.7 4-1.02 11.13-1.54 18.3 4.3.17 2.68-.3 5.8-1.66 9.47-3.06-3.4-9.03-8.68-16.82-9.07z"/><g stroke-width="2.13"><path fill="#7e7972" d="M98.2 253.45l-1.62 2.25c-.07.44-.11.88-.12 1.32 9.84 4.98 5.9 17.44-.54 25.7 14.27-16.37 3.62-24.55 2.95-26.45a3 3 0 01.3-2.75l-.96-.07z" style="mix-blend-mode:multiply"/><path fill="#9c9992" d="M40.1 181.29s2.73 15.83-3.33 29.68c-6.05 13.85-13.49 49.66 16.63 54.6l3.52.2 4.2-1.29s11.25 2.97 26.98-.79l6.55-1.98s9.76-9.2 3.62-35.22c0 0 1.56-2.88.2-6.72-1.37-3.85-7.67-24.82-8.24-43.62l.68-12.17s1.47-2.88-3.7-1.78c-5.19 1.1-9.88 4.55-9.88 4.55S60.8 164.57 53 170.8c-.3-.3-8.6-5.76-13.69-3.07 0 0-.48 7.42.78 13.55z"/><path fill="#e4d8cc" d="M44.1 179.4c2.38-3.65-1.87-8.88-4.67-11.73l-.12.06s-.45 6.84.64 12.81c1.53.65 3.04.57 4.15-1.14z"/><path fill="#7e7972" d="M41.36 227.87s-1.25 3.02 2.06 6.58c2.58 2.8 7.72 5.05 7.72 5.05l.81-3.3zm56.94-1.17c0-.07-.04-.14-.05-.2l.13-.3c.3-1.94-.08-2.88-.08-2.88l-8.27 11.46L92 238.2s3.78-4.8 5.28-8.31c.45-1.03.8-2.1 1.02-3.2z" style="mix-blend-mode:multiply"/><path fill="#e4d8cc" d="M90.91 163.98s.47-.91-.05-1.51c-3.2 2.03-8.63 5.73-7.38 6.97 1.26 1.23 4.62 4.24 6.77 6.34z"/><path fill="#e1e0e0" d="M69.22 215.61c-13.98 1.68-23.07 35.12-23.07 35.12l12.9 9.7 2.07 4.04h.3l.15.04h.06l.25.05h.1l.2.04.15.03.22.04.17.03.26.04.16.03.46.08.17.02.35.06.22.02.34.05.25.04.38.04.25.03.63.07c7.33.68 14.73.14 21.88-1.6l3.03-.92c-1.58-8.7-9.45-48.55-21.88-47.05z"/><path fill="#deeaf8" d="M50.15 239.03s1.98.87 3.25.87l-.44-2.33-.93-1.14-1.07.7zm20.17-11.47s-1.32-7.34 8.21-11.5l.51 5.5z"/><path fill="#fff" d="M52.36 218.95s12.68-.82 17.74 7.28c0 0 5.64-9.13 19.72-9.35L73.4 228.52l-9.98.08z"/><path fill="#7e7972" d="M56.9 265.77l1.86-.57c-.6-2.62-2.42-9.95-3.87-7.93-1.76 2.47-.26 6.9-.26 6.9a22.54 22.54 0 01-19.2-9.87c3.33 5.57 8.97 9.8 17.95 11.28z" style="mix-blend-mode:multiply"/><path fill="#e04c48" d="M49.52 219.03s5.41 35.31 9.08 40.95c0 0 9.25 2.23 12.91 6.83l.37 1.64h4.62l.3-1.56s6.3-6.53 12.23-6.75l2.85-3.56v-40.52s-10.48 2.88-18.7 9.64l-.3 1.86-5.56.22.21-1.78s-8.18-6.82-18-6.97z"/></g><path fill="#eb5954" stroke-width="2.13" d="M62.91 257.93s-.73-4.82-4.76-4.3a16.5 16.5 0 014.26 7.54c2.98 1.1 6.98 2.97 9.1 5.64l.37 1.64h.2l-4.47-40.07c.45 4.23 2.94 30.2-4.7 29.55zm4.69-29.57l-.07-.59zm21.43 31.77l.68-.82.18-7.58c-3.6 1.33-3.82 6.23-3.82 6.23-11.5-3.85-12.87-32.23-12.87-32.23l-.3 1.85 3.6 40.88.29-1.56s6.3-6.53 12.24-6.77z" opacity=".5" style="mix-blend-mode:multiply"/><path fill="#524e4d" stroke-width="2.13" d="M58.53 266.35c2.2 0 3.98-2.86 3.98-6.38 0-3.53-1.78-6.38-3.98-6.38s-3.97 2.85-3.97 6.38c0 3.52 1.78 6.38 3.97 6.38zm33.19-2.08c2.25-.28 3.71-3.35 3.28-6.85-.43-3.5-2.6-6.1-4.85-5.81-2.24.28-3.71 3.35-3.28 6.84.43 3.5 2.6 6.1 4.85 5.82zm-22.72-77s-1.47-16.1 7.84-11.35c9.3 4.75 18.25 14.69 11.58 16.69-6.67 2-13.56 1.26-13.56 1.26zm-1.83.22s-3.45-15.29-12.24-6.97c-8.8 8.3-13.13 16.24-7.48 15.8 5.64-.44 18.17-1.26 18.17-1.26z"/><g stroke-width="2.13"><path fill="#7e7972" d="M74.9 198.48s-6.03 6.33-12.53 1.33c-4.78-3.7.74-8.6.74-8.6z" style="mix-blend-mode:multiply"/><path fill="#e1e0e0" d="M66.36 188.68s-11.29 6.09-2.05 11.2c9.23 5.12 18.47-8 8.72-10.9z"/><path fill="#2a2624" d="M69 187.27s-4.84.22-1.25 3.86c3.59 3.63 5.28-2.16 5.28-2.16s.8-2.22-4.03-1.7z"/><path fill="#e1e0e0" d="M60.12 178.07c-1.47-.1-3.2.57-5.2 2.47-8.8 8.3-13.12 16.25-7.47 15.8l.8-.06c1.6-9.78 9.1-16.15 11.87-18.21zm29.02 14.26c5.23-2.51-3.36-11.85-12.3-16.41a6.5 6.5 0 00-5.35-.06c3.5.6 12 3.39 17.65 16.47z"/><path fill="#2a2624" d="M62.1 186.18c.7-.22 1.05-1.11.78-2-.27-.87-1.06-1.41-1.75-1.19-.7.22-1.04 1.11-.77 2 .27.87 1.05 1.41 1.75 1.19zm13.15-1.14c.7-.22 1.05-1.11.78-2-.28-.87-1.06-1.41-1.76-1.19-.7.22-1.04 1.11-.77 2 .27.87 1.06 1.4 1.75 1.19z"/><path fill="#eb5954" d="M88.36 226.37s-1.3.86-.34 5.54c.95 4.67 4.03 4.4 4.03 4.4v-1.05zm-36.34 6.34c.37 2.03.66 3.7 1.07 5.82 1.7.03 3.32-.4 4.07-1.82 2.4-4.5.33-6.81.33-6.81z" opacity=".5" style="mix-blend-mode:multiply"/><path stroke="#2a2624" stroke-linecap="round" stroke-miterlimit="10" d="M65.33 193.29s1.43 2.06 2.93 2.06c1.5 0 1.95-3.12 1.95-3.12s1.76 5.23 3.96.93"/><path fill="#9b9890" d="M46.2 219.63s4.91 8.01 7.7 8.53c2.78.52 5.57 1.56 3.8 6.75-1.75 5.2-9.52 2.06-14.87-2.06-5.36-4.11 3.37-13.22 3.37-13.22zm52.63 2.31s-4.98.07-6.74 2.06c-1.76 1.98-5.08.59-4.1 6.13.69 3.93 2.78 7.57 6.37 3.7a16.26 16.26 0 004.13-8.26z"/><path fill="#f9f3e3" d="M142.02 250.85l-1.9 1.51-6.23-4.57-.49.82 5.87 4.4-2.8 2.23-4.58-.5.49 2.23 1.76.12-1.71 1.36 34.2 3.04 14.27-5.51z" style="mix-blend-mode:multiply"/><path fill="#d74c46" d="M155.31 231.47l11.87 3.11 13.71-3.1-13.57-2.24z"/><path fill="#eb5954" d="M155.31 231.47l11.87 3.11 13.71-3.1-13.57-2.24z" opacity=".5" style="mix-blend-mode:multiply"/><path fill="#f7a600" d="M149.68 214.85l9.82 22.4 7.14-2.72-8.6-23.69z"/><path fill="#288b4c" d="M168.17 216.57l-.9 26.48 5.56-.24.93-26.04z"/><path fill="#f6a300" d="M156.97 231.48l.23.52c.53.98 1.72 3.13 2.9 5.03l6.54-2.5-.44-1.2z" opacity=".5" style="mix-blend-mode:multiply"/><path fill="#288b4c" d="M167.51 235.6c1.1-.07 4.58-.3 4.74-.47a4 4 0 01.85-.16l.03-2.67-5.57 1.7z" style="mix-blend-mode:multiply"/><path fill="#fff" d="M167.9 224.51l5.59-.25.03-.85-5.6.24z"/><path fill="#d5322a" d="M167.22 234.54l-11.92-3.07v25.62l11.34 4.42z"/><path stroke="#1c1a1b" stroke-linecap="round" stroke-miterlimit="10" d="M182.66 217.52l-8.8 22.85"/><path fill="#e8433f" d="M166.63 261.51l14.27-5.5v-24.54l-13.68 3.07z"/></g><path stroke="#1c1a1b" stroke-linecap="round" stroke-miterlimit="10" stroke-width=".64" d="M158.53 212.52l-1.08.35m2.03 1.9l-1.1.52m1.95 1.98l-1.1.52m1.96 1.76l-1.1.52m2.03 2.12l-1.1.52m2.03 2.15l-1.1.52m2.12 2.01l-1.1.52m2.03 2.15l-1.1.53m2.17 2.29l-1.1.52"/><g stroke-width="2.13"><path fill="#eb5954" d="M166.64 261.51l.22-6.7c-9.12-4.16-11.56-23.34-11.56-23.34v25.6z" opacity=".3" style="mix-blend-mode:multiply"/><path fill="#c0bdbd" d="M413.97 236.17c9.62-.41 14.15-.6 18-4.98-.27-1.34-2.31-5.85-18.22-5.85-18.7 0-17.67 6.95-17.67 6.95v.08c2.5 1.93 7.65 4.24 17.89 3.8z"/><path fill="#f9f3e3" d="M426.72 259.4c.07-2.19-8.07-4.24-18.18-4.59-10.12-.34-18.37 1.15-18.45 3.33-.07 2.19 8.07 4.24 18.18 4.59 10.12.34 18.38-1.15 18.45-3.33z" style="mix-blend-mode:multiply"/><path fill="#009239" d="M404.25 235.89s-17.2-33.14 9.58-38.38c26.77-5.25 10.95 38.38 10.95 38.38s-13.1 2.37-20.53 0z"/><path fill="#fed100" d="M399.49 217.51l2.34-1.6-2.84-3.97.77 2.6-2.44-.26c.09 0 2.03.78 2.03.78h-2.44z"/></g><path stroke="#fff" stroke-miterlimit="10" stroke-width="2.13" d="M406.25 206.41s-6.6 13.58 1.32 30.42m3.28-33.16a269.36 269.36 0 011.09 33.24m1.25-36.14s5.94 2.82 3.6 36.05m-4.1-39.23c.22 0 12.1 4.23 8.72 38.73"/><g stroke-width="2.13"><path fill="#fed100" d="M414.12 216.33l2.44 1.82 2.71-2.47h-2.03l.88-2.23-1.91 1.3s-.77-2.05-.77-1.93c0 .13-1.32 3.51-1.32 3.51z"/><path stroke="#fff" stroke-miterlimit="10" d="M412.47 197.88s19.42-5.71 13.05 35.47"/><path fill="#fed100" d="M422.54 206.19l2.53 2.6 2.71-.78-1.02-.37.1-2.34-1.76.11s-.1-1.93-.25-1.82c-.15.11-2.31 2.6-2.31 2.6z"/><path fill="#eb5d53" d="M400.93 197.66c-.2 0-1.22-2.77-1.22-2.77l2.4 1.73.14-2.22 1.03 1.03.68-2.22 1.03 1.19.2-2.06 1.5 1.39 1.04-1.88 1.22 1.53 1.51-1.39-.81 1.74 2.05-.5-.49 1.53.98-.34-.15.82h2.2l-.63.7h.63l-.29.88 1.32.15-.5.7 1.18.89-.98.54.64 1.33h-.64l.64 1.24-.64.15.5.69c-.22.14-.45.26-.7.35-.14 0 .16 1.03.16 1.03l-1.18-.3.69.65-1.86-.5 1.17 1.39-1.02-.35.34 1.2-1.17-.65.3 1.33-.65-.15v1.19s-.73-.1-.87-.3c-.15-.2-.35.84-.35.84l-.68-.5-.35 1.69-.8-1.53-.55 1.72-.68-1.87-.49.99-.34-1.34-1.56 1.19.34-1.39-1.18.84.3-.99-.82.3s.2-1.33.34-1.33c.15 0-2.73.82-2.73.82l.68-1.38-1.02.2.81-1.05-.81.15.49-.34s-2.5.34-2.35.34c.15 0 2.69-.69 2.69-.69l-2.35-.15 1.86-.34s-2.4-.2-2.03-.2a28 28 0 002.73-.5c-.14 0-3.07-.34-2.73-.34.46-.08.92-.2 1.37-.35h-1.18l1.66-.89s-1.17.15-1.17 0 1.17-.69 1.17-.69l-1.51-.7 1.51-.14-1.51-.9 1.03-.34c-.4-.14-.8-.3-1.18-.5.07.02 1.64-.37 1.64-.37z"/><path fill="#e62e26" d="M400.93 197.66c-.2 0-1.22-2.77-1.22-2.77l2.4 1.73.14-2.22 1.03 1.03.68-2.22 1.03 1.19.2-2.06 1.5 1.39 1.04-1.88 1.22 1.53 1.51-1.39-.81 1.74 2.05-.5-.49 1.53.98-.34-.15.82h2.2l-.63.7h.63l-.29.88 1.32.15-.5.7 1.18.89-.98.54.64 1.33h-.64l.64 1.24-.64.15.5.69c-.22.14-.45.26-.7.35-.14 0 .16 1.03.16 1.03l-1.18-.3.69.65-1.86-.5 1.17 1.39-1.02-.35.34 1.2-1.17-.65.3 1.33-.65-.15v1.19s-.73-.1-.87-.3c-.15-.2-.35.84-.35.84l-.68-.5-.35 1.69-.8-1.53-.55 1.72-.68-1.87-.49.99-.34-1.34-1.56 1.19.34-1.39-1.18.84.3-.99-.82.3s.2-1.33.34-1.33c.15 0-2.73.82-2.73.82l.68-1.38-1.02.2.81-1.05-.81.15.49-.34s-2.5.34-2.35.34c.15 0 2.69-.69 2.69-.69l-2.35-.15 1.86-.34s-2.4-.2-2.03-.2a28 28 0 002.73-.5c-.14 0-3.07-.34-2.73-.34.46-.08.92-.2 1.37-.35h-1.18l1.66-.89s-1.17.15-1.17 0 1.17-.69 1.17-.69l-1.51-.7 1.51-.14-1.51-.9 1.03-.34c-.4-.14-.8-.3-1.18-.5.07.02 1.64-.37 1.64-.37z"/><path fill="#eb5d53" d="M414.78 202.85c.24-.09.47-.2.68-.35l-.49-.7.64-.14-.64-1.23h.62l-.63-1.34.97-.54-1.15-.9.49-.69-1.32-.15.3-.89h-.65l.64-.69h-2.2l.15-.82-.98.34.5-1.53-2.06.5.81-1.74-1.51 1.39-1.19-1.49-.04-.05-1.02 1.87-1.51-1.38-.05.47.05.33h-.08l-.12 1.27-1-1.16h-.04l-.33 1.1.54 1.04-2 .53v.13l1.62 1.31-1.67.24 1.58 1.95-1.54.32 1.9 1.45-2.97 1.17s3.09.7 3.2.52c0 0-.57 1.65-.66 1.8.4-.23.78-.5 1.14-.78l-.3 1.15 1.7-.86-.77 1.48 1.52-.98s-.21 1.4-.09 1.49c.13.09.7-1.07.7-1.07l-.19 2.05.7-1.07c-.13.5-.3.99-.5 1.46a63.4 63.4 0 001.93-2.3c.08-.13-.98 2.47-1.18 2.8-.06.08.02 0 .18-.2v-.07l1.18-1.51-.81 1.9 1.53-2.06-.55 1.65.09.07.56-1.2v.65l.36-.85.34 1.07.2.04.13-.3v-.87l.64.15-.3-1.33 1.17.64-.34-1.19 1.03.35-1.18-1.39 1.86.5-.68-.64 1.17.3s-.25-1.02-.08-1.02z"/></g><path fill="#e3dbc9" stroke-width="2.13" d="M427.74 227.3l.06.02zm-2.47-.81l.27.07zm.86.25l.2.06zm-1.76-.46l.3.07zm-.97-.2l.29.06zm6.42 2.33l.07.05zm.81.62l.05.04zm.26.26l.07.07zm-1.51-1.18l.12.08zm-1.04-.55l.14.07zm.54.27l.14.08zm3.06 3.2c0-.03 0-.06-.03-.1l.03.1zm-.39-.9l-.04-.06zm-.16-.25l-.06-.08zm.31.52l-.02-.04zm-10.75-4.69l.3.03zm10.87 4.95l-.04-.09zm-.63-1.02l-.06-.08zm.7 1.22zm-12.28-5.29l.44.04zm-1.35-.1l.5.03zm-1.41-.08c.18 0 .35 0 .53.03-.18 0-.35-.03-.53-.03z"/><path fill="#edddb5" d="M431.95 231.08v.1c-3.85 4.39-8.37 4.57-18 4.98-10.25.45-15.39-1.87-17.88-3.8v-.08l2.64 23.4s2.13 6.82 12.98 6.82c10.85 0 15.68-1.56 16.2-5.5.51-3.93 4.12-25.44 4.12-25.44 0-.16-.02-.33-.06-.48z"/><path fill="#fed100" stroke-width="2.13" d="M423.83 217.51c.11 0 1.8-1.78 1.8-1.78v2.06s1.75-.38 1.62-.38c-.13 0-2.16 2.34-2.16 2.34zm-3.08 7.57l2.82 2.19-1.17 2.6-.37-1.15s-1.5.37-1.4.37c.12 0 .23-.89.23-.89s-1.4-.23-1.4-.38c0-.14 1.29-2.74 1.29-2.74zm-11.1 7.79c.11 0 1.4-.49 1.4-.49v-.92l.9.11.37-1.41 1.32 1.56s-2.5 2.05-2.6 2.05c-.48-.27-.94-.57-1.39-.9zm-3.08-9.06l1.94 1.97 2.42-1.67-1.4-.52-.4-1.04-.62-.4-.51-1.42zm-2.91 4.19c-.26 0-2.16-1.3-2.05-1.3.2-.01.42-.05.62-.1-.1 0-.77-1.2-.77-1.2.37-.11.76-.2 1.14-.25.26 0 .26-.9.26-.9l1.53 2.3-.77 1.6z"/><g stroke-width="2.13"><path fill="#f9f3e3" d="M410.23 120.24l-81.84 14.54-9.5 5.07-21.8 2.47 9.22-43.9 103.92 16.88z" style="mix-blend-mode:multiply"/><path fill="#d3943e" d="M315.81 114.21l3.27 28.83v-28.63zm93.63 0l3.27 28.83v-28.63z"/><path fill="#e0a337" d="M310.87 115l-4.55-4.75V98.38l107.51-.69 12.57 6.93z"/><path fill="#e0a337" d="M426.4 104.62H310.87v10.39H426.4z"/><path fill="#d3943e" d="M306.33 110.26l4.56 4.75.39-11.74-4.96-4.86z"/><path fill="#e0a337" d="M327.73 114.41h-8.65v28.64h8.65zm93.39 0h-8.65v28.64h8.65z"/></g><path fill="#d3943e" stroke-width="2.13" d="M319.08 115.02v2.57l8.65-1.35v-1.18l-.02-.04zm93.38 0v2.57l8.65-1.35v-1.18l-.02-.04zm-46.02-11.95h-53.58s-3.51-.53 1.52-2.38c.64-.24 4.7-1.85 4.7-1.85z"/><g stroke-width="2.13"><path fill="#fed100" d="M322.3 89.04h-2.56l-3.08 3.42s-.51.22-.51 3.85-.3 5.94 2.78 5.94 47.5.82 47.5.82 1.32-.44 1.83-1.26 4.32-4.15 4.32-4.15-.21-.83-1.24-.3V90.6s1.76-1.56-.3-1.56z"/><path fill="#fff" d="M366.95 94.23c0 2.06-.73 7.5 2.03 5.2a33.8 33.8 0 002.35-2.15V90.6l.25-.25c-2.09 1.1-4.63 2.66-4.63 3.88z"/><path fill="#f6a300" d="M321.87 99.8a2.1 2.1 0 002.09-2.1 2.1 2.1 0 00-2.09-2.12 2.1 2.1 0 00-2.09 2.12 2.1 2.1 0 002.09 2.1z" opacity=".5" style="mix-blend-mode:multiply"/></g><path stroke="#f6a300" stroke-miterlimit="10" stroke-width="3.76" d="M329.18 96.05s2.22.41 1.53 1.65c-.69 1.23-.32 2.68 1.27 2.52m5.67-4.17s2.22.41 1.53 1.65c-.69 1.23-.32 2.68 1.27 2.52m11.79-6.01v7.71m3.27-7.57v7.71"/><g stroke-width="2.13"><path fill="#f6a300" d="M323.7 92.3s-7.36.5-6.68-.24l2.72-3.02h2.62z" opacity=".5" style="mix-blend-mode:multiply"/><path fill="#f08300" d="M322.45 82.43s-.88 9.88 1.25 9.88c2.12 0 37.97-.52 37.97-.52s.9.32 2.27-.72c1.37-1.03 2.57-2 2.57-2l-.16-.57-.11-7.24s1.17-1.27-4.16-1.27c-5.32 0-37.33.9-37.33.9z"/><path fill="#fff" d="M366.2 81.3c-1.25.64-3.66 2.06-3.87 3.58-.27 1.9-1.4 7.57 4 3.64z"/></g><path stroke="#f08300" stroke-miterlimit="10" stroke-width="6.17" d="M354.97 83.8v7.71m3.28-7.77v7.71" opacity=".5" style="mix-blend-mode:multiply"/><g stroke-width="2.13"><path fill="#d74c46" d="M325.29 73.21v8.85l35.38-.2.05-8.65z"/><path fill="#fff" d="M360.72 74.03l-1.03.47s-.55 4 .11 5.74c.25.65.59.6.91.27z"/><path fill="#f08300" d="M325.29 82.07l-2.83.37 2.3-1.56.53-.01z" opacity=".5" style="mix-blend-mode:multiply"/><path fill="#d74c46" d="M360.71 74.03a4.97 4.97 0 00-2.76 2.79c-.85 2.13-32.66 2.72-32.66 2.72v-6.33h35.42z" opacity=".5" style="mix-blend-mode:multiply"/></g><path stroke="#d74c46" stroke-miterlimit="10" stroke-width="15.4" d="M331.4 73.21v8.85" opacity=".5" style="mix-blend-mode:multiply"/><g stroke-width="2.13"><path fill="#e3dbc9" d="M322.26 65.9v7.31h40.31l.1-7.32z"/><path fill="#fff" d="M362.67 66.2l-.95.1s-.2 2.58-.14 4.34c.02.7-.06 2.08 1.02 2z"/><path fill="#d74c46" d="M357.76 65.9h-3.3v7.31h3.3z"/><path fill="#e0a337" d="M449.57 305.65c-163.49 58.72-286.52 30.87-366.09-.25l108.66-8.53c68.31-1.26 215.71-1.06 257.43 8.78z"/></g></svg>
