<svg id="il_not_paid" xmlns="http://www.w3.org/2000/svg" fill="none" viewBox="0 0 460 380"><path fill="#3f51b5" fill-rule="evenodd" d="M243.4 56.3c18 6.6 38.1-12.7 56.7-7.8 18.5 4.9 27.5 27 45 34.6 25.7 11.3 59 3.1 80.9 20.6 20.5 16.4 37.4 44.7 33.4 70.6-4.4 28.4-38.7 41.8-54.6 65.7-11.5 17.4-13.2 39.8-26.2 56-12.8 16.2-32.3 25-48.4 38-17.8 14.4-30 38.2-52.4 43.6-22.1 5.4-43.2-15.1-66-15-28.5.3-55.3 22.4-83.2 16.4-27-5.8-48.4-27.5-66.3-48.5a186 186 0 01-38.1-74c-7-27-8.2-55.5-2.3-82.7 5.8-26.2 23.4-47.7 36.2-71.5 12.5-23.1 19.7-50 39-67.8 19.4-18 44.8-38 71-34 31.2 4.7 45.7 45 75.3 55.8z" clip-rule="evenodd" opacity=".1"/><path fill="#f5f5f5" d="M211.9 86.7l-1.5 10 235.1 35.6 1.6-10z"/><path fill="url(#l)" d="M207.8 82.7l-28.6 187.6 245.2 37.2 28.5-187.6z"/><path fill="#f5f5f5" d="M210.3 96.7l-26 171 235.2 35.7 26-171z"/><path fill="#ff5252" d="M219.3 93a2.5 2.5 0 10-4.9-.8 2.5 2.5 0 004.9.7z"/><path fill="#ff0" d="M226 94a2.5 2.5 0 10-4.9-.8 2.5 2.5 0 004.9.7z"/><path fill="#69f0ae" d="M232.7 95a2.5 2.5 0 10-4.9-.8 2.5 2.5 0 004.8.8z"/><path fill="url(#i)" d="M218 113.5l-9.5 62 211.2 32 9.5-62z"/><path fill="#3f51b5" d="M426.7 147.6l-206.6-31.3-8.8 57.4L418 205.1z"/><path fill="url(#h)" d="M241 204.8l-2 12 14.2 2.2 1.8-12z"/><path fill="#3f51b5" d="M254.7 207.8l-13.3-2-1.5 9.9 13.3 2z"/><path fill="#ff5252" d="M252 224.7l-13.2-2-1.5 10 13.3 2z"/><path fill="#ff9800" d="M249.5 241.7l-13.2-2-1.6 9.9 13.3 2z"/><g fill="#3f51b5"><path d="M383.1 229.4l-106.8-16.2-.9 5.8 106.8 16.2zM380.5 246.3l-106.8-16.2-.9 5.8L379.7 252zM378 263.3L271 247l-.9 5.7L377.1 269z" opacity=".4"/></g><path fill="#f5f5f5" d="M252.7 66.6L5.5 121.8l2.2 9.6 247.1-55.1z"/><path fill="url(#g)" d="M257.6 62.2L0 119.6l40.8 182.2 257.6-57.4z"/><path fill="#f5f5f5" d="M254.8 76.3L7.7 131.4l37.2 166.2L292 242.4z"/><path fill="#ff5252" d="M13.1 127.6c1.5-.3 2.4-1.6 2-3-.2-1.2-1.6-2-3-1.7-1.4.3-2.3 1.6-2 3 .3 1.2 1.6 2 3 1.7z"/><path fill="#ff0" d="M20.2 126c1.4-.3 2.3-1.6 2-2.9-.3-1.3-1.7-2-3-1.8-1.5.3-2.4 1.6-2.1 3 .3 1.2 1.7 2 3 1.7z"/><path fill="#69f0ae" d="M27.2 124.5c1.4-.4 2.3-1.7 2-3-.3-1.3-1.7-2-3-1.7-1.5.3-2.4 1.6-2 2.9.2 1.3 1.6 2 3 1.8z"/><path fill="url(#f)" d="M243.4 94.4L21.4 144 35 204.1l222-49.5z"/><path fill="#3f51b5" d="M241.7 97.3L24.6 145.7 37 201.5l217.1-48.4z"/><path fill="url(#e)" d="M92.8 215.7L78 219l2.6 11.6 14.8-3.3z"/><path fill="#3f51b5" d="M94 217.2l-14 3.2L82 230l14-3.1z"/><path fill="#ff5252" d="M96.4 233l-13.9 3 2.2 9.7 13.9-3.1z"/><path fill="#ff9800" d="M101.4 250.2l-14 3.2 2.2 9.6 14-3z"/><g fill="#3f51b5"><path d="M228.5 188.3l-112.2 25 1.2 5.7 112.3-25zM232.2 204.8l-112.2 25 1.2 5.6 112.3-25zM236 221.2l-112.4 25 1.3 5.7 112.3-25z" opacity=".4"/></g><path fill="#f5f5f5" d="M373.3 71.5H86v12.1h287.3z"/><path fill="url(#d)" d="M379.8 67.5H80.4v229h299.4z"/><path fill="#fff" d="M373.3 83.6H86v209h287.3z"/><path fill="#ff5252" d="M93 80.5a3 3 0 100-6 3 3 0 000 6z"/><path fill="#ff0" d="M101.2 80.5a3 3 0 100-6 3 3 0 000 6z"/><path fill="#69f0ae" d="M109.3 80.5a3 3 0 100-6 3 3 0 000 6z"/><path fill="url(#c)" d="M356 102.3H98.2V178h258z"/><path fill="#3f51b5" d="M353.5 105.3H101.2v70.1h252.3z"/><path fill="url(#b)" d="M159.3 207.2h-17.2V222h17.2z"/><path fill="#3f51b5" d="M159 208.2H143v12.2h16.2z"/><path fill="#ff5252" d="M159 229H143v12h16.2z"/><path fill="#ff9800" d="M159 249.6H143v12.1h16.2z"/><g fill="#3f51b5"><path d="M316.4 210.8H185.9v7h130.5zM316.4 231.4H185.9v7.1h130.5zM316.4 252.1H185.9v7.1h130.5z" opacity=".4"/></g><path fill="url(#a)" d="M278.2 246h-94v77.3h94z"/><path fill="url(#k)" d="M205.8 233.8a26.3 26.3 0 0145-18.6c5 5 7.7 11.6 7.7 18.6v16.8h7.4v-16.8a33.6 33.6 0 00-46.7-31.4 33.7 33.7 0 00-20.8 31.4v16.8h7.4z"/><path fill="#fff" d="M206.9 233.5a25.2 25.2 0 0143.1-17.9 25.2 25.2 0 017.4 17.9v16.1h7.1v-16.1a32.3 32.3 0 00-55.2-22.9c-6.1 6-9.5 14.3-9.5 22.9v16.1h7z"/><path fill="#3f51b5" d="M276.2 248.6h-88v71.7h88z"/><path fill="#fff" d="M276.2 248.6h-88v71.7h88z"/><path fill="#3f51b5" d="M276.2 262.7h-88v43.4h88z"/><path fill="url(#j)" d="M238.6 276.2a6.4 6.4 0 00-8.8-6 6.5 6.5 0 00-2.3 10.4v13.8a4.7 4.7 0 008 3.3c.9-.9 1.4-2 1.4-3.3v-13.8a6.4 6.4 0 001.7-4.4z"/><path fill="#000" d="M237.7 277.4a5.5 5.5 0 00-5-5.6 5.6 5.6 0 00-6 7c.3 1 .8 1.7 1.4 2.4V293a4 4 0 007 2.9 4 4 0 001.1-2.9v-11.8c1-1 1.5-2.4 1.5-3.8z" opacity=".2"/><defs><linearGradient id="l" x1="299.9" x2="328.3" y1="288.1" y2="101.1" gradientTransform="matrix(1.0066 0 0 1.0026 0 0)" gradientUnits="userSpaceOnUse"><stop offset="0" stop-color="gray" stop-opacity=".3"/><stop offset=".5" stop-color="gray" stop-opacity=".1"/><stop offset="1" stop-color="gray" stop-opacity=".1"/></linearGradient><linearGradient id="i" x1="34577" x2="38551" y1="101196" y2="75089" gradientTransform="matrix(1.0066 0 0 1.0026 0 0)" gradientUnits="userSpaceOnUse"><stop offset="0" stop-color="gray" stop-opacity=".3"/><stop offset=".5" stop-color="gray" stop-opacity=".1"/><stop offset="1" stop-color="gray" stop-opacity=".1"/></linearGradient><linearGradient id="h" x1="7015.9" x2="7067.1" y1="8653.8" y2="8317.3" gradientTransform="matrix(1.0066 0 0 1.0026 0 0)" gradientUnits="userSpaceOnUse"><stop offset="0" stop-color="gray" stop-opacity=".3"/><stop offset=".5" stop-color="gray" stop-opacity=".1"/><stop offset="1" stop-color="gray" stop-opacity=".1"/></linearGradient><linearGradient id="g" x1="135543" x2="120489" y1="85258" y2="18029" gradientTransform="matrix(1.0066 0 0 1.0026 0 0)" gradientUnits="userSpaceOnUse"><stop offset="0" stop-color="gray" stop-opacity=".3"/><stop offset=".5" stop-color="gray" stop-opacity=".1"/><stop offset="1" stop-color="gray" stop-opacity=".1"/></linearGradient><linearGradient id="f" x1="100016" x2="98372" y1="3841.5" y2="-3497.8" gradientTransform="matrix(1.0066 0 0 1.0026 0 0)" gradientUnits="userSpaceOnUse"><stop offset="0" stop-color="gray" stop-opacity=".3"/><stop offset=".5" stop-color="gray" stop-opacity=".1"/><stop offset="1" stop-color="gray" stop-opacity=".1"/></linearGradient><linearGradient id="e" x1="5690.1" x2="5628.8" y1="4886.4" y2="4612.2" gradientTransform="matrix(1.0066 0 0 1.0026 0 0)" gradientUnits="userSpaceOnUse"><stop offset="0" stop-color="gray" stop-opacity=".3"/><stop offset=".5" stop-color="gray" stop-opacity=".1"/><stop offset="1" stop-color="gray" stop-opacity=".1"/></linearGradient><linearGradient id="d" x1="135430" x2="135430" y1="106197" y2="2461.9" gradientTransform="matrix(1.0066 0 0 1.0026 0 0)" gradientUnits="userSpaceOnUse"><stop offset="0" stop-color="gray" stop-opacity=".3"/><stop offset=".5" stop-color="gray" stop-opacity=".1"/><stop offset="1" stop-color="gray" stop-opacity=".1"/></linearGradient><linearGradient id="c" x1="115163" x2="115163" y1="17426" y2="6102.1" gradientTransform="matrix(1.0066 0 0 1.0026 0 0)" gradientUnits="userSpaceOnUse"><stop offset="0" stop-color="gray" stop-opacity=".3"/><stop offset=".5" stop-color="gray" stop-opacity=".1"/><stop offset="1" stop-color="gray" stop-opacity=".1"/></linearGradient><linearGradient id="b" x1="5232.9" x2="5232.9" y1="4825.8" y2="4402.5" gradientTransform="matrix(1.0066 0 0 1.0026 0 0)" gradientUnits="userSpaceOnUse"><stop offset="0" stop-color="gray" stop-opacity=".3"/><stop offset=".5" stop-color="gray" stop-opacity=".1"/><stop offset="1" stop-color="gray" stop-opacity=".1"/></linearGradient><linearGradient id="a" x1="42896" x2="42896" y1="40093" y2="28311" gradientTransform="matrix(1.0066 0 0 1.0026 0 0)" gradientUnits="userSpaceOnUse"><stop offset="0" stop-color="gray" stop-opacity=".3"/><stop offset=".5" stop-color="gray" stop-opacity=".1"/><stop offset="1" stop-color="gray" stop-opacity=".1"/></linearGradient><linearGradient id="k" x1="41144" x2="41144" y1="28854" y2="23780" gradientTransform="matrix(1.0066 0 0 1.0026 0 0)" gradientUnits="userSpaceOnUse"><stop offset="0" stop-color="gray" stop-opacity=".3"/><stop offset=".5" stop-color="gray" stop-opacity=".1"/><stop offset="1" stop-color="gray" stop-opacity=".1"/></linearGradient><linearGradient id="j" x1="8061.1" x2="8061.1" y1="19576" y2="17882" gradientTransform="matrix(1.0066 0 0 1.0026 0 0)" gradientUnits="userSpaceOnUse"><stop offset="0" stop-color="gray" stop-opacity=".3"/><stop offset=".5" stop-color="gray" stop-opacity=".1"/><stop offset="1" stop-color="gray" stop-opacity=".1"/></linearGradient></defs></svg>
