<svg xmlns="http://www.w3.org/2000/svg" fill="none" viewBox="0 0 187 145"><path fill="#F0F6FB" d="M48.739 130.355s25.296 12.823 54.919 14.396c26.56 1.41 56.597-6.224 75-40.251 27.715-51.244-26.283-96.888-82-99.5-22.546-1.057-48.3 15.047-64.5 25-56.231 34.55-30.985 88.712 16.58 100.355z"/><mask id="a" width="187" height="141" x="0" y="4" maskUnits="userSpaceOnUse"><path fill="#F0F6FB" d="M48.739 130.355s25.296 12.823 54.919 14.396c26.56 1.41 56.597-6.224 75-40.251 27.715-51.244-26.283-96.888-82-99.5-22.546-1.057-48.3 15.047-64.5 25-56.231 34.55-30.985 88.712 16.58 100.355z"/></mask><g mask="url(#a)"><path fill="#F2B2A4" d="M65.952 36.811s-1.94-5.075-1.786-6.522c.155-1.448 3.495-7.958 4.821-9.747 1.326-1.79-3.974.174-4.987 2.082-1.014 1.907-5.936 1.65-8.727-3.64-1.993-3.338-3.811-7.173-4.503-6.563-.692.61 1.607 5.498 2.518 7.816.911 2.318-3.494-4.018-4.532-6.096-1.037-2.078-2.237-2.009-2.176-.67.06 1.337 3.629 7.603 4.585 8.864-1.01-.277-4.426-5.803-5.269-6.697-.842-.895-1.245.357-.59 1.606.656 1.248 2.836 4.985 3.959 6.396-1.066-.101-3.446-3.55-4.268-4.22-.821-.672.867 4.127 2.734 6.2 1.867 2.075 6.965 5.803 8.287 6.95 1.322 1.147 3.4 6.633 3.4 6.633l6.534-2.392z"/><path fill="#FBFFFB" d="M107.065 52.3c-13.901 7.674-25.784 15.51-26.76 14.209-2.275-3.03-13.999-33.138-13.999-33.138L56.17 36.266s10.536 34.679 16.72 41.738c4.556 5.205 30.632-9.161 30.632-9.161-.016-4.392 2.348-11.586 4.325-16.864-.509.203-.781.321-.781.321z"/><path fill="#A0D3D5" d="M103.497 69.912c.016-.35.024-.708.02-1.07 0 0-.012.37-.02 1.07z"/><path fill="#0E9B4A" d="M156.761 68.391c-1.16-11.723-5.216-18.384-18.104-21.28-11.333-2.545-27.158 3.396-30.815 4.868-1.974 5.278-4.337 12.468-4.325 16.864 0 .361-.008.72-.02 1.07-.045 3.065-.037 12.434 1.289 24.361.847 7.612-5.675 29.608-5.675 29.608h48.968c-.004 0 9.841-43.767 8.682-55.49z"/><path fill="#182236" d="M125.522 7.334s-3.816-.354-7.433 7.942c-3.616 8.295-5.581 25.964-6.224 31.807-.643 5.844 1.94 6.291 8.161 8.247 6.216 1.956 14.458 5.25 17.525 8.706 3.067 3.453 10.972-12.342 13.384-26.867 2.408-14.525-2.327-23.134-10.089-27.045-7.762-3.912-15.324-2.79-15.324-2.79z"/><path fill="#423C63" d="M125.94 46.77s-7.159 13.667-9.112 29.282c-1.953 15.62-3.58 47.83-3.58 47.83H97.297s3.905-15.619 4.231-24.403c.325-8.783-.908-27.164-.908-27.164s-23.18 11.87-27.41 9.918c-4.231-1.952-17.046-39.696-17.046-39.696L69.015 37.6s10.63 27.123 12.583 27.449c1.953.325 21.236-15.03 26.768-16.006 5.533-.972 17.574-2.273 17.574-2.273z"/><path fill="#393558" d="M97.297 123.882h7.229c1.135-7.279 3.181-22.471 2.758-35.354-.577-17.66-4.922-24.321-4.922-24.321s-17.38 17.372-24.331 11.581c-3.926-3.27-8.035-13.273-10.866-21.365a20.385 20.385 0 00-10.96-11.87l-.036-.016S68.983 80.28 73.214 82.233c4.23 1.952 27.411-9.918 27.411-9.918s1.232 18.377.907 27.164c-.329 8.783-4.235 24.403-4.235 24.403z"/><path fill="#555078" d="M115.013 95.665c.537-7.178 1.156-14.343 1.819-19.613 1.952-15.619 9.112-29.282 9.112-29.282s-4.414.476-9.124 1.07l-11.517 8.06 7.143 5.192-6.981 3.408 9.548 31.165z"/><path fill="#393558" d="M140.264 47.095s-4.23 2.928-6.509 18.873c-2.278 15.944-2.603 57.914-2.603 57.914h23.436s-.651-15.294.651-36.444c1.302-21.15 2.604-27.655-.651-33.186-3.258-5.53-14.324-7.157-14.324-7.157z"/><path fill="#555078" d="M146.22 68.07l-4.223-4.058 9.744-2.11-6.347-13.57c-2.819-.9-5.134-1.24-5.134-1.24s-4.23 2.927-6.509 18.872c-.651 4.562-1.143 11.26-1.513 18.49L146.22 68.07z"/><path fill="#FBFFFB" d="M137.454 45.184s-.972 8.28-7.632 11.687c0 0 6.497 6.978 7.144 6.82.651-.163 5.032-5.193 5.032-11.688 0-6.493-4.544-6.819-4.544-6.819z"/><path fill="#E09B8C" d="M127.218 37.848s-.724 10.858.435 14.042c1.16 3.184 1.595 5.213 3.332 5.213 1.737 0 6.517-3.042 6.517-7.527 0-4.49-.289-12.016-.289-12.016l-9.995.288z"/><path fill="#FBFFFB" d="M127.014 45.245s.855 7.568 2.803 11.626l-11.692 3.408c.005 0 .932-13.737 8.889-15.034z"/><path fill="#FBFBFB" d="M145.904 83.12s-26.053-11.825-27.952-12.22c-1.904-.394-15.557 2.92-19.832 11.09 0 0-6.208-1.953-13.202.495-6.993 2.448-8.254 5.03-8.254 5.03l.155 1.156 34.384 9.917s2.005-4.871 12.639-5.44c0 0 2.868-3.306 9.227-5.885 6.358-2.582 12.615-2.139 12.615-2.139l.22-2.004z"/><path fill="#D73330" d="M147.262 84.856L117.24 72.734s-7.876 1.936-12.148 5.608c-4.271 3.676-4.357 5.046-4.357 5.046l-2.587.984s-6.306-1.175-12.676.212c-6.375 1.386-9.487 4.904-9.487 4.904l34.306 11.886s5.354-4.111 10.317-5.726c4.967-1.614 5.704-1.659 5.704-1.659l2.241-.593s2.274-3.298 6.464-5.006c4.191-1.708 12.245-3.534 12.245-3.534z"/><path fill="#E04C48" d="M147.262 84.856l-30.023-12.122s-7.876 1.936-12.147 5.608c-4.272 3.676-4.357 5.046-4.357 5.046L128.552 93.4s2.275-3.298 6.465-5.006c4.19-1.708 12.245-3.538 12.245-3.538z"/><path fill="#F2B2A4" d="M130.968 91.651s-5.317-1.126-6.448-2.041c-1.131-.915-4.788-7.25-5.573-9.337-.786-2.086-2.01 3.432-.956 5.32 1.053 1.886-1.835 5.88-7.795 5.35-3.885-.138-8.096-.695-7.957.22.138.911 5.492 1.635 7.933 2.127 2.44.492-5.269.752-7.579.496-2.311-.256-2.9.785-1.746 1.464 1.156.675 8.36 1.082 9.935.964-.777.695-7.278.565-8.49.789-1.209.223-.375 1.24 1.029 1.37 1.403.13 5.728.325 7.522.15-.663.838-4.853.964-5.862 1.29-1.009.325 3.942 1.512 6.692 1.069 2.754-.443 8.657-2.696 10.337-3.184 1.68-.488 7.416.744 7.416.744l1.542-6.79z"/><path fill="#FBFFFB" d="M152.354 54.313s4.328.505 9.291 14.164c4.967 13.659 6.945 37.545.757 39.631-6.188 2.086-38.615-8.353-38.615-8.353l4.666-10.666 24.088 4.408s-3.804-16.062-4.683-26.163c-.874-10.105 4.496-13.02 4.496-13.02z"/><path fill="#423C63" d="M144.169 64.012l5.858 27.98-14.324-1.951-3.58 14.968s29.62 8.784 35.478 4.555c5.858-4.229-7.16-46.853-9.438-52.058-2.278-5.206-11.716-9.435-13.022-8.459-1.298.976-.972 14.965-.972 14.965z"/><path fill="#393558" d="M158.167 57.505c-1.375-3.147-5.369-5.932-8.6-7.433 3.222 9.995 14.32 45.17 13.332 52.355-.785 5.689-17.933-.585-28.904-5.225l-1.868 7.807s29.62 8.784 35.479 4.555c5.858-4.229-7.16-46.853-9.439-52.058z"/><path fill="#F2B2A4" d="M116.372 15.255s-1.924 9.308-.919 14.38c1.001 5.074 2.498 9.848 7.127 14.215 5.895 5.563 18.376-5.07 20.39-18.055 2.009-12.984-4.272-20.754-13.559-20.759-9.288-.004-12.282 7.617-13.039 10.22z"/><path fill="#EDA798" d="M142.966 25.796c2.01-12.985-4.271-20.756-13.559-20.76-3.734 0-6.448 1.229-8.409 2.871a73.326 73.326 0 001.4 4.124s9.934 1.545 11.765 9.36c1.83 7.816 2.493 14.298-3.328 19.288-2.742 2.35-5.74 3.11-8.148 3.26 5.939 5.34 18.282-5.233 20.279-18.143z"/><path fill="#E1B3C2" d="M144.886 26.414s1.448-4.49 4.922-2.896c3.475 1.594 1.738 10.276-6.37 9.264l1.448-6.368z"/><path fill="#182236" d="M122.398 12.03s4.727 1.44 11.765 9.362c6.696 7.535 4.096 17.798-.322 22.845-4.414 5.05-6.793 12.113-6.997 17.225-.207 5.111 10.008 12.118 17.631 4.656 7.624-7.462 8.124-11.666 9.329-21.918 2.436-20.706-3.674-36.443-11.765-41.534-7.909-4.978-13.592-.285-13.592-.285s-2.819-2.115-8.445 1.818c-5.631 3.932-9.544 13.687-8.511 21.877 2.286 18.116-3.238 25.541-6.826 27.428-3.592 1.89 8.579 12.622 10.715-1.509 2.254-14.887-1.127-18.07.147-27.724 1.285-9.764 6.871-12.24 6.871-12.24z"/><path fill="#222F4C" d="M142.039 2.666c-2.299-1.444-4.402-2.074-6.241-2.237-1.782.378-3.128 1.244-2.803 3.01.83 4.489 8.149 5.652 11.476 15.793 3.328 10.142 3.824 17.29-.667 25.936-4.076 7.844-9.792 20.482-2.616 23.252 1.119-.52 2.226-1.269 3.283-2.302 7.624-7.462 8.124-11.666 9.329-21.918 2.44-20.706-3.67-36.443-11.761-41.534z"/><path fill="#A93341" d="M122.076 35.632l6.558.305c.073.004.097.114.036.18-.773.849-2.868 3.504-5.239 2.268-1.306-.683-1.457-2.322-1.457-2.635.004-.065.053-.122.102-.118z"/><path fill="#FBFFFB" d="M128.638 35.937l-6.334-.293c.041.399.163 1.009.565 1.228.554.305 3.495.582 4.862.269.407-.399.728-.781.948-1.02.053-.07.032-.184-.041-.184zM117.434 31.415a4.496 4.496 0 01-3.869-5.038 4.498 4.498 0 015.041-3.867 4.496 4.496 0 013.869 5.038 4.498 4.498 0 01-5.041 3.867zm1.135-8.588a4.176 4.176 0 00-4.682 3.59 4.175 4.175 0 003.592 4.681 4.176 4.176 0 004.682-3.59 4.18 4.18 0 00-3.592-4.681zM129.252 31.68a4.496 4.496 0 01-3.869-5.039 4.498 4.498 0 015.041-3.867 4.496 4.496 0 013.869 5.038 4.498 4.498 0 01-5.041 3.868zm1.131-8.589a4.176 4.176 0 00-4.682 3.591 4.175 4.175 0 003.592 4.68 4.176 4.176 0 004.682-3.59 4.175 4.175 0 00-3.592-4.68z"/><path fill="#1C2744" d="M119.892 26.938a1.124 1.124 0 01-1.265.968 1.123 1.123 0 01-.968-1.265 1.127 1.127 0 012.233.297zM130.554 27.052a1.125 1.125 0 01-1.266.968 1.124 1.124 0 01-.968-1.265 1.125 1.125 0 011.265-.968c.615.086 1.05.651.969 1.265zM115.165 23.1s1.082-3.6 3.457-3.518c2.376.077 2.043 1.907 2.043 1.907s-1.282-.915-2.787-.508c-1.505.406-2.713 2.118-2.713 2.118zM126.587 21.587s1.139-1.533 3.267-1.02c2.131.511 3.864 1.91 3.864 1.91s-1.204-2.59-4.165-3.168c-2.962-.577-2.966 2.278-2.966 2.278z"/><path fill="#FBFFFB" d="M125.481 27.166a.214.214 0 01-.179-.102c-.004-.008-.504-.87-1.371-.87-.866 0-1.367.813-1.371.821a.204.204 0 01-.28.07.2.2 0 01-.069-.277c.024-.04.618-1.017 1.72-1.017 1.107 0 1.701 1.037 1.725 1.078a.205.205 0 01-.077.276.248.248 0 01-.098.02zM138.376 26.37l-4.264.452.043.404 4.264-.452-.043-.404z"/><path stroke="#C5846C" stroke-linecap="round" stroke-linejoin="round" stroke-miterlimit="10" d="M123.956 28.032s-2.486 3.473-1.883 4.18c.984 1.16 2.42.52 2.42.52"/><path fill="#FFFAEC" d="M73.058 117.27v-1.598a3.359 3.359 0 012.56-3.258v-.101H45.882a3.353 3.353 0 00-3.356 3.354v1.599a3.353 3.353 0 003.356 3.354h29.734v-.101a3.342 3.342 0 01-2.559-3.249z"/><path fill="#EAE6ED" d="M74.674 120.624h.944v-.101a3.327 3.327 0 01-1.123-.513c.037.216.098.419.18.614z"/><path fill="#F4E8C9" d="M43.898 119.384v-1.598a3.354 3.354 0 013.356-3.355h26.044a3.366 3.366 0 012.32-2.017v-.101H45.882a3.353 3.353 0 00-3.356 3.354v1.599c0 1.138.57 2.143 1.436 2.748a2.902 2.902 0 01-.065-.63z"/><path fill="#CA475D" d="M75.617 121.283H45.884a4.022 4.022 0 01-4.02-4.018v-1.598a4.021 4.021 0 014.02-4.017h29.733a.659.659 0 110 1.317H45.884a2.7 2.7 0 00-2.698 2.696v1.598a2.7 2.7 0 002.698 2.696h29.733c.367 0 .66.297.66.659a.66.66 0 01-.66.667z"/><path fill="#FFFAEC" d="M70.199 107.587v-1.598a3.358 3.358 0 012.559-3.257v-.102H43.024a3.354 3.354 0 00-3.356 3.355v1.598a3.353 3.353 0 003.356 3.355h29.734v-.101a3.34 3.34 0 01-2.559-3.25z"/><path fill="#EAE6ED" d="M71.809 110.942h.944v-.101a3.327 3.327 0 01-1.123-.513c.04.216.102.419.179.614z"/><path fill="#F4E8C9" d="M41.039 109.706v-1.598a3.354 3.354 0 013.356-3.355h26.044a3.364 3.364 0 012.319-2.017v-.101H43.024a3.353 3.353 0 00-3.356 3.354v1.598a3.35 3.35 0 001.436 2.749 2.922 2.922 0 01-.065-.63z"/><path fill="#A0D3D5" d="M72.753 111.605H43.02a4.022 4.022 0 01-4.02-4.018v-1.598a4.022 4.022 0 014.02-4.017h29.733a.659.659 0 110 1.317H43.02a2.7 2.7 0 00-2.698 2.696v1.598a2.697 2.697 0 002.697 2.696h29.734c.367 0 .66.297.66.659a.666.666 0 01-.66.667z"/><path fill="#FFFAEC" d="M73.058 98.157V96.56a3.358 3.358 0 012.56-3.257V93.2H45.882a3.354 3.354 0 00-3.356 3.355v1.598a3.353 3.353 0 003.356 3.355h29.734v-.102a3.34 3.34 0 01-2.559-3.249z"/><path fill="#EAE6ED" d="M74.674 101.512h.944v-.101a3.327 3.327 0 01-1.123-.513c.037.216.098.419.18.614z"/><path fill="#F4E8C9" d="M43.898 100.272v-1.598a3.354 3.354 0 013.356-3.355h26.044a3.364 3.364 0 012.32-2.017V93.2H45.882a3.354 3.354 0 00-3.356 3.355v1.598c0 1.139.57 2.143 1.436 2.749a2.902 2.902 0 01-.065-.63z"/><path fill="#E1AD4E" d="M75.617 102.171H45.884a4.022 4.022 0 01-4.02-4.018v-1.598a4.022 4.022 0 014.02-4.017h29.733a.659.659 0 110 1.317H45.884a2.7 2.7 0 00-2.698 2.696v1.598a2.7 2.7 0 002.698 2.696h29.733c.367 0 .66.297.66.659a.66.66 0 01-.66.667z"/><path fill="#E0A337" d="M163.158 125h-170v20h170v-20z"/><path fill="#EACE8D" d="M167.98 121.283H-11.664a4.178 4.178 0 00-4.178 4.176 4.179 4.179 0 004.178 4.177H167.98a4.178 4.178 0 004.178-4.177 4.178 4.178 0 00-4.178-4.176z"/></g><path fill="#F2B2A4" d="M65.952 36.434s-1.94-5.075-1.786-6.522c.155-1.448 3.495-7.958 4.821-9.748 1.326-1.789-3.974.175-4.987 2.082-1.014 1.908-5.936 1.651-8.727-3.639-1.993-3.338-3.811-7.173-4.503-6.563-.692.61 1.607 5.498 2.518 7.815.911 2.318-3.494-4.017-4.532-6.095-1.037-2.078-2.237-2.009-2.176-.671.06 1.338 3.629 7.604 4.585 8.865-1.01-.277-4.426-5.803-5.269-6.698-.842-.894-1.245.358-.59 1.607.656 1.248 2.836 4.985 3.959 6.396-1.066-.102-3.446-3.55-4.268-4.22-.821-.672.867 4.127 2.734 6.2 1.867 2.074 6.965 5.803 8.287 6.95 1.322 1.147 3.4 6.632 3.4 6.632l6.534-2.39z"/><path fill="#FBFFFB" d="M107.065 51.923c-13.901 7.673-25.784 15.51-26.76 14.208-2.275-3.03-13.999-33.137-13.999-33.137L56.17 35.889s10.536 34.679 16.72 41.738c4.556 5.205 30.632-9.162 30.632-9.162-.016-4.391 2.348-11.585 4.325-16.863-.509.203-.781.321-.781.321z"/><path fill="#A0D3D5" d="M103.497 69.535c.016-.35.024-.708.02-1.07 0 0-.012.37-.02 1.07z"/><path fill="#0E9B4A" d="M156.761 68.014c-1.16-11.723-5.216-18.384-18.104-21.28-11.333-2.545-27.158 3.396-30.815 4.868-1.974 5.278-4.337 12.468-4.325 16.863 0 .362-.008.72-.02 1.07-.045 3.066-.037 12.435 1.289 24.362.847 7.612-5.675 29.607-5.675 29.607h48.968c-.004 0 9.841-43.767 8.682-55.49z"/><path fill="#182236" d="M125.522 6.957s-3.816-.354-7.433 7.941c-3.616 8.296-5.581 25.964-6.224 31.808-.643 5.843 1.94 6.29 8.161 8.247 6.216 1.956 14.458 5.25 17.525 8.706 3.067 3.452 10.972-12.342 13.384-26.867 2.408-14.525-2.327-23.134-10.089-27.046-7.762-3.912-15.324-2.79-15.324-2.79z"/><path fill="#423C63" d="M125.94 46.393s-7.159 13.667-9.112 29.282c-1.953 15.62-3.58 47.829-3.58 47.829H97.297s3.905-15.619 4.231-24.402c.325-8.784-.908-27.164-.908-27.164s-23.18 11.87-27.41 9.918C68.979 79.904 56.164 42.16 56.164 42.16l12.851-4.937s10.63 27.123 12.583 27.448c1.953.326 21.236-15.03 26.768-16.005 5.533-.972 17.574-2.273 17.574-2.273z"/><path fill="#393558" d="M97.297 123.504h7.229c1.135-7.279 3.181-22.471 2.758-35.353-.577-17.66-4.922-24.321-4.922-24.321S84.982 81.2 78.031 75.41c-3.926-3.269-8.035-13.272-10.866-21.364a20.385 20.385 0 00-10.96-11.87l-.036-.016s12.814 37.744 17.045 39.696c4.23 1.952 27.411-9.918 27.411-9.918s1.232 18.376.907 27.164c-.329 8.783-4.235 24.402-4.235 24.402z"/><path fill="#555078" d="M115.013 95.287c.537-7.177 1.156-14.342 1.819-19.612 1.952-15.62 9.112-29.282 9.112-29.282s-4.414.475-9.124 1.07l-11.517 8.059 7.143 5.193-6.981 3.407 9.548 31.165z"/><path fill="#393558" d="M140.264 46.718s-4.23 2.928-6.509 18.872c-2.278 15.945-2.603 57.914-2.603 57.914h23.436s-.651-15.294.651-36.443c1.302-21.15 2.604-27.656-.651-33.186-3.258-5.53-14.324-7.157-14.324-7.157z"/><path fill="#555078" d="M146.22 67.693l-4.223-4.059 9.744-2.11-6.347-13.57a36.277 36.277 0 00-5.134-1.24s-4.23 2.928-6.509 18.872c-.651 4.563-1.143 11.26-1.513 18.49l13.982-16.383z"/><path fill="#FBFFFB" d="M137.454 44.807s-.972 8.28-7.632 11.687c0 0 6.497 6.978 7.144 6.82.651-.163 5.032-5.194 5.032-11.688 0-6.494-4.544-6.82-4.544-6.82z"/><path fill="#E09B8C" d="M127.218 37.471s-.724 10.857.435 14.041c1.16 3.184 1.595 5.214 3.332 5.214 1.737 0 6.517-3.042 6.517-7.527 0-4.49-.289-12.017-.289-12.017l-9.995.29z"/><path fill="#FBFFFB" d="M127.014 44.868s.855 7.567 2.803 11.626L118.125 59.9c.005 0 .932-13.736 8.889-15.033z"/><path fill="#FBFBFB" d="M145.904 82.743s-26.053-11.826-27.952-12.22c-1.904-.394-15.557 2.92-19.832 11.09 0 0-6.208-1.953-13.202.495-6.993 2.448-8.254 5.03-8.254 5.03l.155 1.155 34.384 9.918s2.005-4.871 12.639-5.44c0 0 2.868-3.307 9.227-5.885 6.358-2.582 12.615-2.139 12.615-2.139l.22-2.004z"/><path fill="#D73330" d="M147.262 84.479L117.24 72.357s-7.876 1.936-12.148 5.608c-4.271 3.675-4.357 5.046-4.357 5.046l-2.587.984s-6.306-1.175-12.676.211c-6.375 1.387-9.487 4.904-9.487 4.904l34.306 11.887s5.354-4.112 10.317-5.726c4.967-1.614 5.704-1.659 5.704-1.659l2.241-.594s2.274-3.297 6.464-5.005c4.191-1.708 12.245-3.534 12.245-3.534z"/><path fill="#E04C48" d="M147.262 84.479l-30.023-12.122s-7.876 1.936-12.147 5.608c-4.272 3.675-4.357 5.046-4.357 5.046l27.817 10.011s2.275-3.297 6.465-5.005c4.19-1.708 12.245-3.538 12.245-3.538z"/><path fill="#F2B2A4" d="M130.968 91.274s-5.317-1.127-6.448-2.041c-1.131-.915-4.788-7.25-5.573-9.337-.786-2.086-2.01 3.432-.956 5.319 1.053 1.887-1.835 5.88-7.795 5.351-3.885-.138-8.096-.695-7.957.22.138.91 5.492 1.635 7.933 2.127 2.44.492-5.269.752-7.579.496-2.311-.256-2.9.785-1.746 1.464 1.156.675 8.36 1.081 9.935.963-.777.696-7.278.566-8.49.79-1.209.223-.375 1.24 1.029 1.37 1.403.13 5.728.325 7.522.15-.663.838-4.853.964-5.862 1.29-1.009.325 3.942 1.512 6.692 1.069 2.754-.444 8.657-2.696 10.337-3.184 1.68-.488 7.416.744 7.416.744l1.542-6.791z"/><path fill="#FBFFFB" d="M152.354 53.936s4.328.504 9.291 14.163c4.967 13.66 6.945 37.546.757 39.632-6.188 2.086-38.615-8.353-38.615-8.353l4.666-10.666 24.088 4.408s-3.804-16.062-4.683-26.163c-.874-10.105 4.496-13.021 4.496-13.021z"/><path fill="#423C63" d="M144.169 63.635l5.858 27.98-14.324-1.951-3.58 14.968s29.62 8.784 35.478 4.555c5.858-4.23-7.16-46.854-9.438-52.059-2.278-5.205-11.716-9.434-13.022-8.458-1.298.976-.972 14.965-.972 14.965z"/><path fill="#393558" d="M158.167 57.128c-1.375-3.147-5.369-5.933-8.6-7.433 3.222 9.995 14.32 45.17 13.332 52.355-.785 5.689-17.933-.586-28.904-5.225l-1.868 7.807s29.62 8.784 35.479 4.555c5.858-4.23-7.16-46.854-9.439-52.059z"/><path fill="#F2B2A4" d="M116.372 14.878s-1.924 9.308-.919 14.379c1.001 5.075 2.498 9.849 7.127 14.216 5.895 5.563 18.376-5.07 20.39-18.055 2.009-12.984-4.272-20.755-13.559-20.759-9.288-.004-12.282 7.617-13.039 10.22z"/><path fill="#EDA798" d="M142.966 25.418c2.01-12.984-4.271-20.755-13.559-20.759-3.734 0-6.448 1.228-8.409 2.871.696 2.273 1.4 4.123 1.4 4.123s9.934 1.546 11.765 9.361c1.83 7.816 2.493 14.298-3.328 19.287-2.742 2.35-5.74 3.111-8.148 3.262 5.939 5.339 18.282-5.234 20.279-18.145z"/><path fill="#E1B3C2" d="M144.886 26.036s1.448-4.489 4.922-2.895c3.475 1.594 1.738 10.276-6.37 9.263l1.448-6.368z"/><path fill="#182236" d="M122.398 11.653s4.727 1.44 11.765 9.361c6.696 7.535 4.096 17.799-.322 22.845-4.414 5.05-6.793 12.114-6.997 17.226-.207 5.111 10.008 12.118 17.631 4.656 7.624-7.462 8.124-11.667 9.329-21.918 2.436-20.706-3.674-36.443-11.765-41.535-7.909-4.977-13.592-.284-13.592-.284s-2.819-2.115-8.445 1.817c-5.631 3.933-9.544 13.688-8.511 21.878 2.286 18.116-3.238 25.541-6.826 27.428-3.592 1.89 8.579 12.622 10.715-1.509 2.254-14.887-1.127-18.071.147-27.725 1.285-9.763 6.871-12.24 6.871-12.24z"/><path fill="#222F4C" d="M142.039 2.288C139.74.845 137.637.215 135.798.052c-1.782.378-3.128 1.244-2.803 3.009.83 4.49 8.149 5.652 11.476 15.794 3.328 10.142 3.824 17.29-.667 25.936-4.076 7.844-9.792 20.482-2.616 23.251 1.119-.52 2.226-1.268 3.283-2.301 7.624-7.462 8.124-11.667 9.329-21.918 2.44-20.706-3.67-36.443-11.761-41.535z"/><path fill="#A93341" d="M122.076 35.255l6.558.305c.073.004.097.114.036.179-.773.85-2.868 3.505-5.239 2.269-1.306-.683-1.457-2.322-1.457-2.635.004-.065.053-.122.102-.118z"/><path fill="#FBFFFB" d="M128.638 35.56l-6.334-.293c.041.399.163 1.009.565 1.228.554.305 3.495.582 4.862.269.407-.399.728-.781.948-1.021.053-.07.032-.183-.041-.183zM117.434 31.038A4.496 4.496 0 01113.565 26a4.498 4.498 0 015.041-3.867 4.496 4.496 0 013.869 5.038 4.498 4.498 0 01-5.041 3.867zm1.135-8.588a4.176 4.176 0 00-4.682 3.59 4.175 4.175 0 003.592 4.68 4.176 4.176 0 004.682-3.59 4.181 4.181 0 00-3.592-4.68zM129.252 31.302a4.496 4.496 0 01-3.869-5.038 4.498 4.498 0 015.041-3.867 4.496 4.496 0 013.869 5.038 4.498 4.498 0 01-5.041 3.867zm1.131-8.588a4.176 4.176 0 00-4.682 3.59 4.175 4.175 0 003.592 4.681 4.176 4.176 0 004.682-3.59 4.175 4.175 0 00-3.592-4.68z"/><path fill="#1C2744" d="M119.892 26.56a1.124 1.124 0 01-1.265.969 1.123 1.123 0 01-.968-1.265 1.128 1.128 0 012.233.297zM130.554 26.675a1.125 1.125 0 01-1.266.968 1.125 1.125 0 01-.968-1.265 1.125 1.125 0 011.265-.968c.615.085 1.05.65.969 1.265zM115.165 22.722s1.082-3.599 3.457-3.517c2.376.077 2.043 1.907 2.043 1.907s-1.282-.915-2.787-.508c-1.505.406-2.713 2.118-2.713 2.118zM126.587 21.21s1.139-1.534 3.267-1.021c2.131.512 3.864 1.911 3.864 1.911s-1.204-2.59-4.165-3.168c-2.962-.577-2.966 2.277-2.966 2.277z"/><path fill="#FBFFFB" d="M125.481 26.789a.214.214 0 01-.179-.102c-.004-.008-.504-.87-1.371-.87-.866 0-1.367.813-1.371.821a.204.204 0 01-.28.07.2.2 0 01-.069-.277c.024-.04.618-1.017 1.72-1.017 1.107 0 1.701 1.037 1.725 1.078a.205.205 0 01-.077.276.248.248 0 01-.098.02zM138.376 25.993l-4.264.452.043.404 4.264-.452-.043-.404z"/><path stroke="#C5846C" stroke-linecap="round" stroke-linejoin="round" stroke-miterlimit="10" d="M123.956 27.655s-2.486 3.473-1.883 4.18c.984 1.159 2.42.52 2.42.52"/><path fill="#FFFAEC" d="M73.058 116.892v-1.598a3.358 3.358 0 012.56-3.257v-.102H45.882a3.354 3.354 0 00-3.356 3.355v1.598a3.353 3.353 0 003.356 3.355h29.734v-.102a3.34 3.34 0 01-2.559-3.249z"/><path fill="#EAE6ED" d="M74.674 120.247h.944v-.101a3.327 3.327 0 01-1.123-.513c.037.216.098.419.18.614z"/><path fill="#F4E8C9" d="M43.898 119.007v-1.598a3.354 3.354 0 013.356-3.355h26.044a3.364 3.364 0 012.32-2.017v-.102H45.882a3.354 3.354 0 00-3.356 3.355v1.598c0 1.139.57 2.143 1.436 2.749a2.902 2.902 0 01-.065-.63z"/><path fill="#CA475D" d="M75.617 120.906H45.884a4.022 4.022 0 01-4.02-4.018v-1.598a4.021 4.021 0 014.02-4.017h29.733a.658.658 0 110 1.317H45.884a2.7 2.7 0 00-2.698 2.696v1.598a2.7 2.7 0 002.698 2.696h29.733c.367 0 .66.297.66.659a.66.66 0 01-.66.667z"/></svg>
