<svg id="il_poznai_sebya" xmlns="http://www.w3.org/2000/svg" fill="none" viewBox="0 0 560 520"><g stroke-width=".8"><path fill="#f0f6fb" d="M213.9 483.4s100.2 74.4 241.6 10c141.3-64.6 54.7-220.1 54.7-220.1s-114.4-52-158.4-106.2c-44-54.3-94.7-101.8-155.7-78-61 23.7-58 165.7-58 167.7S80.5 396 214 483.5z"/><path fill="#f08304" d="M398 46.6s-12.6-32.8 16.8-44.1c29.3-11.4 43 19.2 42.4 32.8-.5 13.5-8.6 46.3-47.2 22.6z"/><path fill="#f08304" d="M456.5 41.8l-.2-.6s-26.6 16.5-38 11c-10.2-5-20.6-18-19.6-36.2-7.2 13.7-.7 30.6-.7 30.6l12 11.3c33.2 20.4 43.8-1 46.5-16z" opacity=".5"/></g><path fill="#fff" stroke="#000" stroke-miterlimit="10" d="M387.6 53.4s5.6-11.3 16.7-4.7c0 0 5.8 3.9 5.2 11.8z"/><g stroke-width=".8"><path fill="#e38833" d="M263 224.3s18.3-6.8 7.6-37.3c-10.8-30.6 19.3-40.7 26.9-44.1 7.6-3.4 26-20.4 24.7-44.1-1.4-23.8 36.4-56 74-44.1 35 11 35 33.9 39.5 47.5 4.5 13.5 5 32 37.7 44 32.8 12.2 65 33 71.4 63.6s-22 46-3.2 69.8c18.9 23.7 24.3 52.8 11.3 66.4-13 13.6-24.3 20.3-44.5 6.8-20.2-13.6-29.6 15-29.6 15l-157 2s-119-56.8-58.9-145.5z"/><path fill="#d85e04" d="M451.1 288.8c-23-19.7-27.5-68.9-16-93.1 11.5-24.2 3.8-24.9 3.8-24.9l-30.4 16.5s-19.8 71.4-16.5 117.6c2.7 37.6 29.4 49.3 48.2 63.3l38.6-.4s7.9-24 24.8-17.6c-8.6-30.4-29.7-42-52.5-61.4z" opacity=".5"/><path fill="#d05c17" d="M261.2 227l-.9 1.3-.5.8-.7 1.2-.5.8-.6 1.2-.5.8-.6 1.1-.5.9-.6 1c0 .4-.3.7-.4 1l-.5 1-.5.9-.5 1c0 .4-.2.6-.4 1a45.6 45.6 0 00-.8 1.8l-.5 1.1c0 .3-.2.6-.3.8l-.4 1.1-.3.8a48.7 48.7 0 00-.7 1.9l-.5 1.4-.1.5-.6 1.8a46.8 46.8 0 00-.5 1.8l-.2.8-.3 1-.2.9-.3 1a121.5 121.5 0 00-.3 1.8l-.2.8-.2 1-.1.8-.2 1-.1.8-.1.9-.1.9-.1.9-.1.8v.9l-.2.8v2.6l-.1.9v5l.1.9v.7l.1 1 .1.7.1.9a28 28 0 00.2 1.6l.1.7.2.9v.7l.2.9.2.7a22.7 22.7 0 00.3 1.5 141.3 141.3 0 01.3 1.5l.3 1 .1.6.3 1 .1.4.3 1.1v.2l2 5.5v.1l.5 1.2v.3l.5 1a85 85 0 00.6 1.5l.2.3.5 1 .2.4.5 1 .1.4.6 1 .1.4.6 1 .1.3.6 1a105.3 105.3 0 009.2 13.8c18.9-5 41-11.5 47.2-15 10.4-5.8 45.1-7.1 54.4-44.3 9.3-37.2 5.4-93.7 1.2-100.5-4.2-6.8-13.4-70.3-13.4-70.3s-15.5-3.3-27.5 16.2c-.5 5.3-23.5 29.2-29.7 32-7.6 3.4-37.7 13.5-26.9 44 10.8 30.6-7.6 37.4-7.6 37.4l-1.4 2-.4.7z" opacity=".5"/><path fill="#f3b9ac" d="M320.8 253.3s13-1.2 20.2.7l7.5-23.9s-33.8-.6-22.4-76.6l7-45.4s3.1-14 19.3-13.4c11 .5 8.4 10.5 8.4 10.5s8.3-10.7 18.8-7.9c10.5 2.7 11.5 11.8 9.4 31-2 19.2 16.3 40.4 32 36.9 15.8-3.6 20.9 3.4 18.2 15.6-2.7 12.3-10 17-20 9 0 0-7.3 59-3.5 77.8 3.7 18.7 21 20.5 38.7 32.3 17.8 11.8-83.8 57.5-86.7 59.8-3 2.2-64.7 12.3-74.2 4.5-9.6-7.8-19.8-65.3-16.8-68.8 3-3.6 44.1-42 44.1-42z"/><path fill="#db9583" d="M390.8 279.3c-14.8-25.4.7-57.7.7-57.7-22.9 11-43 8.5-43 8.5l-7.5 24c-7.2-2-20.2-.8-20.2-.8s-29.4 27.6-40.3 38.2c-2 33 24.8 48.1 24.8 48.1-24.2-62 85.5-60.3 85.5-60.3z" opacity=".5"/><path fill="#4153a0" d="M169.1 370.2s6.3 88.2 14 106.6c7.6 18.4 18.8 19 37.7 2 18.8-17 28.2-39.3 28.2-39.3l-.7 61.4s74.5 43 187.6 0c0 0 83.3-161.2 20.5-200.5 0 0-12.7-4.4-52.5 22.8-39.8 27.1-89.2 31.3-102.7 11.3-13.4-20-5.3-69.5 23-81.1 0 0-34.6-4.2-62.7 33.9-28.2 38.1-92.4 82.9-92.4 82.9z"/><path fill="#212d72" d="M282.3 473c-8.4-16.9-26.6-45.6-18.9-53.5 7.8-8 16.4-20.6 16.4-20.6s-32.2 27.2-30.5 20.2c0 0-1.8 5 5.6 9.6 9.4 5.8 27.4 53.3 27.4 53.3l21.5 35.6c6 1 12.6 1.6 19.5 2-10-9.5-34.4-33.4-41-46.6zm-72.5-86.3s11.2 40.4 4 59.8c-7.1 19.3 7.5-8 6.7-15.3-.8-7.3 2.2 5.3 2.2 9.2 0 3.9-.3-7.5-.3-7.5s9-24.6 11.3-28c.7-1 15-31.7 12-34-3-2.5-20.2-4.9-23.9-7.2-4.9-3-12 23-12 23z" opacity=".5"/><path fill="#4153a0" d="M277.5 394s8.6-.3-.9 8.2c-9.4 8.5-36.3 28.3-24.4 12.1a55.4 55.4 0 0125.3-20.4z"/><path fill="#f3b9ac" d="M279.6 399s-6.1-14.5-14-21.3c-7.8-6.8-17.3-19.6-17.3-28.8s-6.2-4.4-7.8-1c-1.6 3.4-4.7 18.2 1.6 24 0 0 3 1.7-2.4 2.5-5.5.8-24.3-5.4-24.3-5.4l-45 1.4s-6.3.1 2.6 4.3c9 4.2 28.7 7.9 35 11.3 6.3 3.5 34.8 28.2 47 32 0 0 14.3-6.5 24.6-19z"/><path fill="#36332f" d="M19.5 279.6L17 110.9s-.8-10 10.5-9.7c12.5.3 227 11.3 227 11.3s12.5-.4 12 15.8l-7.6 157-25.6 4.6-198-4.5z"/></g><g fill="#bac2e4" stroke-width=".8"><path d="M.3 356.3s-2.6 14 7.9 14h267s11.7-1.7 6.9-16.4z"/><path d="M.3 356.3s-2.6 14 7.9 14h267s11.7-1.7 6.9-16.4z"/><path d="M.3 356.3s-2.6 14 7.9 14h267s11.7-1.7 6.9-16.4z"/><path d="M36.5 279.8l-17-.2s-5.9-1-8.6 14.1C8.2 309 .4 355.5.4 355.5s-3.2 7.3 14.6 7.3l256.9.1s14 1 9.3-13.2c-4.7-14.2-18.3-61.1-18.3-61.1s.5-3.4-6.3-3.4h-19.3s-1.2 3.4-3.7 3.4l-192.4-5.7s-3.7.5-4.7-3.1z"/></g><g stroke-width=".8"><path fill="#36332f" d="M38.5 323.4l202 1-7.2-31.5-190.7-5.1z"/><path fill="#bac2e4" d="M186 355.8l-3-24.9h-79.5l-1.2 25z"/><path fill="#fff" d="M28 265.3L27 111l229.6 10.2-7 152z"/><path fill="#ecf1fb" d="M37.6 153.8V202l54.3 1.7 1.6-48.2z"/></g><path fill="#fff" stroke="#000" stroke-miterlimit="10" stroke-width=".8" d="M111.2 156l-.6 55.2L221 216l3.5-55.3z"/><path fill="#ecf1fb" d="M37.6 211.5v48.2l54.3 1.7 1.6-48.2z"/><path fill="#bac2e4" stroke-width=".8" d="M117.5 232.8c2 0 3.6-1.8 3.6-3.9 0-2.1-1.6-3.9-3.6-3.9s-3.6 1.8-3.6 3.9c0 2.1 1.7 3.9 3.6 3.9zm0 12.8c2 0 3.6-1.7 3.6-3.8 0-2.2-1.6-4-3.6-4s-3.6 1.8-3.6 4c0 2 1.7 3.8 3.6 3.8zm0 11.7c2 0 3.6-1.8 3.6-4s-1.6-3.8-3.6-3.8-3.6 1.7-3.6 3.9 1.7 3.9 3.6 3.9z"/><path stroke="#bac2e4" stroke-miterlimit="10" d="M126.9 226.9l15.7.5M127 240.9l15.7.5m-15.7 10.1l15.7.5m-16-20.3l7.8.4m-7.8 12l7.8.4m-7.8 11.6l7.8.3"/><g stroke-width=".8"><path fill="#4153a0" d="M27.2 134.2l228.4 11 1-24-229.5-10z"/><path fill="#02943c" d="M176.3 195.2s-2.7-7.4-10-7.5c-7.2-.2-7-.5-7-.5s-7.4.7-10 6.6c-.4 1.1-1 2.5-1.1 4l.3.5.1.2.2.2a4.2 4.2 0 00.4.6l.2.3.3.3a6.6 6.6 0 00.6.6l.3.4.4.3.3.3a20.5 20.5 0 00.8.7l.4.3.3.3.8.5.3.2.5.3a15.4 15.4 0 001.3.8l.3.1 2.3 1a26.3 26.3 0 001.7.7h.3l3 .8a46.4 46.4 0 002.4.5l1.2.2h.4a36.4 36.4 0 002.6.3h7.6c.3-2 0-9.5-1.2-13z"/><path fill="#f9cfd2" d="M159.9 186.3l-.6.8s-.6 4.3 4.1 4.2c4.1 0 3-4.7 3-4.7s-6.5-.2-6.5-.3z"/><path fill="#f6aea1" d="M166.4 186.8l-.4-.2-6.1-.3-.6.8s-.6 4.2 4 4.2c-1.8-.3-3.4-1.8-1-1.5 2.4.3 4-2.6 4-3 .1 0 0 0 0 0z"/><path fill="#f9cfd2" d="M171.6 178.5c.3-5.2-3-9.6-7.3-10-4.3-.2-8.1 3.7-8.4 8.9-.4 5.2 3 9.7 7.2 10 4.4.3 8.2-3.7 8.5-8.9z"/><path fill="#f6aea1" d="M163.7 169.4s-3.8 6-7.2 7h-.6l.2-.7z"/><path fill="#ef7d00" d="M163.7 169.4s-6.2 8.1-9.3 6.3c-3-1.9 5.8-14.5 8.5-10 0 0 4.1-4.1 9.2 2.6 5 6.7.2 16.5-8.4 1z"/><path fill="#f9cfd2" d="M157.6 178.4c0-1-.6-2-1.5-2-1-.2-1.7.7-1.8 1.8 0 1 .6 2 1.5 2 1 .2 1.7-.7 1.8-1.8zm15.5 1.2c.1-1.1-.6-2-1.5-2.1-.9-.1-1.7.7-1.7 1.8-.1 1.1.6 2 1.5 2.1.9 0 1.7-.7 1.7-1.8z"/><path fill="#f6aea1" d="M162.5 183.9s2.8 2 3.9-1.4c0 0-1.5 1.5-3.9 1.4z"/></g><path stroke="#f6aea1" stroke-linecap="round" stroke-miterlimit="10" stroke-width=".2" d="M156 177.5s-.7 0-.6 1c.1 1 .9.6.9.6m15.3-.5s.8-.2.6 1c-.1 1-.6.7-.6.7"/><path fill="#4a378d" d="M161.7 177.8c0-.4-.2-.7-.4-.8-.3 0-.5.3-.6.7 0 .4.2.7.5.7s.5-.3.5-.6zm5.6.2c0-.3-.2-.7-.4-.7-.3 0-.5.3-.6.6 0 .4.2.7.5.7.2 0 .5-.2.5-.6z"/><path stroke="#f6aea1" stroke-linecap="round" stroke-miterlimit="10" stroke-width=".2" d="M164 177.3s0 2-.4 2.6c-.3.7-.3 1 .4 1.1"/><g stroke-width=".8"><path fill="#eb5a54" d="M165.2 168.6c-.6-2-.4-3.2 0-4-1.4.3-2.3 1.1-2.3 1.1-2.7-4.5-11.5 8.1-8.5 10 3 1.9 9.3-6.3 9.3-6.3 2.7 4.7 5 7 6.6 7.9a19.8 19.8 0 01-5.1-8.7z" opacity=".5"/><path fill="#f6aea1" d="M170.5 181l.4.7.2-.3-.6-.4zm-14.3-.3l.4-.7-.5.3v.4z"/><path fill="#eb5e54" d="M159.8 175.2l.3-.2a4 4 0 01.9-.2h1.3c.2 0 .3.1.3.3 0 .2-.1.3-.3.3h-.5a3 3 0 00-.3 0c-.2-.1-.3 0-.4 0h-.8l-.4.2a.2.2 0 01-.3-.2l.1-.3zm6.1-.1s.7 0 1.3.2a3 3 0 011 .7c.2 0 .2.2.1.3 0 0-.2.1-.2 0l-.4-.2a2.9 2.9 0 00-.7-.2c-.5-.2-1-.1-1-.1a.3.3 0 01-.4-.4c0-.2.1-.3.3-.3z"/><path fill="#f6aea1" d="M159.2 182.1c.5 0 1-.4 1-1s-.5-1-1-1-1 .4-1 1 .5 1 1 1zm9.2.7c.5 0 1-.5 1-1s-.5-1-1-1-1 .4-1 1 .5 1 1 1z"/></g><g fill="#fff" stroke-width=".8"><path d="M39.5 128.3l.5-7c0-.2.1-.4.3-.3h.7c.2 0 .3.2.3.4l-.5 7a1 1 0 00-1.3 0z"/><path d="M40.7 121h-.4c-.2 0-.3 0-.3.2l-.5 7.1.7-.2z"/><path d="M41.3 121.4a.3.3 0 00-.2-.4h-.8c-.1 0-.3 0-.3.3zm3-5.5H44s0-.2.1-.2h.4z"/><path d="M41 128.7v-.2l.4-7.2c0-.2 0-.3-.2-.4h-1c-.2 0-.3 0-.3.2l-.6 7.3v.1l-.2-.1.5-7.3c0-.3.3-.5.6-.5h1c.3.1.5.4.5.7l-.5 7.3H41z"/><path d="M40.6 121.3H40c0-.2.1-.3.3-.3h.4zm3.7 7.6v-.1l.4-7.3c0-.2 0-.3-.2-.3l-1-.1c-.2 0-.3.1-.3.3l-.5 7.3h-.2l.4-7.3c0-.4.3-.6.6-.6l1 .1c.3 0 .5.3.5.6l-.5 7.3-.2.1z"/><path d="M42.8 128.6l.5-7.1c0-.2.1-.3.3-.3h.7c.2 0 .3.2.3.4l-.5 7a1 1 0 00-1.3 0z"/><path d="M44 121.2h-.4c-.2 0-.3.1-.3.3l-.5 7a1 1 0 01.7-.1z"/><path d="M44.6 121.6a.3.3 0 00-.3-.3l-.7-.1c-.2 0-.3.1-.3.3z"/><path d="M44 121.6h-.7c0-.3.1-.4.3-.4h.4zm3.6 7.6v-.2l.4-7.3c0-.1 0-.3-.2-.3h-1c-.2 0-.3 0-.3.2L46 129l-.1.1a.1.1 0 01-.2 0v-.1l.5-7.3c0-.3.3-.6.6-.5h1c.3 0 .5.4.5.7l-.5 7.2-.2.2z"/><path d="M46 128.8l.6-7c0-.3.1-.4.3-.4h.7c.2 0 .3.2.3.4l-.5 7.1a1 1 0 00-1.3-.1z"/><path d="M47.7 121.5h-.4c-.1 0-.3.1-.3.3l-.5 7a1 1 0 01.7-.1z"/><path d="M47.9 121.9c0-.2-.1-.4-.3-.4H47c-.2 0-.3 0-.3.3z"/><path d="M47.2 121.8h-.6c0-.2.1-.3.3-.3h.4zm3-.4l-5-5.1H45a.5.5 0 01-.2-.5l-.1-.2h-1c0 .3 0 .4-.2.5l-5.8 4.4h-.1v-.3l5.7-4.3.2-.2a.4.4 0 01.4-.4h.8c.2 0 .4.3.3.5l.2.2 5 5.2v.2z"/><path d="M43.6 116.3l-5.3 4c.2 0 .5 0 .6.2 0 0 5-1.7 5.4-3.8v-.8H44l-.3.4zM45 116.4l4.7 4.7a1 1 0 00-.6.2s-4.7-2.4-4.8-4.6v-.8h.5c0 .2 0 .3.2.5z"/><path d="M44.3 116h.5s0-.2-.1-.3h-.3z"/></g><g stroke-width=".8"><path fill="#bac2e4" d="M38.5 323.4L41 283c-.7 0-3.6 0-4.5-3.1zm202 1l-3.2-39.2c0 .3-1.3 3.4-3.7 3.4z"/><path fill="#ecf1fb" d="M65 187c4.1 0 7.4-3.7 7.4-8.1s-3.3-8-7.4-8-7.4 3.6-7.4 8 3.3 8 7.4 8z"/><path fill="#fff" d="M67.7 179.4l-2.3 1.2-2.3 1.1.3-2.7.2-2.7 2 1.6z"/><path fill="#ecf1fb" d="M65 246c4.1 0 7.4-3.6 7.4-8s-3.3-8-7.4-8-7.4 3.6-7.4 8 3.3 8 7.4 8z"/><path fill="#fff" d="M67.7 238.6l-2.3 1.1-2.3 1.1.3-2.7.2-2.7 2 1.6z"/></g><path stroke="#dc8a7a" stroke-linecap="round" stroke-miterlimit="10" stroke-width=".6" d="M426.1 179l1.7-9s12.5 1.1 1 17"/><g stroke-width=".8"><path fill="#f08304" d="M330.3 139.6s.5-1.1 1.6-2.5l1-1.1 1.2-1.1 1.4-1 1.7-1 1.7-.7 1-.3h.9c.6-.1 1.2 0 1.7.3.3 0 .6.2.8.3l.7.4a5.5 5.5 0 011.6 1.9c.4.5.5.9.5.9 0 .1 0 .3-.2.4l-1 .2-.8.2-1 .2h-.6l-.6.1H339.5c-.4-.2-.9-.2-1.3-.1l-1.4.2-1.4.4-1.3.6-1.1.5-2.3 1.5h-.4a.2.2 0 010-.3zm52.7 1.8l-.7-.5-1.8-1.4-2.7-1.5-1.6-.6a10.7 10.7 0 00-3.3-.7l-1.5-.1-1.5-.3-1.3-.5-1.2-.4a15 15 0 01-1-.4l-1-.5a.3.3 0 010-.4l.8-.8c.2-.3.5-.5 1-.7.3-.3.8-.5 1.3-.7l1.6-.4h2l1.9.8a25.6 25.6 0 013.6 2c.6.4 1 1 1.6 1.3l1.3 1.3a20.7 20.7 0 012.4 3.4l.5.8-.1.4h-.3z"/><path fill="#dd6f2e" d="M330.3 139.6s.5-1.1 1.6-2.5l1-1.1 1.2-1.1 1.4-1 1.7-1 1.7-.7 1-.3h.9c.6-.1 1.2 0 1.7.3.3 0 .6.2.8.3l.7.4a5.5 5.5 0 011.6 1.9c.4.5.5.9.5.9 0 .1 0 .3-.2.4l-1 .2-.8.2-1 .2h-.6l-.6.1H339.5c-.4-.2-.9-.2-1.3-.1l-1.4.2-1.4.4-1.3.6-1.1.5-2.3 1.5h-.4a.2.2 0 010-.3zm52.7 1.8l-.7-.5-1.8-1.4-2.7-1.5-1.6-.6a10.7 10.7 0 00-3.3-.7l-1.5-.1-1.5-.3-1.3-.5-1.2-.4a15 15 0 01-1-.4l-1-.5a.3.3 0 010-.4l.8-.8c.2-.3.5-.5 1-.7.3-.3.8-.5 1.3-.7l1.6-.4h2l1.9.8a25.6 25.6 0 013.6 2c.6.4 1 1 1.6 1.3l1.3 1.3a20.7 20.7 0 012.4 3.4l.5.8-.1.4h-.3z" opacity=".3"/><path fill="#212d72" d="M390.7 406s-19.3 55.3-55.2 45.6c0 0 30.5 25 36.5 40 0 0 12.6-75.1 18.7-85.5z" opacity=".5"/><path fill="#f3b9ac" d="M418.5 196.8l.8-7c-2-1.7-3-7.8-3-7.8a30.1 30.1 0 002.2 14.8z" opacity=".5"/><path fill="#e3a393" d="M388.4 111.3C393 132.4 376 139 400.3 158a42.5 42.5 0 003.6 2.6c-9.2-7-16.2-20-14.9-32.2 2.1-19.2 1-28.3-9.4-31-4-1-7.6-.2-10.6 1.3 4.6-1.7 15.7-3.9 19.4 12.8z" opacity=".5"/></g><path stroke="#dc8a7a" stroke-linecap="round" stroke-miterlimit="10" d="M353.3 141.4s-4 37.6-7.4 39.7c-2 1.2 9.6 5 9.6 5"/><g stroke-width=".8"><path fill="#dc8a7a" d="M368.7 195s-6.6 10.2-17.8 12.8c0 0 7.7 4.6 15-.3 7.1-4.8 2.8-12.6 2.8-12.6z" opacity=".5"/><path fill="#36332f" d="M371.3 158c1.7-.2 3-2.4 2.7-4.8-.3-2.4-2-4.2-3.6-4-1.8.2-3 2.4-2.7 4.8.2 2.4 1.9 4.2 3.6 4zm-32.2.2c1.5-.2 2.5-2.3 2.2-4.6-.3-2.3-1.8-4-3.3-3.8-1.6.3-2.6 2.3-2.2 4.7.2 2.3 1.7 4 3.3 3.7z"/></g></svg>
