<svg xmlns="http://www.w3.org/2000/svg">
  <symbol viewBox="0 0 80 80" id="who_suits1">
    <path fill="#ffd54f"
          d="M65.58 43.87c0 2.04-.62 4.04-1.77 5.74a10.46 10.46 0 01-4.71 3.8 10.65 10.65 0 01-11.44-2.24 10.27 10.27 0 01-2.27-11.25c.8-1.89 2.14-3.5 3.86-4.63a10.62 10.62 0 0113.25 1.29 10.25 10.25 0 013.07 7.3zm10.49 0a20.4 20.4 0 01-3.54 11.47c-2.3 3.4-5.58 6.04-9.42 7.6S55.06 64.92 51 64.12a21.1 21.1 0 01-10.74-5.65 20.33 20.33 0 01-4.55-22.5c1.58-3.77 4.27-7 7.73-9.26a21.23 21.23 0 0126.48 2.57 20.5 20.5 0 016.16 14.6zm-7.87 0c0-2.55-.77-5.05-2.21-7.17a13.07 13.07 0 00-5.89-4.75 13.32 13.32 0 00-14.3 2.8 12.71 12.71 0 00-2.84 14.06 13 13 0 004.84 5.79A13.27 13.27 0 0064.35 53a12.81 12.81 0 003.85-9.13zm-32.22 13.6l-5.75 16.96a1.27 1.27 0 00.24 1.24 1.31 1.31 0 001.19.45l8.62-1.22 6.11 4.82a1.32 1.32 0 002-.43l6.2-12.22a23.86 23.86 0 01-10.45-2.65 23.45 23.45 0 01-8.16-6.96zm43.95 16.96l-5.75-16.97a23.46 23.46 0 01-8.15 6.96 23.87 23.87 0 01-10.46 2.65l6.2 12.22a1.3 1.3 0 00.9.68 1.33 1.33 0 001.1-.25l6.1-4.82 8.63 1.22a1.34 1.34 0 001.2-.45 1.28 1.28 0 00.23-1.24z"/>
    <path fill="#4f4f4f"
          d="M56.4 0H20.98c-2.43 0-4.76.96-6.48 2.65a8.97 8.97 0 00-2.7 6.38v41.3H3.93c-1.04 0-2.04.4-2.78 1.13A3.84 3.84 0 000 54.19v1.3c0 2.39.97 4.68 2.7 6.38a9.27 9.27 0 006.48 2.65h31.48c2.43 0 4.76-.96 6.48-2.65a8.97 8.97 0 002.7-6.39V14.2h11.8c1.04 0 2.05-.4 2.78-1.13a3.84 3.84 0 001.16-2.74v-1.3c0-2.4-.98-4.69-2.7-6.38A9.27 9.27 0 0056.4 0zM9.18 61.94a6.6 6.6 0 01-4.63-1.9 6.4 6.4 0 01-1.93-4.56V54.2a1.32 1.32 0 011.31-1.29h26.23a1.32 1.32 0 011.32 1.29v1.3a8.88 8.88 0 002.76 6.45zm38.04-6.46c0 1.71-.7 3.36-1.93 4.57a6.61 6.61 0 01-9.27 0 6.4 6.4 0 01-1.92-4.57V54.2c0-1.02-.41-2-1.15-2.73a3.97 3.97 0 00-2.78-1.14H14.43V9.03c0-1.7.7-3.35 1.92-4.56a6.62 6.62 0 014.63-1.89h28.99a9 9 0 00-2.76 6.45zm15.73-45.16a1.3 1.3 0 01-1.31 1.29h-11.8V9.03c0-1.7.69-3.35 1.92-4.56a6.61 6.61 0 019.27 0 6.4 6.4 0 011.92 4.56zM41.97 9.03a1.32 1.32 0 01-1.31 1.29H24.92a1.3 1.3 0 01-.93-.38 1.28 1.28 0 010-1.82c.25-.24.58-.38.93-.38h15.74c.35 0 .68.14.92.38.25.24.39.57.39.91zm0 11.62a1.32 1.32 0 01-1.31 1.29H20.98c-.34 0-.68-.14-.92-.38a1.28 1.28 0 010-1.83c.24-.24.58-.38.92-.38h19.68c.35 0 .68.14.92.38.25.24.39.57.39.92zm0 7.74a1.32 1.32 0 01-1.31 1.29H20.98c-.34 0-.68-.14-.92-.38a1.28 1.28 0 010-1.83c.24-.24.58-.37.92-.37h19.68a1.28 1.28 0 011.31 1.29zm0 7.74a1.32 1.32 0 01-1.31 1.29H20.98c-.34 0-.68-.14-.92-.38a1.28 1.28 0 010-1.82c.24-.25.58-.38.92-.38h19.68c.35 0 .68.13.92.38.25.24.39.57.39.9zm0 7.74a1.32 1.32 0 01-1.31 1.29H20.98c-.34 0-.68-.13-.92-.38a1.28 1.28 0 010-1.82c.24-.24.58-.38.92-.38h19.68c.35 0 .68.14.92.38.25.24.39.57.39.91z"/>
  </symbol>
  <symbol viewBox="0 0 80 80" id="who_suits2">
    <path fill="#a5d1fa"
          d="M64 38.78c4.12.3 7.99 2.03 10.9 4.86s4.71 6.57 5.03 10.55H64zm-2.67 15.41V38.78a17.6 17.6 0 00-10.9 4.86 16.54 16.54 0 00-5.03 10.55zm-16 2.58v6.46c0 4.45 1.83 8.71 5.08 11.86S58.07 80 62.67 80s9-1.77 12.25-4.91A16.5 16.5 0 0080 63.23v-6.46zm15.3-20.54a20.64 20.64 0 014 0 13.99 13.99 0 00-4.58-9.78 14.93 14.93 0 00-10.34-3.86c-3.84.07-7.5 1.6-10.19 4.25s-4.19 6.22-4.19 9.93v35.49A3.8 3.8 0 0134.16 75a4.07 4.07 0 01-5.65 0 3.8 3.8 0 01-1.18-2.74V51.6c0-.51-.2-1-.58-1.37a2.03 2.03 0 00-2.83 0 1.9 1.9 0 00-.59 1.37v20.65c0 2.05.85 4.02 2.35 5.47A8.14 8.14 0 0031.33 80c2.13 0 4.16-.82 5.66-2.27a7.62 7.62 0 002.34-5.47V36.77c0-2.69 1.09-5.27 3.02-7.2a10.83 10.83 0 017.36-3.11c2.78-.07 5.48.9 7.52 2.73a10.18 10.18 0 013.4 7.04z"/>
    <path fill="#4f4f4f"
          d="M62.67 0H4C2.94 0 1.92.4 1.17 1.13A3.8 3.8 0 000 3.87V52.9a3.8 3.8 0 001.17 2.74A4.07 4.07 0 004 56.77h58.67c1.06 0 2.08-.4 2.83-1.13a3.8 3.8 0 001.17-2.74V3.87a3.8 3.8 0 00-1.17-2.74A4.07 4.07 0 0062.67 0zM4 2.58h58.67c.35 0 .69.14.94.38s.39.57.39.91v3.87H2.67V3.87c0-.34.14-.67.39-.91s.59-.38.94-.38zM62.67 54.2H4c-.35 0-.7-.13-.94-.37a1.3 1.3 0 01-.4-.92V10.32H64V52.9a1.32 1.32 0 01-1.33 1.29zM50.73 24.7l-14.92-5.78a6.85 6.85 0 00-4.95 0L15.93 24.7c-.5.2-.92.52-1.21.95a2.52 2.52 0 000 2.9c.3.42.72.75 1.21.94L20 31.07v11.51a1.26 1.26 0 00.6 1.07 23.45 23.45 0 0012.73 3.75c4.54 0 8.97-1.3 12.74-3.75a1.3 1.3 0 00.6-1.07V31.07l4.07-1.58c.49-.19.91-.52 1.21-.95a2.52 2.52 0 000-2.89c-.3-.43-.72-.76-1.22-.95zM44 41.88a20.74 20.74 0 01-21.33 0V32.1l8.19 3.17c1.59.62 3.36.62 4.95 0l.19-.07V40c0 .34.14.67.4.91a1.36 1.36 0 001.88 0c.25-.24.39-.57.39-.91v-5.84L44 32.1zm-6.13-10.19l-3.4-5.28a1.37 1.37 0 00-1.84-.41 1.26 1.26 0 00-.43 1.78l3.15 4.88-.53.21c-.95.37-2.02.37-2.97 0l-10-3.87-4.93-1.9 14.93-5.78a4.11 4.11 0 012.97 0l14.92 5.78z"/>
  </symbol>
  <symbol viewBox="0 0 80 80" id="who_suits3">
    <g fill="#ffd54f">
      <path
        d="M60.8 64.76H42.88a1.29 1.29 0 00-1.28 1.27V80h20.48V66.03a1.26 1.26 0 00-1.28-1.27zm-2.56 5.08h-12.8a1.28 1.28 0 01-1.28-1.27 1.26 1.26 0 011.28-1.27h12.8a1.29 1.29 0 011.28 1.27 1.26 1.26 0 01-1.28 1.27z"/>
      <path
        d="M32.64 78.73A1.26 1.26 0 0033.92 80h5.12V66.03a3.8 3.8 0 013.84-3.8H60.8a3.86 3.86 0 013.84 3.8V80h5.12a1.28 1.28 0 001.28-1.27V54.6h-38.4zm41.6-40.63c0-2.36-.94-4.62-2.62-6.29a9 9 0 00-6.34-2.6h-7.04v-1.27a3.8 3.8 0 00-3.84-3.81h-5.12a3.86 3.86 0 00-3.84 3.8v1.28H38.4a9 9 0 00-6.34 2.6 8.85 8.85 0 00-2.62 6.29v10.15a3.8 3.8 0 003.84 3.81H70.4a3.86 3.86 0 003.84-3.8zm-18.56-8.9H48v-1.26a1.26 1.26 0 011.28-1.27h5.12a1.29 1.29 0 011.28 1.27zM27.52 59.68a3.86 3.86 0 00-3.84 3.81v12.7A3.8 3.8 0 0027.52 80h2.56V59.68zm48.64 0H73.6V80h1.28c3.84 0 5.12-1.97 5.12-3.8V63.5a3.8 3.8 0 00-3.84-3.82z"/>
    </g>
    <path fill="#4f4f4f"
          d="M43.09 26.67A12.75 12.75 0 0132 33.02a12.88 12.88 0 01-11.08-6.35 1.26 1.26 0 01.92-1.94 1.29 1.29 0 011.29.67A10.2 10.2 0 0032 30.48a10.3 10.3 0 008.87-5.08 1.27 1.27 0 011.29-.67 1.29 1.29 0 011.09.96 1.26 1.26 0 01-.17.98zM64 9.2v4.76a3.8 3.8 0 01-3.84 3.81h-5.12c-.95 0-1.9-.15-2.8-.44a20.2 20.2 0 01-3.35 14.46 20.45 20.45 0 01-9.52 7.45 24.36 24.36 0 019.5 5.62 24.1 24.1 0 016.02 9.21v.07c.57 1.6.98 3.27 1.2 4.96a3.78 3.78 0 01-2.24 4.01c-.5.23-1.05.34-1.6.34H11.69a3.87 3.87 0 01-3.72-2.73 3.78 3.78 0 01-.12-1.62c.6-4.55 2.5-8.83 5.47-12.35a24.33 24.33 0 0111.3-7.5 20.45 20.45 0 01-9.5-7.46 20.2 20.2 0 01-3.6-11.48c.01-1 .1-2 .24-2.98-.9.3-1.85.44-2.8.44H3.84A3.86 3.86 0 010 13.98V9.2a9.09 9.09 0 012.49-6.33A9.23 9.23 0 018.69 0a9.01 9.01 0 018.76 6.05A20.49 20.49 0 0132 .03a20.62 20.62 0 0114.55 6.02 8.9 8.9 0 0114.96-3.17A9.09 9.09 0 0164 9.2zM33.34 2.6a17.71 17.71 0 005.18 11.26 17.98 17.98 0 0011.34 5.18A17.71 17.71 0 0044.68 7.8a17.98 17.98 0 00-11.34-5.2zm-19.2 16.44c4.28-.32 8.29-2.15 11.32-5.15s4.87-7 5.2-11.23a17.98 17.98 0 00-11.32 5.16c-3.03 3-4.87 6.98-5.2 11.22zm-1.65-4.82c.65-2 1.6-3.89 2.83-5.6a6.33 6.33 0 00-2.02-4.37 6.43 6.43 0 00-4.53-1.72 6.56 6.56 0 00-6.2 6.67v4.76a1.26 1.26 0 001.27 1.27h5.12c1.26 0 2.49-.38 3.53-1.08zM32 40.63c-1.59.01-3.17.19-4.71.54A4.97 4.97 0 0032 44.46a5.03 5.03 0 004.71-3.29 21.52 21.52 0 00-4.71-.53zM11.69 60.96h6.4l.21-1.72-7.19-2.92c-.3 1.03-.53 2.09-.68 3.16a1.26 1.26 0 00.72 1.36c.17.08.35.12.54.12zm41.9-1.48a21.7 21.7 0 00-.69-3.16l-7.2 2.92.23 1.72h6.4a1.29 1.29 0 001.23-.94c.04-.17.05-.36.02-.54zM39.21 41.9c-.2.23-1.8 5.08-7.22 5.08-5.43 0-7.04-4.9-7.22-5.08a21.8 21.8 0 00-12.8 12.03l6.58 2.67.6-4.7a1.27 1.27 0 01.93-1.08 1.3 1.3 0 011.6.89c.04.16.05.33.03.5l-1.07 8.73h22.7l-1.1-8.73a1.27 1.27 0 011.13-1.43 1.3 1.3 0 011.43 1.12l.6 4.7 6.67-2.7a21.46 21.46 0 00-12.86-12zm10.64-20.32A20.58 20.58 0 0138.9 17.6a20.33 20.33 0 01-6.97-9.27A20.33 20.33 0 0125 17.57a20.58 20.58 0 01-10.87 4.02 17.72 17.72 0 005.74 11.59 18 18 0 0024.24 0 17.72 17.72 0 005.74-11.59zM61.38 9.27a6.53 6.53 0 00-1.71-4.59 6.64 6.64 0 00-4.44-2.14 6.45 6.45 0 00-4.67 1.8 6.21 6.21 0 00-1.9 4.22 20.25 20.25 0 012.82 5.6 6.36 6.36 0 003.56 1.08h5.12a1.29 1.29 0 001.28-1.27z"/>
  </symbol>
  <symbol viewBox="0 0 80 80" id="who_suits4">
    <path fill="#a5d1fa"
          d="M74.16 27.7a20.64 20.64 0 00-6.72-4.92 19.21 19.21 0 00-15.9 0 20.64 20.64 0 00-6.71 4.92 23.95 23.95 0 00-5.85 16.17 23.82 23.82 0 006.31 15.96l11.46 12.46c.36.39.78.7 1.25.91a3.6 3.6 0 004.22-.91l11.46-12.46A23.83 23.83 0 0080 43.87a23.95 23.95 0 00-5.84-16.17zM59.49 51.93a7.3 7.3 0 01-4.3-1.42 8.3 8.3 0 01-2.86-3.78 9.11 9.11 0 01-.44-4.86 8.67 8.67 0 012.12-4.32 7.57 7.57 0 013.97-2.3 7.17 7.17 0 014.47.48 7.92 7.92 0 013.47 3.1 8.95 8.95 0 01-.96 10.63 7.45 7.45 0 01-5.47 2.47zm0 22.46a2.47 2.47 0 00-2.22 1.4H46.23a2.68 2.68 0 00-.94-1.03 2.4 2.4 0 00-2.57 0c-.39.25-.71.6-.93 1.03h-1.66a6.2 6.2 0 01-4.56-2.06 7.35 7.35 0 01-1.9-4.96v-.39c.4-.25.73-.6.96-1.03a2.97 2.97 0 00-.03-2.82 2.67 2.67 0 00-.97-1.01 10.22 10.22 0 00-2.54-5.83 8.8 8.8 0 00-5.31-2.87 5.67 5.67 0 00-2.05-3.3 4.87 4.87 0 00-6.8.78 5.9 5.9 0 00-1.37 3.7c-.03 1.36.4 2.7 1.21 3.75a5.1 5.1 0 003.2 1.94 4.9 4.9 0 003.57-.83 5.62 5.62 0 002.18-3.2c1.35.25 2.59.96 3.54 2.03A7.25 7.25 0 0131 63.6a2.7 2.7 0 00-.9 1.04 2.99 2.99 0 00.06 2.74c.23.42.55.76.93 1v.4c0 2.6.96 5.1 2.65 6.93a8.69 8.69 0 006.38 2.89h1.65c.23.42.55.78.94 1.02a2.4 2.4 0 002.57 0c.39-.24.71-.6.94-1.02h11.04c.22.42.55.78.94 1.02a2.42 2.42 0 002.59 0c.39-.25.72-.6.94-1.03a3 3 0 000-2.81 2.7 2.7 0 00-.96-1.03 2.5 2.5 0 00-1.3-.37z"/>
    <path fill="#4f4f4f"
          d="M64.11 25.45l-6.76-14.7c-.32-.7-.81-1.3-1.42-1.7a3.62 3.62 0 00-2.04-.63H41.3V4.21a4.4 4.4 0 00-1.13-2.98A3.72 3.72 0 0037.42 0H1.3C.95 0 .62.15.38.41a1.48 1.48 0 000 1.99c.24.26.57.4.91.4h36.13c.34 0 .67.15.91.42.25.26.38.62.38 1V42.1h-13a10.08 10.08 0 00-3.03-6.02 8.6 8.6 0 00-5.9-2.4 8.6 8.6 0 00-5.91 2.4 10.08 10.08 0 00-3.02 6.02H1.29c-.34 0-.67.14-.91.4a1.52 1.52 0 000 2c.24.25.57.4.91.4h6.56a10 10 0 003.02 6.02 8.6 8.6 0 005.9 2.4 8.6 8.6 0 005.91-2.4 10.08 10.08 0 003.02-6.02h13.11a10.11 10.11 0 003.02 6.03 8.6 8.6 0 005.92 2.4 8.6 8.6 0 005.9-2.4 10.08 10.08 0 003.03-6.03h3.97c1.02 0 2-.44 2.73-1.23a4.4 4.4 0 001.14-2.98V27.33a2.85 2.85 0 00-.4-1.88zM53.9 11.23c.24 0 .48.07.68.2.2.14.37.34.47.57l6.1 13.26H41.29V11.23zm-37.12 39.3a6.09 6.09 0 01-3.58-1.19 6.92 6.92 0 01-2.38-3.15 7.6 7.6 0 01-.36-4.05 7.23 7.23 0 011.76-3.6 6.3 6.3 0 013.3-1.91c1.26-.28 2.55-.14 3.73.4s2.19 1.43 2.9 2.58a7.46 7.46 0 01-.8 8.86 6.2 6.2 0 01-4.57 2.06zm30.97 0a6.09 6.09 0 01-3.58-1.19 6.92 6.92 0 01-2.38-3.15 7.54 7.54 0 011.4-7.65 6.3 6.3 0 013.3-1.91c1.26-.28 2.55-.14 3.73.4s2.19 1.43 2.9 2.58a7.46 7.46 0 01-.8 8.86 6.2 6.2 0 01-4.57 2.06zm12.9-8.43h-3.96a10.24 10.24 0 00-2.03-4.92 9.02 9.02 0 00-4.1-3.01 8.32 8.32 0 00-4.96-.2 8.87 8.87 0 00-4.3 2.68v-8.58h20.65V40.7c0 .37-.14.73-.38 1-.24.26-.57.4-.91.4zM0 11.23c0-.37.13-.73.38-1 .24-.26.57-.4.9-.4h7.75c.34 0 .67.14.91.4.25.27.38.63.38 1s-.13.73-.38.99c-.24.26-.57.41-.9.41H1.28c-.34 0-.67-.15-.91-.41a1.47 1.47 0 01-.38-1zm0 9.82c0-.37.13-.73.38-.99.24-.26.57-.41.9-.41h7.75c.34 0 .67.15.91.41.25.26.38.62.38 1 0 .36-.13.72-.38.98-.24.27-.57.42-.9.42H1.28c-.34 0-.67-.15-.91-.42a1.47 1.47 0 01-.38-.99zm0 9.83c0-.38.13-.73.38-1 .24-.26.57-.4.9-.4h7.75c.34 0 .67.14.91.4.25.27.38.62.38 1s-.13.73-.38.99c-.24.26-.57.41-.9.41H1.28c-.34 0-.67-.15-.91-.41a1.47 1.47 0 01-.38-1z"/>
  </symbol>
  <symbol viewBox="0 0 80 80" id="who_suits5">
    <path fill="#ffd54f"
          d="M79.48 38.3L48.52 14.69a1.28 1.28 0 00-1.55 0L16 38.29a1.3 1.3 0 00-.51 1.05v3.94c0 1.04.4 2.04 1.13 2.78a3.84 3.84 0 002.74 1.15h1.29V78.7a1.28 1.28 0 001.29 1.3h51.6a1.3 1.3 0 001.3-1.31V47.2h1.29c1.03 0 2.01-.41 2.74-1.15A3.97 3.97 0 0080 43.28v-3.94a1.33 1.33 0 00-.52-1.05zM64.52 56.4c0 .34-.14.67-.38.92s-.57.38-.91.38h-9.04v9.18a1.28 1.28 0 01-1.29 1.31H42.58c-.34 0-.67-.13-.91-.38a1.32 1.32 0 01-.38-.93V57.7h-9.03c-.34 0-.67-.13-.91-.38a1.32 1.32 0 01-.38-.93V45.9a1.3 1.3 0 011.28-1.31h9.04V35.4a1.3 1.3 0 011.29-1.31H52.9c.35 0 .67.14.92.38.24.25.37.58.37.93v9.18h9.04a1.31 1.31 0 011.29 1.31z"/>
    <path fill="#ffd54f"
          d="M51.61 45.9v-9.18h-7.74v9.18a1.3 1.3 0 01-1.28 1.31h-9.04v7.87h9.03a1.32 1.32 0 011.29 1.31v9.18h7.74V56.4a1.32 1.32 0 011.29-1.31h9.04v-7.87H52.9c-.34 0-.67-.13-.9-.38a1.32 1.32 0 01-.39-.93z"/>
    <path fill="#4f4f4f"
          d="M58.34 48.69c-.11-.03-.24-.04-.36-.06-.4-.07-.8-.1-1.2-.1H45.15V23.6c0-.45-.08-.9-.24-1.31h4.11c1.03 0 2.02-.42 2.74-1.15a3.97 3.97 0 00.01-5.57 3.84 3.84 0 00-2.74-1.16l-33.55-.1V3.9c0-1.04-.41-2.03-1.13-2.76A3.82 3.82 0 0011.64 0H3.87a3.82 3.82 0 00-2.85 1.28 3.95 3.95 0 003 6.59h3.72v24.98a16.77 16.77 0 00-5.22 5.38A17.34 17.34 0 00.95 52.88c.84 2.4 2.19 4.59 3.96 6.39a16.52 16.52 0 0020.7 2.43 16.9 16.9 0 005.3-5.3h18.12a8 8 0 001.2 4.2 7.63 7.63 0 0011.43 1.9 7.87 7.87 0 002.64-7.98 7.9 7.9 0 00-2.15-3.8 7.7 7.7 0 00-3.8-2.03zm-9.3-31.65c.34 0 .67.14.9.39a1.33 1.33 0 010 1.86c-.23.24-.56.38-.9.38h-27.1a1.32 1.32 0 00-.91 2.24c.24.25.56.38.9.38H41.3a1.32 1.32 0 011.29 1.31v24.92H33.5a17.21 17.21 0 00-4.86-13.36 16.66 16.66 0 00-13.15-4.94V16.94zM4.01 5.24c-.34.02-.68-.1-.94-.31a1.43 1.43 0 01-.5-.87 1.34 1.34 0 01.77-1.32c.17-.08.34-.12.52-.12h7.77c.34 0 .66.14.9.38.23.24.36.57.36.9v26.72c-.87.23-1.73.51-2.58.85V6.56a1.28 1.28 0 00-1.29-1.31zm12.76 56.4c-2.81 0-5.56-.85-7.89-2.43a14.38 14.38 0 01-5.23-6.48 14.65 14.65 0 013.08-15.72 13.98 13.98 0 0115.47-3.13c2.6 1.1 4.8 2.95 6.37 5.32a14.6 14.6 0 01-1.77 18.2 14.1 14.1 0 01-10.03 4.24zm15.49-7.87c.33-.86.6-1.73.83-2.62H51l-.01.02a7.71 7.71 0 00-1.46 2.5l-.06.1zm24.5 7.87a5.12 5.12 0 01-3.64-1.54 5.29 5.29 0 01.38-7.77 5.11 5.11 0 017.42.95 5.3 5.3 0 01-.7 7 5.11 5.11 0 01-3.45 1.36z"/>
    <path fill="#383a3b"
          d="M33.55 27.54h2.58a1.32 1.32 0 011.29 1.31v2.63c0 .34.14.68.38.92a1.28 1.28 0 001.82 0c.24-.24.38-.58.38-.92v-2.63c0-1.04-.4-2.04-1.13-2.78a3.84 3.84 0 00-2.74-1.15h-2.58c-.34 0-.67.14-.91.38a1.32 1.32 0 000 1.86c.24.24.57.38.9.38zm-16.78 7.87c-2.3 0-4.54.7-6.45 1.99a11.76 11.76 0 00-4.27 5.3 11.98 11.98 0 002.51 12.86 11.44 11.44 0 0012.66 2.56c2.12-.9 3.93-2.4 5.21-4.35a11.94 11.94 0 00-1.45-14.9 11.53 11.53 0 00-8.2-3.46zm0 20.98a8.93 8.93 0 01-5.01-1.54 9.32 9.32 0 01-1.37-14.12 8.99 8.99 0 019.84-2 9.07 9.07 0 014.05 3.38 9.29 9.29 0 01-1.12 11.6 8.97 8.97 0 01-6.38 2.68z"/>
  </symbol>
  <symbol viewBox="0 0 80 80" id="who_suits6">
    <g fill="#a5d1fa">
      <path
        d="M79.29 35.13l-30.97-15a1.33 1.33 0 00-1.16 0l-30.96 15c-.22.1-.4.26-.52.46s-.2.43-.2.66v7.5a1.22 1.22 0 00.61 1.07 1.32 1.32 0 001.26.05l30.4-14.72 30.38 14.72a1.33 1.33 0 001.26-.05 1.24 1.24 0 00.61-1.07v-7.5a1.28 1.28 0 00-.71-1.12z"/>
      <path
        d="M78.71 77.5h-3.87V45.77l-27.1-13.12-27.1 13.12V77.5h-3.87c-.34 0-.67.13-.9.37a1.23 1.23 0 000 1.76c.23.24.56.37.9.37h14.2V51.25c0-.33.13-.65.38-.88.24-.24.57-.37.9-.37h30.98c.34 0 .67.13.9.37.25.23.39.55.39.88V80h14.2c.33 0 .66-.13.9-.37a1.23 1.23 0 000-1.76 1.31 1.31 0 00-.9-.37zm-6.45-56.25c0-1-.41-1.95-1.14-2.65a3.94 3.94 0 00-2.73-1.1h-5.16c-1.03 0-2.02.4-2.74 1.1a3.7 3.7 0 00-1.14 2.65v1.43l12.9 6.25z"/>
      <path
        d="M49.03 52.5h12.9V60h-12.9zm0 10h12.9V70h-12.9zm-15.48 10h12.9V80h-12.9zm15.48 0h12.9V80h-12.9zm-15.48-20h12.9V60h-12.9zm0 10h12.9V70h-12.9z"/>
    </g>
    <path fill="#4f4f4f"
          d="M56.76 16a8.45 8.45 0 00-.45-2.5l-.02-.04a8.77 8.77 0 00-3.28-4.3 9.22 9.22 0 00-10.53 0 8.77 8.77 0 00-3.29 4.3v.03a8.48 8.48 0 00-.47 2.5l-5.24 13.9a15.99 15.99 0 00-3.55-8.68 16.8 16.8 0 00-7.88-5.36 8.77 8.77 0 003.3-4.37c.6-1.76.6-3.65.02-5.42a8.77 8.77 0 00-3.28-4.38 9.23 9.23 0 00-10.63 0 8.77 8.77 0 00-3.28 4.38 8.49 8.49 0 00.01 5.42 8.77 8.77 0 003.3 4.37 16.77 16.77 0 00-8.3 5.91A15.93 15.93 0 000 31.26v27.5c0 1 .4 1.95 1.13 2.66.73.7 1.71 1.1 2.74 1.1h56.78c1.02 0 2-.4 2.73-1.1a3.7 3.7 0 001.14-2.66v-20c0-4.16-6.08-18.64-7.76-22.76zm-.05 32.76a12.3 12.3 0 00-2.54-6.26 12.89 12.89 0 00-5.52-4.09c.92-.7 1.67-1.6 2.18-2.62a7.3 7.3 0 00.78-3.28h8.75a13.38 13.38 0 011.58 6.25v10zM2.58 40.03h7.7L8.5 45.8c0 .02-.02.02-.02.03a12.1 12.1 0 00-.67 2.92H2.58zM20.64 27.5a5.27 5.27 0 014.46 2.53h-8.9c.44-.76 1.1-1.4 1.87-1.84a5.27 5.27 0 012.58-.69zm5.17 5.03c0 1.33-.55 2.6-1.52 3.54a5.25 5.25 0 01-7.3 0 4.92 4.92 0 01-1.5-3.54zM20.64 40c1.36 0 2.68-.34 3.85-1a7.63 7.63 0 002.83-2.72L30.45 45H11.43l2.64-8.55a7.64 7.64 0 002.81 2.6c1.15.62 2.45.95 3.76.95zM10.32 57.5h20.65V60H10.32zm0-2.5v-5c0-.84.11-1.68.33-2.5h20c.21.82.32 1.66.32 2.5v5zm23.23-5a9.8 9.8 0 012.58-6.6c1.67-1.83 3.96-3 6.45-3.31V55h-9.03zm5.16-17.5c0-.99.3-1.95.87-2.77a5.13 5.13 0 012.31-1.85 5.32 5.32 0 015.63 1.09 4.95 4.95 0 011.12 5.45c-.4.91-1.05 1.7-1.9 2.24a5.28 5.28 0 01-6.52-.62 4.92 4.92 0 01-1.51-3.54zm6.45 7.59c2.5.3 4.78 1.48 6.45 3.3A9.83 9.83 0 0154.19 50v5h-9.03zm9.03-23.84c0 1.66-.68 3.25-1.89 4.42a6.56 6.56 0 01-9.12 0 6.15 6.15 0 01-1.78-5.46h12.68c.07.34.1.7.11 1.04zM47.74 10a6.61 6.61 0 015.3 2.7h-10.6a6.61 6.61 0 015.3-2.7zM39.8 20.43a8.88 8.88 0 003.33 3.35 9.25 9.25 0 009.26-.02 8.88 8.88 0 003.31-3.37L59.43 30h-8.27a7.52 7.52 0 00-2.82-3.62 7.9 7.9 0 00-8.94 0A7.55 7.55 0 0036.58 30h-.4zm-.7 17.98a12.9 12.9 0 00-5.55 4.14v-3.79c0-2.17.55-4.31 1.58-6.25h1a7.3 7.3 0 002.97 5.9zm-8.13-7.15v7.59l-2.69-7.5a7.33 7.33 0 00-1.22-3.04 7.88 7.88 0 00-9-2.86v-7.87c3.53.31 6.8 1.89 9.19 4.42a13.53 13.53 0 013.72 9.26zM16.77 2.51a6.6 6.6 0 015.24 2.63H11.53a6.6 6.6 0 015.24-2.63zm-6.45 6.25c0-.37.04-.75.12-1.12H23.1a5.94 5.94 0 01-1.78 5.54 6.56 6.56 0 01-9.12 0 6.15 6.15 0 01-1.89-4.42zm5.16 8.82v9.36A7.45 7.45 0 0013.06 31l-2.01 6.53H2.58v-6.27A13.5 13.5 0 016.3 22a14.38 14.38 0 019.18-4.42zM2.58 58.76v-7.5h5.16v8.75H3.87c-.34 0-.67-.13-.91-.36a1.23 1.23 0 01-.38-.89zm30.97-1.25h20.64v2.5H33.55zm27.1 2.5h-3.88v-8.75h5.16v7.5a1.24 1.24 0 01-1.29 1.25z"/>
  </symbol>
</svg>
