<svg xmlns="http://www.w3.org/2000/svg">
  <symbol viewBox="0 0 120 125" id="why_dz1">
    <g stroke-width=".77">
      <path fill="#e8f1f7"
            d="M11.51 110.29s11.3 24.98 69.52 9.82c58.96-15.36 44.59-89.42-.44-94.05-45.02-4.64-51.93-9.26-55.1 1.86-3.16 11.13 2.13 24.1-12.8 35.47-14.93 11.36-18.35 24.6-1.18 46.9z"/>
      <path fill="#f04f49" d="M76.13 98.72L55.36 97.4l3.66 26.9c5.53-.61 11.7-1.69 18.52-3.33z"/>
      <path fill="#f2b2a4"
            d="M86.7 49.88c-1.14-.6-5.57-1.08-5.57-1.08s-6.54.18-6.54-8.92.88-7.15.88-7.15 3.47.9 4.1-2.85c.63-3.75-4.18-4.11-5.34-1.61 0 0-1.25-10-1.52-10.26-.26-.27-5.87-5.27-7.12-5.27s-10.94 3.23-10.94 5.01c0 0-5.88 23.11 6.86 25.88 0 0 1.24 2.65-.67 4.76-15.03-.32-17.65 10.67-17.65 10.67l-.07 1.2c-.41 3.75 8.93 14.84 8.93 14.84s.4 4.58-.65 11c-1.07 6.43.65 6.9 1.48 8.57.83 1.66 7.47 9.17 7.89 9.34.41.18 12.28 2.09 12.7 2.09.4 0 1-14.64 1-14.64l7.48 2.97 4.98-31.4z"/>
      <path fill="#2d2e2d"
            d="M56.5 24.82l-.31-.18c.02-.03.48-.78 1.26-.88.5-.06 1.01.16 1.5.66l-.25.26c-.4-.42-.82-.61-1.21-.56-.6.07-.99.7-1 .7zm8.01 0l-.3-.18c.02-.03.48-.78 1.26-.88.5-.06 1 .16 1.5.66l-.25.26c-.41-.42-.82-.61-1.21-.56-.6.07-.99.7-1 .7z"/>
      <path fill="#d8816e"
            d="M59.45 35.9a.26.26 0 01-.23-.12c-.47-.66 1.47-6.59 2.07-8.38l.34.12c-1.2 3.56-2.3 7.47-2.13 8.03.77 0 2.03-.03 2.03-.03v.36l-2.09.02z"/>
      <path fill="#f2b2a4"
            d="M82.57 48.98l-1.03-.13c.07 2.34.24 9.45-.58 12.69-1 3.98-1.7 4.27-5.02 4.49-3.33.21 5.71 4.27 6.5-1.81.65-4.99 1.31-12.55.13-15.24z"/>
      <path fill="#d8816e"
            d="M54.29 34.71a2.08 2.08 0 10-.01-4.16 2.08 2.08 0 000 4.16zm14.95 0a2.08 2.08 0 100-4.16 2.08 2.08 0 000 4.16z"/>
      <path fill="#202751"
            d="M57.57 29.12c.34 0 .62-.43.62-.95 0-.53-.28-.95-.62-.95-.35 0-.63.42-.63.95 0 .52.28.95.63.95z"/>
      <path fill="#f2b2a4" d="M50.9 50.47s5.63 10.43 2.22 24.72c-3.42 14.3 1.35-.98 1.35-.98s3.14-16.85-3.58-23.74z"/>
      <path fill="#e84842"
            d="M85.92 49.88l-.07-.3c-1.11-.3-2.79-.6-3.88-.72.15 3.74.43 16.82-3.53 17.02-4.63.23-14.18 2.32-17.27-6.66-2.37-6.9-3.4-9.73-3.76-10.67a21 21 0 00-3.32.65l-1.5.5c-.6.24-1.17.5-1.7.77.76 1.44 6.1 12.21 2.4 25-3.98 13.73 2.37 24.08 11.03 25.57 2.84.49 6.3.37 9.67-.02.26-4.23.48-9.56.48-9.56l7.48 2.97 4.98-31.4-.04-2.2c-.33-1.2-.55-1.8-.55-1.8z"/>
      <path fill="#f2b2a4"
            d="M54.8 17.4s6.66-3.27 8.72 2.1c2.06 5.39 4.23 12.18 8.72 10.12l-6.45-11.8s-9.86-4.02-11-3.25c-1.14.75.02 2.83.02 2.83z"/>
      <path fill="#202751"
            d="M65.42 29.12c.34 0 .62-.43.62-.95 0-.53-.28-.95-.62-.95-.35 0-.63.42-.63.95 0 .52.28.95.63.95z"/>
      <path fill="#2d2e2d"
            d="M96.22 42.83c-2.65-1.84-6.14.88-4-7.77 2.13-8.65-2.23-10.7-4.99-10.97-2.76-.27-4.98-2.14-3.38-6.24C85.45 13.74 83.5 0 71.38 0c-12.1 0-14.14 6.07-14.14 6.07S51.63.44 46.64 9.46c-4.98 9 6.23 15.34 4 19.36-2.22 4.01-9.25-1.52-12.1 7.85-2.85 9.37 7.83 16.88 7.83 16.88s5.3-5.59 14.49-5.17c0 0 1.83-1.9.64-4.74 0 0-11.92-1.01-6.7-26.24 0 0 6.85-3.39 9.16 2.38 1.34 3.35 5.05 13.63 10.27 8.51 0 0 .7-1.6 2.58-1.56 2.04.04 3.08 1.05 2.67 3.4-.39 2.24-2.7 3.06-4.43 2.25 0 0-3.64 15.89 6.16 16.45 0 0 11.44.65 16.6 7.31.01 0 5.93-8.1-1.6-13.31z"/>
    </g>
    <g fill="#475daa" stroke-width=".77">
      <path
        d="M94.2 115.15l-1.36-8c6.59-.28 7.74-6.61 8.01-11.96.27-5.36-1.1-30.84-2.28-37.03-1.19-6.19-12.8-8.64-12.8-8.64 2.12 6.3-8.46 42.03-8.46 42.03l-2.84-.09-.83 9.52-12.1-3.68-2.5-9.17s-1.72-8.68-6.53-13.8C46.61 68.04 43.16 59 43.16 59s-1.39 10.1-2.28 30.44c-.77 17.54 3.32 19.03 3.32 19.03l-1.46 16.39c4.85.28 10.4.14 16.77-.6v-10.31s8.79 1.66 11.64 2.13c2.85.48 3.67-6.3 3.67-6.3l.25 11.77c1.93-.43 3.91-.9 5.96-1.44a63.45 63.45 0 0013.17-4.96z"/>
      <path
        d="M94.2 115.15l-1.36-8c6.59-.28 7.74-6.61 8.01-11.96.27-5.36-1.1-30.84-2.28-37.03-1.19-6.19-12.8-8.64-12.8-8.64 2.12 6.3-8.46 42.03-8.46 42.03l-2.84-.09-.83 9.52-12.1-3.68L61 86.73s-6.76-37.52-6.83-37.5c-8.95 2.07-11 9.78-11 9.78s-1.4 10.1-2.3 30.44c-.76 17.54 3.33 19.03 3.33 19.03l-1.46 16.38c4.85.29 10.4.15 16.77-.59v-10.32s8.79 1.66 11.64 2.13c2.85.48 3.67-6.3 3.67-6.3l.25 11.77c1.93-.43 3.91-.9 5.96-1.44a63.45 63.45 0 0013.17-4.96z"/>
      <path
        d="M73.6 101.22l.04-.2-.02-.05-12.08-3.67-.92-3.38c-3.89-1.6-7.25-2.38-7.73-.63-1.19 4.4 4.23 3.97 8.2 4.34 3.94.38 12.5 3.59 12.5 3.59z"
        opacity=".5"/>
    </g>
    <path fill="#f2b2a4"
          d="M73.64 101.01s-9.11-4.24-15.03-4.11c-5.91.13-6.98-3.74-4.36-5.72 2.63-1.98 6.33-3.73 20.2.28zM61.5 43.63s1.24 2.64-.64 4.74c4.4-.08 8.13-9.25 5.85-6.8-1.5 1.62-3.9 1.97-5.35 2.02l.15.04z"/>
    <path fill="none" stroke="#f7f7f6" stroke-miterlimit="10" stroke-width=".36"
          d="M75.69 31.2l-2.32 5h5.4l-1.74-3.63"/>
    <path fill="none" stroke="#d8816e" stroke-miterlimit="10" stroke-width=".36" d="M75.14 29.29s1.05-1.69 2.65-1.15"/>
    <g stroke-width=".77">
      <path fill="#2d2e2d"
            d="M63.18 97.42c.82.18 1.65.4 2.46.62 1.11-1.22 2.9-3.93 2.28-8.21a47.8 47.8 0 00-2.4-.43c.22.96.8 4.68-2.34 8.02z"/>
      <path fill="#2d2e2d" d="M66.58 95.94a2.09 2.09 0 100-4.17 2.09 2.09 0 000 4.17z"/>
      <path fill="#f7f7f6" d="M66.58 95.56a1.7 1.7 0 100-3.41 1.7 1.7 0 000 3.41z"/>
    </g>
    <g fill="#475daa" stroke-width=".77">
      <path
        d="M44.21 108.47l-.14-.08.14.08zm-.19 2.12c7.71 3.06 13.48 4.02 15.5 3.97v-.61c-5.55-1.16-15.3-5.48-15.3-5.48z"
        opacity=".25"/>
      <path d="M73.64 101.01l-.2 3.09s5.59 2.86 19.5 3.66l-.1-.63s-14.12-1.4-19.03-3.55c0 0-.26-.8-.17-2.57z"
            opacity=".5"/>
    </g>
    <g stroke-width=".77">
      <path fill="#0e9b4a"
            d="M56.85 105.16S51.86 94.59 40.4 95.13c-11.45.54-11.22.02-11.22.02s-11.6 1.8-15.14 10.82a21.33 21.33 0 00-1.43 6.1 14.49 14.49 0 00.99 1.24l.46.5.3.34.37.37.48.47a9.78 9.78 0 00.88.8l.57.47.63.5.5.38.55.4a22.4 22.4 0 001.54.99l.51.32a31.35 31.35 0 001.75.96l.89.45.38.17c.56.26 1.15.52 1.76.77l.47.19c1.14.44 2.36.87 3.67 1.25.13.04.26.08.39.1.79.24 1.62.45 2.49.65a58.26 58.26 0 005.14.94 65.17 65.17 0 003.94.43l.11.01c.61.05 1.24.08 1.88.12a95.34 95.34 0 003.94.1h.79c.65 0 1.32 0 2-.02 3.09-.09 6.43-.33 10-.76.34-3.04-.74-14.04-3.14-19.05z"/>
      <path fill="#fac7c8"
            d="M30.02 93.72l-.82 1.26s-.58 6.43 6.9 5.83c6.54-.52 4.2-7.24 4.2-7.24s-10.28.33-10.28.15z"/>
      <path fill="#f8a89a"
            d="M40.37 93.82l-.63-.23c-2.14.06-9.72.28-9.72.14l-.82 1.25s-.57 6.27 6.65 5.85c-2.81-.32-5.4-2.36-1.64-2.14 3.83.21 5.93-4.23 6.19-4.79a.69.69 0 00-.03-.08z"/>
      <path fill="#fac7c8"
            d="M35.3 95.02c6.91 0 12.53-6.23 12.53-13.91 0-7.69-5.62-13.92-12.54-13.92-6.92 0-12.53 6.23-12.53 13.92 0 7.68 5.6 13.91 12.53 13.91z"/>
      <path fill="#f8a89a" d="M34.46 68.44s-5.47 9.38-10.82 11.2c0 0-.36-.2-.85-.12l.2-.96z"/>
      <path fill="#f5821f"
            d="M34.46 68.44s-9.18 12.7-14.19 10.28c-5-2.42 7.8-21.91 12.5-15.55 0 0 6.17-6.53 14.8 2.85 8.62 9.38 2.01 24.2-13.11 2.42z"/>
      <path fill="#fac7c8"
            d="M23 85.38c1.44 0 2.6-1.31 2.6-2.94 0-1.62-1.16-2.94-2.6-2.94s-2.6 1.32-2.6 2.94c0 1.63 1.16 2.94 2.6 2.94zm24.75 0c1.44 0 2.6-1.31 2.6-2.94 0-1.62-1.16-2.94-2.6-2.94-1.44 0-2.6 1.32-2.6 2.94 0 1.63 1.16 2.94 2.6 2.94z"/>
      <path fill="#f8a89a" d="M33.9 89.95s4.6 2.7 6.03-2.42c0 0-2.13 2.37-6.03 2.42z"/>
    </g>
    <path fill="none" stroke="#f8a89a" stroke-linecap="round" stroke-miterlimit="10" stroke-width=".35"
          d="M23.1 81.19s-1.3.08-1.02 1.5c.3 1.4 1.5.9 1.5.9m24.25-2.31c.09 0 1.27-.4 1.1 1.2-.18 1.63-.9 1.22-.9 1.22"/>
    <path fill="#484199"
          d="M31.26 82.02c.44 0 .79-.45.79-1s-.35-1-.79-1c-.43 0-.78.45-.78 1s.35 1 .78 1zm8.93-.28c.42 0 .76-.42.76-.95 0-.52-.34-.94-.76-.94s-.76.42-.76.94c0 .53.34.95.76.95z"/>
    <path fill="none" stroke="#f8a89a" stroke-linecap="round" stroke-miterlimit="10" stroke-width=".69"
          d="M35.8 80.04s-.07 3.08-.52 4c-.46.9-.33 1.44.81 1.5"/>
    <g stroke-width=".77">
      <path fill="#f1625b"
            d="M36.65 67.13c-1.03-2.91-.87-4.62-.38-5.9-2.22.58-3.5 1.94-3.5 1.94-4.7-6.35-17.5 13.14-12.5 15.56s14.18-10.29 14.18-10.29c4.6 6.64 8.43 9.87 11.27 10.9-4.14-3.23-7.55-7.93-9.07-12.2z"
            opacity=".5"/>
      <path fill="#f8a89a"
            d="M46.33 84.88v.06c.2.37.47.68.74.93l.17-.55c-.51-.23-.91-.44-.91-.44zM23.55 86c.42-.4.67-1.1.67-1.1-.33.33-.8.43-.87.45l.2.65z"/>
      <path fill="#f2655a"
            d="M28.69 77.4a7.57 7.57 0 014.06-.86.5.5 0 01.46.55.5.5 0 01-.55.46h-.04a6 6 0 00-2.74.16c-.3.09-.6.2-.87.31h-.02a.34.34 0 01-.45-.17.34.34 0 01.15-.44zm9.76-.8a7.73 7.73 0 012.02.2c.66.16 1.3.42 1.86.84a.34.34 0 01-.39.57 4.4 4.4 0 00-1.63-.58 5.58 5.58 0 00-1.74-.02h-.01a.51.51 0 01-.59-.43.51.51 0 01.44-.58h.04z"/>
      <path fill="#f8a89a"
            d="M28.42 87.7a1.51 1.51 0 100-3.03 1.51 1.51 0 000 3.03zm14.67 0a1.51 1.51 0 100-3.03 1.51 1.51 0 000 3.03z"/>
      <path fill="#d8816e"
            d="M62.59 38.6l-.17-.01a1.63 1.63 0 01-1.06-.62l.29-.2s.3.4.81.47c.4.04.8-.13 1.24-.5l.24.26c-.46.4-.91.6-1.35.6z"/>
    </g>
  </symbol>
  <symbol viewBox="0 0 130 125" id="why_dz2">
    <path fill="#e8f1f7"
          d="M61.2 109.3s-16.83 28.61-43.33 8.58c-26.5-20.04-20.47-58.6-1.73-68.44 18.74-9.85 30.58-26.71 38.65-32.52 8.06-5.81 47.84-32.77 68.2-3.6 20.36 29.16-10.1 47.58-10.1 47.58S72.77 83.32 61.2 109.3z"/>
    <path fill="#ead8ad"
          d="M111.71 102.08a6.05 6.05 0 01-6.03 6.03H20.73a6.05 6.05 0 01-6.03-6.03V35.53a6.05 6.05 0 016.03-6.03h84.95a6.05 6.05 0 016.03 6.03z"/>
    <path fill="#f68721" d="M14.7 36.55c.75.3 1.57.48 2.42.48h92.79c.63 0 1.23-.13 1.8-.3V29.5h-97z" opacity=".5"/>
    <path fill="#f68721"
          d="M116.23 29.5c0 3.5-2.83 6.32-6.33 6.32H17.11a6.32 6.32 0 110-12.64h92.8a6.33 6.33 0 016.32 6.32z"/>
    <path fill="#e26f31"
          d="M112.15 23.6a6.32 6.32 0 01-5.35 9.66H14a6.2 6.2 0 01-2.24-.43 6.29 6.29 0 005.36 2.99h92.8a6.32 6.32 0 002.23-12.22z"
          opacity=".5"/>
    <path fill="#f04f49" d="M34.49 13.84h-9.64v14.65h9.64zm70.49 0h-9.64v14.65h9.64z"/>
    <path fill="#ef8b81"
          d="M26.31 24.91h-.06a.73.73 0 01-.73-.72v-7.63c0-.4.33-.72.73-.72h.06c.4 0 .73.33.73.72v7.63c0 .4-.33.72-.73.72zm70.51 0h-.07a.73.73 0 01-.72-.72v-7.63c0-.4.33-.72.72-.72h.07c.4 0 .72.33.72.72v7.63c0 .4-.33.72-.72.72z"/>
    <path fill="#f68721" d="M31.8 57.25a3.34 3.34 0 100-6.67 3.34 3.34 0 000 6.67z"/>
    <path fill="#f7f7f6"
          d="M42.51 57.25a3.34 3.34 0 100-6.67 3.34 3.34 0 000 6.67zm10.71 0a3.34 3.34 0 100-6.67 3.34 3.34 0 000 6.67z"/>
    <path fill="#f68721" d="M63.93 57.25a3.34 3.34 0 100-6.67 3.34 3.34 0 000 6.67z"/>
    <path fill="#f7f7f6"
          d="M74.63 57.25a3.34 3.34 0 100-6.67 3.34 3.34 0 000 6.67zm10.71 0a3.34 3.34 0 100-6.67 3.34 3.34 0 000 6.67zm10.71 0a3.34 3.34 0 100-6.67 3.34 3.34 0 000 6.67z"/>
    <path fill="#f68721" d="M31.8 66.6a3.34 3.34 0 100-6.67 3.34 3.34 0 000 6.68z"/>
    <path fill="#f7f7f6"
          d="M42.51 66.6a3.34 3.34 0 100-6.67 3.34 3.34 0 000 6.68zm10.71 0a3.34 3.34 0 100-6.67 3.34 3.34 0 000 6.68zm10.71 0a3.34 3.34 0 100-6.67 3.34 3.34 0 000 6.68zm10.7 0a3.34 3.34 0 100-6.67 3.34 3.34 0 000 6.68z"/>
    <path fill="#f68721" d="M85.34 66.6a3.34 3.34 0 100-6.67 3.34 3.34 0 000 6.68z"/>
    <path fill="#f7f7f6"
          d="M96.05 66.6a3.34 3.34 0 100-6.67 3.34 3.34 0 000 6.68zM31.8 75.77a3.34 3.34 0 100-6.68 3.34 3.34 0 000 6.68zm10.71 0a3.34 3.34 0 100-6.68 3.34 3.34 0 000 6.68zm10.71 0a3.34 3.34 0 100-6.68 3.34 3.34 0 000 6.68zm10.71 0a3.34 3.34 0 100-6.68 3.34 3.34 0 000 6.68z"/>
    <path fill="#f68721" d="M74.63 75.77a3.34 3.34 0 100-6.68 3.34 3.34 0 000 6.68z"/>
    <path fill="#f7f7f6"
          d="M85.34 75.77a3.34 3.34 0 100-6.68 3.34 3.34 0 000 6.68zm10.71 0a3.34 3.34 0 100-6.68 3.34 3.34 0 000 6.68zM31.8 85.3a3.34 3.34 0 100-6.67 3.34 3.34 0 000 6.68z"/>
    <path fill="#f68721" d="M42.51 85.3a3.34 3.34 0 100-6.67 3.34 3.34 0 000 6.68z"/>
    <path fill="#f7f7f6"
          d="M53.22 85.3a3.34 3.34 0 100-6.67 3.34 3.34 0 000 6.68zm10.71 0a3.34 3.34 0 100-6.67 3.34 3.34 0 000 6.68zm10.7 0a3.34 3.34 0 100-6.67 3.34 3.34 0 000 6.68zm10.71 0a3.34 3.34 0 100-6.67 3.34 3.34 0 000 6.68z"/>
    <path fill="#f68721"
          d="M96.05 85.3a3.34 3.34 0 100-6.67 3.34 3.34 0 000 6.68zm8.02 35.71a16.04 16.04 0 100-32.08 16.04 16.04 0 000 32.08z"/>
    <path fill="#f7f7f6" d="M104.07 118.33a13.37 13.37 0 100-26.73 13.37 13.37 0 000 26.73z"/>
    <path fill="#e8f1f7"
          d="M91.37 104.97c0-7.27 5.8-13.17 13.03-13.35l-.33-.01a13.36 13.36 0 100 26.72l.33-.01a13.35 13.35 0 01-13.03-13.35z"/>
    <path fill="#231f20"
          d="M110.47 97.77a.57.57 0 00-.45.21l-5.96 7.37-4.6-2.23a.57.57 0 00-.78.27.57.57 0 00.27.76l5.01 2.44a.57.57 0 00.7-.16l6.25-7.73a.57.57 0 00-.09-.8.57.57 0 00-.35-.13z"
          color="#000"
          style="font-feature-settings:normal;font-variant-alternates:normal;font-variant-caps:normal;font-variant-east-asian:normal;font-variant-ligatures:normal;font-variant-numeric:normal;font-variant-position:normal;font-variation-settings:normal;inline-size:0;isolation:auto;mix-blend-mode:normal;shape-margin:0;shape-padding:0;text-decoration-color:#000;text-decoration-line:none;text-decoration-style:solid;text-indent:0;text-orientation:mixed;text-transform:none;white-space:normal"/>
  </symbol>
  <symbol viewBox="0 0 115 125" id="why_dz3">
    <g stroke-width=".77">
      <path fill="#e8f1f7"
            d="M4.5 96.2s-10.76-23.83 1-48.79 33.9-29.5 46.97-28.93c13.08.56 30.76-5.16 33.66-7.53 2.9-2.36 11.62-7.59 22.93 1.8 11.3 9.4 3.74 28.58-.43 37.7S95.72 87.01 93.98 96.2c-1.73 9.19-5.01 32.19-42.3 28.38C14.4 120.77 4.5 96.2 4.5 96.2z"/>
      <path fill="#2d2e2d"
            d="M107.85 76.98h-66.7a2.62 2.62 0 01-2.59-2.63V21.69a2.62 2.62 0 012.58-2.64h66.72a2.62 2.62 0 012.58 2.64v52.66a2.62 2.62 0 01-2.59 2.63z"/>
      <path fill="#e8f1f7"
            d="M105.43 74.28H43.57a2.4 2.4 0 01-2.37-2.41v-47.7a2.4 2.4 0 012.37-2.42h61.86a2.4 2.4 0 012.37 2.41v47.7a2.4 2.4 0 01-2.37 2.42z"/>
      <path fill="#3c5ba9" d="M23.52 59.03l.45.46-1.3 1.74-1.53-1.1s.02-2.35 2.38-1.1z"/>
      <path fill="#f2b2a4"
            d="M26.82 56.44s1.69-3.92.96-6.25c-.75-2.33-2.7-5.8-.65-10.42 2.04-4.62 3.24-9.6 3.15-12.15s3.43-2.4 3.43 0c0 2.38 10.87 20.34 10.87 20.34s1.91 5.78-4.75 13.87z"/>
      <path fill="#d8816e"
            d="M33.6 26.95l-.97-1.04v20.7s-.33 2.9 2.89 2.9c2.59 0 7.36 1.87 9.14 2.56.25-1.53.17-2.67.07-3.36-.1-.44-.15-.74-.15-.74S33.7 30.01 33.7 27.62l-.03-.36-.08-.3z"/>
      <path fill="#fff" d="M22.54 61.47l3.03-5.77 15.62 6.72-2.33 5.52c.01 0-7.4.64-16.32-6.47z"/>
      <path fill="#f04f49"
            d="M87.75 12.67s.03 4.6 2.05 7.77c2.03 3.18 4.97 18.43 4.2 26.58-.79 8.14-11.51-.7-11.51-.7l3.9-32.7z"/>
      <path fill="#e8f1f7"
            d="M36.57 60.43c-.02 0-.05 0-.08.02-1.22.47-3.4 4.74-3.4 4.74-5.25-1.13-9.38-5.95-9.38-5.95v.01l-1.16 2.22a32.75 32.75 0 007.64 4.6l8.68 1.87 2.33-5.52z"/>
      <path fill="#f68721" d="M63.39 60.97s2.68-15.64 19.68-15.7c17-.05 21.35 7.88 22.01 28.99l-36.6.02z"/>
      <path fill="#acb9df"
            d="M16.96 111.42l.24.19a56.66 56.66 0 0010.78 6.65L40.03 68c-11.67-.93-18.94-7.41-18.57-8.56.38-1.15 2.06-.41 2.06-.41s-2-1.71-4 2.17c-1.98 3.88-15.03 35-15.03 35s3.13 7.74 12.47 15.21z"/>
    </g>
    <path fill="#fff" stroke="#2d2e2d" stroke-miterlimit="10" stroke-width=".89"
          d="M33.1 75.99c.92 0 1.67-.76 1.67-1.7 0-.95-.75-1.71-1.67-1.71-.92 0-1.67.76-1.67 1.7 0 .95.75 1.71 1.67 1.71zm-1.69 4.83c.92 0 1.67-.77 1.67-1.71s-.75-1.7-1.67-1.7-1.67.76-1.67 1.7.75 1.7 1.67 1.7zm-2 4.98a1.7 1.7 0 001.67-1.72c0-.94-.75-1.7-1.67-1.7s-1.67.76-1.67 1.7c0 .95.75 1.71 1.67 1.71z"/>
    <path fill="#e8f1f7" stroke="#2d2e2d" stroke-miterlimit="10" stroke-width="1.19"
          d="M51.24 48.1H34.89a1.2 1.2 0 01-1.18-1.2V12.17c0-.67.53-1.2 1.18-1.2h16.35c.65 0 1.18.53 1.18 1.2V46.9c0 .67-.54 1.2-1.18 1.2z"/>
    <path fill="#fff" stroke="#2d2e2d" stroke-miterlimit="10" stroke-width=".3"
          d="M47.93 41.95h-9.67a1.2 1.2 0 01-1.18-1.2V35.4c0-.66.53-1.2 1.18-1.2h9.67c.65 0 1.18.54 1.18 1.2v5.33a1.2 1.2 0 01-1.18 1.21z"/>
    <path fill="#fff" d="M37.57 34.45l5.52 3.63 5.53-3.63"/>
    <path fill="none" stroke="#2d2e2d" stroke-miterlimit="10" stroke-width=".3" d="M37.57 34.45l5.52 3.63 5.53-3.63"/>
    <path fill="#e26f31"
          d="M81.4 47.9a8.15 8.15 0 00-1.7-2.39c-14 1.95-16.31 15.46-16.31 15.46l2.81 7.35c3.87-14.6 15.2-20.42 15.2-20.42z"
          opacity=".5"/>
    <path fill="#fff" stroke="#2d2e2d" stroke-miterlimit="10" stroke-width=".3"
          d="M92.33 71.26H78.7a1.7 1.7 0 01-1.68-1.7v-7.53c0-.93.75-1.7 1.68-1.7h13.63c.91 0 1.67.76 1.67 1.7v7.52c0 .94-.76 1.7-1.67 1.7z"/>
    <path fill="#fff" d="M77.71 60.67l7.8 5.13 7.8-5.13"/>
    <path fill="none" stroke="#2d2e2d" stroke-miterlimit="10" stroke-width=".3" d="M77.71 60.67l7.8 5.13 7.8-5.13"/>
    <g stroke-width=".77">
      <path fill="#f2b2a4"
            d="M77.9 37.83l.1 6.27c.03 1.53.82 2.87 1.95 3.36a6.3 6.3 0 004.88.13c1.34-.51 2.23-2.14 2.23-3.92v-5.9z"/>
      <path fill="#d8816e"
            d="M78.01 44.09c.03 1.53.82 2.88 1.96 3.37.42.18.9.33 1.43.43 3.94-.6.67-2.16-.36-4.03-1.03-1.9 1.01-4.18 1.01-4.18S81 38.4 80.5 38.12a5.3 5.3 0 00-.9-.3h-1.7z"/>
      <path fill="#f2b2a4"
            d="M68.76 22.43s4.2 18 14.31 17.25c10.11-.76 6.68-14.85 6.68-14.85s1.7-1.23.77-3.77c-1.02-2.75-2.64 1.04-4.03-5.41-1.4-6.45-19.7.85-17.73 6.78z"/>
      <path fill="#e84842"
            d="M69.05 23.52S86 21.68 88.65 12.19C91.3 2.69 84.17-1.96 73.67.79 63.17 3.52 59.44 10.91 60.83 22.9c1.39 11.99-.91 13.56-3.97 16.28-3.07 2.72-7.25 12.3 8.05 17.3 0 0 4.15-8.99 13.44-10.75 0 0-.45-1.05-.38-3.56l-.07-2.43v-1.43s-4.43-1.7-8.85-14.8z"/>
      <path fill="#f04f49"
            d="M73.24 25.15a20 20 0 011.44-1.6c.25-.25.44-.6.78-.72a2 2 0 011.18-.13.1.1 0 01.08.11c-.08.5-.28.82-.52 1.1-.23.28-.61.35-.92.5-.63.34-1.3.6-1.97.86-.03.01-.07 0-.08-.04-.02-.04 0-.06 0-.08zm13.04-4.02c-.87.19-1.74.36-2.62.46-.44.05-.87.22-1.3.13a2.72 2.72 0 01-1.31-.6.09.09 0 01-.02-.1c0-.02.01-.02.02-.02.43-.37.87-.51 1.3-.6.44-.1.87.08 1.31.14.87.1 1.74.27 2.62.46.04 0 .06.04.05.07-.01.03-.03.06-.05.06z"/>
    </g>
    <g fill="none" stroke-miterlimit="10">
      <path stroke="#d8816e" stroke-linecap="round" stroke-width=".44"
            d="M81.04 24.83l1.92 4s.6.64-1.22 1.54M80.5 34.5s4.15 1.4 5.64-1"/>
      <g stroke="#2d2e2d" stroke-width="1.68">
        <path d="M52.53 38.84h1.19"/>
        <path stroke-dasharray="2.33 2.33" d="M56.02 38.84h3.47"/>
        <path d="M60.64 38.84h1.19v1.21"/>
        <path stroke-dasharray="2.2 2.2" d="M61.83 42.29v21.18"/>
        <path d="M61.83 64.59v1.2H63"/>
        <path stroke-dasharray="2.51 2.51" d="M65.5 65.8h8.75"/>
        <path d="M75.5 65.8h1.18"/>
      </g>
    </g>
    <g stroke-width=".77">
      <path fill="#f2b2a4"
            d="M65.64 60.98s-1.57.21-2.26-.33c-.7-.55-2.4-.98-3.24-.33-.86.66-1.7 1.14-2.77.33a2.8 2.8 0 00-3.2-.27c-.86.54-2.95-16.67-2.95-16.67s-.15-5.02-3.32-4.62c-3.16.4-2.19 4.62-2.19 4.62s3.04 18.12-2.44 23.06c-1.75-.55-3.56-1.41-3.24-2.63.6-2.26 2.82-6.9 0-8.43 0 0-.8-.5-.93.56-.15 1.05-2.03 3.22-2.03 3.22s-2.73 4.36-2.83 5.66c-.08.92 2.3 3.9 5.8 6.83s5.34 4.32 7.2 8.64c1.83 4.11 3.67 8.6 3.67 8.6l17.22-1.8s4.03-27.13-2.5-26.44z"/>
      <path fill="#fff" d="M50.33 95.15l-1-5.94 20.04-2.34 1.67 4.52S69 95.22 50.33 95.15z"/>
      <path fill="#e8f1f7"
            d="M49.78 91.47l-.03.23.57 3.44c12.67.04 17.68-1.7 19.59-2.83l.87-.84c-19.48 3.83-21 0-21 0z"/>
      <path fill="#acb9df"
            d="M46.15 94.6l10.22 30.31c15.7.7 24.62-3.79 29.82-9.66L74.86 90.71c-14.78 7.36-28.71 3.9-28.71 3.9z"/>
    </g>
    <path fill="#fff" stroke="#2d2e2d" stroke-miterlimit="10" stroke-width=".89"
          d="M53.19 103.52c.92 0 1.67-.76 1.67-1.7s-.75-1.72-1.67-1.72-1.67.77-1.67 1.71.75 1.71 1.67 1.71zm2.08 6.21c.92 0 1.67-.76 1.67-1.7 0-.95-.75-1.71-1.67-1.71-.93 0-1.67.76-1.67 1.7 0 .95.74 1.71 1.67 1.71zm2.47 6.08c.92 0 1.67-.76 1.67-1.7s-.75-1.71-1.67-1.71-1.68.76-1.68 1.7.75 1.71 1.68 1.71z"/>
    <g stroke-width=".77">
      <path fill="#3c5ba9" d="M49.79 91.47s-5.59 3.05-2.92 3.44c2.66.38 3.47.34 3.47.34z"/>
      <path fill="#2d2e2d"
            d="M76.98 27.54c.31-.13.43-.56.27-.94-.17-.38-.55-.58-.86-.44-.3.13-.43.56-.27.94.17.38.55.58.86.44zm7.34-2.02c.3-.13.43-.55.27-.94-.17-.38-.55-.58-.86-.44-.3.13-.43.56-.27.94.17.38.55.58.86.44z"/>
      <path fill="#f2b2a4"
            d="M71.54 30.91c.74-.27 1-1.48.57-2.7-.42-1.22-1.37-2-2.1-1.72-.75.27-1 1.47-.57 2.7.42 1.22 1.36 1.99 2.1 1.72z"/>
    </g>
    <path fill="none" stroke="#f2b2a4" stroke-linecap="round" stroke-miterlimit="10" stroke-width=".44"
          d="M88.9 21.07s1.48-.4 1.16 1.68M70.43 27.6s-.46.35 0 1.38c.45 1.04 1.07.6 1.07.6"/>
    <g stroke-width=".77">
      <path fill="#d9423b"
            d="M77.97 42.17l-.08-2.43V38.3s-4.42-1.69-8.84-14.8c.4 13.59-3.66 13.67-8.64 19.38-4.97 5.7 4.5 13.59 4.5 13.59s4.15-8.98 13.44-10.75c0 0-.46-1.04-.38-3.56z"
            opacity=".5"/>
      <path fill="#c1352c"
            d="M85.52 1.55c7.11 16.5-16.47 21.96-16.47 21.96S86 21.68 88.65 12.2c1.4-5.05.03-8.71-3.13-10.64z"
            opacity=".5"/>
      <path fill="#f2b2a4"
            d="M46.63 40.74c1.03-1.47 1.61-1.66 1.85-1.66a2.39 2.39 0 00-.57.02c-3.17.4-2.2 4.61-2.2 4.61s3.04 18.12-2.44 23.07c0 0 3.36-.43 3.93-9 .57-8.55-1.99-15-.57-17.04z"/>
      <path fill="#d8816e" d="M39.46 56.91c-.1-.36-.26-.44-.44-.36a9.58 9.58 0 01-1.48 2.36s2.35-.43 1.92-2z"/>
      <path fill="#f2b2a4" d="M50.34 87.81l17.87-.94-17.29 2.35z"/>
      <path fill="#0e9b4a"
            d="M48.5 26.18s-1.37-3-4.56-2.84c-3.18.15-3.12.01-3.12.01s-3.22.52-4.2 3.06c-.2.49-.36 1.1-.4 1.73a13.05 13.05 0 00.2.26l.07.09.13.15.08.09.1.1.14.14.13.13.11.1a3.58 3.58 0 00.34.27l.14.11c.05.04.1.08.15.1l.24.17.19.12.14.09a7.66 7.66 0 00.48.27l.25.12.1.05.5.22.12.05c.32.13.66.24 1.02.35l.1.03c.23.07.46.13.7.18a18.44 18.44 0 001.43.27l.14.01c.3.04.62.08.96.1h.03l.52.04h.15c.3.02.62.03.94.03h.78c.86-.03 1.79-.1 2.78-.23.1-.84-.2-3.96-.87-5.37z"/>
      <path fill="#fac7c8"
            d="M41.06 22.94l-.23.36s-.16 1.81 1.92 1.65c1.82-.15 1.16-2.05 1.16-2.05s-2.85.08-2.85.04z"/>
      <path fill="#f8a89a"
            d="M43.93 22.97l-.17-.06c-.6.01-2.7.07-2.7.04l-.23.35s-.16 1.78 1.84 1.66c-.77-.1-1.5-.67-.45-.61 1.06.06 1.65-1.2 1.71-1.36v-.02z"/>
      <path fill="#fac7c8"
            d="M42.52 23.3c1.93 0 3.48-1.76 3.48-3.93s-1.55-3.94-3.48-3.94-3.48 1.76-3.48 3.94 1.56 3.93 3.48 3.93z"/>
      <path fill="#f8a89a" d="M42.29 15.78s-1.52 2.66-3.01 3.17c0 0-.1-.06-.24-.03l.05-.28z"/>
      <path fill="#f5821f"
            d="M42.29 15.78s-2.56 3.6-3.95 2.9c-1.39-.68 2.17-6.2 3.48-4.4 0 0 1.71-1.84 4.1.82 2.4 2.65.57 6.85-3.63.68z"/>
      <path fill="#fac7c8"
            d="M39.1 20.58c.41 0 .73-.37.73-.83s-.32-.83-.72-.83c-.4 0-.73.37-.73.83s.33.83.73.83zm6.88 0c.4 0 .73-.37.73-.83s-.33-.83-.73-.83c-.4 0-.72.37-.72.83s.32.83.72.83z"/>
      <path fill="#f8a89a" d="M42.13 21.87s1.29.76 1.68-.69c0 0-.6.67-1.68.69z"/>
    </g>
    <path fill="none" stroke="#f8a89a" stroke-linecap="round" stroke-miterlimit="10" stroke-width=".1"
          d="M39.13 19.4s-.36.01-.28.41c.07.4.41.25.41.25m6.74-.65c.03 0 .36-.11.31.35-.05.46-.24.34-.24.34"/>
    <path fill="#484199"
          d="M41.4 19.62c.12 0 .22-.12.22-.28s-.1-.28-.22-.28-.22.13-.22.28.1.28.22.28zm2.48-.07c.12 0 .21-.12.21-.27 0-.14-.1-.26-.2-.26-.13 0-.22.12-.22.26 0 .15.1.27.21.27z"/>
    <path fill="none" stroke="#f8a89a" stroke-linecap="round" stroke-miterlimit="10" stroke-width=".19"
          d="M42.66 19.06s-.02.88-.15 1.13c-.12.26-.09.42.23.43"/>
    <g stroke-width=".77">
      <path fill="#f1625b"
            d="M42.9 15.41c-.3-.82-.25-1.3-.11-1.66-.62.16-.97.55-.97.55-1.3-1.8-4.87 3.72-3.48 4.4 1.4.7 3.95-2.9 3.95-2.9 1.28 1.88 2.34 2.79 3.13 3.08a8.35 8.35 0 01-2.52-3.46z"
            opacity=".5"/>
      <path fill="#f8a89a"
            d="M45.58 20.43v.02c.06.1.13.2.21.27l.05-.16-.26-.13zm-6.32.33a.81.81 0 00.18-.32.43.43 0 01-.24.13l.06.19z"/>
      <path fill="#f2655a"
            d="M40.69 18.32c.34-.18.72-.28 1.13-.24.08 0 .14.08.13.16 0 .08-.08.14-.15.13h-.02c-.33-.06-.69 0-1 .13-.05.03-.11 0-.13-.05-.03-.05 0-.1.04-.13zm2.71-.23c.38-.01.76.06 1.08.3.04.03.05.09.02.14-.03.03-.08.05-.13.02-.27-.17-.63-.2-.93-.17-.09.01-.16-.04-.17-.12 0-.08.05-.16.12-.16l.01-.01z"/>
      <path fill="#f8a89a"
            d="M40.61 21.23c.23 0 .42-.2.42-.43a.42.42 0 00-.42-.43c-.23 0-.42.2-.42.43 0 .24.19.43.42.43zm4.08 0c.23 0 .42-.2.42-.43a.42.42 0 00-.42-.43c-.23 0-.42.2-.42.43 0 .24.19.43.42.43z"/>
    </g>
  </symbol>
  <symbol viewBox="0 0 130 125" id="why_dz4">
    <path fill="#e8f1f7"
          d="M98.5 125S4.2 128.3.3 82.4c-4-46 37.3-46.4 37.3-46.4S58 30.7 66.8 12.6C75.6-5.6 121.5-8 127 31.8c5.5 39.8 7 88-28.5 93.1z"/>
    <path fill="#283432" d="M95.5 104.8l-3.9 17.9h-3.4l1.8-17.3z"/>
    <g fill="#f08c37">
      <path fill-rule="evenodd"
            d="M2.6 60.1c18.3-.4 41-.4 41-.4l66.3 1.2c10 .3 4.3 17 0 29.6l-1.5 4.5c-4.2 12.7-20 11.7-20 11.7s-45.8-.3-74.7-.7A32.7 32.7 0 01.3 82.5C-.5 73.3.5 66 2.6 60z"
            clip-rule="evenodd"/>
      <path fill-rule="evenodd"
            d="M2 90.6c3-.7 5-.9 5-.9h73.1c16 0 23 5.3 25.8 9.5-5.9 8-17.8 7.3-17.8 7.3s-45.8-.3-74.6-.7A34.6 34.6 0 012 90.6z"
            clip-rule="evenodd" opacity=".5"/>
      <path d="M109.7 60.7c-1.8 0-4.7 0-8.3-.2-3 9.1-11 43.4-.6 33.4 8-7.5 11.2-22.6 12.5-31.9a5.4 5.4 0 00-3.6-1.3z"
            opacity=".5"/>
    </g>
    <path fill="#fd5d05" fill-rule="evenodd"
          d="M6 98l82.2.1c17.6.2 22.8-21.6 24.3-36.7 5.9 3.4 1 17.7-2.8 28.9a408.9 408.9 0 00-1.5 4.5c-3.2 9.9-13.6 11.5-18 11.7-7.9 0-49-.4-77-1A38.6 38.6 0 016 98.2z"
          clip-rule="evenodd"/>
    <path fill="#283432"
          d="M76 47.1s-4-4.2-2-6.4c2-2.3 4.4-2.4 2.8-8-1.5-5.7 4.9-3.6 4.4-8.4-.4-4.7 2.2-9.8 8-8.7 5.9 1.2 4.9 6.8 7.8 8 3 1.3 10.2.6 12.4 7.2 2.2 6.6-1.3 6.4 2.3 9.4 3.6 3-.3 8.7-5.7 6.8 0 0-2-6.6-10-7.2C85.9 39 83 39.6 76 47z"/>
    <path fill="#e7a494"
          d="M86.8 36.9S80.5 37 83 22c0 0 6.4-1.2 7 2.1.5 3.4 1.7 4.2 4.2 3 3.2-1.4 3.1 1.6 2.7 2.2-.3.4-1.3 1.4-2.3.9 0 0-.4 7.6 1.5 9.5 0 0-6.7 6.1-10 .9 0 0 .6-1.6.7-3.8z"/>
    <path fill="#283432"
          d="M84.7 28.4c.2 0 .3-.3.3-.6s0-.5-.3-.5-.3.2-.3.5.2.6.3.6zm5 0c.2 0 .4-.3.4-.6s-.2-.5-.3-.5c-.2 0-.3.2-.3.5s0 .6.3.6zm-4.4-1.7c-.2-.2-.4-.3-.7-.3a.9.9 0 00-.6.3l-.1-.1s.3-.4.7-.4c.3 0 .6.1.8.4zm5 .2c-.1-.2-.3-.4-.5-.4a.9.9 0 00-.7.3H89c0-.1.3-.4.7-.5.3 0 .6.2.8.4z"/>
    <path fill="#c47360"
          d="M87.4 32.3h-1.3a.2.2 0 01-.1-.1 17 17 0 011-4.7h.1c-.6 2-1 4.3-1 4.6h1.3zm0 1.7c-.4 0-.6-.4-.6-.4h.2s.1.2.4.2c.2 0 .4 0 .7-.3v.1c-.2.3-.4.4-.6.4zm7.4-5h-.2c0-.1 0-.7.5-1 .2-.2.5-.2.8-.2v.2a.9.9 0 00-.7.2c-.4.2-.4.7-.4.7z"/>
    <path fill="#e7a494"
          d="M82.7 40.6s-3.3 2.1-11.2 13.2c0 0-2.2 2.8-9.1 3.3l1.2 5S72 63.3 75 60.1c3-3.1 4.1-5 4.1-5z"/>
    <path fill="#c16a54"
          d="M81 47.3v-2.8s-.4 1.5-1.7 4.8c-1.3 3.3-.7 3.7-2.4 7.5a9.3 9.3 0 01-4.3 4.9 6 6 0 002.4-1.5c3.1-3.1 4.1-5 4.1-5z"
          opacity=".5"/>
    <path fill="#e84842"
          d="M86.5 39.4s-2.8 0-3.8 1.2c-1 1.3-5.2 12-3.6 15.5s5.5 14 1.6 21.9c0 0 13.4-.2 21.8 7.8 0 0 3.8-23.6 2.3-32.4 0 0-7.2-4.1-4.9-12.7 0 0-.7-.7-4.2-1.4 0 0-2.7 3.7-6.3 3.5-3.5-.3-3-3.4-3-3.4z"/>
    <path fill="#475bb4" fill-rule="evenodd"
          d="M51.7 121.1c1-11.1 2.4-29 3.4-35.3 1.2-7.4 10.5-8.2 12.3-8l13.2.2s12-1.7 22 7.8c0 0 1 12-12.4 10.5L77 94.8s3 9.6 2.5 18.3c-.2 4 0 8 .2 11.5L73 124c-3-9.2-7-22.7-7.7-27.8 0 0-5.4 22.6-7.1 25.8l-.1.1-6.4-1z"
          clip-rule="evenodd"/>
    <path fill="#283432" d="M48.4 46l7.2 25.4h10.2l-6.5-27.8z"/>
    <path fill="#475bb4" d="M85.6 78s12 2.4 16.8 10c.2-1.2.1-2.2.1-2.2A28.3 28.3 0 0085.6 78z" opacity=".5"/>
    <path fill="#d4413a" d="M104.2 61s-1.5-11.5-4.5-12c0 0 .1 1 1 2.1.8 1.2 3.9 11.5-5.2 23-9.1 11.7 7-5.3 7-5.3z"
          opacity=".5"/>
    <path fill="#e7a494"
          d="M50.5 50.7s-1 1.9-.2 1.9 3.4.3 3.6 2.5c.1 2.2-2.2 3.6-2.6 3.2-.3-.4-3-3.3-2-6.6.9-3.3 1.5-1.8 1.2-1z"/>
    <path fill="#b73229" d="M104.6 69.2a96 96 0 00-10.2 11.3l3.3 1.6s3.6-4.5 6.7-11.3l.2-1.6z" opacity=".5"/>
    <path fill="#e7a494"
          d="M86.5 81s-1.6 2.2 1 3.2c2.5 1.1 13.6-7.4 17-14.6 5-10.5 4-26-4.6-29 0 0-3.4 4.7.8 10 0 0 3.3 5.7 1.2 12-2 6.3-7.6 13.4-9.3 15-1.7 1.6-4.4-.7-4.4.2 0 .8 1.2 1.5 1.2 1.5s-1.9.7-2.9 1.7z"/>
    <path fill="#d18e7d" d="M90.4 36.2c-2 .8-3.7.7-3.7.7 0 1 0 1.8-.2 2.5 3-.2 4-3.2 4-3.2z" opacity=".5"/>
    <path fill="#e7a494" d="M89.8 24.6c1 3.2 2.2 3 2.2 3-1-.1-1.7-1.2-2-3.4-.6-3.3-7-2-7-2s5.8-1 6.8 2.4z"
          opacity=".5"/>
    <path fill="#475bb4" d="M66.4 82.6l1.4-.5s-.6 0-1.4.5z" opacity=".5"/>
    <path fill="#050b2c"
          d="M66.4 82.6c-4.1 2-3.6 8.8-3.4 12 .2 3.5-4.8 27.5-4.8 27.5a291 291 0 007-25.8c-2.3-9.6-.3-12.7 1.2-13.7z"
          opacity=".5"/>
    <path fill="#ce4c47" fill-rule="evenodd"
          d="M25 112.8a61 61 0 01-10.5-6.2c-2.7-5-4.9-10.2-4.2-12.4 1.7-4.8 12.7-9 12.7-9l18.5.3s11.3 1.6 11.3 5c0 3.5-2 10.5-21.5 5.4l-4-.6s-2.5 5.3-3.6 5.8c-.7.3-.4 0-.4 0l.9-4.7s-3 1.8-2.6 3.6c.3 1.1 2 8 3.4 12.8z"
          clip-rule="evenodd"/>
    <path fill="#fac7c8"
          d="M21.4 90l1.4 2.3s0 .4-.3.2c-.2-.2-.6-.6-.6-.2 0 .4.4 1 .6 1.2.2.1-.3.3-.4.2-.2 0 0 .2-.4.1-.4 0 0 .2-.6 0s-2-.5-2.9-3l3-1.1m30-4.6l2.8 1s.5 0 .2-.2c-.3-.3-.7-.6-.3-.7.4-.1 1.3.2 1.4.4.2.2.3-.3.2-.5 0-.1.2 0 0-.4s.2 0 0-.6c-.4-.6-1-2.1-4-2.6l-.6 3.4"/>
    <path fill="#f8a89a"
          d="M54.2 86c-.3 0-1.5-.5-2.1-1-.6-.4-.1-2.7 0-3.4h-.6l-.6 3.3.4.2 2.7 1h.2zm-35 5.9c0-.7 1.3-1.8 2-2.2l-3 1c.9 2.6 2.3 3 3 3.1.5.2.1 0 .5 0 .4.1.2-.1.4 0 .1 0 .6-.2.4-.3-.2-.1-.5-.6-.6-1-.7-.3-2.4.2-2.6-.6z"/>
    <path fill="#9f3a33" d="M32.6 90.9s14-1 10-2.2c-4-1.2-6.4-1-6.4-1L23.1 86s6.3 2.7 6.7 5z" opacity=".5"/>
    <path fill="#0e9b4a"
          d="M37 61.8s9 1 10.3 17.5l4.7 2.3s-1.1 1.5-.8 3.7c0 0-8-.5-9.1-1.6l-.1 1.9s-6.4 6-19.9 0l1-9.9.1-1.1s-2.2.8-2.2 9.1c0 6.8.3 6 .3 6s-1.7.2-2.8 2.3c0 0-4.4-13.2-1.3-19.3 3.2-6.1 6.1-12.4 15.5-11.4z"/>
    <path fill="#fac7c8" d="M30.1 61.1l-.4.7s-.3 3.4 3.6 3c3.5-.2 2.2-3.7 2.2-3.7h-5.4z"/>
    <path fill="#f8a89a" d="M35.6 61.2l-.4-.1h-5l-.5.7s-.3 3.3 3.5 3c-1.5-.1-2.8-1.2-.9-1 2 0 3.2-2.3 3.3-2.6z"/>
    <path fill="#fac7c8" d="M32.9 61.8c3.6 0 6.6-3.2 6.6-7.3 0-4-3-7.3-6.6-7.3-3.6 0-6.6 3.3-6.6 7.3s3 7.3 6.6 7.3z"/>
    <path fill="#f8a89a" d="M32.5 47.9s-2.9 4.9-5.7 5.8h-.5l.1-.5z"/>
    <path fill="#f5821f"
          d="M32.5 47.9s-4.9 6.7-7.5 5.4c-2.6-1.3 4.1-11.5 6.6-8.2 0 0 3.2-3.4 7.7 1.5 4.6 5 1.1 12.7-6.8 1.3z"/>
    <path fill="#fac7c8"
          d="M26.5 56.8c.7 0 1.3-.7 1.3-1.6s-.6-1.5-1.3-1.5c-.8 0-1.4.7-1.4 1.5s.6 1.6 1.4 1.6zm13 0c.7 0 1.3-.7 1.3-1.6s-.6-1.5-1.4-1.5c-.7 0-1.3.7-1.3 1.5s.6 1.6 1.3 1.6z"/>
    <path fill="#f8a89a" d="M32.2 59.2s2.4 1.4 3.1-1.3c0 0-1 1.2-3.1 1.2z"/>
    <path fill="none" stroke="#f8a89a" stroke-linecap="round" stroke-miterlimit="10" stroke-width=".2"
          d="M26.5 54.6s-.7 0-.5.8c.1.7.8.4.8.4m12.7-1.2s.7-.2.6.6c-.1.9-.5.7-.5.7"/>
    <path fill="#484199"
          d="M30.8 55c.2 0 .4-.2.4-.5s-.2-.5-.4-.5-.4.2-.4.5.2.5.4.5zm4.7-.1c.2 0 .4-.3.4-.5s-.2-.5-.4-.5-.4.2-.4.5.2.5.4.5z"/>
    <path fill="none" stroke="#f8a89a" stroke-linecap="round" stroke-miterlimit="10" stroke-width=".4"
          d="M33.2 54s0 1.6-.3 2c-.2.5-.2.8.4.9"/>
    <path fill="#f1625b"
          d="M33.6 47.2c-.5-1.5-.4-2.4-.2-3.1-1.1.3-1.8 1-1.8 1-2.5-3.3-9.2 7-6.6 8.2 2.6 1.3 7.5-5.4 7.5-5.4 2.4 3.5 4.4 5.2 5.9 5.7a15 15 0 01-4.8-6.4z"
          opacity=".5"/>
    <path fill="#f8a89a" d="M38.7 56.5l.4.5v-.3l-.4-.2zm-12 .6c.3-.2.4-.6.4-.6a1 1 0 01-.4.3 3 3 0 000 .3z"/>
    <path fill="#f2655a"
          d="M29.4 52.6a4.1 4.1 0 012.2-.5l.2.3a.3.3 0 01-.3.3h-1a3.7 3.7 0 00-.9.2h-.2a.2.2 0 010-.3zm5.2-.4h1l1 .5v.3a.2.2 0 01-.2 0 2.2 2.2 0 00-.9-.3 3 3 0 00-.9 0 .3.3 0 01-.3-.2.3.3 0 01.2-.3z"/>
    <path fill="#f8a89a" d="M29.3 58a.8.8 0 100-1.6.8.8 0 000 1.6zm7.7 0a.8.8 0 100-1.6.8.8 0 000 1.6z"/>
    <path fill="#248c44"
          d="M40.9 72.7c.1-1.3 1 4.2 1.7 6.7.7 2.4 7.9 5.2 8.5 5.4v.5s-7.8-.5-9-1.7l-.1 2S40.7 74 40.9 72.7z"
          opacity=".5"/>
    <path fill="#f14f4a" d="M23.5 96.9l.7-.5-1 4.7 2-9.5-1.5 1.2z" opacity=".5"/>
    <path fill="#283432" d="M24.2 96.4l-1 4.7s-.2.3.5 0c1.1-.5 3.5-5.8 3.5-5.8l1.3.2.6-4.3-3.8.1z"/>
    <path fill="#3a7e3f"
          d="M22.1 85.5a27.6 27.6 0 0010.5 2.7c-1.7-.1-6.3-1.4-8-2.4-1.8-1-.2-13-.7-12.6-.6.5-1.7 2.5-1.7 2.6v.1c.5-1.1 1-1.3 1-1.3l-.2 1.1z"
          opacity=".5"/>
  </symbol>
  <symbol viewBox="0 0 130 125" id="why_dz5">
    <path fill="#e8f1f7"
          d="M22.45 99.46c-44.6-45.03-12.3-93.34 7.63-97.86 19.93-4.53 36.95-.24 43.73 23.18C80.6 48.17 95.77 42.8 107 42.48"/>
    <path fill="#e8f1f7"
          d="M126.01 100.9a37.76 37.76 0 01-23.78 20.75c-17.47 5.2-49.5 8.37-79.78-22.19-44.6-45.03-12.3-93.34 7.63-97.86 19.94-4.52 36.96-.24 43.74 23.18C80.6 48.18 95.77 42.8 107 42.48c9.55-.28 32.12 29.02 19.01 58.42z"/>
    <path fill="#2d2e2d"
          d="M107.07 106.24H13.03c-2 0-3.64-1.67-3.64-3.7V28.47a3.7 3.7 0 013.64-3.7h94.05c2 0 3.64 1.67 3.64 3.7v74.06c0 2.04-1.64 3.7-3.65 3.7z"/>
    <path fill="#e8f1f7"
          d="M103.66 102.45H16.45a3.38 3.38 0 01-3.34-3.4V31.97c0-1.87 1.5-3.4 3.34-3.4h87.21a3.38 3.38 0 013.34 3.4v67.09c0 1.87-1.5 3.39-3.34 3.39z"/>
    <path fill="#fad110"
          d="M38.72 65.41H21.75a2.38 2.38 0 01-2.35-2.4V38.67c0-1.32 1.06-2.4 2.35-2.4h16.97c1.3 0 2.35 1.08 2.35 2.4v24.36c0 1.31-1.05 2.4-2.35 2.4z"/>
    <path fill="#0e9b4a"
          d="M103.09 77.67v13.88c0 2.25-1.8 4.1-4.02 4.1H23.1a4.07 4.07 0 01-4.02-4.1V77.67c0-2.25 1.8-4.1 4.02-4.1h75.96a4.07 4.07 0 014.02 4.1z"/>
    <path fill="#e84842"
          d="M70.9 65.41H53.94a2.38 2.38 0 01-2.34-2.4V38.67c0-1.32 1.05-2.4 2.34-2.4h16.98c1.3 0 2.35 1.08 2.35 2.4v24.36c0 1.31-1.06 2.4-2.35 2.4z"/>
    <path fill="#f68721" d="M92.1 34.82l6.2 14.67 6.2 14.67H79.7l6.2-14.66z"/>
    <path fill="#f2b2a4"
          d="M79.7 68.06s-4.93 20.22 15.06 32.34l20.95 1.11s11.52-11.77 5.44-23.18c-6.09-11.4-16.64-8.46-16.64-8.46s-1.7-5.62-6.82-5.76c-5.12-.14-12.58 3.45-12.58 3.45z"/>
    <path fill="#d8816e"
          d="M79.7 68.06s7.48.56 8.34 10.9c0 0-2.3 1.35 15.44 9.24 17.75 7.88-16.78-22.86-23.77-20.14z"/>
    <path fill="#2d2e2d"
          d="M79.17 74.6L64.52 64.1s-6.2-4.23-4.45-6.4c1.63-2.03 8.61 2.39 8.61 2.39l42.3 23.85s3.7 2.9 1.51 5.8c-2.2 2.9-11.29-2.37-22.87-9.7 0 0-.93-12.89-9.92-11.99z"/>
    <path fill="#d8816e"
          d="M119.73 76.04c-6.17-8.7-15.22-6.17-15.22-6.17s1.4 4.14 2.17 6.36c.6 1.7 1.86-3.08 13.05-.19z"/>
    <path
      d="M111.25 88.07c-.83 3.02-19.48-5.67-21.22-11.85-1.72-6.19-5.92-7.3-5.92-7.3 4.9 2.8 5.51 11.12 5.51 11.12 11.58 7.33 20.67 12.6 22.87 9.7 2.2-2.9-1.5-5.8-1.5-5.8s1.09 1.11.26 4.13z"
      opacity=".5"/>
    <path fill="#d8816e"
          d="M79.26 73.46s2.54.17 2.11-1.5c-.43-1.67-.75-3.6-1.67-3.03a.73.73 0 00-.2.22c-.13.8-.27 1.99-.33 3.5l.09.81z"/>
    <path
      d="M79.26 73.46S61.99 60.88 61.08 59.44c-.87-1.38-.32-2.12-.28-2.17-.3.08-.56.21-.74.44-1.74 2.17 4.46 6.4 4.46 6.4l14.63 10.5z"
      opacity=".5"/>
    <path fill="#d8816e" d="M116.69 100.4c-10.66-4.5-21.93 0-21.93 0l20.95 1.11s.39-.4.98-1.11z"/>
    <path fill="#f7f7f6" d="M94.76 100.4v4.47l21.47 3.23.76-5.89c.01 0-9.12-6.33-22.23-1.81z"/>
    <path fill="#e8f1f7" d="M94.76 104.25s14.54-2.73 21.93.3l-.44 3.04-21.03-.64z"/>
    <path fill="#acb9df"
          d="M119.32 108.29s-13.1-7.5-30.67-2.04v18.21a81.54 81.54 0 0013.58-2.8 38.02 38.02 0 0017.85-11.48z"/>
    <path fill="#fff" stroke="#2d2e2d" stroke-miterlimit="10" stroke-width=".89"
          d="M93.1 117.3c.92 0 1.66-.76 1.66-1.7 0-.93-.74-1.69-1.66-1.69-.92 0-1.67.76-1.67 1.7 0 .93.75 1.69 1.67 1.69z"/>
  </symbol>
  <symbol viewBox="0 0 140 125" id="why_dz6">
    <g stroke-width=".76">
      <path fill="#e8f1f7"
            d="M130.16 119.08s-47.13 20.01-100.65-13.57C-24 71.93 8.61 55.52 23.91 30.53c15.28-25 71.88-51.3 95.3 9.2 23.43 60.48 27 72.85 10.95 79.35z"/>
      <path fill="#dd9f43" d="M55.97 3.3h3.56l4.5 10.5h2.16L60.5.02 55 0l-5.97 13.8h2.4z"/>
      <path fill="#dd9f43" d="M59.53 3.3l4.5 10.5h.53l-4.5-10.5z"/>
      <path fill="#b3672a" d="M55 0l-5.97 13.8h.53L55.53 0z"/>
      <path fill="#acb9df" d="M87.14 13.54H16.31v94.34h70.83z"/>
      <path fill="#f7f7f6" d="M84.14 16.6H19.31v88.23h64.83z"/>
    </g>
    <g fill="none" stroke="#acb9df" stroke-miterlimit="10">
      <path stroke-width=".4"
            d="M79.48 27.93v20.93h-32.3m26.44-20.83v15.45m5.86.1l-32.12-.02m2.6 5.3v-8.23m12.93 8.63v-8.93m16.59-9.97h-5.86"/>
      <path stroke-dasharray="1.17 1.17" stroke-width=".29" d="M56.92 48.86v-5.35m11.33 5.35v-5.35m5.2-9.18h5.83"/>
      <path stroke-width=".43" d="M81.7 66.7H50.52v20.26h31.2z"/>
      <path stroke-width=".43" d="M81.7 68.95h-5.73v15.99h5.74z"/>
      <path stroke-width=".41" d="M81.7 68.95H76V73h5.72zm0 11.88H76v4.05h5.72z"/>
      <path stroke-width=".4"
            d="M64.1 82.86a6.01 6.01 0 005.94-6.08 6.01 6.01 0 00-5.94-6.08 6.01 6.01 0 00-5.95 6.08 6.01 6.01 0 005.95 6.08z"/>
      <path stroke-width=".42" d="M68.92 80.1l-11.67-7.93H53"/>
      <g stroke-width=".29">
        <path d="M49.08 76.89h1.16"/>
        <path stroke-dasharray="2.42 2.42" d="M52.65 76.89H80.3"/>
        <path d="M81.5 76.89h1.16M64.1 84.86v-1.18"/>
        <path stroke-dasharray="2.45 2.45" d="M64.1 81.2v-8.71"/>
        <path d="M64.1 71.24v-1.19"/>
      </g>
    </g>
    <g stroke-width=".76">
      <path fill="#dd9f43" d="M64.8 3.25H50.65V6.8H64.8z"/>
      <path fill="#b3672a" d="M50.93 3.25V6.5h13.88v.3H50.64V3.25z"/>
      <path fill="#e84842"
            d="M89.1 78.95c17.24.82 16.9.02 16.9.02s17.46 2.78 22.8 16.64c1.6 4.13 3.04 16.09 2.29 23.72-12.3 5.15-34.16 5.45-34.16 5.45-16.46.82-28.47-1.16-37.31-5.4-.93-6.48-.11-14.8 4.7-25.02 0 0 7.51-16.24 24.77-15.42z"/>
      <path fill="#f2b2a4"
            d="M76.03 46.85s-.55 18.66 1.08 22.37c1.45 3.3 3.71 5.57 9.01 5.27l-.28 4.9s-5.3 10.14 3.1 12.59c8.41 2.46 17.22-12.9 17.22-12.9s-4.9-2.76-4.9-14.63l-.02-5.95s6.11-.66 4.71-5.1c-1.4-4.45-5.6.15-5.6.15s1.8-11.72-8.56-11.72c-10.36 0-15.06 1.85-15.76 5.02z"/>
      <path fill="#333" d="M102.76 58.14s.02 5.61-1.53 6.17l-.01-5.83z"/>
    </g>
    <g fill="none" stroke-miterlimit="10">
      <path stroke="#dd9180" stroke-width=".4" d="M101.1 55.7s1.4-3.01 3.5-2.5"/>
      <path stroke="#dd9180" stroke-width=".42" d="M82.19 50.69l-2.26 8.19s0 .56 1.2.56h2.26"/>
      <path stroke="#d8816e" stroke-width=".4" d="M81.15 66.07s1.07 1.6 3.76.17"/>
      <path stroke="#333" stroke-width=".4" d="M77.28 49.4s1.1-1.84 2.65.16m6.97-.16s1.1-1.84 2.64.16"/>
    </g>
    <g fill="#333" stroke-width=".76">
      <path
        d="M77.98 54.63c.39 0 .7-.4.7-.9s-.31-.9-.7-.9c-.39 0-.7.4-.7.9s.31.9.7.9zm9.27 0c.38 0 .7-.4.7-.9s-.32-.9-.7-.9c-.4 0-.7.4-.7.9s.3.9.7.9z"/>
      <path
        d="M81.79 46.24s-12.41 4.1-13.81-5.94c-1.4-10.02 6.56-16.63 16.87-15.2 10.3 1.44 10.36 6.81 10.36 6.81s4.25-6.02 9.16-1.06c5.1 5.16-.52 16.18-.82 20.62 0 0-3.07.37-3.74 4.69-.7 4.66-4.14-4.26-4.7-8.54-.41-3.05-9.57-2.87-13.32-1.38z"/>
    </g>
    <path fill="#d8816e"
          d="M85.84 79.4l.02-.41.02-.02.18-3.43.06-1.03c2.17-.51 3.03-.56 5.63-2.15 0 0 0 1.43-.85 3.03a7.6 7.6 0 01-4.41 3.9s-3.6 6.72-1.1 10.44c-2.94-3.84.45-10.34.45-10.34z"/>
    <path fill="#f2b2a4" d="M85.6 89.97l-.1-.1.1.1z"/>
    <path fill="none" stroke="#acb9df" stroke-miterlimit="10" stroke-width=".43"
          d="M30.45 44.57l.32 44.93m8.7-44.93L39.3 89.4m.26-44.83l.04-3.46c-.55-14.2-4.6-15.43-4.6-15.43s-4.05 1.22-4.6 15.43l.05 3.46s-5.1 6.07-5.1 9.3V91.7h5.3v-2.26h8.7v2.26h5.3V53.88c0-3.24-5.1-9.31-5.1-9.31z"/>
    <g stroke="#acb9df" stroke-miterlimit="10" stroke-width=".43">
      <path fill="#f7f7f6"
            d="M40.8 70.74l-2.9-9.8c0-11.08-3.1-12.42-3.1-12.42s-3.11 1.33-3.11 12.41l-2.9 9.8s-7.25 5.44-7.25 10.87l9.87 1.55.28-1.77.97 2.47h1.93l.2-3.95.22 3.95h1.93l.97-2.47.28 1.77 9.86-1.55c-.01-5.43-7.25-10.86-7.25-10.86z"/>
      <path fill="none" d="M31.69 60.93l-.07 20.45m6.26-20.45l-.08 20.45"/>
    </g>
  </symbol>
  <symbol viewBox="0 0 125 125" id="why_dz7">
    <path fill="#e8f1f7"
          d="M48.74 124.84s-39.09 2.54-47.22-38.7C-6.61 44.9 19.54 25.3 41.47 14.4c21.94-10.9 73.38-29.14 81.95 6.87 8.57 36.02-20.34 46.18-24.41 68.6-4.07 22.42-14.38 36.76-50.27 34.97z"/>
    <path fill="#475daa" d="M27.85 120.81h1.14V87.49h-7.12v30.22c1.98 1.23 4 2.25 5.98 3.1z"/>
    <path fill="#dcd3c0"
          d="M14.74 112.12a41.64 41.64 0 007.12 5.58V95.4h-7.12zm59.03-23.65l-13.11 30.48 6.5 2.96 13.12-30.48z"/>
    <path fill="#475daa" d="M82 85.73l-13.1 30.48 4.63 2.1 13.1-30.47z"/>
    <path fill="#acb9df" d="M71.4 123.13l.13.05a43.28 43.28 0 006.27-2.03l8.78-20.42-4.63-2.11z"/>
    <path fill="#dd9f43" d="M103.93 77.62c1.1-1.83 2.32-3.6 3.59-5.38H8.19l.15.6v4.78z"/>
    <path fill="#0e9b4a"
          d="M55.22 86.73c-14.27.68-13.99.01-13.99.01S26.81 89.06 22.4 100.6a38.46 38.46 0 00-2.02 16.14c13.35 9.08 28.37 8.12 28.37 8.12 13.6.68 23.54-.97 30.84-4.49.77-5.4.1-12.32-3.9-20.8 0-.01-6.2-13.51-20.47-12.83z"/>
    <path fill="#fac7c8" d="M42.64 84.37l-1.1 1.72s-.78 8.85 9.28 8.03c8.77-.7 5.62-9.96 5.62-9.96s-13.8.44-13.8.2z"/>
    <path fill="#f8a89a"
          d="M56.53 84.5l-.85-.32c-2.86.09-13.04.39-13.04.19l-1.1 1.72s-.76 8.64 8.92 8.06c-3.77-.44-7.24-3.25-2.2-2.96 5.14.3 7.97-5.82 8.3-6.58a.45.45 0 00-.03-.11z"/>
    <path fill="#fac7c8"
          d="M49.71 86.15c9.29 0 16.82-8.57 16.82-19.15 0-10.59-7.53-19.16-16.82-19.16S32.89 56.42 32.89 67s7.53 19.15 16.82 19.15z"/>
    <path fill="#f8a89a" d="M48.6 49.56s-7.35 12.91-14.52 15.4c0 0-.48-.27-1.14-.15l.27-1.33z"/>
    <path fill="#f5821f"
          d="M48.6 49.56S36.27 67.05 29.56 63.72c-6.7-3.34 10.48-30.17 16.78-21.43 0 0 8.27-8.98 19.84 3.93 11.57 12.92 2.72 33.33-17.58 3.34z"/>
    <path fill="#fac7c8"
          d="M33.22 72.88c1.93 0 3.5-1.81 3.5-4.05s-1.57-4.05-3.5-4.05-3.49 1.82-3.49 4.05 1.56 4.05 3.49 4.05zm33.21 0c1.93 0 3.5-1.81 3.5-4.05s-1.57-4.05-3.5-4.05c-1.92 0-3.49 1.82-3.49 4.05s1.57 4.05 3.5 4.05z"/>
    <path fill="#f8a89a" d="M47.85 79.17s6.2 3.73 8.09-3.33c0 0-2.87 3.27-8.09 3.33z"/>
    <path fill="none" stroke="#f8a89a" stroke-linecap="round" stroke-miterlimit="10" stroke-width=".47"
          d="M33.34 67.1s-1.74.12-1.35 2.07C32.4 71.12 34 70.4 34 70.4m32.55-3.17c.1 0 1.7-.56 1.46 1.66-.23 2.22-1.2 1.67-1.2 1.67"/>
    <path fill="#484199"
          d="M44.3 68.26c.6 0 1.06-.62 1.06-1.38 0-.76-.47-1.38-1.05-1.38-.58 0-1.05.62-1.05 1.38 0 .76.47 1.38 1.05 1.38zm12-.4c.56 0 1.02-.58 1.02-1.3 0-.71-.46-1.29-1.03-1.29-.56 0-1.02.58-1.02 1.3 0 .7.46 1.29 1.02 1.29z"/>
    <path fill="none" stroke="#f8a89a" stroke-linecap="round" stroke-miterlimit="10" stroke-width=".94"
          d="M50.39 65.52s-.1 4.25-.7 5.5-.43 2 1.1 2.08"/>
    <path fill="#f1625b"
          d="M51.55 47.75c-1.4-4.01-1.17-6.36-.52-8.14-2.97.8-4.7 2.68-4.7 2.68-6.3-8.75-23.48 18.1-16.77 21.43 6.71 3.33 19.04-14.16 19.04-14.16 6.19 9.13 11.3 13.6 15.12 15-5.56-4.45-10.14-10.92-12.17-16.81z"
          opacity=".5"/>
    <path fill="#f8a89a"
          d="M64.52 72.19v.08c.27.5.64.93 1 1.27.09-.25.16-.5.23-.76-.69-.3-1.23-.6-1.23-.6zm-30.55 1.54c.55-.54.9-1.51.9-1.51-.45.46-1.07.59-1.18.61l.28.9z"/>
    <path fill="#f2655a"
          d="M40.86 61.9a9.2 9.2 0 012.62-1 8.85 8.85 0 012.83-.2.7.7 0 01.62.76.68.68 0 01-.74.64l-.05-.01h-.02a7.61 7.61 0 00-3.67.23c-.4.12-.81.27-1.16.43h-.03c-.23.11-.5 0-.6-.23a.49.49 0 01.2-.62zm13.09-1.13a10.17 10.17 0 012.73.28c.88.21 1.74.6 2.49 1.17.2.16.24.46.09.67a.44.44 0 01-.61.11h-.02a5.62 5.62 0 00-2.18-.8 7.52 7.52 0 00-2.34-.02h-.01a.7.7 0 01-.79-.6.71.71 0 01.6-.8h.04z"/>
    <path fill="#f8a89a"
          d="M40.5 76.06c1.11 0 2.02-.93 2.02-2.08s-.9-2.08-2.02-2.08-2.03.93-2.03 2.08.9 2.08 2.03 2.08zm19.68 0c1.12 0 2.03-.93 2.03-2.08s-.91-2.08-2.03-2.08-2.02.93-2.02 2.08.9 2.08 2.02 2.08z"/>
    <g fill="#2d2e2d">
      <path d="M30.49 74.53c1.21 0 2.2-2.64 2.2-5.9s-.99-5.9-2.2-5.9c-1.21 0-2.2 2.64-2.2 5.9s.99 5.9 2.2 5.9z"/>
      <path d="M30.49 62.73s-3.24.22-3.18 6.2c.06 5.97 3.34 5.62 3.34 5.62z"/>
      <path d="M30.49 62.73s-3.24.22-3.18 6.2c.06 5.97 3.34 5.62 3.34 5.62z" opacity=".5"/>
      <path d="M30.49 74.53c1.21 0 2.2-2.64 2.2-5.9s-.99-5.9-2.2-5.9c-1.21 0-2.2 2.64-2.2 5.9s.99 5.9 2.2 5.9z"/>
      <path d="M30.49 74.53c1.21 0 2.2-2.64 2.2-5.9s-.99-5.9-2.2-5.9c-1.21 0-2.2 2.64-2.2 5.9s.99 5.9 2.2 5.9z"
            opacity=".5"/>
      <path d="M29.12 73.43c.99 0 1.8-2.15 1.8-4.8s-.81-4.8-1.8-4.8-1.79 2.15-1.79 4.8.8 4.8 1.79 4.8z"/>
      <path d="M29.12 73.43c.99 0 1.8-2.15 1.8-4.8s-.81-4.8-1.8-4.8-1.79 2.15-1.79 4.8.8 4.8 1.79 4.8z"/>
      <path d="M29.12 73.43c.99 0 1.8-2.15 1.8-4.8s-.81-4.8-1.8-4.8-1.79 2.15-1.79 4.8.8 4.8 1.79 4.8z"/>
    </g>
    <path fill="#f7f7f6"
          d="M29.12 72.89c.88 0 1.59-1.91 1.59-4.26 0-2.35-.71-4.26-1.59-4.26s-1.59 1.9-1.59 4.26c0 2.35.71 4.26 1.59 4.26z"/>
    <g fill="#2d2e2d">
      <path
        d="M29.12 72.34c.76 0 1.38-1.66 1.38-3.71s-.62-3.71-1.38-3.71-1.38 1.66-1.38 3.7.62 3.72 1.38 3.72zm40.5 2.19c1.2 0 2.2-2.64 2.2-5.9s-1-5.9-2.2-5.9c-1.22 0-2.2 2.64-2.2 5.9s.98 5.9 2.2 5.9z"/>
      <path d="M69.62 62.73s3.24.22 3.18 6.2c-.06 5.97-3.34 5.62-3.34 5.62z"/>
      <path d="M69.62 62.73s3.24.22 3.18 6.2c-.06 5.97-3.34 5.62-3.34 5.62z" opacity=".5"/>
      <path d="M69.62 74.53c1.2 0 2.2-2.64 2.2-5.9s-1-5.9-2.2-5.9c-1.22 0-2.2 2.64-2.2 5.9s.98 5.9 2.2 5.9z"/>
      <path d="M69.62 74.53c1.2 0 2.2-2.64 2.2-5.9s-1-5.9-2.2-5.9c-1.22 0-2.2 2.64-2.2 5.9s.98 5.9 2.2 5.9z"
            opacity=".5"/>
      <path d="M71 73.43c.98 0 1.78-2.15 1.78-4.8s-.8-4.8-1.79-4.8-1.79 2.15-1.79 4.8.8 4.8 1.8 4.8z"/>
      <path d="M71 73.43c.98 0 1.78-2.15 1.78-4.8s-.8-4.8-1.79-4.8-1.79 2.15-1.79 4.8.8 4.8 1.8 4.8z"/>
      <path d="M71 73.43c.98 0 1.78-2.15 1.78-4.8s-.8-4.8-1.79-4.8-1.79 2.15-1.79 4.8.8 4.8 1.8 4.8z"/>
    </g>
    <path fill="#f7f7f6"
          d="M71 72.89c.87 0 1.58-1.91 1.58-4.26 0-2.35-.71-4.26-1.59-4.26-.87 0-1.59 1.9-1.59 4.26 0 2.35.72 4.26 1.6 4.26z"/>
    <path fill="#2d2e2d"
          d="M71 72.34c.75 0 1.37-1.66 1.37-3.71s-.62-3.71-1.38-3.71c-.76 0-1.37 1.66-1.37 3.7s.61 3.72 1.37 3.72zm-40.51-9.61S32 44.34 48 44.34s21.2 18.43 21.2 18.43l1.29.92s-2.6-21.48-22.4-21.48c-19.81 0-18.98 21.6-18.98 21.6"/>
    <path fill="#dd9f43"
          d="M7.33 102.43a43.28 43.28 0 005.23 7.4V35.9a56.2 56.2 0 00-5.23 7.42zm112.38-90.27H46.2a147.7 147.7 0 00-10.66 5.39h86.77a28.05 28.05 0 00-2.6-5.39z"/>
    <path fill="#acb9df" d="M18.23 50.82h-5.09v21.37h5.09z"/>
    <path fill="#475daa" d="M25.5 38.86h-7.12V72.2h7.11z"/>
    <path fill="#dcd3c0" d="M86.56 115.78a31.13 31.13 0 007.12-9.12v-23.5h-7.12z"/>
    <path fill="#475daa" d="M85.06 33.23h-7.12v39.15h7.12z"/>
    <path fill="#acb9df" d="M92.18 42.65h-7.11v29.74h7.11z"/>
    <path fill="#475daa" d="M99.3 39.06h-7.12V72.4h7.12z"/>
    <path fill="#acb9df" d="M109.92 26.95h-10.6V72.4h8.1a195.4 195.4 0 012.5-3.4z"/>
    <path fill="#dcd3c0" d="M110.06 68.8c3.76-5.04 7.71-10.17 10.6-16.16v-9.55h-10.6z"/>
    <path fill="#15246c"
          d="M25.5 43h-7.13v1.5h7.12zm0 2.77h-7.13v1.51h7.12zm59.67-9.04h-7.13v1.5h7.13zm0 2.76h-7.13v1.52h7.13zM99.4 44h-7.13v1.5h7.13zm-3.44 6.65c.84 0 1.53-.7 1.53-1.57s-.69-1.57-1.53-1.57-1.53.7-1.53 1.57.69 1.57 1.53 1.57z"/>
    <path fill="#bcaf94"
          d="M120.54 47.13h-10.42v1.5h10.42zM93.61 88.28H86.6v1.5h7.02zm0 4.64H86.6v1.5h7.02zm21.75-39.14c.84 0 1.53-.7 1.53-1.57 0-.87-.69-1.57-1.53-1.57s-1.53.7-1.53 1.57c0 .87.69 1.57 1.53 1.57zm-40 40.75c.84 0 1.52-.7 1.52-1.57 0-.86-.68-1.57-1.52-1.57-.85 0-1.53.7-1.53 1.57 0 .87.68 1.57 1.53 1.57z"/>
  </symbol>
  <symbol viewBox="0 0 180 125" id="why_dz8">
    <path fill="#e8f1f7"
          d="M105.78 122.75a85.89 85.89 0 01-28.8 1.73c-7.44-.86-15.06-3-21.07-7.78-6.7-5.32-10.16-13.8-16.5-19.66C28.05 86.5 8.02 79.88 2.79 63.84-2.84 46.6-.24 25.1 13.45 12.82 28.32-.56 52.58-3.14 68.09 10.9c9.8 8.87 22.65 13.86 34.7 18.68 15.9 6.34 32.65 12.24 49.71 14 14.2 1.47 23.19 13.77 26.3 27.4 1.88 8.23 1.65 17.14-1.45 25.03-3.82 9.74-11.45 15.5-20.4 19.97-7.81 3.9-15.36 5.61-24 4.69-9.44-1.03-17.94-.83-27.17 2.08z"/>
    <path fill="#2d2e2d"
          d="M125.36 102.74H34.24a3.6 3.6 0 01-3.53-3.63V26.63a3.6 3.6 0 013.53-3.62h91.12a3.6 3.6 0 013.53 3.62v72.48c0 2-1.6 3.63-3.53 3.63z"/>
    <path fill="#e8f1f7"
          d="M122.05 99.03h-84.5a3.3 3.3 0 01-3.23-3.33V30.05a3.3 3.3 0 013.23-3.33h84.5a3.3 3.3 0 013.23 3.33V95.7a3.29 3.29 0 01-3.23 3.33z"/>
    <path fill="#fff" d="M116.34 55.44H42.75v8.98h73.59z"/>
    <path fill="#f68721"
          d="M89.6 60.46c-6.5 0-11.78 6.52-11.78 14.56S83.1 89.58 89.6 89.58c6.5 0 11.78-6.51 11.78-14.56S96.1 60.46 89.6 60.46zm0 25.84c-5.04 0-9.12-5.05-9.12-11.29 0-6.23 4.08-11.27 9.12-11.27 5.04 0 9.13 5.05 9.13 11.27S94.63 86.3 89.6 86.3z"/>
    <path fill="#e26f31"
          d="M89.6 60.46c-6.5 0-11.78 6.52-11.78 14.56S83.1 89.58 89.6 89.58c6.5 0 11.78-6.51 11.78-14.56S96.1 60.46 89.6 60.46zm0 25.84c-5.04 0-9.12-5.05-9.12-11.29 0-6.23 4.08-11.27 9.12-11.27 5.04 0 9.13 5.05 9.13 11.27S94.63 86.3 89.6 86.3z"
          opacity=".5"/>
    <path fill="#acb9df" d="M105.04 122.91l.74-.17c16.11-5.07 23.04-2.09 31.36-1.74l.15-4.37-29.86-3.22z"/>
    <path fill="#f68721"
          d="M117.99 81.94l-14.64-5.46c.04-.47.06-.96.06-1.45 0-8.04-5.28-14.56-11.78-14.56s-11.78 6.51-11.78 14.56 5.28 14.56 11.78 14.56c3.23 0 6.16-1.61 8.29-4.22l16.04 5.42s5.56-2.64 2.03-8.85zM91.64 86.3c-5.04 0-9.13-5.05-9.13-11.29 0-6.23 4.09-11.27 9.13-11.27 5.04 0 9.12 5.05 9.12 11.27 0 6.23-4.08 11.29-9.12 11.29z"/>
    <path fill="#3c5ba9"
          d="M110.91 112.8s-3.9-.38-3.48.61c.43 1 19.37 4.23 28.41 3.65 9.04-.58-24.93-4.26-24.93-4.26z"/>
    <path fill="#f2b2a4"
          d="M115.97 90.78L102.7 86.3s-3.11 1.12-.63 6.81c2.48 5.7 13.44 9.97 13.44 9.97l-1.17 4.87s16.44 3.76 20.29 4.42c0 0 24.26-33.42-7.33-35.52 0 0-3.71-6.27-11.9-4.3-8.2 1.97-8.19 5.27-8.19 5.27L118 81.94s3.67 5.52-2.03 8.84z"/>
    <path fill="#f7f7f6" d="M112.82 107.18l-2.46 7.2s13.07 3.22 25.47 2.67l-.76-5.35z"/>
    <path fill="#d8816e"
          d="M130.02 79.92c.5 2.03 4.12-2.44 9.68.97-2.53-2.17-6.48-3.66-12.4-4.06 0 .01 2.23 1.05 2.72 3.09z"/>
    <path fill="#f2b2a4"
          d="M102.02 86.77s14.19 7.59 16.52 2.81c2.34-4.78-.55-7.64-.55-7.64s3.68 5.53-2.02 8.84l-13.24-4.47z"/>
    <path fill="#e26f31"
          d="M117.99 81.94c2.38 6.33-1.9 8.23-1.9 8.23l-15.53-6.06c-.43.99-.49 1.04-.7 1.32l.06-.06 16.04 5.42s5.56-2.64 2.03-8.85z"
          opacity=".5"/>
    <path fill="#d8816e" d="M101.12 89.58s.9-.14.9 1.2c-.01 1.33.28 2.79.28 2.79s-1.23-2.93-1.18-4z"/>
    <path fill="#fff" stroke="#231f20" stroke-miterlimit="10" stroke-width=".41"
          d="M46.86 60.99a1.5 1.5 0 001.48-1.52 1.5 1.5 0 00-1.48-1.51 1.5 1.5 0 00-1.47 1.51c0 .84.66 1.52 1.47 1.52z"/>
    <path fill="none" stroke="#231f20" stroke-miterlimit="10" stroke-width=".59" d="M47.84 60.54l1.53 1.63"/>
    <path fill="#e84842"
          d="M42.34 14.81h10.58l5.6 5.74v13.48c0 .7-.56 1.28-1.24 1.28H42.34c-.68 0-1.24-.58-1.24-1.28V16.09c-.01-.7.55-1.28 1.24-1.28z"/>
    <path fill="#b53629" d="M58.5 20.58h-4.33c-.69 0-1.25-.58-1.25-1.28v-4.47z"/>
    <path fill="#fff"
          d="M53.85 24.52c.2 0 .31-.18.31-.37s-.1-.37-.3-.37h-1.2c-.23 0-.35.2-.35.42v3c0 .26.14.42.34.42s.35-.16.35-.42v-.83h.72c.22 0 .33-.19.33-.37s-.11-.36-.33-.36H53v-1.12h.85zm-4.01-.73h-.87c-.24 0-.4.17-.4.42v3c0 .3.24.4.4.4h.92c1.08 0 1.79-.72 1.79-1.85 0-1.2-.67-1.97-1.84-1.97zm.04 3.08h-.53v-2.34h.48c.72 0 1.04.5 1.04 1.2 0 .63-.32 1.14-.99 1.14zM46.7 23.8h-.86c-.24 0-.37.17-.37.42v3c0 .26.15.41.36.41s.37-.15.37-.41v-.88h.54c.66 0 1.22-.49 1.22-1.27-.01-.76-.54-1.27-1.26-1.27zm-.01 1.83h-.5V24.5h.5c.3 0 .5.24.5.57 0 .32-.2.56-.5.56z"/>
    <path fill="#acb9df"
          d="M11.45 3.43L21.5 0l7.09 3.64 4.12 12.78a1.3 1.3 0 01-.79 1.62l-14.18 4.85a1.25 1.25 0 01-1.57-.81l-5.5-17.03a1.3 1.3 0 01.8-1.62z"/>
    <path fill="#f7f7f6"
          d="M16.94 11.83l1.18-.4c.28-.1.56-.13.82-.1.26.04.49.15.68.32.18.17.32.39.41.66.1.27.1.54.05.79s-.18.48-.36.67a1.8 1.8 0 01-.71.43l-1.18.4zm1.9 1.94c.2-.07.37-.17.5-.3s.2-.28.24-.45a1 1 0 00-.06-.53 1.03 1.03 0 00-.28-.47.83.83 0 00-.44-.2.99.99 0 00-.56.05l-.66.22.61 1.9zm2.64-.57a1.4 1.4 0 01-1.11-1 1.53 1.53 0 011-1.92c.27-.1.53-.11.8-.07a1.4 1.4 0 011.1 1 1.47 1.47 0 01-.3 1.48 1.7 1.7 0 01-1.5.51zm1.1-.81c.12-.13.2-.3.23-.46a1.1 1.1 0 00-.32-1 .96.96 0 00-.46-.24 1.07 1.07 0 00-.53.04c-.17.07-.32.16-.44.3a.94.94 0 00-.23.46 1.12 1.12 0 00.33 1c.13.12.28.2.45.23.17.03.34.02.52-.04a.99.99 0 00.45-.3zm2.12-.29a1.34 1.34 0 01-.67-.33 1.5 1.5 0 01-.42-.67 1.47 1.47 0 01.31-1.48c.18-.2.4-.34.68-.43.22-.08.43-.1.64-.08.2.01.4.07.57.19l-.22.42a.99.99 0 00-.82-.08 1 1 0 00-.47.28 1 1 0 00-.19 1c.06.2.16.35.29.47s.28.2.46.23c.16.03.35.02.53-.05a1 1 0 00.61-.58l.43.2a1.47 1.47 0 01-.92.83 1.4 1.4 0 01-.8.08z"/>
    <path fill="#3c5ba9" d="M28.56 3.66l-4.12 1.4a1.25 1.25 0 01-1.57-.8L21.5.02z"/>
    <path fill="#e84842"
          d="M175.78 63c.72 1.83-.35 4.01-2.4 4.86-2.05.85-4.29.05-5.01-1.79-.72-1.83.35-4.01 2.4-4.86a4.3 4.3 0 012.65-.22l-3.06-7.81-9.34 6.23 3.73 9.51c.72 1.84-.36 4.02-2.4 4.87s-4.29.04-5.01-1.8c-.72-1.82.35-4 2.4-4.86a4.3 4.3 0 012.65-.22l-3.86-9.84-.82-2.1 11.82-7.9z"/>
    <path fill="#fcce31"
          d="M148.31 44.45l-10.1 6.74.7 1.8 3.3 8.4c-.7-.16-1.5-.12-2.26.2-1.74.73-2.67 2.58-2.05 4.15.61 1.57 2.54 2.25 4.28 1.53 1.75-.73 2.67-2.58 2.06-4.15L141.05 55l7.98-5.33 2.62 6.68a3.6 3.6 0 00-2.27.19c-1.74.72-2.66 2.58-2.05 4.15.61 1.57 2.53 2.25 4.28 1.53 1.74-.73 2.67-2.59 2.05-4.15z"/>
    <path fill="#e84842"
          d="M142.2 13.62L128.3 9.6a5.12 5.12 0 00-6.34 3.65L120 20.4a5.3 5.3 0 003.55 6.51l13.9 4.03a5.12 5.12 0 006.34-3.65l1.96-7.15a5.3 5.3 0 00-3.55-6.52zm-5.8 8.04l-7.38 1.31c-.2.04-.36-.15-.31-.35l1.8-6.58c.05-.2.3-.27.44-.13l5.58 5.27c.17.15.09.44-.13.48z"/>
  </symbol>
</svg>
