<svg id="il_star" xmlns="http://www.w3.org/2000/svg" viewBox="0 0 70 70"><path fill="#fdd100" d="M51.89 46.45L55.87 70 35 58.87 14.12 70l2.7-15.86 1.3-7.7-16.9-16.67 23.34-3.45L34.99 4.9l10.44 21.42 5.27.78 18.08 2.67z"/><path fill="#deb700" d="M51.89 46.45L55.87 70 35 58.87 14.12 70l2.7-15.86C35.38 50.58 45.5 37.59 50.7 27.1l18.08 2.67z" opacity=".3"/><path fill="#fff" d="M25.52 32.1c.32 1.47-1.8 3.18-4.74 3.81-2.93.64-5.56-.03-5.87-1.5-.31-1.47 1.81-3.18 4.74-3.81 2.93-.64 5.56.03 5.87 1.5z" opacity=".9"/><g fill="#fbc343"><path d="M.7 0a46.55 46.55 0 016.98 5.52 52.59 52.59 0 013.12 3.16c1 1.1 1.95 2.25 2.79 3.52l-.7.76a29.4 29.4 0 01-3.65-2.58 52.5 52.5 0 01-3.33-2.94A46.87 46.87 0 010 .76zM70 .75a46.87 46.87 0 01-5.91 6.69c-1.07 1.02-2.17 2-3.33 2.93a29.05 29.05 0 01-3.66 2.58l-.69-.75c.84-1.27 1.8-2.42 2.8-3.52.99-1.1 2.03-2.16 3.11-3.16 2.18-2 4.43-3.93 6.99-5.52zM60.66 16.73a14.93 14.93 0 014.02-3c.72-.4 1.47-.75 2.26-1.02.78-.29 1.6-.51 2.48-.59l.47.92a9.93 9.93 0 01-1.9 1.72c-.67.49-1.38.91-2.12 1.3a15 15 0 01-4.74 1.6zM8.87 17.65a14.83 14.83 0 01-4.74-1.6A16.3 16.3 0 012 14.75a9.94 9.94 0 01-1.9-1.72l.47-.91c.89.07 1.7.3 2.48.58.79.28 1.54.63 2.27 1.02 1.44.8 2.83 1.7 4.01 3.01z"/></g></svg>
