<svg xmlns="http://www.w3.org/2000/svg">
  <symbol viewBox="0 0 326 86" fill="none" id="logo">
    <path d="M43 86C66.7482 86 86 66.7483 86 43C86 19.2518 66.7482 0 43 0C19.2518 0 0 19.2518 0 43C0 66.7483 19.2518 86 43 86Z" fill="#0081FF"/>
    <path fill-rule="evenodd" clip-rule="evenodd" d="M27.9229 67.4092C28.1147 67.4092 29.7721 65.9384 31.2624 65.9384C32.7527 65.9384 34.4087 67.4092 34.6002 67.4092C34.8592 67.4092 35.0685 67.1835 35.0685 66.9046V40.0259C35.0685 38.8585 34.1869 38.1016 33.1028 38.1016H29.4209C28.3376 38.1016 27.4552 38.8585 27.4552 40.0259V66.9046C27.4552 67.1835 27.6645 67.4092 27.9229 67.4092Z" fill="white"/>
    <path fill-rule="evenodd" clip-rule="evenodd" d="M40.2501 67.4092C40.4421 67.4092 42.0992 65.9384 43.5896 65.9384C45.0802 65.9384 46.7361 67.4092 46.9273 67.4092C47.1863 67.4092 47.3959 67.1835 47.3959 66.9046V40.0259C47.3959 38.8585 46.514 38.1016 45.4299 38.1016H41.7484C40.6648 38.1016 39.7823 38.8585 39.7823 40.0259V66.9046C39.7823 67.1835 39.992 67.4092 40.2501 67.4092Z" fill="white"/>
    <path fill-rule="evenodd" clip-rule="evenodd" d="M52.0168 67.4092C52.2088 67.4092 53.866 65.9384 55.3563 65.9384C56.8469 65.9384 58.5029 67.4092 58.6943 67.4092C58.953 67.4092 59.1627 67.1835 59.1627 66.9046V40.0259C59.1627 38.8585 58.281 38.1016 57.1969 38.1016H53.5151C52.4318 38.1016 51.5491 38.8585 51.5491 40.0259V66.9046C51.5491 67.1835 51.7587 67.4092 52.0168 67.4092Z" fill="white"/>
    <path fill-rule="evenodd" clip-rule="evenodd" d="M41.7864 15.6875H45.0453C45.918 15.6875 46.6288 16.3983 46.6288 17.271V17.2942C46.6288 17.7096 46.717 17.7793 47.1435 18.1143C47.218 18.1727 47.2989 18.2359 47.3838 18.3059L69.2725 36.2313C69.4931 36.4124 69.5258 36.7377 69.3446 36.9592C69.1635 37.1803 68.8382 37.2124 68.6161 37.0319L68.2752 36.7527C67.8977 36.6473 63.7499 35.5122 62.9438 36.1943C62.9438 36.1943 44.6552 29.0301 43.4157 21.5574C42.1764 29.0301 23.8878 36.1943 23.8878 36.1943C23.0817 35.5122 18.934 36.6473 18.5564 36.7527L18.2155 37.0319C17.9935 37.2124 17.6681 37.1803 17.487 36.9592C17.3059 36.7377 17.3386 36.4124 17.5591 36.2313L39.4478 18.3059C39.5327 18.2359 39.6137 18.1727 39.6882 18.1143C40.1146 17.7793 40.2029 17.7096 40.2029 17.2942V17.271C40.2029 16.3983 40.9137 15.6875 41.7864 15.6875Z" fill="white"/>
    <path d="M104.219 19.0508H111.347V31.4235H126.684V19.0508H133.811V49.4979H126.684V37.4673H111.347V49.4979H104.219V19.0508Z" fill="#414042"/>
    <path d="M154.999 19.0508C159.503 19.0508 162.924 20.1341 165.319 22.2437C167.657 24.4104 168.854 27.6604 168.854 31.9937V49.84H162.126V46.1339C161.271 47.4453 160.016 48.4716 158.42 49.1558C156.766 49.897 154.828 50.2391 152.547 50.2391C150.266 50.2391 148.271 49.84 146.56 49.0418C144.85 48.3005 143.538 47.2172 142.626 45.7918C141.657 44.4234 141.201 42.8839 141.201 41.1164C141.201 38.3796 142.227 36.1559 144.28 34.5024C146.275 32.8489 149.468 32.0507 153.858 32.0507H161.727V31.5945C161.727 29.4849 161.1 27.8314 159.845 26.6911C158.534 25.5507 156.652 24.9806 154.144 24.9806C152.433 24.9806 150.78 25.2656 149.126 25.7788C147.473 26.2919 146.047 27.0332 144.907 28.0025L142.113 22.8139C143.709 21.6165 145.648 20.6473 147.872 20.0201C150.095 19.3929 152.49 19.0508 154.999 19.0508ZM154.03 45.0506C155.797 45.0506 157.394 44.6514 158.819 43.7962C160.187 42.9979 161.157 41.8576 161.727 40.3181V36.7831H154.372C150.266 36.7831 148.214 38.1515 148.214 40.8313C148.214 42.1427 148.727 43.169 149.753 43.9102C150.78 44.6514 152.205 45.0506 154.03 45.0506Z" fill="#414042"/>
    <path d="M199.687 33.6471C203.45 34.7875 205.332 37.2392 205.332 40.9453C205.332 43.6821 204.305 45.7918 202.253 47.2742C200.2 48.7566 197.178 49.4979 193.13 49.4979H177.621V19.0508H192.503C196.209 19.0508 199.117 19.735 201.227 21.1034C203.336 22.4718 204.362 24.4104 204.362 26.9191C204.362 28.4586 203.963 29.827 203.165 30.9673C202.31 32.1077 201.169 33.0199 199.687 33.6471ZM184.406 31.7656H191.876C195.582 31.7656 197.406 30.5112 197.406 27.9454C197.406 25.4937 195.582 24.2393 191.876 24.2393H184.406V31.7656ZM192.56 44.3093C196.494 44.3093 198.433 43.0549 198.433 40.4892C198.433 39.1778 197.977 38.1515 197.064 37.4673C196.152 36.8401 194.727 36.498 192.788 36.498H184.406V44.3093H192.56Z" fill="#414042"/>
    <path d="M227.746 29.0858C231.623 29.0858 234.588 29.941 236.641 31.7086C238.693 33.4761 239.72 35.9278 239.72 39.1208C239.72 42.4848 238.579 45.0505 236.356 46.8751C234.075 48.6996 230.882 49.6119 226.72 49.5549L212.922 49.4979V19.0508H220.049V29.0288L227.746 29.0858ZM243.654 19.0508H250.781V49.4979H243.654V19.0508ZM226.093 44.3093C228.202 44.3663 229.799 43.9102 230.882 42.9979C231.965 42.0857 232.535 40.7743 232.535 39.0067C232.535 37.2962 232.022 36.0419 230.939 35.2436C229.856 34.4454 228.259 34.0463 226.093 33.9892L220.049 33.9322V44.2523L226.093 44.3093Z" fill="#414042"/>
    <path d="M272.646 37.2962H267.116V49.4979H259.989V19.0508H267.116V31.3665H272.817L281.826 19.0508H289.466L278.405 33.7042L290.208 49.4979H281.826L272.646 37.2962Z" fill="#414042"/>
    <path d="M295.289 19.0508H302.416V39.1208L319.236 19.0508H325.736V49.4979H318.609V29.4279L301.846 49.4979H295.289V19.0508Z" fill="#414042"/>
    <path d="M116.314 70.2793V74.2915H114.57V71.9075H105.983V74.2915H104.219V70.2793H104.762C105.421 70.2406 105.867 69.7754 106.119 68.8838C106.371 67.9922 106.526 66.7324 106.623 65.1042L106.778 61.6348H114.744V70.2793H116.314ZM108.329 65.2399C108.27 66.5385 108.174 67.6046 108.018 68.438C107.844 69.2908 107.553 69.9111 107.127 70.2793H112.883V63.2629H108.425L108.329 65.2399Z" fill="#0081FF"/>
    <path d="M123.017 72.0133C121.99 72.0133 121.079 71.7807 120.264 71.3349C119.45 70.8891 118.811 70.2495 118.365 69.4548C117.9 68.6601 117.667 67.7685 117.667 66.7606C117.667 65.7527 117.9 64.8417 118.365 64.0471C118.811 63.2524 119.45 62.6321 120.264 62.1863C121.079 61.7406 121.99 61.5273 123.017 61.5273C124.044 61.5273 124.955 61.7406 125.769 62.1863C126.564 62.6321 127.203 63.2524 127.669 64.0471C128.114 64.8417 128.347 65.7527 128.347 66.7606C128.347 67.7685 128.114 68.6601 127.669 69.4548C127.203 70.2495 126.564 70.8891 125.769 71.3349C124.955 71.7807 124.044 72.0133 123.017 72.0133ZM123.017 70.3851C123.676 70.3851 124.277 70.2301 124.8 69.92C125.323 69.6292 125.73 69.2028 126.021 68.6407C126.312 68.098 126.467 67.4778 126.467 66.7606C126.467 66.0435 126.312 65.4232 126.021 64.8611C125.73 64.3184 125.323 63.892 124.8 63.6013C124.277 63.3105 123.676 63.1555 123.017 63.1555C122.358 63.1555 121.776 63.3105 121.253 63.6013C120.73 63.892 120.303 64.3184 120.013 64.8611C119.702 65.4232 119.547 66.0435 119.547 66.7606C119.547 67.4778 119.702 68.098 120.013 68.6407C120.303 69.2028 120.73 69.6292 121.253 69.92C121.776 70.2301 122.358 70.3851 123.017 70.3851Z" fill="#0081FF"/>
    <path d="M142.958 61.6348V71.9075H141.271V64.4065L137.434 70.7445H136.619L132.821 64.3871V71.9075H131.115V61.6348H133.034L137.065 68.5737L141.213 61.6348H142.958Z" fill="#0081FF"/>
    <path d="M157.549 66.5276C158.227 66.702 158.77 66.9927 159.138 67.3998C159.506 67.8068 159.7 68.2914 159.7 68.8922C159.7 69.4931 159.487 70.0358 159.08 70.501C158.673 70.9855 158.091 71.3538 157.374 71.6058C156.638 71.8771 155.824 72.0128 154.913 72.0128C154.157 72.0128 153.401 71.9159 152.684 71.7027C151.947 71.5089 151.288 71.2181 150.726 70.8499L151.288 69.4349C151.773 69.7451 152.335 69.997 152.974 70.1521C153.614 70.3265 154.254 70.4234 154.893 70.4234C155.766 70.4234 156.483 70.2684 157.006 69.9583C157.529 69.6675 157.781 69.2605 157.781 68.7372C157.781 68.2526 157.568 67.8843 157.161 67.6324C156.735 67.3804 156.134 67.2447 155.378 67.2447H153.498V65.9073H155.242C155.94 65.9073 156.483 65.791 156.89 65.5391C157.297 65.2871 157.491 64.9576 157.491 64.5312C157.491 64.066 157.258 63.6977 156.793 63.4458C156.308 63.1938 155.669 63.0581 154.874 63.0581C153.847 63.0581 152.781 63.3295 151.637 63.8528L151.133 62.4185C152.393 61.7789 153.692 61.4688 155.068 61.4688C155.901 61.4688 156.638 61.585 157.297 61.8176C157.956 62.0502 158.479 62.3797 158.847 62.8061C159.216 63.2326 159.409 63.7171 159.409 64.2598C159.409 64.7638 159.235 65.2096 158.905 65.6166C158.576 66.0236 158.111 66.3144 157.549 66.5276Z" fill="#0081FF"/>
    <path d="M162.493 61.6348H164.353V65.9958H170.207V61.6348H172.068V71.9075H170.207V67.6046H164.353V71.9075H162.493V61.6348Z" fill="#0081FF"/>
    <path d="M179.355 61.5273C180.77 61.5273 181.875 61.8762 182.631 62.574C183.387 63.2718 183.755 64.3184 183.755 65.6946V71.897H181.991V70.5402C181.681 71.0248 181.235 71.3736 180.673 71.6256C180.092 71.897 179.413 72.0133 178.619 72.0133C177.475 72.0133 176.545 71.7419 175.866 71.1798C175.169 70.6177 174.82 69.9006 174.82 68.9896C174.82 68.0786 175.149 67.3615 175.808 66.7994C176.467 66.2567 177.514 65.9853 178.948 65.9853H181.894V65.617C181.894 64.8224 181.662 64.2021 181.197 63.7757C180.731 63.3493 180.053 63.1361 179.142 63.1361C178.541 63.1361 177.94 63.233 177.359 63.4268C176.777 63.64 176.293 63.9114 175.886 64.2409L175.111 62.8454C175.634 62.4189 176.274 62.0894 177.01 61.8568C177.747 61.6436 178.522 61.5273 179.355 61.5273ZM178.929 70.579C179.646 70.579 180.247 70.4239 180.77 70.0944C181.294 69.7843 181.662 69.3385 181.894 68.757V67.3227H179.026C177.456 67.3227 176.661 67.846 176.661 68.9121C176.661 69.4354 176.855 69.8424 177.262 70.1332C177.669 70.4239 178.212 70.579 178.929 70.579Z" fill="#0081FF"/>
    <path d="M187.147 61.6348H189.008V65.9958H194.861V61.6348H196.722V71.9075H194.861V67.6046H189.008V71.9075H187.147V61.6348Z" fill="#0081FF"/>
    <path d="M200.034 61.6348H201.895V69.1164L208.194 61.6348H209.88V71.9075H208.02V64.4258L201.74 71.9075H200.034V61.6348Z" fill="#0081FF"/>
    <path d="M213.482 61.1645H215.343V68.6462L221.642 61.1645H223.328V71.4372H221.467V63.9556L215.187 71.4372H213.482V61.1645ZM218.289 59.8271C217.339 59.8271 216.583 59.5945 216.06 59.1294C215.536 58.6836 215.265 58.0246 215.246 57.1523H216.505C216.525 57.6369 216.68 58.0052 217.009 58.2959C217.32 58.5866 217.746 58.7417 218.269 58.7417C218.793 58.7417 219.219 58.5866 219.549 58.2959C219.878 58.0052 220.033 57.6369 220.052 57.1523H221.351C221.332 58.0246 221.06 58.6836 220.518 59.1294C219.975 59.5945 219.238 59.8271 218.289 59.8271Z" fill="#0081FF"/>
  </symbol>
</svg>
