<svg id="il_not_found" xmlns="http://www.w3.org/2000/svg" viewBox="0 0 500 350"><path fill="#3f51b5" d="M357.5 239.32c0 31.67-18.63 42.73-41.61 42.73s-41.61-11.06-41.61-42.73c0-31.68 41.6-71.97 41.6-71.97s41.62 40.3 41.62 71.97z"/><path fill="#3f3d56" d="M314.8 250.7l17.73-32.8-17.66 28.64.19-11.92 12.22-23.72-12.17 20.57.34-21.44 13.1-18.89-13.04 15.52.21-39.31-1.29 49.8-13.26-20.5 13.1 24.71-1.24 23.94-.04-.63L297.65 223l15.3 23.91-.16 3-.03.04.02.25-3.15 31.95h4.2l.5-2.58 15.26-23.85-15.22 21.49z"/><path fill="#f2f2f2" d="M500 137.48c0 60.5-35.59 81.63-79.49 81.63-43.9 0-79.48-21.13-79.48-81.63S420.5 0 420.5 0 500 76.97 500 137.48z"/><path fill="#3f3d56" d="M417.62 209.86l.81-50.64 33.88-62.64-33.75 54.7.37-22.77 23.35-45.32-23.26 39.3.66-40.96 25-36.08-24.9 29.64L420.2 0l-2.59 99.4.22-4.1-25.42-39.32 25 47.2-2.36 45.73-.07-1.21-29.3-41.39 29.21 45.68-.3 5.72-.05.08.03.47-6.01 116.03h8.02l.97-59.93 29.14-45.57z"/><path fill="#3f3d56" d="M496.74 264.16c0 18.06-115.91 85.83-251.4 85.83S0 314.93 0 296.87c0-18.06 107.14 3.4 242.64 3.4s254.1-54.16 254.1-36.1z"/><path d="M496.74 264.16c0 18.06-115.91 85.83-251.4 85.83S0 314.93 0 296.87c0-18.06 107.14 3.4 242.64 3.4s254.1-54.16 254.1-36.1z" opacity=".1"/><path fill="#3f3d56" d="M496.74 264.16c0 18.06-115.91 65.4-251.4 65.4S0 314.92 0 296.86s107.14-17.03 242.64-17.03 254.1-33.73 254.1-15.67z"/><path d="M248.08 308.44c57.54 0 104.18-3.65 104.18-8.14 0-4.5-46.64-8.15-104.18-8.15-57.54 0-104.18 3.65-104.18 8.15s46.64 8.14 104.18 8.14z" opacity=".1"/><path fill="#a0616a" d="M165.55 137.08s30.5.57 24.85 6c-5.65 5.42-26.83 0-26.83 0z"/><path fill="#3f51b5" d="M102 71.2s12.31-2.21 16.6 7.83c4.28 10.05 13.07 38.7 13.07 38.7s23.54 15.75 27.82 15.24c4.28-.52 11.6.53 10.25 5.25-1.34 4.72-.74 10.08-3.84 10.73-3.09.66-8-5.6-11.76-2.59-3.76 3.02-37.28-8-39.43-10.28-2.15-2.28-20.04-51.7-20.04-51.7S95.4 71.04 102 71.2z"/><path fill="#a0616a" d="M128.41 283.37l1.41 11.99-11.86 3.14-6.78-3.14V284.8zM96.5 291.08l1.41 11.99-11.86 3.14-6.78-3.14V292.5z"/><path fill="#2f2e41" d="M129.54 152.35l5.37 19.7 7.9 39.96s2.26 9.7-2.26 21.4c-4.52 11.71-12.7 49.96-11.01 52.24 1.7 2.29-19.2 4-18.92 1.71.28-2.28 3.1-33.68 3.1-33.68s3.96-27.69 5.94-31.11c1.97-3.43-9.04-11.99-9.04-11.99s-2.83 32.83-7.06 35.68c-4.24 2.86-3.67 47.1-5.65 47.67-1.98.57-16.38 2.85-18.07 0-1.7-2.85 0-50.52 0-50.52s9.6-36.25 7.62-41.4c-1.98-5.13-.85-27.11-.85-27.11s-7.34-16.84-3.38-25.69z"/><path fill="#a0616a" d="M128.69 42.74s-11.86 14.85-11.3 21.41c.57 6.57-18.63-11.99-18.63-11.99s13.83-18.84 13.83-22.83 16.1 13.41 16.1 13.41z"/><path fill="#a0616a" d="M128.55 48.31c10.3 0 18.64-8.43 18.64-18.84 0-10.4-8.35-18.84-18.64-18.84a18.74 18.74 0 00-18.64 18.84c0 10.4 8.35 18.84 18.64 18.84z"/><path fill="#3f51b5" d="M81.58 141.68c-.85 3.18-1.9 6.78-1.74 9.82.1 1.97 5.26 3.26 12.4 4.1 6.62.79 14.94 1.19 22.51 1.4 7.94.21 15.05.21 18.46.21 10.17 0 1.98-6.56-1.98-9.7-3.95-3.14-3.1-47.67-2.82-53.38.28-5.71-2.54-22.27-2.54-25.4 0-3.15-6.65-11.34-6.65-11.34s-1.54 4.48-7.75-1.51c-6.22-6-14.4-7.7-14.4-7.7-6.22 2.28-16.67 27.4-17.23 31.68-.23 1.73-.04 10.64.34 20.8.56 14.86 1.53 32.42 2.2 34.29.53 1.47-.06 3.93-.8 6.73z"/><path fill="#a0616a" d="M111.75 158.35l1.98 7.14-7.63 7.99-2.54-11.13z"/><g fill="#2f2e41"><path d="M114.29 292.22s5.93 6.85 10.45 2.28c4.52-4.56 4.24-7.42 5.08-7.42.85 0 13.56 11.42 13.56 11.42s21.74 5.14 9.88 8.85c-11.86 3.7-45.47 1.14-45.47 0s-.84-16.27 2.26-16.27z"/><path d="M82.38 299.93s5.93 6.85 10.45 2.28c4.51-4.56 4.23-7.42 5.08-7.42.85 0 13.56 11.42 13.56 11.42s21.74 5.14 9.88 8.85c-11.86 3.7-45.47 1.14-45.47 0s-.85-16.27 2.26-16.27zM107.62 44.5c-.6.4-1.39.8-1.99.4a91.78 91.78 0 01-5-17.5c-.38-2.1-.65-4.43.51-6.23.46-.7 1.11-1.28 1.45-2.05.5-1.17.17-2.53.34-3.8.35-2.65 2.83-4.5 5.32-5.4 2.5-.89 5.2-1.17 7.58-2.34C118.1 6.46 119.9 4.6 122 3.2c2.1-1.4 4.78-2.37 7.1-1.42 2.07.84 3.35 2.97 5.3 4.05 1.33.73 2.86.94 4.34 1.25a27.6 27.6 0 0111.26 5.3c.81.57 1.5 1.3 2.06 2.13 2.5 4.16-1.98 9.82 0 14.26l-4.28-3.4c-1.14-1.01-2.42-1.84-3.81-2.46-1.42-.54-3.1-.6-4.38.2-1.8 1.14-2.29 3.5-2.92 5.55-.63 2.05-2.02 4.32-4.15 4.27-2.88-.07-3.9-4.14-6.48-5.43-1.7-.84-3.82-.29-5.26.94-1.44 1.22-2.3 3-2.93 4.8-.4 1.11-.77 2.37-1.47 3.34-.78 1.08-1.77 1.16-2.6 1.96-2.16 2.08-3.48 4.23-6.15 5.97z"/></g><path d="M81.58 141.68c3.5 5.15 7.46 10.46 10.66 13.92 6.62.79 14.94 1.19 22.51 1.4a17.92 17.92 0 00-4.98-4.64c-3.67-2.28-12.42-29.4-12.42-29.4s10.73-27.98 13.55-38.54c2.82-10.56-8.19-16.55-8.19-16.55-5.08-4.28-13.84 5.7-13.84 5.7s-4.47 13.63-8.69 27.1c.56 14.85 1.53 32.41 2.2 34.28.53 1.47-.06 3.93-.8 6.73z" opacity=".1"/><path fill="#3f51b5" d="M101.86 65.58s11.01 6 8.19 16.55c-2.82 10.57-13.56 38.54-13.56 38.54s8.76 27.12 12.43 29.4 8.76 7.7 4.8 10.56c-3.95 2.86-6.78 7.42-9.6 6-2.82-1.43-2.82-9.42-7.63-9.42-4.8 0-24.28-29.69-24.57-32.83-.28-3.14 16.1-53.1 16.1-53.1s8.76-9.98 13.84-5.7z"/><path fill="#ffc107" d="M330.89 143.6l-3.18-3.21a9.83 9.83 0 00-13.97 0l-61.63 62.28-61.62-62.28a9.83 9.83 0 00-13.97 0l-3.18 3.21a10 10 0 00-2.9 7.06 10.09 10.09 0 002.9 7.06l61.62 62.3-61.62 62.28a10.01 10.01 0 00-2.14 10.88c.5 1.21 1.22 2.31 2.14 3.24l3.18 3.21a9.83 9.83 0 0013.97 0l61.62-62.28 61.63 62.28a9.83 9.83 0 0013.97 0l3.18-3.2a10.04 10.04 0 000-14.13L269.26 220l61.63-62.29a10.04 10.04 0 000-14.12z"/><path d="M171.14 285.68l59.8-60.44-.58-.58-57.02 57.63a9.94 9.94 0 00-2.2 3.39zM172.48 145.62a9.83 9.83 0 0113.97 0l61.63 62.29 61.62-62.29a9.83 9.83 0 0113.98 0l3.18 3.21a10.02 10.02 0 012.2 10.74l1.82-1.85a10 10 0 002.9-7.06 10.08 10.08 0 00-2.9-7.06l-3.17-3.22a9.83 9.83 0 00-13.98 0l-61.62 62.29-61.63-62.29a9.83 9.83 0 00-13.97 0l-3.18 3.22a9.96 9.96 0 00-2.2 3.38zM269.84 220.59l-4.6 4.65 61.62 62.29a10.03 10.03 0 012.2 10.74l1.83-1.85a10.01 10.01 0 002.14-10.89 10.01 10.01 0 00-2.14-3.24z" opacity=".1"/><path fill="#3f51b5" d="M71.76 262.12c0 26.3-15.48 35.5-34.56 35.5-19.1 0-34.56-9.2-34.56-35.5s34.56-59.77 34.56-59.77 34.56 33.46 34.56 59.77z"/><path fill="#3f3d56" d="M36.3 271.57l14.72-27.24-14.67 23.79.16-9.9 10.15-19.71-10.11 17.09.28-17.8 10.87-15.7L36.88 235l.18-32.65-1.08 41.36-11-17.03 10.87 20.52-1.03 19.89-.03-.53-12.74-18 12.7 19.87-.13 2.48-.02.04v.2L32 297.7h3.49l.42-2.14 12.67-19.81-12.64 17.85z"/></svg>
