<svg id="il_server_error" xmlns="http://www.w3.org/2000/svg" viewBox="0 0 500 310"><path fill="#d5d7e0" d="M130.67 188.93c52.53 0 95.12-42.3 95.12-94.46C225.8 42.3 183.2 0 130.67 0S35.55 42.3 35.55 94.47s42.59 94.46 95.12 94.46z"/><path fill="#2f2e41" d="M0 22.68c0 34.37 21.71 62.18 48.54 62.18z"/><path fill="#3f51b5" d="M48.54 84.86c0-34.75 24.23-62.88 54.18-62.88zM17.59 25.8c0 32.64 13.84 59.06 30.95 59.06z"/><path fill="#2f2e41" d="M48.54 84.86c0-44.4 28-80.34 62.62-80.34z"/><path fill="#a8a8a8" d="M38.33 85.3s6.89-.21 8.96-1.68c2.08-1.46 10.6-3.22 11.1-.86.52 2.35 10.35 11.7 2.58 11.76-7.77.06-18.06-1.2-20.13-2.45-2.07-1.26-2.5-6.77-2.5-6.77z"/><path d="M61.1 93.7c-7.76.06-18.05-1.2-20.12-2.45-1.58-.96-2.2-4.38-2.42-5.96-.14 0-.23.01-.23.01s.44 5.51 2.5 6.77c2.08 1.25 12.37 2.51 20.14 2.45 2.24-.02 3.02-.81 2.98-1.98-.32.7-1.17 1.15-2.84 1.16z" opacity=".2"/><path fill="#3f3d56" d="M88.7 199.54c46.12 0 83.5-5.05 83.5-11.28s-37.38-11.28-83.5-11.28c-46.13 0-83.52 5.05-83.52 11.28s37.4 11.28 83.51 11.28z"/><path d="M88.7 197.73c38.72 0 70.11-4.24 70.11-9.47s-31.4-9.48-70.11-9.48c-38.73 0-70.12 4.25-70.12 9.48s31.4 9.47 70.12 9.47z" opacity=".1"/><path fill="#d5d7e0" d="M373.62 310c69.8 0 126.38-7.64 126.38-17.07s-56.59-17.08-126.38-17.08c-69.8 0-126.38 7.65-126.38 17.08S303.82 310 373.62 310z"/><path fill="#ffc107" d="M138.71 296.53c41.93 0 75.92-4.6 75.92-10.26s-34-10.25-75.92-10.25c-41.93 0-75.92 4.59-75.92 10.25 0 5.67 34 10.26 75.92 10.26z"/><g fill="none" stroke="#2f2e41" stroke-miterlimit="10" stroke-width="2.008"><path d="M206.59 277.62c40.2 10.2 117.45-13.3 125.94-39.91M138.27 114.86s58.06-15.97 61.63 35.48c3.57 51.44-47.79 66.08-7.6 76.28M82.18 238.28s17.45-4.8 18.52 10.66c1.07 15.47-14.36 19.86-2.28 22.93"/></g><path fill="#2f2e41" d="M347.76 249.79l-3.52 22.3s-17.32 9.14-5.14 9.41c12.18.27 69.55 0 69.55 0s11.1 0-6.5-9.67l-3.51-23.38z"/><path d="M336.65 281.26c2.77-2.44 7.6-4.99 7.6-4.99l3.5-22.3 50.88.04 3.52 22c4.1 2.25 6.65 3.98 8.13 5.3 2.26-.5 4.73-2.41-8.13-9.48l-3.52-23.38-50.87 1.34-3.52 22.3s-14.55 7.68-7.59 9.17z" opacity=".1"/><path fill="#2f2e41" d="M479.47 94.33H266.38a8.03 8.03 0 00-8.06 8v142.55c0 4.42 3.6 8 8.06 8h213.09a8.03 8.03 0 008.06-8V102.33c0-4.42-3.6-8-8.06-8z"/><path fill="#3f51b5" d="M479.82 102.79H266.03v118.78h213.79z"/><path fill="#f2f2f2" d="M372.92 100.37c.75 0 1.35-.6 1.35-1.34s-.6-1.35-1.35-1.35c-.75 0-1.35.6-1.35 1.35s.6 1.34 1.35 1.34z"/><path fill="#2f2e41" d="M432.73 296.02v2.69H287.14v-2.15l.2-.54 3.59-9.67h138.83zM488.76 293.38c-.27 1.13-1.27 2.31-3.53 3.44-8.12 4.03-24.62-1.08-24.62-1.08s-12.72-2.15-12.72-7.8c.35-.23.73-.45 1.11-.65 3.41-1.8 14.73-6.22 34.8.19a8.37 8.37 0 013.81 2.48c.82.95 1.45 2.15 1.15 3.42z"/><path d="M488.76 293.38c-9.94 3.78-18.8 4.06-27.88-2.2-4.59-3.17-8.75-3.95-11.88-3.89 3.41-1.8 14.73-6.22 34.8.19a8.38 8.38 0 013.81 2.48c.81.95 1.45 2.15 1.15 3.42z" opacity=".1"/><path fill="#f2f2f2" d="M476.3 291.18c1.94 0 3.52-.48 3.52-1.07 0-.6-1.58-1.08-3.52-1.08s-3.52.48-3.52 1.08c0 .59 1.58 1.07 3.52 1.07zM372.92 247.1c2.84 0 5.14-2.29 5.14-5.1s-2.3-5.11-5.14-5.11-5.14 2.28-5.14 5.1 2.3 5.11 5.14 5.11z"/><path d="M432.73 296.02v2.69H287.14v-2.15l.2-.54z" opacity=".1"/><path fill="#2f2e41" d="M141.39 70.52H48.5v107.32h92.89z"/><g fill="#3f3d56"><path d="M150.77 59.87H39.12v38.14h111.65zM150.77 105.11H39.12v38.14h111.65zM150.77 150.34H39.12v38.14h111.65z"/></g><g fill="#3f51b5"><path d="M128.44 66.52h-7.15v7.1h7.15z" opacity=".4"/><path d="M138.71 66.52h-7.15v7.1h7.15z" opacity=".8"/><path d="M148.98 66.52h-7.15v7.1h7.15z"/><path d="M128.44 111.32h-7.15v7.1h7.15z" opacity=".4"/><path d="M138.71 111.32h-7.15v7.1h7.15z" opacity=".8"/><path d="M148.98 111.32h-7.15v7.1h7.15z"/><path d="M128.44 156.11h-7.15v7.1h7.15z" opacity=".4"/><path d="M138.71 156.11h-7.15v7.1h7.15z" opacity=".8"/><path d="M148.98 156.11h-7.15v7.1h7.15z"/></g><g fill="#2f2e41"><path d="M141.39 273.63c19.48 0 35.28-15.69 35.28-35.04s-15.8-35.03-35.28-35.03-35.28 15.68-35.28 35.03 15.8 35.04 35.28 35.04z"/><path d="M136.03 266.09h-10.72v19.07h10.72zM157.47 266.09h-10.72v19.07h10.72z"/><path d="M134.25 288.71c4.93 0 8.93-1.49 8.93-3.33s-4-3.32-8.93-3.32-8.93 1.49-8.93 3.32 4 3.33 8.93 3.33zM155.68 288.27c4.93 0 8.93-1.49 8.93-3.33s-4-3.32-8.93-3.32-8.93 1.49-8.93 3.32 4 3.33 8.93 3.33z"/></g><path fill="#fff" d="M142.29 241.7c6.66 0 12.06-5.36 12.06-11.97s-5.4-11.98-12.06-11.98-12.06 5.36-12.06 11.98 5.4 11.97 12.06 11.97z"/><path fill="#3f3d56" d="M142.29 233.72a4 4 0 004.02-4c0-2.2-1.8-3.98-4.02-3.98a4 4 0 00-4.02 3.99 4 4 0 004.02 3.99z"/><path fill="#3f51b5" d="M107.17 206.02c-2.85-12.67 6.26-25.47 20.34-28.6 14.08-3.12 27.8 4.62 30.66 17.3 2.84 12.66-6.49 17.34-20.57 20.46-14.08 3.12-27.58 3.51-30.43-9.16z"/><path fill="#2f2e41" d="M174.48 231.61c8.96-3.8 15.24-9.16 14.04-11.95-1.2-2.8-9.44-1.97-18.4 1.84s-15.24 9.15-14.04 11.95c1.2 2.79 9.44 1.97 18.4-1.84zM108.39 255.12c8.96-3.8 15.24-9.16 14.04-11.95-1.2-2.8-9.44-1.97-18.4 1.84-8.95 3.8-15.24 9.15-14.04 11.95 1.2 2.79 9.44 1.97 18.4-1.84z"/><path fill="#fff" d="M161.94 248.8c0 3.43-8.89 10.2-18.76 10.2-9.86 0-19.2-6.33-19.2-9.76s9.34-2.66 19.2-2.66c9.87 0 18.76-1.2 18.76 2.22z"/></svg>
