<svg id="il_banner_kid" xmlns="http://www.w3.org/2000/svg" viewBox="0 0 135 140"><g stroke-width=".65"><path fill="#f37b4a" d="M97.91 87.9l5.35 14.35 7.04-5.17z"/><path fill="#edc0c4" d="M56.58 39.45s.23-1.75.35-3.53c.12-1.78 14.73-2.5 14.73-2.5s.5 5.03 2.64 5.62c0 0 3.62 1.66-2.38 4.08s-8.6 2.72-11.68 2.16c-3.07-.57-4.14-4.29-3.66-5.83z"/><path fill="#434546" d="M81 109.14s16.87.59 17.58-1.12c.71-1.72 7.57-44.55.83-57.4-6.75-12.87-23.72-12.85-23.72-12.85z"/><path fill="#e59f95" d="M72.02 35.4l-10.26-1.07c-2.64.39-4.79.9-4.83 1.59-.12 1.78-.36 3.53-.36 3.53-.23.77-.09 2.08.5 3.27.47.15 1 .29 1.61.4 9.28 1.62 13.34-7.72 13.34-7.72z"/><path fill="#434546" d="M81 109.14s16.87.59 17.58-1.12c.71-1.72 7.57-44.55.83-57.4-6.75-12.87-23.72-12.85-23.72-12.85z" opacity=".35"/><path fill="#040505" d="M89.94 103.4l-9.3.85.36 4.89s16.87.58 17.58-1.13c.05-.11.12-.42.22-.89z" opacity=".35"/><path fill="#434546" d="M99.4 50.6c-4.07-7.77-11.89-10.84-17.43-12.05 16.75 4.58 12.2 27.52 12.2 27.52s-3.83 28.5-4.23 32.49c-.4 3.98 0 4.84 0 4.84l8.52 4.78c.05-.05.1-.11.12-.16.7-1.72 7.57-44.55.83-57.41zM75.69 37.76h.12-.12z"/><path fill="#db7d43" d="M38.28 106.2s5.13-3.94 42.67.7l.8 33.1H41.98z"/><path fill="#eeb744" d="M55.75 39.52S38.18 81 37.29 84.72c-.88 3.73-1.71 4.97-.94 9.82s-3 10.8 1.93 11.66c0 0 7.89-3.94 42.67.7 0 0 3.5 1.05 2.84-1.79-.65-2.83-1.38-3.36.08-7.03 1.46-3.66.75-13.6.75-13.6l-7.46-17.01-4.14-17.5 2.01-11.82s-5.15 7.57-11.68 6.74c-6.54-.83-6.77-5.44-6.77-5.44z"/><path fill="#e49944" d="M70.18 44.72a41.3 41.3 0 004.15-2.43l.7-4.14s-5.15 7.57-11.68 6.74c-6.54-.82-6.77-5.44-6.77-5.44l-.83.07s1.48 11.93 14.43 5.2z" opacity=".5"/><path fill="#c79141" d="M63.3 85.61l-12.2.37-6.13 3.64s.63 1.4 2.04 1.2c1.4-.22 8.58-1.64 9.75-1.3 1.17.34 9.96.51 11.25-.05 1.3-.56 4.5.66 6.22 1.1s8.25.14 8.39 1.68c.14 1.53-3.02 4.1-3.3 6.62-.27 2.53 1.8 7.93-2.16 7.55h-.02c1.23.15 2.5.31 3.8.49 0 0 3.5 1.04 2.85-1.8-.65-2.83-1.38-3.36.08-7.03.88-2.23.97-6.77.9-9.99-3.73-.31-12.85-.67-12.85-.67s-8.35-1.8-8.62-1.8z" opacity=".5"/><path fill="#383a3b" d="M48.36 40.64s4.49-1.24 7.39-1.13c0 0-1.72 2.55-.95 7.75zm27.33-2.88s-2.96.93-6.34 8.43c-3.37 7.5 5.92 28.79 5.92 28.79s7.99 17.08 14.67 21.98l.67-3.9S78.46 67.22 78.1 56.82c-.36-10.4 1-15.36 7.69-16.2 0 0-3.96-2.85-10.11-2.87z"/><path fill="#434546" d="M85.8 40.64s4.97 2.9 3.73 9.27c0 0-5.6-11.34-9.66-5.84 0 0 1.37-3.02 5.93-3.43z"/><path fill="#2c2d2e" d="M89.17 89.91v-.03l-.2-.41v-.02l-.2-.44v-.02l-.2-.45-.02-.03-.2-.47a36.58 36.58 0 00-.48-1.1l-.23-.51-.02-.05a56.16 56.16 0 01-.24-.57l-.24-.55-.02-.05-.24-.57a.48.48 0 00-.02-.04l-.25-.58-.02-.05-.25-.6-.02-.04-.25-.61-.02-.04-.26-.62-.01-.04c-.1-.21-.18-.42-.27-.64l-.01-.04-.27-.65a.65.65 0 01-.01-.04l-.27-.66-.01-.04c-.1-.22-.18-.44-.27-.67l-.01-.02-.27-.7-.01-.02-.28-.7v-.02l-.28-.7v-.01c-.1-.24-.2-.49-.28-.73-2.63-6.85-5.06-14.26-5.4-18.96s-3.1 11.42 1.8 25.79c.2.59.4 1.14.6 1.67 2.38 4.02 5.26 8.3 8.03 10.92l1.38 1.16.66-3.9s-.56-1.2-1.44-3.15z" opacity=".35"/><path fill="#666bad" d="M72.75 62.43l-37.7-33.45-1.19 4.4 35.18 37.6z"/><path fill="#666bad" d="M72.75 62.43l-37.7-33.45-1.19 4.4 35.18 37.6z" opacity=".2"/><path fill="#fff" d="M32.16 33.6l2.88-3.05 36.13 31.88-3 8.23.86-4.94z"/><path fill="#666bad" d="M31.26 32.68l38.17 33.4-1.34 4.9L28.18 44.8z"/><path fill="#bc635d" d="M32.03 41.29l5.2-4.97L73.2 75.34 68 79.01z"/><path fill="#bc635d" d="M32.03 41.29l5.2-4.97L73.2 75.34 68 79.01z" opacity=".4"/><path fill="#fff" d="M32.68 41.97l4.26-3.81 34.98 38.1-3.9 2.75z"/><path fill="#bc635d" d="M22.42 49.91l9.37-8.87L68 79l-15.7 5.84z"/><path fill="#eeb744" d="M89.53 49.92s7.75 24.29 7.2 30.83c-.56 6.54-5.63 7.84-9.47 8.27-3.84.43-12.86.87-15.46 0-2.6-.87-7.5-.35-7.93-.75-.43-.4-.52-.98-.52-.98s-.98-10.19.98-11.25c1.95-1.07 3.96.77 9.82-.53 5.85-1.3 7.45-2.19 7.45-2.19s-4.14-6.39-3.46-15.9c0 0-.83-9.04 1.73-13.35 0 0 3.44-5.8 9.66 5.85z"/><path fill="#333" d="M29.78 46.6s1.6-.84 3.17.48c1.56 1.33 24.4 27.58 24.4 27.58s-1.87 4.89-2.05 4.89c-.18 0-10.81-8.06-10.85-8.03-.05.03-14.67-24.91-14.67-24.91z" opacity=".5"/></g><g fill="#d0e0f4" stroke-width=".65"><path d="M29 46.99s2.08-1.42 3.44.15l27.21 31.48 1.82 6.22z"/><path d="M16.14 53.61l1.4-1.15 11.9-5.68s1.2-.78 2.59 1c1.4 1.76 27 31.23 27 31.23l2.44 5.83z"/><path d="M16.14 53.61l1.4-1.15 11.9-5.68s1.2-.78 2.59 1c1.4 1.76 27 31.23 27 31.23l2.44 5.83z" opacity=".5"/></g><g stroke-width=".65"><path d="M84.97 39.34c.54.5 1.2 1.02 1.99 1.58 13.72 9.59 8.84 45.42 7.77 52.63-.65 4.39 2.35 7.54 4.8 9.34 1.9-12.09 5.3-41.92-.13-52.29-3.38-6.45-9.33-9.66-14.43-11.25z" opacity=".35"/><path fill="#d0e0f4" d="M16.68 55.23s-1.25-1.3-.54-1.62c.71-.33 12.04-5.26 12.04-5.26s1.54-1.04 3.2 1c1.65 2.04 30.09 35.5 30.09 35.5l-4.57 3.11-10.14 2.24s-1.07.47-2.1-.94a5832.62 5832.62 0 00-27.98-34.02z"/><path fill="#434546" d="M86.96 40.92s6.13 3.08 7.08 5.56c.95 2.48-.23 6.74 3.25 6.57 3.47-.17 1.04-10.43 1.04-10.43z" opacity=".5"/><path fill="#eeb744" d="M65.62 79.9c-.21-3.4-1.1-3.74-1.48-3.73a1.1 1.1 0 00-.19.23l-.72 9.34c.06.94.12 1.55.12 1.55s.09.59.52.98c.34-.19 2.03-4.02 1.75-8.37z"/><path fill="#d0e0f4" d="M47.9 77.25s4.76-.76 5.4-2.02l1 1.16s-5.52 2.43-6.4.87zm-20.56-9.1s4.17-1.23 4.45-4.12c.28-2.88-.02-5.16.94-5.82.97-.67 1.88-.4 2.15-1.26.26-.85 1.33-1.85 2.34-.67l4.28 5.05s-3.59 3.49-3.65 3.67c-.06.18-2.01 4.87-6.06 5.35-4.05.48-4.78.17-4.45-2.2z" opacity=".3"/><path fill="#edc0c4" d="M52.67 68.09c.03 1.7 2.25 2.81 2.96 4.22.83 1.66.47 2.33-2.13 3.9-2.6 1.58-6.2.24-6.47 1.78-.28 1.53 1.78 2.64 1.78 2.64.35 1.93 2.28 3 2.28 3 .9 2.4 3.67 2.27 3.67 2.27.67 2.6 4.77 2.88 7.89 1.78 3.11-1.1 3.07-5.24 2.96-8.23-.12-3-1.66-4.77-4.77-6.59-3.12-1.8-4.94-4.52-4.94-4.52s-.12-.37-1.01-.46c0 0-.68-.3-1.07-.68-.38-.38-1.16.14-1.15.89zM33.2 66.8s.48-.85-.16-2.62c-.63-1.77-.3-2.98-.5-3.76-.2-.77-.07-2.05.2-2.21.26-.16.25-1.77.69-1.87.44-.1 1.6-.35 1.77 2.01.16 2.37 1.14 4.12 1.74 3.59.59-.54 1.25-1.85 2.2-2.36.95-.51 2.67-1.33 3.28-1.35.6-.01 1.12.13 1.24.69.13.56.03 1.1.03 1.1s1.68-1.79 2.68-1.18c1 .6.46 1.95.46 1.95s.82.28 1.03.9c.22.61.43 1-.84 3.36 0 0 1.6 1.5 1.3 2.47-.28.97-.47 1.64-1.55 2.36-1.07.71-3.42 2.56-4.25 2.75-.82.2-1.26.32-2.08.74-.82.43-1.68 1.98-1.68 1.98s-4.31-.32-5.43-1.95c-1.11-1.63-2.76-5.68-.14-6.6z"/><path fill="#e59f95" d="M40.44 73.37c-6.92 1.6-7.16-6.37-7.17-6.77-.04.13-.08.2-.08.2-2.62.92-.97 4.97.14 6.6 1.11 1.63 5.42 1.95 5.42 1.95s.87-1.56 1.69-1.98z"/><path fill="#eeb744" d="M27.34 68.15s-4.84 1.21-3.65 7.83c1.18 6.62 5.85 7.76 10.53 6.03 4.68-1.74 6.22-8.64 6.22-8.64s-1.93 1.77-3.92 1.13c-2.81-.9-4.67-4.2-3.25-7.92 0 0-4.62 3.28-5.93 1.57z"/><path fill="#8c8d8a" d="M77.56 37.76s5.91-7.2 5.91-12.25.16-7.49.8-7.25c.63.24 3.98 2.28 4.75 3.86 0 0 5.81-.8 10.3 3.86 0 0 5.13-1.18 6.4.31 1.26 1.5-3.55 7.8-3.95 10.48-.4 2.68.5 13.08-1.8 15.06-2.3 1.96-3.96 1.1-4.43.55-.47-.55-.55-3.4.32-6.39 0 0-6.7-5.43-18.3-8.23z"/><path fill="#434546" d="M86.94 33.87s-4.5-1.78-4.37-2.72c.12-.95 6.19-5.72 8.2-5.13 2.01.6.58 5.29.58 5.29zm4.9-2.57s2.99-4.26 4.37-3.03c1.38 1.22 6.67 8.3 3.67 9.49-3 1.18-6.12-1.69-6.12-1.69z"/><path fill="#d5cbc0" d="M91.58 37.7s-4.89-.72-4.98-2.37c-.08-1.65 1.89-4.6 4.98-3.93 3.09.67 3.02 7.05 0 6.3z"/><path d="M91.58 31.4a3.92 3.92 0 00-1.9.04c0 .91.06 2.21.55 2.4.5.2 1.89-.78 2.8-1.5a2.49 2.49 0 00-1.45-.94z"/></g><path fill="none" stroke="#000" stroke-miterlimit="10" stroke-width=".43" d="M92.16 34.88s1.27 1.15-.8 1.03c-2.09-.12-1.13-2.07-1.13-2.07s-.8 1.4-1.79.69c-.98-.71-.43-1.46 0-1.38"/><g stroke-width=".65"><path fill="#d5cbc0" d="M91.35 26.4a1.2 1.2 0 00-.58-.38c-2.01-.59-8.09 4.18-8.2 5.12-.04.3.35.66.91 1.03.02-.02 4.52-6.34 7.87-5.77z"/><path fill="#686968" d="M85.78 24.17c.96-1.12.82-2 .82-2s-1.7.67-3.12 1.29l-.01 2.05c0 1.3-.4 2.77-1 4.2h.01c1.77-3.49 2.34-4.42 3.3-5.54z" opacity=".5"/><path fill="#d5cbc0" d="M96.21 28.26c-.4-.35-.93-.24-1.48.08 3.68 1.9 4.83 9.03 4.2 9.66a4 4 0 00.95-.25c3-1.18-2.29-8.26-3.67-9.49z"/><path d="M88.6 29.46c.16-.34.1-.7-.15-.82-.24-.1-.56.09-.71.43-.16.35-.1.71.15.82.24.1.56-.08.71-.43zm6.22 2.28c.15-.35.08-.71-.15-.82-.24-.1-.56.08-.72.43-.15.34-.09.7.15.82.24.1.56-.09.72-.43z"/><path fill="#d5cbc0" d="M83.47 24.44a16.1 16.1 0 002.88-1.65c1.06-.9-2.1-4.53-2.1-4.53-.57-.22-.75 1.86-.78 6.18zm22.36 2.04c-1.07.4-3.87 1.64-3.27 3.44a31.4 31.4 0 001.03 2.64c1.3-2.45 2.73-5.02 2.24-6.08z"/><path fill="#edc0c4" d="M63.78 38.33c7.81 0 14.15-7.01 14.15-15.66 0-8.64-6.34-15.65-14.15-15.65-7.81 0-14.15 7-14.15 15.65s6.34 15.66 14.15 15.66z"/><path fill="#e59f95" d="M62.84 8.42S56.66 18.97 50.62 21c0 0-.4-.23-.95-.13l.23-1.09z"/><path fill="#db7d43" d="M62.84 8.42S52.47 22.7 46.83 19.99c-5.65-2.73 8.8-24.65 14.11-17.5 0 0 6.96-7.35 16.7 3.2 9.73 10.56 2.28 27.23-14.8 2.73z"/><path fill="#edc0c4" d="M49.91 27.48c1.62 0 2.94-1.48 2.94-3.3 0-1.83-1.32-3.31-2.94-3.31-1.62 0-2.93 1.48-2.93 3.3 0 1.83 1.31 3.3 2.93 3.3zm27.94 0c1.62 0 2.93-1.48 2.93-3.3 0-1.83-1.31-3.31-2.93-3.31-1.63 0-2.94 1.48-2.94 3.3 0 1.83 1.31 3.3 2.94 3.3z"/><path fill="#e59f95" d="M62.22 32.62s5.2 3.04 6.8-2.73c0 0-2.41 2.67-6.8 2.73z"/></g><path fill="none" stroke="#e59f95" stroke-linecap="round" stroke-miterlimit="10" stroke-width="1.01" d="M50.01 22.76s-1.46.1-1.14 1.69c.33 1.58 1.7 1 1.7 1m27.37-2.59c.1 0 1.43-.46 1.24 1.36-.2 1.81-1.01 1.36-1.01 1.36"/><g stroke-width=".65"><path fill="#595fa4" d="M59.23 23.7c.5 0 .9-.5.9-1.13 0-.62-.4-1.12-.9-1.12-.49 0-.88.5-.88 1.12 0 .63.4 1.13.88 1.13zm10.08-.33c.48 0 .86-.47.86-1.05 0-.59-.38-1.06-.86-1.06s-.86.47-.86 1.06c0 .58.39 1.05.86 1.05z"/><path fill="none" stroke="#e59f95" stroke-linecap="round" stroke-miterlimit="10" d="M64.35 21.46s-.07 3.48-.59 4.5c-.5 1.02-.36 1.63.93 1.7"/><path fill="#bf6338" d="M65.32 6.94c-1.17-3.27-.98-5.2-.43-6.64a8.95 8.95 0 00-3.95 2.18c-5.3-7.14-19.76 14.78-14.11 17.5 5.64 2.73 16.01-11.57 16.01-11.57 5.2 7.47 9.51 11.1 12.71 12.26-4.67-3.63-8.51-8.92-10.23-13.73z" opacity=".5"/><path fill="#e59f95" d="M76.24 26.9v.07c.23.41.54.77.84 1.05l.19-.63c-.57-.24-1.03-.48-1.03-.48zm-25.71 1.27c.47-.44.76-1.23.76-1.23-.37.37-.9.48-.99.5l.23.73z"/><path fill="#d86c63" d="M56.33 18.5a7.64 7.64 0 012.21-.8 7.65 7.65 0 012.38-.17.57.57 0 11-.08 1.14h-.04l-.03-.01a6.52 6.52 0 00-2.06-.03 7.8 7.8 0 00-2.01.56l-.03.01a.4.4 0 01-.51-.2.4.4 0 01.17-.5zm11.02-.9a7.68 7.68 0 013.37.58c.36.16.7.36 1 .6.18.12.22.36.09.54a.39.39 0 01-.51.1l-.02-.01a4.37 4.37 0 00-1.84-.65 7.3 7.3 0 00-1.96-.02h-.02a.58.58 0 01-.66-.49.58.58 0 01.5-.65h.05z"/></g><path fill="#e59f95" stroke-width=".65" d="M56.02 30.08a1.7 1.7 0 100-3.4 1.7 1.7 0 000 3.4zm16.57 0a1.7 1.7 0 100-3.4 1.7 1.7 0 000 3.4zm-7.71 46.47c.01.06 1.33 7.45-1.6 10.15a8.38 8.38 0 01-1.9 1.34c.43-.1.86-.21 1.27-.36 3.12-1.1 3.08-5.24 2.96-8.23a6.7 6.7 0 00-.73-2.9zM34.87 57.67c-.1.76-.46 2.72 0 3.85.47 1.12-.54 1.64-.25 1.62.3-.02.5-.54.9-.57.41-.02-.22.2-.2.37.02.18.63-.75 1.1-.68.48.07 1.3-1.07 1.47-1.5-.35.45-.67.9-.96 1.17-.6.53-1.57-1.22-1.74-3.58-.07-1.08-.36-1.6-.68-1.86l-.47-.2s.92.62.83 1.38zm9.27 1.91c-.28.24-.46.43-.46.43s.04-.25.04-.58c0 0-.52.9-1.28 1.76.71-.62 1.51-1.34 1.7-1.6zm-2.64 2.5c.34-.26.66-.57.94-.89-.88.77-1.63 1.4-.94.89zm.94 2.52c.2-.11.72-.57 1.33-1.14-.92.75-1.6 1.3-1.33 1.15zm4.39-3.82c.01-.03.08-.22.11-.47 0 0-1.82 1.86-3.17 3.14a47.95 47.95 0 003.06-2.67zm.19 4.27c.33-.62.56-1.1.72-1.5a7.98 7.98 0 01-2.73 3.18c-1.76 1.03 1.2 1 1.5.35.32-.66.51-2.03.51-2.03zm5.84 11.75c2.1-.41 3.28-2.22 3.46-2.6s.96-.46.63-.52c-.33-.06-.57-.03-.63-1.17-.05-1.14-2.7-3.07-3.19-3.9-.42-.74-.24-1.14-.2-1.23-.01.04-.08.14-.17.29a1.1 1.1 0 00-.09.42c.03 1.7 2.25 2.81 2.96 4.22.82 1.66.47 2.33-2.13 3.9-2.6 1.58-6.2.24-6.47 1.78-.03.13-.03.26-.02.39.24-.81 2.27-1.17 2.42-1.2.17-.03 1.33.05 3.43-.37zm.09-9.44l-.01.02.01-.02zm.73 13.81c-1.45.27-4.87-.54-4.87-.54.02.14.06.28.1.41 3.53.67 6.14-.13 4.77.13zm1.5 2.61c-1.06.45-4.09-.16-4.09-.16l.16.35c5 .3 4.96-.63 3.93-.19zm2.92 1.83c-.82.34-3.34.3-3.34.3.07.27.18.52.32.74 2.37.3 3.8-1.35 3.02-1.03z"/><path fill="#666bad" d="M44.45 44.22l24.17 24.84-.33.96z" opacity=".5"/><path fill="#daa442" stroke-width=".65" d="M89.53 49.92c-6.21-11.65-9.66-5.85-9.66-5.85s4.7-2.86 9.66 5.85zM73.2 76.17c2.83-.56 6.26-2.41 9.47-2.41 3.2 0 .19-.3-.27-.4-.45-.1 1.63-.05 1.49-.55-.14-.5-1.23.27-1.93-.5-.7-.76-4.2-6.8-3.8-14.64.03-.54 0-.91-.08-1.15l.06.9c-.68 9.51 3.46 15.9 3.46 15.9s-1.6.89-7.45 2.19c-3.64.8-5.8.4-7.38.24 0 0 3.6.99 6.43.42zm-40.17 5.14c-3.24 1.8-7.55-1.04-7.71-1.14a66.89 66.89 0 00.82.94c2.08 1.94 5.07 2.01 8.07.9 4.68-1.74 6.22-8.64 6.22-8.64s-1.92 1.77-3.91 1.13c0 0-.18 4.98-3.49 6.81z" opacity=".5"/><g stroke-width=".65"><path fill="#434546" d="M105.82 26.48a.78.78 0 00-.11-.18c-1.26-1.5-6.39-.32-6.39-.32a12.6 12.6 0 00-2.55-2.03 16.4 16.4 0 013.18 3.18c3.88-1.72 5.87-.65 5.87-.65z" opacity=".5"/><path fill="#77442d" d="M60.24 139.99l-5.63-25.7L56.1 140z" opacity=".5"/><path fill="#a96138" d="M59.15 106.2c4.51 1.06 19.8 2.14 20.46 4.3.66 2.17 1.5 3.16 1.56 5.78l-.22-9.37c-28.44-3.52-38.28-2.12-41.38-1.23-.76.36-1.3.52-1.3.52s16.37-1.06 20.88 0z" opacity=".5"/><path fill="#74addd" d="M25.46 2.25l-6.7 15.01s-1.37 3.63-2.9 3.09c-1.52-.54.35-4.51.35-4.51L22.91.75s1.82-.83 2.55 1.5z"/><path fill="#231f20" d="M16.16 20.48l-.76.87.18-1.14z"/><path fill="none" stroke="#231f20" stroke-miterlimit="10" d="M19.26 16.07s-1-1.72-2.78-.88"/><path fill="#fbb82b" d="M115.12 37.33s-5.44 5.75-7.46 10.97c0 0 6.18 5.53 8.8 2.76 2.6-2.76 0-6.12 0-6.12s2.87.48 3.94-1.7c1.06-2.18-.96-4.42-.96-4.42l-3.9-4.31-1.7 1.27z"/><path fill="#f0f6fb" d="M112.51 45.68s-.96.99-1.4 1.95c0 0 1.8 1.87 2.64.44.84-1.44-1.24-2.39-1.24-2.39zm4.64-6.08s-2 2.08-1.56 2.36c.44.28 1.44.32 2.12-.8.68-1.12-.56-1.56-.56-1.56z"/><path fill="#f6d9a4" d="M0 85.19l14.92 23.85 9.38-17.9zm9.7 5.96l8.53 2.66-2.88 6.6z"/></g><path fill="none" stroke="#231f20" stroke-miterlimit="10" stroke-width=".83" d="M.81 86.33l.36-.22m2.57 4.83l.36-.22m1.5 3.24l.35-.22m.07.91l.36-.22m.11.97l.36-.22m.67 1.84l.35-.22m.15 1.06l.36-.22m.2 1.15l.36-.22m.15 1.01l.36-.23m2.21 4.28l.36-.22m.14 1l.36-.22m.14 1.05l.36-.22m.2 1.18l.36-.22M1.23 87.03l.56-.34m-.16.98l.55-.36m.74 2.4l.55-.34m.66 2.3l.55-.35m-.08 1.06l.55-.36m-.14 1.05l.55-.35m4.52 8.4l.55-.35m.01 1.28l.55-.35m-.05 1.16l.55-.35m2.11 4.55l.54-.35m.1 1.38l.55-.35m-8.02-11.5l.55-.35m1.98 4.23l.55-.35m-8-11.37l.4-.27m.91 2.22l.4-.26m-1.26-1.1l.41-.28"/><path fill="#fbb82b" d="M120.68 84.08l11.42-15.85 2.9-1.2-.62 2.87-11.1 15.86z"/><path fill="#231f20" d="M134.69 68.5l.31-1.47-1.63.68c.21.32.6.64 1.32.78z"/><g fill="none" stroke="#fff8fa" stroke-miterlimit="10" stroke-width=".83"><path d="M2.96 47.7l2.55-1.13 1.92 4.16-.48-8.39 7.76-3.6"/><path d="M8.67 43.98s-.28 2.8.72 2.8 1.12-1.84 1.12-1.84l.12 4.03m2.87-6.71s-1.2 0-.87 1.4c.32 1.4 1.52.72 1.68.16.16-.56.04-1.56-.8-1.56z"/><path d="M14.3 42.98s1.13 4.36 0 4.75c-1.11.4-1.23-.84-1.23-.84"/></g><path fill="#eeb744" d="M22.95 130.3c2.52 0 4.56-2.19 4.56-4.9s-2.04-4.88-4.56-4.88c-2.52 0-4.56 2.19-4.56 4.89s2.04 4.89 4.56 4.89z"/><path fill="#74addd" d="M116.81 126.68l3.07 6.22 5.4-6.52z"/></svg>
