<svg id="il_book" xmlns="http://www.w3.org/2000/svg" viewBox="0 0 130 138"><g stroke-width=".86"><path fill="#e0a337" d="M100.59 7.3H25.32v130.63h75.27z"/><path fill="#fff" d="M95.7 12.57H77.57v30.58H95.7z"/><path fill="#fdc000" d="M83.18 7.3H0v130.63h83.18z"/><path fill="#ef8100" d="M126.05 43.72H56.44V138h69.61z" opacity=".5"/><path fill="#d53029" d="M15.07 7.21s19.36-10.65 30.46.1z"/><path fill="#ef8100" d="M30.76 7.25V57.8l-9.17-9.22-6.88 6.92V7.34z" opacity=".5"/><path fill="#e0a337" d="M130 42.41H60.39V138H130z"/><path fill="#e7413e" d="M15.67 55.13l6.63-6.63 9.5 9.5V7.33s4.39-8.62 13.73-.03c0 0-16.3-16.37-30.46-.09z"/><path fill="#eedcb3" d="M128.68 42.41H59.07V138h69.61z"/></g><g stroke="#e0a337" stroke-linecap="round" stroke-miterlimit="10" stroke-width="3.41"><path d="M74.28 89.8h34.66M74.28 100.8h34.66M74.28 78.2h34.66"/></g><g stroke-width=".86"><path fill="#eedcb3" d="M70.56 42.41l1.02 60.32.05 3.28c0 .16.04.32.08.48l.04.1a1.72 1.72 0 00.52.76l.08.08a2 2 0 00.4.25l.8 1.79.65-1.78c.15-.06.29-.14.41-.24l.08-.06a1.82 1.82 0 00.55-.78l.03-.11c.05-.16.08-.32.08-.49l.06-3.28 1-60.32z"/><path fill="#475daa" d="M77.13 31.82l-1.24 74.36a1.86 1.86 0 01-3.72 0l-1.25-74.36a3.1 3.1 0 116.2-.1l.01.1z"/><path fill="#fff" d="M71.22 49.74h5.6l.05-2.16h-5.68z"/><path fill="#49368b" d="M72.11 102.91l.06 3.28c.01.74.46 1.38 1.1 1.67l.8 1.79.67-1.77a1.87 1.87 0 001.15-1.69l.05-3.27h-3.83z"/></g><path stroke="#5c58a1" stroke-miterlimit="10" stroke-width="2.39" d="M76.38 33.09h1.98v9.31"/><g stroke="#d9e9f8" stroke-miterlimit="10" stroke-width=".8"><path d="M86.07 42.22V12.67M89.42 42.5V12.62M92.88 42.5V12.62"/></g></svg>
