<svg id="il_feedback1" xmlns="http://www.w3.org/2000/svg" viewBox="0 0 196 155"><path fill="#bac2e4" d="M66.5 114s27.2-3.8 34.7-21.9c0 0-2.1 1.4-8.4-.1 0 0-2.2 17-26.3 22z"/><path fill="#fff" d="M66 76.3s4.4 22.4.5 37.7c0 0 22-2.3 26.3-22 0 0 5.3 1.5 8.4.1 0 0-1.2-17.2-7.7-32.4 0 0-12.4 12-27.5 16.6z"/><path fill="#bac2e4" d="M93 59.4l.2.2-.5.4-1.6 1.4a87.6 87.6 0 01-5.8 4.7c-5 3.5-11.8 7.7-19.3 10h-.2v.3s4.3 22.3.4 37.5v.3h.3s5.6-.6 11.6-3.6S90.8 102 93 92.3l2.8.5c1.7.2 3.9.3 5.5-.4l.1-.1V92s-1.2-17.2-7.7-32.5l-.1.1-.1-.3zm.4.7c6.2 14.9 7.4 31.3 7.5 31.8-1.5.6-3.4.6-5 .4-1.8-.2-3-.6-3-.6h-.3v.2a26.1 26.1 0 01-14.7 18.2 35.6 35.6 0 01-11.1 3.6c3.7-15.2-.4-36.6-.5-37.2a69.3 69.3 0 0019.2-10 88 88 0 007.9-6.4z"/><path fill="#fff" d="M72.3 81.7S83.5 80.4 91 70z"/><path fill="#f0f6fb" d="M90.8 69.8a29 29 0 01-18.5 11.6v.5s11.4-1.3 19-11.8z"/><path fill="#fff" d="M73.6 89.2S84.8 88 92.3 77.5z"/><path fill="#f0f6fb" d="M92 77.4C84.7 87.7 73.6 89 73.6 89l.1.5S85 88.2 92.6 77.7z"/><path fill="#fff" d="M74.5 97.8s11.2-1.2 18.7-11.7z"/><path fill="#f0f6fb" d="M93 86a29 29 0 01-18.6 11.6l.1.5s11.3-1.3 18.9-11.8z"/><path fill="#02943c" d="M3.7 132.6L0 155l18.3-5z"/><path fill="#ef7d00" d="M41.5 38L25.2 21l-7 19z"/><path fill="#3f51b5" d="M120.8 23.8a12 12 0 100-23.8 12 12 0 000 23.8z"/><path fill="#e9453f" d="M185.2 28.8l-3.6 5.8-1 1.7 1.9 1.8 8.8 8.4a5 5 0 00-2.7 1.6c-1.8 2-2 4.8-.2 6.3 1.6 1.6 4.4 1.3 6.2-.6 1.8-1.9 1.9-4.7.2-6.3l-8.5-8.2 3.6-5.8z"/></svg>
