<svg id="il_feedback2" xmlns="http://www.w3.org/2000/svg" viewBox="0 0 170 125"><path fill="#fff" d="M147.3 7l-11.5 10.2 1.2 2 5.7 9.7a4.8 4.8 0 00-2.8.7c-2 1.2-3 3.6-1.9 5.4 1.1 1.8 3.6 2.3 5.7 1.1 2-1.2 2.9-3.7 1.8-5.5l-5.5-9.3 9-8 4.6 7.7a4.8 4.8 0 00-2.8.6c-2 1.2-2.9 3.7-1.9 5.5s3.6 2.3 5.7 1c2-1.1 2.9-3.6 1.8-5.4zM23.9 12s-5.5 19 12.9 33.6c0 0 12.4-11.3 22.4-13.7 0 0-15-10-13.8-31.6 0 0-13.1 2.7-21.5 11.6z"/><path fill="#bac2e4" d="M45.4 0h-.1a14.3 14.3 0 00-.5.1L43 .6c-1.3.4-3.2 1-5.4 2a41.1 41.1 0 00-14 9.2s-5.6 19.3 13 34v.2l.2-.2s3.1-2.8 7.5-6c4.3-3 9.9-6.5 14.9-7.7h.5l-.5-.4S44.5 21.8 45.6.3V0zm-.3.6a36 36 0 0013.6 31.2c-5 1.3-10.4 4.6-14.6 7.7a87.9 87.9 0 00-7.3 5.8A32.6 32.6 0 0124 12a43 43 0 0114-9 52.4 52.4 0 017-2.4h.2z"/><path fill="#fff" d="M26.6 16.7S35 9.3 42.9 8z"/><path fill="#f0f6fb" d="M42.8 7.8c-8 1.3-16.4 8.8-16.4 8.8l.3.3S35.1 9.5 43 8.3z"/><path fill="#fff" d="M27.5 19s8.4-7.5 16.3-8.7z"/><path fill="#f0f6fb" d="M43.7 10c-8 1.3-16.4 8.8-16.4 8.8l.3.4s8.4-7.4 16.2-8.7z"/><path fill="#fff" d="M27.7 21.4S36.1 14 44 12.7z"/><path fill="#f0f6fb" d="M44 12.5a40 40 0 00-16.4 8.7l.3.4s8.4-7.4 16.2-8.6z"/><path fill="#fff" d="M30 27.4s7.2-8.4 16.3-8.7z"/><path fill="#f0f6fb" d="M46.3 18.5c-9.2.2-16.4 8.7-16.4 8.7l.4.4s7-8.4 16-8.6z"/><path fill="#fff" d="M35.7 36s7.2-8.3 16.3-8.6z"/><path fill="#f0f6fb" d="M52 27.1c-9.3.3-16.5 8.8-16.5 8.8l.4.4s7.1-8.4 16-8.6z"/><path fill="#5f519b" d="M111.8 68.2l-10.9-5-5 11 11 5z"/><path fill="#eb7d02" d="M3.4 55L0 65.3l10.6-2.2z"/><path fill="#fff" d="M162.1 89.8l7.6 14-3.2 11.3-17.2 9.4c-.9.5-2 .2-2.5-.7L136 104.2c-.5-1-.1-2 .8-2.5L159.6 89c.9-.5 2-.2 2.5.7z"/><path fill="#bac2e4" d="M161 88.7a2.1 2.1 0 00-1.5.2l-22.9 12.5a2.1 2.1 0 00-.8 2.9l10.8 19.6a2.1 2.1 0 002.8.8l17.3-9.4 3.3-11.6-7.7-14a2.1 2.1 0 00-1.2-1zm0 .5c.4.1.7.4 1 .8l7.5 13.7-3.3 11.2-17 9.4a1.6 1.6 0 01-2.2-.6L136.3 104a1.6 1.6 0 01.6-2.2l22.8-12.6a2 2 0 011.3-.1z"/><path fill="#4153a0" d="M166.4 115l-3.1-5.6c-.5-.9-.2-2 .7-2.5l5.7-3.2z"/><path fill="#bac2e4" d="M151.7 100.3l.9 1.6.3 1.2a2 2 0 01-1 1.9l-1.2.3a1.9 1.9 0 01-1-.4 2 2 0 01-.8-1l-1-1.6zm-2.3 3.3l.6.6c.2.2.4.3.7.3.2 0 .5 0 .8-.2.2-.2.4-.3.5-.6.2-.2.2-.4.2-.7a2 2 0 00-.2-.8l-.5-1-2.6 1.5zm1.5 3.7a2.2 2.2 0 011.2-1.9c.3-.2.7-.3 1.1-.2a2 2 0 011 .3 2.6 2.6 0 011.2 2 2.1 2.1 0 01-1.1 2 2.1 2.1 0 01-2.2-.1 2.6 2.6 0 01-1.2-2zm1.5 1.4c.2.2.5.2.7.2a1.6 1.6 0 001.4-.7l.2-.7a1.7 1.7 0 00-.7-1.4l-.8-.2a1.6 1.6 0 00-1.3.8c-.2.2-.2.4-.2.7a1.6 1.6 0 00.7 1.3zm1 3.1a2.2 2.2 0 011.1-1.9 2 2 0 011.1-.3c.4 0 .8.2 1.1.4.3.2.6.5.8.9a2.2 2.2 0 01.2 1.8l-.7-.2c.2-.5.1-.9 0-1.3a1.6 1.6 0 00-.6-.6 1.4 1.4 0 00-.7-.2 1.6 1.6 0 00-1.4.8l-.2.7c0 .3 0 .5.2.8.2.4.6.6 1 .7l-.2.7a1.9 1.9 0 01-.8-.4c-.2-.2-.5-.5-.6-.8a2 2 0 01-.3-1.1z"/><path fill="#ef7d00" d="M68.4 95.7l-7 17.1c0 .3-.6.3-1.1.1-.5-.2-.9-.5-.8-.8l5.7-17.5c.1-.4 1-.5 1.9-.2.8.3 1.5.9 1.3 1.3z"/><path fill="#fff" d="M63.8 98.8l3 1 .1-.4-2.9-1.1z"/><path fill="#4a2e81" d="M59.8 111.3l-.3.8c0 .2.1.4.4.6l.3.6.5-.3c.4 0 .7 0 .7-.2l.3-.7z"/><path fill="#5f519b" d="M68 95.6l-.2.6.8.2-.7 2 .5.1 1-2.4z"/></svg>
