<svg xmlns="http://www.w3.org/2000/svg" viewBox="0 0 105 60"><g fill="none"><path fill="#f1f9ff" d="M104.3 38.7c-3.56 12.51-16 16.58-26.78 20.96h-60.3c-7.54 0-11.3-3.18-15.49-9.82-4.18-6.64-.6-17.77 8.75-27.6 9.34-9.81 24.1-5.17 34.28-12.78 10.18-7.6 19.49-11.6 32.76-8.29s31.25 21.9 26.79 37.53z"/><path fill="#a8c5ea" d="M51.4 50.51c2.64 0 6.4.87 11.9.87 5.52 0 28.24-2.17 30 1.04-4.83 3.02-10.5 5.1-15.78 7.24H17.21c-5.65 0-9.18-1.8-12.36-5.49-1.05-1.23 3.53-2.79 7.94-2.79h27.8c2.43 0 8.16-.87 10.8-.87z"/><path fill="#fff" stroke="#a8c5ea" d="M108.05 40.4c.39 3.25 1.02 3.65 0 7.72 3.24-3.7 4.54-5.9 5.32-7.72 8.56 0 24.51-8.05 24.9-13.76S131.78 7.8 112.97 7.4c-18.8-.39-25.8 12.34-24.9 19.23S99.5 40.4 108.06 40.4z" transform="scale(.59659 .58824)"/><path fill="#363f8c" d="M59.74 10.7c0-.2-.02-.34-.06-.43.47-.17.9-.25 1.31-.25.06.05.08.2.08.43 0 .4-.16 1.35-.5 2.83.49-.36.9-.55 1.27-.55.23 0 .4.08.5.23.13.15.19.35.19.6 0 .24-.07.64-.2 1.2-.15.55-.21.93-.21 1.14s.02.3.07.3.17-.05.37-.16l.1-.06.17.33-.21.19c-.1.07-.26.17-.5.3-.23.12-.45.18-.65.18a.6.6 0 01-.48-.2.8.8 0 01-.17-.53c0-.23.06-.65.2-1.25.13-.6.2-.98.2-1.14 0-.16-.07-.24-.2-.24-.15 0-.34.07-.57.2-.33 1.51-.49 2.5-.49 2.94-.25.1-.68.15-1.28.15v-.28c0-.27.17-1.18.52-2.75.36-1.56.54-2.62.54-3.17zm3.4 4.56c0-.78.22-1.4.67-1.84a2.1 2.1 0 011.53-.69c.35 0 .64.1.86.27.23.19.34.43.34.73s-.07.55-.22.76c-.14.2-.32.36-.53.48-.42.21-.8.35-1.15.4l-.22.03c.04.59.27.88.69.88.14 0 .3-.03.45-.1s.29-.16.38-.23l.13-.12.21.3a3.9 3.9 0 01-.69.55c-.34.2-.71.3-1.12.3a1.2 1.2 0 01-.98-.45c-.23-.3-.35-.73-.35-1.27zm1.27-.31c.3-.06.55-.2.72-.4.18-.22.27-.49.27-.83 0-.33-.1-.5-.28-.5-.23 0-.4.2-.53.6-.12.4-.18.78-.18 1.13zm3.07 2.03a.67.67 0 01-.5-.21.85.85 0 01-.2-.6c0-.26.14-1.09.43-2.47.3-1.4.45-2.4.45-3.02l-.05-.41c.46-.17.9-.25 1.3-.25.06.08.09.24.09.45 0 .5-.16 1.47-.46 2.9a20.6 20.6 0 00-.44 2.5c0 .22.02.34.08.34l.62-.24.16.33c-.2.17-.45.33-.74.47-.29.14-.53.21-.74.21zm2.42 0a.67.67 0 01-.5-.21.85.85 0 01-.2-.6c0-.26.15-1.09.44-2.47.3-1.4.45-2.4.45-3.02l-.06-.41c.47-.17.9-.25 1.3-.25.06.08.1.24.1.45 0 .5-.16 1.47-.46 2.9-.3 1.42-.45 2.26-.45 2.5 0 .22.03.34.08.34l.63-.24.16.33c-.2.17-.45.33-.74.47a1.7 1.7 0 01-.74.21zm3 0c-.41 0-.73-.15-.97-.45-.23-.3-.34-.72-.34-1.27 0-.69.17-1.28.52-1.78.36-.5.85-.75 1.47-.75l.32.02c.1-.05.22-.08.34-.08.47 0 .7.46.7 1.39.25-.01.5-.05.75-.1l.14-.04.05.36c-.2.1-.46.17-.79.24l-.18.03a4.12 4.12 0 01-.68 1.71c-.35.48-.8.72-1.33.72zm.48-.8c.25 0 .47-.17.67-.5.2-.34.34-.7.42-1.07-.64 0-.96-.25-.96-.75 0-.2.04-.38.12-.56l.04-.09-.09-.02c-.04 0-.06 0-.08.02-.15.1-.28.33-.42.7-.13.37-.2.79-.2 1.26 0 .67.17 1.01.5 1.01zm2.5 19.52h18.53v13.26H75.88z"/><path fill="#fffef8" d="M75.88 46.67l4.63-2.8h4.76l-8.36 5.1h-1.03zm0-8.16l4.38 2.3 5.14-.26-9.52-4.84zm18.53 7.65l-4.37-2.3-4.9.52 9.27 4.58zm0-7.52l-4.37 2.93-4.9-.5 9.27-5.36z"/><path fill="#d73330" d="M94.41 37.37l-7.46 4.33h-1.8l9.26-5.35zM75.88 47.43l7.08-4.33h1.8l-8.88 5.35zm0-9.3l7.46 3.7h1.8l-9.26-4.6zm18.53 8.41l-7.46-3.7h-1.8l9.26 4.6z"/><g fill="#fffef8"><path d="M83.09 35.7h4.11v13.26h-4.1z"/><path d="M75.88 40.55h18.53v4.34H75.88z"/><path d="M83.09 35.7h4.11v13.26h-4.1z"/></g><path fill="#d73330" d="M75.88 41.32h18.53v2.55H75.88z"/><path fill="#d73330" d="M83.86 35.7h2.58v13.26h-2.58z"/><path fill="#deeaf8" d="M49.26 53.56l-26.14.26c-.2-.07-.45.1-.55.4s-.03.58.17.65l12.66 4.76c.05.02 4.4-.13 4.4-.13s17.37-2.42 17.89-2.42-8.43-3.52-8.43-3.52z"/><g fill="#deeaf8" style="mix-blend-mode:multiply"><path d="M33.08 53.73l-10.02.1c-.2-.07-.44.1-.55.4v.01c3.11 1.06 12.28 4.08 14.2 3.75 2.31-.4 18.91-1.38 18.91-1.38s-12.48-2.06-22.54-2.88z"/><path d="M28.92 55s5.81 1.81 6.8 1.81 11.18-.51 11.18-.51l-2.29-1.81s-16.76.1-15.7.52z"/><path d="M37.29 53.68l-14.17.14c-.2-.07-.44.1-.55.4-.1.25-.04.51.11.62 0-.13.02-.62.7-.62.79 0 13.7.35 13.7.35z"/></g><path stroke="#deeaf8" stroke-linecap="round" stroke-miterlimit="10" stroke-width=".36" d="M49.61 93.74l16.3-.78M51.6 94.18l16.3-.78m-14.74 1.3l16.3-.79m-14.24 1.27l16.3-.78M57.7 95.67l16.3-.78M51.76 93.3l9.04 2.32m-7.12-2.42l5.9 1.54m-2.52-1.36l5.9 1.53" transform="scale(.59659 .58824)"/><path fill="#009239" d="M24.88 28.68s-11.37.6-12.33 10.02c-.96 9.41 1.97 12.22 1.97 12.22s.31.27 1.24.08l-1.07-1.95s2.63-3.94 7.54-3.22c0 .18 0 .36-.04.54-.06.34.4 7.65.4 7.65h35.18S46.95 29.3 32.47 28.94z"/><path fill="#fff" d="M28.8 33.27c3.82 0 4.2-2.97 4.2-4.3l-.52-.03-7.6-.26-.5.05c-.05 1.08.24 4.54 4.43 4.54zM15.76 51l-1.07-1.95s2.63-3.94 7.53-3.22l-.3-.88s-6.12-1.22-8.35 4.43c.5 1.11.95 1.54.95 1.54s.32.27 1.24.08z"/><path d="M22.22 45.83s-1.34-3.4-1.05-4.78c0 0 1.32 5.08 2.08 6.08s-.96.1-1.03-1.3zm18.01-1.03s-.47-3.63-1.37-4.7c0 0 1.29 5.1 1.1 6.35-.2 1.25.88-.39.27-1.64z" style="" fill="#288b4c"/><path fill="#f9cfd2" d="M25.42 27.85l-.54.83s-.38 4.27 4.53 3.89c4.28-.35 2.74-4.81 2.74-4.81s-6.73.2-6.73.1z"/><g fill="#288b4c" style="mix-blend-mode:multiply"><path d="M14.52 50.92s.31.27 1.24.08l-1.07-1.95c-.26.4-.4 1.16-.28 1.75l.11.12z"/><path d="M14.52 50.92s.31.27 1.24.08l-1.07-1.95c-.26.4-.4 1.16-.28 1.75l.11.12z"/></g><path fill="#f6ada0" d="M32.2 27.92l-.42-.16c-1.4.04-6.36.19-6.36.09l-.54.83s-.37 4.17 4.36 3.88c-1.84-.2-3.54-1.56-1.07-1.43 2.5.14 3.88-2.8 4.04-3.18z"/><path fill="#f9cfd2" d="M28.87 28.72c4.53 0 8.2-4.14 8.2-9.24 0-5.1-3.67-9.24-8.2-9.24-4.53 0-8.2 4.14-8.2 9.24 0 5.1 3.67 9.24 8.2 9.24z"/><path fill="#f6ada0" d="M28.33 11.07s-3.59 6.22-7.09 7.43a.89.89 0 00-.56-.08l.14-.64z"/><path fill="#ef7d00" d="M28.32 11.06s-6 8.44-9.28 6.83c-3.28-1.6 5.1-14.55 8.18-10.33 0 0 4.04-4.33 9.69 1.9 5.64 6.22 1.33 16.07-8.59 1.6z"/><path fill="#f9cfd2" d="M20.83 22.31c.94 0 1.7-.87 1.7-1.95s-.76-1.95-1.7-1.95-1.7.87-1.7 1.95.76 1.95 1.7 1.95zm16.2 0c.94 0 1.7-.87 1.7-1.95s-.76-1.95-1.7-1.95-1.7.87-1.7 1.95.76 1.95 1.7 1.95zM14.69 49.05s.94 5.1 8.32 5.1h22.13l-5.53-4.94s-12.01.65-14.64-.96c-2.64-1.6-2.75-2.4-2.75-2.4s-4.56-1.16-7.53 3.2z"/><path fill="#f6ada0" d="M27.96 25.35s3.02 1.8 3.95-1.61c0 0-1.4 1.57-3.95 1.6z"/><path stroke="#f6ada0" stroke-linecap="round" stroke-miterlimit="10" stroke-width=".7" d="M35 33.2s-1.42.1-1.1 1.7c.32 1.58 1.64 1 1.64 1m26.62-2.6c.1 0 1.4-.46 1.2 1.35S62.38 36 62.38 36" transform="scale(.59659 .58824)"/><path fill="#4a368c" d="M26.24 20.08c.28 0 .51-.3.51-.66 0-.37-.23-.66-.51-.66s-.52.3-.52.66c0 .37.23.66.52.66zm5.84-.18c.28 0 .5-.28.5-.63s-.22-.63-.5-.63c-.27 0-.5.28-.5.63s.23.63.5.63z"/><path stroke="#f6ada0" stroke-linecap="round" stroke-miterlimit="10" d="M48.95 31.9s-.07 3.49-.57 4.51c-.5 1.02-.36 1.62.9 1.7" transform="scale(.59659 .58824)"/><path fill="#ef7d00" d="M29.77 10.2c-.68-1.94-.57-3.07-.26-3.93-.85.23-1.64.67-2.29 1.3-3.07-4.22-11.46 8.72-8.18 10.32s9.28-6.82 9.28-6.82c3.02 4.4 5.52 6.55 7.38 7.23a19.09 19.09 0 01-5.94-8.1z" opacity=".5"/><path fill="#f6ada0" d="M36.1 21.98v.04c.13.23.3.43.48.61l.12-.37c-.34-.14-.6-.28-.6-.28zm-14.92.74c.2-.2.35-.45.44-.72-.16.15-.35.25-.57.3l.13.42zm-6.49 26.33a5.48 5.48 0 00.92 1.93c.78-4.95 6.62-5.07 6.62-5.07l-.01-.05v-.02s-4.56-1.15-7.53 3.2z"/><path fill="#eb5d53" d="M24.55 17.01h.03l.08-.05.28-.13.4-.16c.14-.06.32-.1.5-.13l.24-.05.25-.04.23-.02h.65c.09.01.17.05.23.11s.1.15.1.24a.38.38 0 01-.11.24.33.33 0 01-.24.09h-.07l-.36-.04-.09-.01h-.51l-.23.03-.44.08c-.14.03-.27.08-.38.11l-.26.1a.56.56 0 00-.07.03l-.02.01a.22.22 0 01-.3-.1.23.23 0 01.1-.31zm6.39-.53h.43a4.54 4.54 0 011.36.28c.07.03.14.05.2.09l.2.09.15.09.1.08.1.06a.23.23 0 01.06.31c-.03.05-.08.08-.13.1s-.12 0-.17-.02l-.02-.01-.08-.05-.1-.06-.13-.06-.16-.06a2.88 2.88 0 00-1.02-.2h-.36c-.11 0-.2.02-.26.03H31a.33.33 0 01-.24-.07.34.34 0 01-.07-.48.34.34 0 01.22-.13z"/><path fill="#f6ada0" d="M24.37 23.85a1 1 0 000-2.01 1 1 0 000 2.01zm9.61 0c.55 0 .99-.45.99-1s-.44-1-1-1-.98.44-.98 1 .44 1 .99 1z"/><path d="M35.54 70.34s-2.04-14.52-9.48-15.15m39.26 13.24s-5.13-11.86-2.75-17.49m-35.59 4.4s6.32-5.17 13.87-5.69m14.45.23s5.08.52 7 1.81M21.88 81.52s3.56-8.73 14.43-6.67" transform="scale(.59659 .58824)" style="" stroke="#288b4c" stroke-miterlimit="10" stroke-width="1.08" opacity=".7"/><path fill="#e5f0fc" d="M71.23 55.35c-.45 2.68-1.59 3.28-2.51 3.28l-31.28 1.36c-.92 0-1.53-.95-1.35-2.13l5.17-25.92c.18-1.17 1.36-2.08 2.29-2.08h30.33c.92 0 1.53.95 1.35 2.13z"/><path fill="#deeaf8" d="M36.41 58l5.17-25.9c.18-1.18 1.36-2.1 2.28-2.1H74.2c.12 0 .24.02.35.06-.2-.14-.43-.2-.67-.2H43.55c-.93 0-2.11.9-2.29 2.08l-5.17 25.92c-.15 1.01.28 1.86 1 2.08-.52-.34-.8-1.08-.68-1.93z"/><path d="M59.6 46.62s-.08 1.48-1.46 1.86a.71.71 0 01-.47-.12c-.2-.16-.55-.1-.73.02a.79.79 0 01-.81-.03c-.3-.23-.5-.55-.62-.9 0 0 1.1.02 1.22-1.03.13-1.04-.65-.98-.65-.98.36-.35.62-.8.75-1.3.15-.76.56-1.28 1-1.03.42.25.3-.08.68-.06.37.02.53.36.5.8-.02.44-.01 1.04.31 1.48.26.38.36.84.29 1.29zm-1.48-3.67s.16-1.07-.84-1.33c0 0-.37 1.22.84 1.33z" style="" fill="#e6ecf8" opacity=".7"/><path fill="#deeaf8" d="M70.96 56.5c-21.72-3-26.2-18.64-27.07-26.64h-.34c-.93 0-2.1.92-2.29 2.1l-5.16 25.9c-.18 1.18.42 2.14 1.34 2.14l31.28-1.36c.78 0 1.7-.43 2.24-2.15z" opacity=".5"/></g></svg>
