<svg id="il_no_content" xmlns="http://www.w3.org/2000/svg" viewBox="0 0 200 200"><path fill="#bbdefb" d="M19.05 12.5c0-6.9 5.68-12.5 12.7-12.5s12.7 5.6 12.7 12.5S38.74 25 31.74 25s-12.7-5.6-12.7-12.5zM23.8 200c6.14 0 11.11-4.9 11.11-10.94 0-6.04-4.97-10.94-11.11-10.94s-11.11 4.9-11.11 10.94c0 6.04 4.97 10.94 11.11 10.94zM182.54 78.12h-31.75c-6.13 0-11.1 4.9-11.1 10.94 0 6.04 4.97 10.94 11.1 10.94h4.77c7 0 12.7 5.6 12.7 12.5s-5.7 12.5-12.7 12.5h-1.6a7.87 7.87 0 00-7.93 7.8 7.87 7.87 0 007.94 7.82h17.46c7.01 0 12.7 5.6 12.7 12.5s-5.69 12.5-12.7 12.5h-25.4a6.3 6.3 0 00-6.35 6.25 6.3 6.3 0 006.35 6.25h1.59c6.14 0 11.11 4.9 11.11 10.94 0 6.04-4.97 10.94-11.11 10.94H55.56c-6.14 0-11.12-4.9-11.12-10.94 0-6.04 4.98-10.94 11.12-10.94 4.38 0 7.93-3.5 7.93-7.81a7.87 7.87 0 00-7.93-7.81H28.57c-7.01 0-12.7-5.6-12.7-12.5s5.69-12.5 12.7-12.5h14.29c6.13 0 11.1-4.9 11.1-10.94 0-6.04-4.97-10.94-11.1-10.94H15.87C7.11 115.62 0 108.62 0 100c0-8.63 7.1-15.63 15.87-15.63h9.53c5.26 0 9.52-4.2 9.52-9.37s-4.26-9.38-9.52-9.38h-7.94c-6.14 0-11.11-4.9-11.11-10.94 0-6.04 4.97-10.93 11.11-10.93H76.2c5.26 0 9.52-4.2 9.52-9.38A9.45 9.45 0 0076.2 25h-6.35a12.6 12.6 0 01-12.7-12.5c0-6.9 5.69-12.5 12.7-12.5h76.2c7 0 12.69 5.6 12.69 12.5S153.05 25 146.03 25h-6.35c-7 0-12.7 5.6-12.7 12.5s5.7 12.5 12.7 12.5h42.86c7.89 0 14.29 6.3 14.29 14.06s-6.4 14.06-14.29 14.06zM200 112.5c0-6.9-5.69-12.5-12.7-12.5-7.01 0-12.7 5.6-12.7 12.5s5.69 12.5 12.7 12.5c7.01 0 12.7-5.6 12.7-12.5z"/><path fill="#7f7f7f" d="M176.62 155.59l.02-.02-38.83-38.22a63.01 63.01 0 0010.73-35.2c0-35.37-29.14-64.05-65.08-64.05S18.38 46.78 18.38 82.16s29.14 64.06 65.08 64.06c13.21 0 25.5-3.9 35.76-10.57l38.83 38.22a12.67 12.67 0 0017.72 0l.85-.84a12.21 12.21 0 000-17.44z"/><path fill="#a7d5fc" d="M84.13 37.5C58.7 37.5 38.1 57.79 38.1 82.81c0 25.03 20.6 45.31 46.03 45.31 25.42 0 46.03-20.28 46.03-45.3 0-25.03-20.61-45.32-46.03-45.32z"/><path fill="#fff" d="M95.24 68.75a6.32 6.32 0 016.35-6.25c3.49 0 6.35 2.81 6.35 6.25S105.08 75 101.59 75a6.32 6.32 0 01-6.35-6.25zm-34.92 0a6.32 6.32 0 016.35-6.25c3.49 0 6.35 2.81 6.35 6.25S70.16 75 66.67 75a6.32 6.32 0 01-6.35-6.25zM100 106.25a4.78 4.78 0 01-3.4-1.4c-.8-.82-5.2-4.85-12.47-4.85h-.02a17.98 17.98 0 00-12.46 4.84 4.81 4.81 0 01-6.73.07 4.64 4.64 0 01-.07-6.63 27.53 27.53 0 0119.25-7.66h.03c10.8 0 17.48 5.86 19.27 7.66a4.64 4.64 0 01-.07 6.63 4.8 4.8 0 01-3.33 1.34z"/></svg>
