<svg xmlns="http://www.w3.org/2000/svg" viewBox="0 0 105 95"><path fill="#fcb2ae" d="M19.59 22.6l-5.23-.52.35 1.29 6.11 1.49z"/><g fill="#f9cfd2" stroke-width=".58"><path d="M44.26 19.74c.01-.09 1.06-.62.97-.67-.05-.03-.32.05-.58.13-.28.08-.55.16-.55.13-.02-.06 1-.57.92-.7-.03-.06-.33.05-.61.17-.29.11-.56.22-.57.16-.02-.13 1.12-.7 1.03-.8-.08-.1-1.36.51-1.77.7a.07.07 0 01-.1-.07c.1-.88.06-.95-.04-.94-.07 0-.58.91-.94 1.57-4.1 2.61-10.25 3.63-10.25 3.63s-3.2 4.33-.12 3.99c2.7-.3 9.19-4.77 10.75-5.87l.6-.34.35-.12c1.82-.84 1.8-.88 1.77-.95 0-.03-.21-.02-.42 0-.22 0-.44.02-.44-.02zm-1.99 8c.03.07-.52.92-.42.92.09 0 .69-.73.73-.69.04.05-.5.86-.39.93.06.03.22-.17.38-.38.17-.21.33-.42.37-.38.06.09-.53 1-.42 1.05.1.04.8-.98 1.01-1.3.03-.04.1-.04.11.01.31.71.38.75.45.7.05-.04.03-.94 0-1.6 1.91-3.72 6.07-7.14 6.07-7.14s.47-4.62-1.68-3.04c-1.89 1.39-4.77 7.55-5.45 9.05l-.3.51-.2.24c-1 1.41-.96 1.43-.91 1.48.02.02.17-.08.32-.18.15-.1.31-.21.33-.18zm-14.64 65.4l-3.93-2.4-3.4 2 1.18.84 4.12.59s1.6-.2 1.68-.24c.07-.05.35-.79.35-.79z"/><path d="M18.16 58.2l.62 15.65c.09 2.31 1.44 19.46 1.76 20.9l2.92-.21s1.98-33.12 1.36-36.35c-.62-3.23-6.66 0-6.66 0z"/></g><g stroke-width=".58"><path fill="#2d2e2d" d="M27.63 93.14l1 .64c.45.29.25.99-.3.99h-7.55a.48.48 0 01-.48-.47v-1.56c5.03 1.58 6.76 1.1 7.33.4z"/><path fill="#f9cfd2" d="M18.15 93.14l-3.92-2.4-3.41 2 1.18.84 4.12.59s1.6-.2 1.68-.24c.07-.05.35-.79.35-.79z"/><path fill="#f9cfd2" d="M8.68 58.2l.62 15.65c.1 2.31 1.44 19.46 1.77 20.9l2.9-.21s2-33.12 1.37-36.35c-.62-3.23-6.66 0-6.66 0z"/><path fill="#2d2e2d" d="M18.15 93.14l1 .64c.45.29.25.99-.3.99H11.3a.48.48 0 01-.48-.47v-1.56c5.03 1.58 6.76 1.1 7.33.4z"/><path fill="#ffc0bb" d="M62.67 91.58v-2.1l-2.44-.67-.54.23-.1 2.54.77 2.2z"/><path fill="#004c92" d="M54.64 94.74l8.71.09c.08 0 .14-.06.14-.14v-.6a.13.13 0 00-.13-.14l-8.7-.08a.13.13 0 00-.14.13l-.01.6c0 .08.06.14.13.14z"/><path fill="#177bd7" d="M63.11 91.28l.27 2.44c.04.3-.14.58-.37.57l-7.9-.07a.58.58 0 01-.52-.36c-.11-.25-.13-.6.23-1.09.7-.95 2.96-1.17 4.13-1.96a.25.25 0 01.14-.04l3.61.03c.2 0 .38.2.41.48z"/><path fill="#333" d="M59.56 92.2c.06-.04.08-.14.05-.2-.16-.34-.63-1.16-1.62-1-.06 0-.1.08-.1.15.02.08.07.13.12.12.9-.14 1.3.58 1.42.87.03.06.08.08.13.05zm-.83.3c.06-.04.08-.13.05-.2-.15-.34-.63-1.15-1.62-1-.05.01-.1.09-.08.16 0 .08.05.13.11.12.89-.14 1.3.58 1.42.86.02.06.08.09.12.06z"/><path fill="#004c92" d="M63.01 94.3c.21 0 .38-.23.38-.5a.5.5 0 000-.08l-.16-1.36a.24.24 0 00-.24-.21h-.01c-.57.02-1.4.35-1.96 1.8-.06.16.05.33.22.33z"/><path fill="#ffc0bb" d="M81.42 91.9v-2.1l-2.45-.67-.54.24-.1 2.53.78 2.21z"/><path fill="#004c92" d="M73.37 94.92l8.71.08c.08 0 .14-.06.14-.13v-.61a.13.13 0 00-.13-.14l-8.7-.08a.13.13 0 00-.15.13v.61c0 .08.06.14.13.14z"/><path fill="#177bd7" d="M81.84 91.45l.27 2.45c.04.3-.14.57-.37.57l-7.9-.08a.56.56 0 01-.52-.36c-.11-.24-.13-.6.23-1.09.7-.94 2.96-1.17 4.13-1.95a.26.26 0 01.14-.05l3.6.04c.21 0 .39.2.42.47z"/></g><g fill="#333" stroke-width=".58"><path d="M78.29 92.37c.06-.04.08-.13.05-.2-.16-.34-.63-1.16-1.62-1-.06.01-.1.08-.1.16.02.08.07.12.12.12.9-.14 1.3.58 1.42.86.03.06.08.08.13.06zm-.82.3c.05-.03.07-.13.04-.2-.15-.33-.63-1.15-1.62-1-.05.02-.1.09-.09.17.01.07.06.12.12.11.89-.14 1.3.58 1.41.87.03.06.09.08.14.05z"/><path d="M76.7 92.96c.05-.04.08-.13.04-.2-.15-.34-.63-1.15-1.62-1-.05.01-.1.09-.08.16 0 .08.06.13.11.12.89-.14 1.3.58 1.42.86.02.06.08.09.13.06z"/></g><g stroke-width=".58"><path fill="#004c92" d="M81.75 94.47l-1.78-.02a.24.24 0 01-.22-.33c.56-1.45 1.39-1.77 1.96-1.8.13 0 .24.1.25.21l.15 1.37v.07c0 .27-.16.5-.37.5z"/><path fill="#1e1e1e" d="M56.52 44.87C59.83 48.6 66.47 54 66.47 54L63.4 90.27s-4.43.36-5.95-.52c0 0-1.16-34.38-.94-44.88z"/><path fill="#1e1e1e" d="M57.77 46.26c.01-.53-1.28 1.03-1.26.6.51-8.8 16.62-1.42 16.62-1.42l3.38-.53 6.22 45.22s-4.05.66-6.36 0l-9.9-35.68s-3.55-1.14-8.7-8.2z"/><path fill="#f9cfd2" d="M62.33 14.76h5.5l.26 2.47s-1.79.47-1.96.36c-.16-.11-3.13-.82-3.13-.9 0-.06-1.55-.39-1.48-.42.07-.04.11-1.52.11-1.52z"/><path fill="#f9cfd2" d="M70.23 12.74l.28 2.46-.15.2a4.75 4.75 0 01-4.23 1.71l.58-4.2z"/><path fill="#f6ada0" d="M66.34 15.58l.37-2.67 3.52-.17.16 1.36a6.8 6.8 0 01-4.05 1.48zM65 8.5c.18.6-.07 1.19-.56 1.32-.48.14-1-.23-1.18-.82-.17-.6.08-1.18.56-1.32.48-.13 1.01.24 1.18.83z"/><path fill="#f9cfd2" d="M64.4 11.76a5 5 0 01-.26-.82 9.66 9.66 0 01-.21-2.22c0-.15 0-.3-.02-.44a5.2 5.2 0 01.22-1.82 4.4 4.4 0 014.25-3.25c2.56.1 4.45 2.54 4.18 5.26.29-.13.6-.13.85.03.48.31.6 1.1.24 1.77-.36.67-1.04.96-1.53.65a.85.85 0 01-.18-.16c-.44 2.3-2.35 3.88-4.42 3.6a3.82 3.82 0 01-2.64-1.68 4.5 4.5 0 01-.49-.92z"/></g><g fill="#333" stroke-width=".58"><path d="M68.49 8.74c-.03.22.13.43.36.46.23.03.45-.13.48-.36a.42.42 0 00-.37-.46.42.42 0 00-.47.36zm-3.64-.22c-.03.23.14.44.37.47.23.03.44-.14.47-.36a.42.42 0 00-.37-.47.42.42 0 00-.47.36zm3.88-1.24a2.12 2.12 0 011.16.13l.07.02.07.04c.46.22.38-.04-.02-.27a1.39 1.39 0 00-.66-.24c-.45-.05-1.72.5-.62.32zm-3.51-.38a1.5 1.5 0 00-.64.29c-.28.18-.55.58 0 .27l.06-.04.07-.03a1.96 1.96 0 011.15-.2c1.11.1-.2-.36-.64-.28z"/><path d="M63.46 1.84C64.39 1.3 66.13.77 67.9.72c-.42-.28-.67-.5-.57-.57.84-.63 3.61.92 4.5 1.45.16-.22.73-.9 1.33-.6.72.36-.62.95-.62.95s.96.09 1.19.59c.17.37-.42.3-.74.25.1.03.24.1.4.22 0 0 1.34 1.06 1.22 1.68-.03.15-.16.16-.34.1.16.64.44 1.86.21 2.02-.13.1-.26.02-.37-.09-.16.98-.86 1.73-.86 1.73-1.16-.17-1.67 1.09-1.67 1.09.25-1.53-.93-4.39-.93-4.39s-4.38 1.86-3.67.58c0 0-5.14 1.77-4.08-.7 0 0-1.96-.1.33-2.05 0 0-1.44-.14.23-1.14z"/></g><g stroke-width=".58"><path fill="#f9cfd2" d="M51.6 14.27l1.77-.2 3.38.09.66 1.53-1.06.9s-.65.6-1.46.44c-.82-.15.99.12-.95-.2-1.94-.33-2.3-.21-2.28-.56.03-.35-.15-.6-.12-.92l.07-1.08z"/><path fill="#fdc000" d="M71 14.76s7.83.66 9.1 3.66c1.28 3-2.58 10.14-2.58 10.14l.45 20.33s-11 6.03-21.7.8l.35-21.47 1.36-9.61 1.66.43s.3-3.03 2.6-3.32c2.32-.3 3.6-.23 3.6-.23s2.48 2.2 5.17-.73z"/><path fill="#f9cfd2" d="M61.29 29.7s-.72-.56-.88-.5c-.15.06-3.35.14-3.35 1.15.01 1 .69 4.74.69 4.74l-2.66 1.25-.44.7-.16 2.35s.2.9.23.93c.03.04.49.16.49.16l1.15-2.15c.88-.15 3.96-.76 4.93-1.88 1.12-1.3 0-6.74 0-6.74z"/><path fill="#dceaf4" d="M57.29 35.3l-2.2 1.04-.44.7-.16 2.35s.2.9.23.93c.03.04.49.16.49.16l1.15-2.15c.3-.05.87-.16 1.52-.32-.44-.97-.56-2-.6-2.7z"/><path fill="#09083c" d="M55.2 40.48l-.33.59c-.15.28-.58.2-.6-.1l-.37-4.25a.28.28 0 01.26-.3l.93-.08c-.7 2.9-.33 3.86.12 4.14z"/><path fill="#f6ada0" d="M58.67 31.75l-.7.26c-.16.06-.36.28-.35 1.29 0 1-1.18.86-1.18.86h-.4l.18.34.35.18s-.3.65-.26.68c.03.04.09.35.09.35l.96 1.37c.88-.15.96-.48 1.03-.56 1.13-1.31.28-4.77.28-4.77z"/><path fill="#f9cfd2" d="M58.16 29.7s-.72-.56-.87-.5c-.16.06-3.36.14-3.35 1.15 0 1 .68 4.74.68 4.74l-2.65 1.25-.45.7-.16 2.35s.2.9.23.93c.03.04.49.16.49.16l1.15-2.15c.88-.15 3.97-.76 4.93-1.88 1.13-1.3 0-6.74 0-6.74z"/><path fill="#dceaf4" d="M54.16 35.3l-2.2 1.04-.44.7-.16 2.35s.2.9.23.93c.03.04.49.16.49.16l1.15-2.15c.3-.05.87-.16 1.52-.32-.43-.97-.56-2-.59-2.7z"/><path fill="#09083c" d="M52.08 40.48l-.34.59c-.15.28-.58.2-.6-.1l-.37-4.25a.28.28 0 01.26-.3l.94-.08c-.7 2.9-.34 3.86.1 4.14z"/><path fill="#f6ada0" d="M66.53 11.42a2.78 2.78 0 001.71-.15l.14-.06.13-.06c.1-.04.18-.1.28-.13a2.2 2.2 0 01-.2.23l-.25.2c-.18.1-.39.19-.6.24-.2.04-.43.04-.64 0a1.2 1.2 0 01-.57-.27z"/><path fill="#ff9cbd" d="M51.6 14.27c-.37.04-.76.1-1.13.2-1.48.34-4.06 3.83-4.06 3.83s.43 2.01 2.9 2.54c0 0-1.84 10.22 3.3 11.43 6.46 1.52 11.56-2.24 11.56-2.24l-2.53-3.35s-2.1-4.27-2-7.64c0 0 .23-2.81 2.43-3.3l.26-.98-5.58-.6s.06 2.15-2.17 2.2c-2.72.06-2.97-2.1-2.97-2.1z"/><path fill="#fc903a" d="M61.64 26.68zm0 0zm0 0z"/><path fill="#f57fa6" d="M55.73 32.63c-.99 0-2.04-.1-3.13-.36-5.13-1.21-3.28-11.43-3.28-11.43l.74-3.1s1.3 6.05 10.52 6.32c.51 1.5 1.04 2.59 1.06 2.62l2.53 3.35s-3.53 2.6-8.43 2.6z"/><path fill="#f9cfd2" d="M71.06 26.65s-1.35 1.55-3.2 1.47c-.57-.02-14.17-4.2-14.23-4.25-.87-.5-3.78-2.03-5-1.24a3.49 3.49 0 00-1.6 3.09c.09.58 1.08 2.17 1.94 1.22.4-.45 1.59-.36 2.72-.15 0 0 13.1 7.44 17.14 7.09 4.03-.36 6.58-3.06 6.58-3.06s-2.4-3.08-4.35-4.17z"/><path fill="#f9cfd2" d="M51.1 29.27a1.39 1.39 0 00-1.27 2.04c.25.47.64 1.04 1.19 1.44 1.1.8 3.47.96 4.34-.02.87-.98.5-.97.5-.97s.51-.62.12-.9c0 0 .18-.5-.17-.6 0 0-.23-.05-.44.06 0 0 .02-.33-.36-.33-.39 0-2.06.83-3.27.68-.94-.12 0-.73.46-.98a1 1 0 00.45-.51.7.7 0 00.04-.19c.01-.14-.16-.23-.27-.13-.2.18-.54.44-.85.43l-.48-.01z"/></g><path fill="#f6ada0" stroke-width=".58" d="M55.8 31.64c-.11.1-.36.43-.7.67l-.3.23-.29.18-.2.12-.08.04a.05.05 0 01-.06-.01l-.02-.02a.07.07 0 010-.05l.01-.02.02-.01.08-.04.2-.11.3-.17.3-.21c.37-.24.64-.58.75-.65a.7.7 0 010 .06zm-.27-.5c-.12.09-.42.37-.77.6l-.32.22-.28.18-.2.12-.09.04h-.02-.02-.02l-.01-.03v-.05l.03-.03.08-.04.2-.11.29-.17.33-.2c.35-.22.66-.48.78-.57l.02.04zm-.43-.41l-.18.13c-.16.12-.34.28-.55.43l-.84.6h-.02-.02-.02l-.01-.02a.07.07 0 010-.05v-.02l.02-.02.85-.56c.22-.14.4-.3.56-.4l.16-.11.05.02z"/><g stroke-width=".58"><path fill="#f99d00" d="M56.4 42.19l-.12 7.5c10.69 5.23 21.7-.8 21.7-.8l-.46-20.33s-3.97 17.9-21.12 13.63z"/><path fill="#333" d="M49.71 6.42s-1.33-1.4-2.92-.03c-1.59 1.36-.14 3.31-1.22 4.38 0 0 2.28-.02 2.96-1.83.52-1.37.96-1.7 1.14-1.77.1-.05.2-.13.24-.26.05-.13.04-.32-.2-.5z"/><path fill="#ff9cbd" d="M50.15 6.14c-.2-.03-.4.1-.43.3l-.13.83c-.03.2.13.4.36.4.2.02.38-.12.4-.3l.1-.85a.35.35 0 00-.3-.38z"/><path fill="#333" d="M56.98 4.87s1.38-1.4 3.04-.03c1.65 1.36.14 3.31 1.27 4.39 0 0-2.37-.03-3.08-1.84-.54-1.37-1-1.7-1.18-1.77a.44.44 0 01-.26-.25c-.05-.14-.04-.32.21-.5z"/><path fill="#ff9cbd" d="M56.36 4.82c.14-.12.34-.07.44.1l.42.78c.1.19.05.44-.12.55-.15.1-.34.05-.43-.13l-.4-.78a.44.44 0 01.09-.52z"/><path fill="#f9cfd2" d="M53 14.94h2.57v-2.53H53z"/><path fill="#f5afaa" d="M53 13.93V12.4h2.57v1.29c-.55.3-1.37.46-2.57.23z"/><path fill="#333" d="M50.47 9.57s-1.06-2.88.45-4.24a4.39 4.39 0 014.55-1c1.27.5 2.27 2.73 1.9 4.14l-4.1-.7z"/><path fill="#f99893" d="M56.42 9.02c-.1.41.1.8.46.88.35.07.71-.2.81-.62.1-.42-.1-.81-.45-.89-.35-.07-.72.21-.82.63z"/><path fill="#f9cfd2" d="M57.2 11.35a6.4 6.4 0 00.22-2.43c0-.41-.06-.83-.22-1.25a3.1 3.1 0 00-3.18-2.04 3.31 3.31 0 00-2.83 3.85.65.65 0 00-.61.06c-.34.24-.4.8-.11 1.24.28.45.78.61 1.12.37a.63.63 0 00.13-.11c.4 1.56 1.83 2.56 3.32 2.26a2.84 2.84 0 001.85-1.3c.13-.2.23-.42.31-.65z"/><path fill="#333" d="M51.09 9.5s2.05-1.2 3.03-2.73c0 0 .07.75-.14 1.05.08.04 1.5-.79 1.7-2.01.2-1.23-1.8-.48-1.8-.48s-1.18-.04-1.23 0c-.05.03-.82.66-.85.7l-.93 1.8-.2.64-.21 1.1z"/><path fill="#f99d00" d="M77.1 29.26l-.43.71-.8 1.33-.2-.28-.13-.18-.14-.17-.27-.35-.3-.34-.14-.16-.15-.17-.3-.33-.63-.63a23.24 23.24 0 00-2.65-2.23l.23-.34.26-.43.24-.45a32.02 32.02 0 001.27-2.74l.2-.46.18-.47.18-.46c.24-.63.47-1.25.68-1.89a104.46 104.46 0 01-1.57 3.69c-.27.6-.56 1.21-.87 1.8-.3.6-.63 1.18-1.02 1.71l-.06.08.09.06a22.24 22.24 0 012.71 2.26c.22.2.42.42.63.63l.3.32.15.16.15.16.3.33.28.34.14.17.13.18.27.34.06.08.05-.08.8-1.44.39-.73.39-.72-.43.7z"/><path fill="#f9cfd2" d="M27.2 21.56l.32 2.28s-1.73 1.18-2.78-.16l.17-2.36z"/><path fill="#f6ada0" d="M24.2 17.76c.18.55 0 1.12-.39 1.28-.4.16-.86-.15-1.04-.7-.18-.54 0-1.11.39-1.28.39-.16.86.16 1.04.7zm.6 5.05l.11-1.5 2.3.25.12.96c-.43.18-1.25.4-2.53.3z"/><path fill="#f9cfd2" d="M23.11 19.33c-.04-.67-.09-1.34-.05-1.92l.02-.37c0-.51.09-1.03.27-1.55.6-1.67 2.06-2.73 3.56-2.58 2.03.2 3.39 2.39 3.02 4.7.23-.1.48-.08.67.07.37.3.4.98.09 1.53-.32.55-.88.77-1.25.48a.69.69 0 01-.13-.14 3.55 3.55 0 01-4.11 2.56c-.8-.16-1.97-.71-2.09-2.78z"/><path fill="#333" d="M27.09 17.25c.1.01.22.04.33.1.58.2-.06-.28-.3-.32a.78.78 0 00-.42.06c-.65.28.13.12.39.16zm-3.01.01a.88.88 0 00-.34.1c-.36.1-.36.02-.07-.17a.73.73 0 01.8-.08c.62.34-.13.13-.39.15z"/><path fill="#f9ac53" d="M24.81 15.6c-1.08-.17-1.24-.67-1.24-.67s.62-1.25 1.79-1.67c1.16-.42 2.71-.17 3.57.83.85 1 .93 2.59.93 2.59s-.51-.84-1.17-.92c-.65-.08-2.8 0-3.88-.17z"/><path fill="#fdc000" d="M13.82 7.99s-3.68.23-6.2 5.03-3.01 4.92-4.74 7.48c-1.73 2.56-4.63 8.96-1.47 12.44 3.16 3.47 17.8-4.66 17-6.8-.8-2.13-1.85-4.15-1.32-9.23.53-5.07-3.27-8.92-3.27-8.92z"/><path fill="#f6a300" d="M10.22 12.98s-.51-.63.41-2.17c0 0-1.47 2.12-1.47 3.58s-.64 2.06-1.33 2.96c-.69.9-5.06 6.84-3.6 10.33C5.7 31.18 14.4 28.8 14.4 28.8l-.28-9.33z" opacity=".5" style="mix-blend-mode:multiply"/><path fill="#f9cfd2" d="M11.81 19.1s-.8 2.7-2.77 4.89c.09.03 2.54 2.75 6.3.6l-.37-5.16z"/><path fill="#f6ada0" d="M14.97 19.42l-3.16-.32s-.8 2.7-2.77 4.89c.04.01.84.86 2.17 1.23-.57-.43.75-4.06 2.02-3.98a2.2 2.2 0 001.82-.75z"/><path fill="#f9cfd2" d="M17.99 14.74c.36-3.06-1.11-5.76-3.28-6.03-2.18-.26-4.23 2.01-4.6 5.08-.35 3.07 1.12 5.77 3.29 6.03 2.17.27 4.23-2 4.59-5.08z"/><path fill="#f6a300" d="M12.47 13.4l.2-.11a3.48 3.48 0 01.7-.27l.13-.02.11-.01h.1a.6.6 0 01.08 0h.07a.23.23 0 01.2.16.23.23 0 01-.06.25.23.23 0 01-.21.05h-.02l-.04-.02a.5.5 0 00-.06-.02l-.07-.01-.09-.01H13.17l-.44.08-.2.06a.08.08 0 01-.08-.05.08.08 0 01.02-.09z"/><path fill="#f6ada0" d="M14.76 10.97s-1.92 3.28-3.67 2.76c0 0-.64-.34-.87-.75-.26-.48 4.54-2 4.54-2z" opacity=".5" style="mix-blend-mode:multiply"/><path fill="#f9cfd2" d="M11.17 14.23c.06-.74-.37-1.39-.97-1.43-.6-.05-1.12.51-1.18 1.26-.06.75.37 1.4.97 1.44.6.05 1.12-.52 1.18-1.27z"/><path fill="#f6ada0" d="M11.1 13.7a.96.96 0 00-.9-.72c.1.53.87.75.87.75.05.02-.02-.04.03-.02z"/><path fill="#fdc000" d="M10.12 12.89s1.35 2.37 4.62-1.92c0 0 1.67 3.6 3.56 2.8 1.89-.8.4-5.92-4.04-5.92-4.43 0-4.14 5.04-4.14 5.04z"/><path fill="#f6a300" d="M16.84 13.88l-.04-.04-.04-.04-.06-.05-.06-.05-.08-.06a.9.9 0 00-.1-.06l-.09-.05a1.86 1.86 0 00-.39-.14l-.14-.03h-.05a.07.07 0 01-.05-.03.07.07 0 01-.02-.05l.02-.04a.07.07 0 01.04-.03h.06l.16-.01a1.77 1.77 0 01.47.05l.13.03.12.04a4.04 4.04 0 01.3.13l.05.04.04.03a.23.23 0 01.11.13.23.23 0 01-.15.29.22.22 0 01-.23-.06z"/><path fill="#f6ada0" d="M13.36 17.56s.6 1.4 1.78.4c0 0-1.07-.14-1.78-.4z"/></g><path fill="none" stroke="#f6ada0" stroke-linecap="round" stroke-miterlimit="10" stroke-width=".23" d="M10.2 13.86s-.69.09-.5.79"/><path fill="#4a368c" d="M13.3 14.58c.17 0 .31-.14.31-.32a.32.32 0 00-.32-.32.32.32 0 00-.32.32c0 .18.15.32.32.32zm2.92.17a.3.3 0 00.29-.3.3.3 0 00-.3-.3.3.3 0 00-.29.3c0 .17.13.3.3.3z"/><path fill="none" stroke="#f6ada0" stroke-linecap="round" stroke-miterlimit="10" stroke-width=".23" d="M14.87 14.39s.06.79.24 1.18c.17.38.03.76-.57.84"/><g stroke-width=".58"><path fill="#f6ada0" d="M13.23 19.8c-2.45-.62-2.82-4.17-2.82-4.17a.61.61 0 01-.29.06c.29 2.14 1.48 3.8 3.1 4.1z"/><path fill="#f6a300" d="M14.63 9.35s-.18.5.18 1.75c.25.51 1.26 2.36 2.5 2.72-.56-.26-2.19-1.16-2.68-4.47z" opacity=".5" style="mix-blend-mode:multiply"/><path fill="#f9cfd2" d="M7.5 23.36s6.87-.6 9.82-.27c0 0 .05 1.83-.07 1.92-.12.1-1.45 2.75-1.56 2.84-.1.09-1.78.48-1.78.48s-1.05-.45-1.5-.6a5.03 5.03 0 01-1.69-.86c-.28-.33-2.2-1.4-2.3-1.4-.08 0-.92-2.1-.92-2.1z"/><path fill="#177bd7" d="M33.09 22.51c-1.28.12-5.2.85-5.2.85a2.7 2.7 0 01-3.47-.4c-.77-.05-4.84-.45-4.84-.45l.06 1.67-1.11.44L18 31.1v3.7c5.6 1.6 12.6.23 12.6.23.26-3.43-.11-7.68-.11-7.68 2.44-.25 3.59-1 3.59-1 .1-1.29-1-3.85-1-3.85z"/><path fill="#abd9f6" d="M29.23 23.12l.24-.04a2 2 0 00-.24.04zm.25-.05zm1.17-.2h.01zm.02 0zm0 0h0zm.03 0zm2.38-.36z"/><path fill="#004c92" d="M24.34 35.6c-1.74 0-3.65-.15-5.46-.56-.17-1.1-.17-1.87-.17-1.87s.46-1.12.9-2.58c6.52-.34 8.98-4.93 9.62-7.47l.24-.04h.01l1.17-.21h.04a34.1 34.1 0 012.39-.36s1 2.36 1 3.68v.16s-1.15.76-3.6 1c0 0 .22 2.39.22 5.02a37 37 0 01-.1 2.67s-2.79.55-6.26.55z"/><path fill="#e04c48" d="M22.52 41.84c-3.84-2.8-3.8-8.67-3.8-8.67s2.78-6.88 1.2-8.7c-.63-.74-1.41-1.57-4.2-1.49.17 1.38.35 4.25-1.25 4.14-1.7-.13-3.9-2.66-4.26-3.97-3.84-.17-5.33 1.37-5.6 2.67C4 28.73 8.13 41.13 8.13 41.13S5.2 58.36 4.28 67.6c0 0 20.86 3.27 27.85 2.32-.44-11.43-5.77-25.27-9.6-28.08z"/><path fill="#e2e4c3" d="M33.09 65.41zm0 0zm0 0zm0 0zm0 0zm-.01-.02zm0 0zm0-.03zm-.01 0zm0-.02zm-.01-.01zm0-.01zm0 0zm0-.01zm0 0zm0-.01h-.01zm-.06-.15zm0 0zm0-.01zm-.04-.1zm0-.02zm-.28-.84zm-.03-.08zm0-.01v-.02.02zm0-.02l-.01-.02v.02zm-.02-.03zm0-.01v-.02.02zm-.01-.02V64zm0-.02l-.02-.05.01.05zm-.02-.05l-.01-.03v.03zm-.01-.03l-.04-.12.04.12zm-.04-.13zm-.01-.02zm-.02-.05z"/><path fill="#d73330" d="M16.53 80.8a42.23 42.23 0 01-7.47-.64c-5.11-.9-8.13-2.4-8.13-2.4.73-7.24 4.74-30.38 6.44-34.72l2.35 1.9c.02.02.05.02.08.02s.07-.01.1-.04l.16-.2a.12.12 0 00.01-.13.4.4 0 00.1-.1l.44-.66.34-.52c.09-.14.09-.29 0-.36L9.4 41.71a.13.13 0 00-.07-.03c-.4-.02-.85-.2-1.29-.35l.08-.2S4.54 30.36 4.54 26.54c0-.28.02-.52.06-.72.27-1.3 1.56-2.04 2.9-2.45 0 0-3.17 13.21 4.63 19.94 0 0-3.7 26.01 10.04 26.01 1.72 0 9.96.26 9.96.26s.08 1.8-.61 8.25c-3.57 1.45-4.1 1.74-6.73 2.22a46.13 46.13 0 01-8.26.75z"/><path fill="#fff" d="M6.09 42l3.63 2.94c.05.04.13.03.17-.02l.17-.2a.12.12 0 00-.02-.17L6.41 41.6a.13.13 0 00-.17.02l-.17.2a.12.12 0 00.02.17z"/><path fill="#318ff1" d="M10.95 43.3l-.78 1.19c-.1.14-.27.2-.36.13l-3.37-2.73a.3.3 0 01-.09-.33c.04-.15.17-.32.5-.4.65-.2 1.7.48 2.49.52a.1.1 0 01.07.03l1.54 1.24c.09.07.09.22 0 .36z"/></g><g fill="#fff" stroke-width=".58"><path d="M9.1 42.5c.03 0 .07-.02.09-.07.05-.2.15-.73-.33-1a.12.12 0 00-.1.05c-.02.04-.02.07 0 .09.44.24.35.7.3.87-.01.03 0 .06.03.06zm-.47-.14c.03 0 .08-.03.1-.07.05-.2.14-.73-.34-1-.03-.01-.07 0-.1.04-.02.04-.01.08.01.1.43.23.34.7.3.86-.02.04 0 .07.03.07z"/><path d="M8.2 42.23c.03 0 .07-.03.09-.08.05-.2.15-.72-.33-1a.12.12 0 00-.1.05c-.02.04-.02.08 0 .1.44.23.35.7.3.86-.01.03 0 .06.03.07z"/></g><g stroke-width=".58"><path fill="#029d77" d="M10.07 44.6a.4.4 0 00.1-.11l.44-.66-.44.66a.4.4 0 01-.1.1z"/><path fill="#3079bf" d="M9.9 44.65a.16.16 0 01-.1-.03L9.06 44c-.07-.06-.06-.18.02-.23.4-.22.7-.3.95-.3s.43.08.56.17c.05.04.07.12.03.18l-.44.66a.4.4 0 01-.1.1.3.3 0 01-.16.06z"/><path fill="#fff" d="M16.53 46.26l4.65.67c.06 0 .13-.04.14-.1l.04-.26a.12.12 0 00-.11-.14l-4.65-.67a.13.13 0 00-.14.1l-.04.26c0 .07.04.13.1.14z"/><path fill="#318ff1" d="M21.38 44.9l-.05 1.4c0 .18-.12.32-.25.3l-4.31-.6c-.11-.02-.21-.1-.25-.25-.04-.14-.02-.35.21-.6.46-.48 1.71-.45 2.41-.8a.13.13 0 01.08-.02l1.97.28c.11.02.2.14.19.3z"/></g><g fill="#fff" stroke-width=".58"><path d="M19.37 45.16c.03-.02.05-.07.04-.1-.06-.21-.25-.71-.8-.7-.04 0-.07.05-.07.09 0 .04.02.08.06.07.5-.01.66.43.7.6 0 .03.04.05.07.04zm-.47.11c.02-.01.04-.06.03-.1-.05-.2-.25-.7-.8-.69-.03 0-.06.04-.06.08 0 .05.02.08.05.08.5-.02.66.42.7.6.01.03.04.05.07.03z"/><path d="M18.45 45.38c.03-.01.05-.07.04-.1-.06-.21-.25-.71-.8-.7-.04 0-.06.05-.06.1 0 .04.02.07.05.07.5-.02.66.42.7.59.01.04.04.05.07.04z"/></g><g stroke-width=".58"><path fill="#f8d7ca" d="M21.28 46.5v-.02.01z"/><path fill="#02ac98" d="M21.33 46.36zm0-.02zm0 0zm0-.01zm0-.02l.03-.79z"/><path fill="#3079bf" d="M21.1 46.6h-.02l-.96-.13a.14.14 0 01-.1-.2c.4-.73.83-.89 1.14-.89h.08c.06 0 .12.07.12.14l-.03.79v.04a.39.39 0 01-.04.13l-.01.01c-.05.07-.11.12-.18.12z"/><path fill="#232222" d="M13.9 36.62s-3.79 3.02-4.68 4.53c0 0 .42 1.5 1.98 2.4 0 0 4.1-3.43 4.56-3.64.46-.2 3.5-.3 3.5-.3s3.56-3.5 3.56-3.52c0-.02-.21-1.44-.37-1.44l-5.83-.32-2.05 1.63z"/><path fill="#333" d="M30.6 35.04s.77 3.5-2.7 4.05c-3.45.55-4.83.66-4.83.66l-1.2 5.33s-1.77-.16-3.26-.8c0 0-1.41-7.02 3.3-9.35a9.43 9.43 0 018.7.11z"/><path fill="#f9cfd2" d="M30.42 28.75c-.97-.63-3.3.6-4 1-.04.04-10.93 3.38-11.4 3.4a3.49 3.49 0 01-2.44-1.07c-.41.56-1.64 2.07-3.42 3.02l-.17.2s2.04 2.17 5.27 2.45c3.23.29 13.71-5.67 13.71-5.67.9-.17 1.86-.24 2.18.12.7.76 1.49-.51 1.55-.98a2.79 2.79 0 00-1.28-2.47z"/><path fill="#d73330" d="M12.93 31.6a192.81 192.81 0 00-2.25-2.94 67 67 0 00-2.38-2.84 149.72 149.72 0 014.43 5.84c-.24.42-.55.8-.88 1.16a9.38 9.38 0 01-1.14 1.03 17.35 17.35 0 01-2.5 1.67l-.07-.08-.1-.15-.2-.32-.19-.32-.17-.33a36.4 36.4 0 01-1.3-2.69l-.6-1.37a43.98 43.98 0 001.76 4.13l.17.34.18.33.2.32.1.16.12.15.04.06.07-.03A18.47 18.47 0 0010.84 34c.4-.33.8-.67 1.16-1.05.36-.38.68-.8.94-1.25l.03-.06z"/><path fill="#f9cfd2" d="M29.17 37c1.07.2 1.53 1.46.84 2.3a4.4 4.4 0 01-1.5 1.2c-1.26.58-3.68.26-4.34-.9-.67-1.16-.3-1.08-.3-1.08s-.39-.72.06-.92c0 0-.07-.54.3-.58 0 0 .24 0 .43.16 0 0 .05-.34.43-.26.4.07 1.9 1.25 3.13 1.34.98.07.15-.73-.25-1.07-.18-.16-.3-.37-.34-.6a.7.7 0 010-.2c.01-.15.2-.2.3-.08.16.22.44.55.76.6l.48.09z"/></g><path fill="#f6ada0" stroke-width=".58" d="M23.99 38.51c.13.1.41.43.8.67l.35.23.33.17c.1.06.17.1.23.12l.09.05a.06.06 0 00.07-.01.06.06 0 00.01-.07.06.06 0 00-.03-.03l-.1-.04-.22-.11-.33-.17a10.8 10.8 0 00-.35-.21c-.43-.24-.74-.58-.85-.65a.6.6 0 000 .05zm.31-.5c.14.09.48.37.88.6l.36.22.33.18.23.12.1.04a.06.06 0 00.06-.01l.01-.02v-.05a.06.06 0 00-.02-.03l-.1-.04-.23-.11-.33-.17a6.7 6.7 0 01-.37-.2c-.4-.22-.75-.48-.9-.57l-.02.04zm.5-.41l.2.13c.18.12.38.28.62.43l.96.6h.05a.06.06 0 00.04-.02v-.03a.06.06 0 00-.03-.06l-.97-.56c-.25-.14-.46-.3-.64-.4l-.18-.11-.06.02z"/><path fill="#fff" stroke-width=".58" d="M28.03 36.31c-.07-.07-.15-.11-.19-.08-.03.03 0 .12.07.2.07.07.15.1.19.08.03-.04 0-.12-.07-.2zm-4.21 1.51c-.04.02-.03.11.03.2.05.08.13.13.17.1.04-.02.03-.1-.03-.2-.06-.08-.13-.13-.17-.1zm-.01.85c-.03.02-.03.1.02.18.05.08.12.13.15.11.04-.02.03-.1-.01-.18-.05-.08-.12-.13-.16-.11zm.36-1.37c-.03.02 0 .11.07.19.07.07.15.1.19.07.03-.03 0-.11-.07-.19-.07-.07-.16-.1-.19-.08zm.87-.14c-.1-.04-.19-.04-.21 0-.02.04.04.1.13.15.1.05.2.05.21 0 .02-.04-.04-.1-.13-.15z"/><g stroke-width=".58"><path fill="#f6ada0" d="M26.52 20.49c-.33.87-1.46.4-1.8 0h1.8z"/><path fill="#f9cfd2" d="M42.5 82.07l4.73-1.12 2.24 11.14 1.4.37.55.15.33.42s-.36.11-.35.18c.01.07-.58.33-1.14.48s-.52.15-1.43.45c-.9.3-.8.05-.96.03-.11-.02-.28-.32-.37-.53h-.03l-.27-.83z"/><path fill="#dceaf4" d="M48.24 85.84l1.23 6.13 1.4.37.55.15.33.41s-.36.12-.35.19c.01.07-.58.33-1.14.48-.56.14-.52.15-1.43.45-.9.3-.8.04-.96.02-.11-.01-.28-.32-.37-.52l-.03-.01-.27-.82-2.46-5.62c1.5-.3 2.76-.86 3.5-1.23z"/><path fill="#4a368c" d="M49.99 93.5c.96-.21 1.33-.55 1.43-.89l.76.2c.3.09.31.5.02.6l-4.1 1.3a.28.28 0 01-.34-.18l-.35-1.09c.35.19 1.09.37 2.58.05z"/><path fill="#f9cfd2" d="M40.11 81.12l-4.85.37 1.34 11.28-1.2.78-.49.31-.18.5s.38 0 .39.06c0 .07.65.14 1.23.11.58-.03.54 0 1.5 0 .96.01.77-.2.93-.27.1-.04.16-.38.18-.61l.03-.01v-.87z"/><path fill="#f5821f" d="M47.67 57.02c-.43-1.09-.84-.66-1.6-1.97-.12-.2-.2-.47-.27-.72a3.65 3.65 0 00-1.17-1.92c-1.78-1.52-3.8-.84-3.8-.84l.62 3.53-.9 1.21s-.94 4.83.54 5.24c1.47.4 1.74-.25 2.46-.59.73-.34 1.43.6 2.5-.06.83-.5.41-1.72.85-1.95.43-.23 1.22-.77.77-1.93z"/><path fill="#f5821f" d="M37.62 52.65s-.78 1.15-1.17 1.6c-1 1.15-1.6.8-2.21 1.78-.67 1.06 0 1.73.39 2.03.38.31-.26 1.45.46 2.08.93.83 1.8.05 2.44.52.65.46.79 1.15 2.32 1.02 1.52-.13 1.5-5.05 1.5-5.05s-1.24-2.6-1.3-2.63l-2.43-1.35z"/><path fill="#f9cfd2" d="M57.92 56.62c-.02-.1 1.02-1 .9-1.03-.12-.03-1.17.68-1.2.61-.04-.07.97-.92.85-1.05-.12-.12-1.2.84-1.26.7-.05-.14 1.08-1.1.95-1.2-.11-.08-1.4.96-1.81 1.3a.09.09 0 01-.14-.06c-.12-1.03-.2-1.1-.3-1.06-.08.02-.4 1.2-.63 2.05-3.91 4.08-10.61 6.92-10.61 6.92s-2.41 5.8.98 4.56c2.98-1.07 9.1-7.93 10.56-9.6l.58-.56.36-.23c1.83-1.45 1.8-1.49 1.75-1.56-.04-.08-.97.3-.98.2zm-33.98 0c.02-.1-1.02-1-.9-1.03.12-.03 1.17.68 1.2.61.04-.07-.97-.92-.85-1.05.12-.12 1.2.84 1.26.7.05-.14-1.08-1.1-.95-1.2.11-.08 1.4.96 1.81 1.3.05.04.13.01.14-.06.12-1.03.2-1.1.3-1.06.08.02.4 1.2.63 2.05C30.5 60.96 37.2 63.8 37.2 63.8s2.41 5.8-.98 4.56c-2.98-1.07-9.1-7.93-10.55-9.6l-.6-.56-.35-.23c-1.83-1.45-1.8-1.49-1.75-1.56.04-.08.97.3.98.2z"/><path fill="#5d58a2" d="M49.62 60.8l-4.78 1.82-1.11 2.92s-.15 3.3 1.77 3.26c1.91-.03 5.58-4.1 5.58-4.1-.12-1.73-1.46-3.9-1.46-3.9zm-12.28 1.82l-4.38-1.59s-1.74 2.32-1.87 4.05c0 0 3.68 3.7 5.6 3.72 1.91.03 1.76-3.26 1.76-3.26z"/><path fill="#f9cfd2" d="M39.82 63.53h2.77V60.8h-2.77z"/><path fill="#eea8a8" d="M42.59 62.43V60.8h-2.77v1.39c.6.32 1.48.5 2.77.24z"/><path fill="#f9cfd2" d="M45.93 56.33a.87.87 0 00-.77.03 3.92 3.92 0 00-4.1-4.04 3.92 3.92 0 00-4.1 4.04.87.87 0 00-.77-.03c-.46.22-.6.87-.32 1.43.28.57.89.85 1.35.63a.76.76 0 00.17-.12 3.7 3.7 0 007.34 0l.17.12c.46.22 1.07-.06 1.35-.63.28-.56.14-1.2-.32-1.43z"/><path fill="#f6ada0" d="M43.56 53.07s-2.62 3.14-6.54 3.44c-.06-.07-.09-.32-.18-.34l.22-.22z"/><path fill="#eea8a8" d="M40.27 59.86s.5 1.2 1.54.1c0 0-.77.34-1.55-.1z"/></g><path fill="none" stroke="#eea8a8" stroke-linecap="round" stroke-miterlimit="10" stroke-width=".23" d="M36.49 57.03s-.22.11-.16.4c.06.3.49.3.49.3m8.75-.86c.03 0 .4-.14.34.42-.05.55-.28.41-.28.41m-4.45-.62s-.09.85-.24 1.15c-.14.3-.02.4.35.43"/><g stroke-width=".58"><path fill="#f5821f" d="M38.7 55.95h.02l.04-.01.16-.03.21-.02h.25l.13.01c.04 0 .08 0 .12.02l.12.02h.05l.05.02.21.06c.04.02.08.05.1.09.02.04.02.08 0 .12a.17.17 0 01-.07.1.16.16 0 01-.13.01h-.03l-.17-.07-.04-.02-.05-.01-.1-.03a.72.72 0 00-.1-.02l-.11-.02-.23-.02h-.2l-.13.02h-.05a.11.11 0 01-.13-.08.12.12 0 01.09-.14zm3.53-.03h.06a1.67 1.67 0 01.36-.05 2.27 2.27 0 01.48 0l.11.03.1.03.09.03.06.02.05.03a.12.12 0 01.06.14.11.11 0 01-.13.07h-.01l-.05-.02-.05-.02-.07-.01-.09-.02h-.1a1.44 1.44 0 00-.41.01l-.18.04a.96.96 0 00-.13.04h-.04a.17.17 0 01-.13 0 .17.17 0 01-.08-.23.17.17 0 01.09-.09z"/><path fill="#eea8a8" d="M39.02 59.26c.24 0 .44-.19.44-.43 0-.23-.2-.43-.44-.43s-.43.2-.43.43c0 .24.2.43.43.43zm4.37-.16a.44.44 0 000-.87c-.24 0-.44.2-.44.43s.2.43.44.43z"/><path fill="#f9cfd2" d="M37.35 62.62s4.5 2.93 7.49 0z"/><path fill="#333" d="M39.8 57.18c.02.2-.1.35-.24.36-.14.01-.27-.13-.27-.32-.01-.19.1-.35.24-.36.15-.01.27.13.28.32zm3.15 0c.01.2-.1.35-.25.36-.14.01-.26-.13-.27-.32 0-.19.1-.35.25-.36.14-.01.26.13.27.32z"/><path fill="#5d58a2" d="M44.84 62.62c-1.45 1.06-6.04 1.06-7.49 0 0 0-3.19 18.5-5.23 21.62 0 0 2.69 2.5 5.81.92 0 0 3.56 2.03 6.9-.02 0 0 2.71 1.6 5.52-.9-2.04-3.13-5.51-21.62-5.51-21.62z"/><path fill="#4a368c" d="M35.96 68.66l.14-.73.16-.72.18-.71.1-.36.1-.35-.06.36-.07.37a25.06 25.06 0 01-.55 2.14zm10.25 0l-.13-.73-.16-.72-.18-.71-.1-.36a3.57 3.57 0 01-.1-.35l.06.36.07.37a22.83 22.83 0 00.54 2.14z"/><path fill="#f5821f" d="M36.96 56.36s4.9-.9 6.67-3.38c0 0-1.36-2.71-4.5-1.3-3.16 1.4-2.72 3.33-2.17 4.68z"/><path fill="#fff" d="M36.52 81.12c1.13.19 2.51.33 4.1.33 2.33 0 5.11-.3 8.27-1.18l-.5-1.58a27.12 27.12 0 01-11.51.81 19.98 19.98 0 01-2.86-.67c-.17.55-.33 1.08-.5 1.58.83.26 1.83.51 3 .7zm-.02-3.62a24 24 0 004.12.33c2.11 0 4.51-.24 7.3-.94-.14-.53-.28-1.26-.43-1.8-4.58 1.14-8.17 1.17-10.63.76-.75-.12-1.42-.27-2.02-.43l-.44 1.62c.62.17 1.33.33 2.1.46z"/><path fill="#dceaf4" d="M35.86 86.45l.74 6.2-1.2.78-.49.3-.18.5s.38 0 .39.07c0 .07.65.14 1.23.11.58-.03.54 0 1.5 0 .96.01.77-.2.93-.27.1-.05.16-.38.18-.61l.03-.02v-.86l.58-6.09c-1.52.16-2.9.02-3.7-.11z"/><path fill="#4a368c" d="M36.55 94.26c-.98.1-1.44-.11-1.64-.4l-.66.43c-.26.16-.14.56.17.56h4.3c.14 0 .27-.12.27-.27v-1.14c-.28.28-.93.67-2.44.82z"/><path fill="#f5afaa" d="M55.04 11.93c.52 0 1.46-.52.22-.24-.14.03-.31.07-.52 0-1.01-.19-.23.24.3.24z"/><path fill="#f9cfd2" d="M91.34 80.64l1.7 11.89 2.38.2-.05-.32.66-11.93zM83.83 92.4c.03-.25-.77-13.24-.77-13.24s5.3.83 5.24.71c-.07-.12-2.17 13.04-2.17 13.04z"/><path fill="#1e1e1e" d="M83.06 72.21s-.68 6.78-.43 8.93c0 0 3.09 1.06 5.96.35l.95-5.36s1.32 4.87 1.47 5.6c0 0 4.07.02 5.8-.21l-.53-8.75-7.98-.82z"/><path fill="#dceaf4" d="M83.56 87.34c.15 2.65.29 4.95.27 5.05l2.3.52.85-5.25c-1.57.02-2.76-.17-3.42-.32z"/><path fill="#feb546" d="M86.36 92.78l.21 1.6c.03.19-.08.36-.23.36l-5.2-.03a.39.39 0 01-.34-.24c-.07-.15-.09-.39.14-.7.46-.63 1.99-.78 2.73-1.31l2.42.01c.13 0 .25.13.28.31z"/></g><g fill="#dceaf4" stroke-width=".58"><path d="M84.06 93.32c.03-.03.05-.09.02-.13-.02-.06-.53-.74-1.07-.65-.04 0-.06.05-.06.1s.04.08.08.08c.58-.1.86.38.94.56.02.04.05.05.08.04zm-.54.2c.03-.03.05-.09.03-.13-.1-.22-.43-.75-1.08-.65-.04 0-.06.05-.06.1.01.05.05.09.08.08.58-.1.85.44.93.63.02.03.07-.02.1-.03z"/><path d="M83.02 93.7c.03-.02.05-.08.02-.13-.1-.21-.42-.75-1.07-.64-.04 0-.06.05-.06.1.01.05.05.08.08.08.48-.08.93.53.94.56.02.04.06.05.09.03zm12.61-6.07c-1.22.07-2.45-.03-3.31-.13l.72 5.03 2.38.2-.05-.32z"/></g><path fill="#feb546" d="M95.63 92.78l.21 1.6c.03.19-.08.36-.23.36l-5.2-.03a.39.39 0 01-.34-.24c-.07-.15-.1-.39.14-.7.46-.63 1.98-.78 2.73-1.31l2.42.01c.13 0 .25.13.27.31z"/><g fill="#dceaf4" stroke-width=".58"><path d="M93.32 93.32a.1.1 0 00.03-.13c-.03-.06-.53-.74-1.07-.65-.04 0-.07.05-.06.1 0 .05.04.08.08.08.58-.1.85.38.94.56.02.04.05.05.08.04zm-.54.2a.1.1 0 00.03-.13c-.02-.06-.53-.74-1.07-.65-.04 0-.06.05-.06.1s.04.09.08.08c.58-.1.86.38.94.56.02.04.05.05.08.04z"/><path d="M92.29 93.7c.03-.02.05-.08.02-.13-.1-.21-.42-.75-1.07-.64-.04 0-.06.05-.06.1.01.05.04.08.08.08.48-.08.93.53.94.56.02.04.05.05.09.03z"/></g><path fill="#1e1e1e" stroke-width=".58" d="M92.44 88.3l.05.37a6.69 6.69 0 003.09-.07l.02-.36c-1.26.36-2.4.24-3.16.07zm.12.86l.05.36a6.68 6.68 0 002.92-.08l.02-.36a6.4 6.4 0 01-2.99.08zm-8.9-.06l.02.39a7.25 7.25 0 002.98.13l.07-.4a6.96 6.96 0 01-3.07-.13zm-.06-.94l.03.4a7.26 7.26 0 003.18.15l.06-.4a6.98 6.98 0 01-3.27-.15z"/><g stroke-width=".58"><path fill="#f9cfd2" d="M72.41 63.94a.07.07 0 01-.12.04 8.02 8.02 0 00-1.4-1.17c-.12.07.75.93.7 1.04-.06.11-.89-.74-1-.65-.1.1.68.86.65.91-.03.06-.86-.58-.96-.56-.1.02.7.81.68.89-.01.08-.75-.29-.79-.23-.04.06-.08.1 1.34 1.38l.82.76.45-.13.48-.7s-.45-2.4-.54-2.44c-.09-.04-.15.02-.31.86z"/><path fill="#f9cfd2" d="M82.24 65.77l-2.48-1.95-.46.73a7.24 7.24 0 01-2.4 3.11c-.77.34-3.9-2.92-3.9-2.92l-.84 1.37s3.39 5.03 5.5 4.14c2.1-.9 4.4-4.09 4.4-4.09z"/><path fill="#ffc0bb" d="M89.26 57.38l-.02 1.6-2.44-.09-.2-2.3z"/><path fill="#00792a" d="M82.06 66.36c-.3-6.37 1-7.33 1-7.33a.72.72 0 00-.21.12c-.85.63-4.38 5.12-4.38 5.12s1.44 2.16 3.6 2.1z"/><path fill="#f9cfd2" d="M103.15 71.12l-.74-.5-.3-.63c-1.01-2.76-3.34-5.75-5.42-8.04l-2.08 1.65a98.96 98.96 0 016.17 7.56l.04.1.32 1.15c.28.93.52 1.94.6 1.97.13.03.2-.05.3-1.19 0-.07.1-.1.15-.06.46.35 1.92 1.45 2.04 1.36.14-.11-1.14-1.13-1.08-1.29.05-.15 1.27.87 1.4.73.13-.15-1.01-1.04-.98-1.12.04-.08 1.22.66 1.35.62.13-.04-1.04-.98-1.03-1.1.02-.1 1.05.29 1.09.2.04-.08.23.11-1.83-1.41z"/><path fill="#00792a" d="M94.93 65.77s2.75-1.6 3.4-3.22c0 0-3.9-3.8-4.83-4.05-1.03 1.52 1.43 7.26 1.43 7.26z"/><path fill="#009239" d="M93.5 58.5a48 48 0 00-4.02-.27s-.18 1.81-3.05.09c0 0-2.38.2-3.38.68 0 0-1.3.97-.99 7.34 0 0 .48 6.5.62 7.18 0 0 8.48 1.18 14.03-.4l-1.78-7.36s-2.46-5.74-1.43-7.26z"/><path fill="#f9cfd2" d="M86.5 57.9l-.27.42s-.2 2.12 2.26 1.93c2.14-.17 1.37-2.4 1.37-2.4s-3.36.1-3.36.05z"/><path fill="#f6ada0" d="M89.89 57.93l-.21-.08c-.7.03-3.18.1-3.18.05l-.27.41s-.19 2.08 2.18 1.94c-.92-.1-1.77-.78-.54-.71 1.25.07 1.94-1.4 2.02-1.6z"/><path fill="#f9cfd2" d="M88.22 58.33c2.27 0 4.1-2.06 4.1-4.6 0-2.55-1.83-4.61-4.1-4.61-2.26 0-4.1 2.06-4.1 4.6 0 2.55 1.84 4.61 4.1 4.61z"/><path fill="#f6ada0" d="M87.95 49.53s-1.8 3.1-3.54 3.7a.45.45 0 00-.28-.03l.07-.32z"/><path fill="#ef7d00" d="M87.95 49.53s-3 4.2-4.64 3.4c-1.64-.8 2.55-7.25 4.09-5.14 0 0 2.02-2.16 4.84.94s.66 8.01-4.29.8z"/><path fill="#f9cfd2" d="M84.2 55.14c.47 0 .85-.44.85-.97 0-.54-.38-.98-.85-.98s-.85.44-.85.98c0 .53.38.97.85.97zm8.1 0c.47 0 .85-.44.85-.97 0-.54-.38-.98-.85-.98s-.85.44-.85.98c0 .53.38.97.85.97z"/><path fill="#f6ada0" d="M87.77 56.65s1.5.9 1.97-.8c0 0-.7.79-1.97.8z"/></g><path fill="none" stroke="#f6ada0" stroke-linecap="round" stroke-miterlimit="10" stroke-width=".23" d="M84.23 53.75s-.42.03-.33.5c.1.47.49.3.49.3m7.94-.77c.03 0 .41-.13.35.4-.05.53-.29.4-.29.4"/><path fill="#4a368c" d="M86.9 54.03c.15 0 .26-.15.26-.33 0-.19-.11-.33-.25-.33-.15 0-.26.14-.26.33 0 .18.11.33.25.33zm2.93-.1c.13 0 .25-.14.25-.3s-.12-.32-.25-.32c-.14 0-.25.14-.25.31s.1.31.25.31z"/><path fill="none" stroke="#f6ada0" stroke-linecap="round" stroke-miterlimit="10" stroke-width=".23" d="M88.39 53.37s-.02 1.02-.17 1.32c-.15.3-.1.48.27.5"/><g stroke-width=".58"><path fill="#ef7d00" d="M88.67 49.1c-.34-.96-.29-1.53-.13-1.96a2.6 2.6 0 00-1.14.65c-1.54-2.1-5.73 4.35-4.1 5.15 1.64.8 4.65-3.4 4.65-3.4 1.5 2.19 2.76 3.26 3.69 3.6a9.52 9.52 0 01-2.97-4.04z" opacity=".5" style="mix-blend-mode:multiply"/><path fill="#f6ada0" d="M91.83 54.97V55c.07.12.15.22.25.3l.05-.18-.3-.14zm-7.45.37c.1-.1.17-.22.22-.36a.59.59 0 01-.28.15l.06.21z"/><path fill="#eb5d53" d="M86.06 52.5h.02l.04-.03a.64.64 0 01.14-.06l.2-.08.24-.07.13-.02.12-.02.12-.01h.32a.16.16 0 01.16.17c0 .05-.02.09-.05.12a.16.16 0 01-.12.05h-.03l-.18-.02-.05-.01h-.25l-.12.02c-.07 0-.15.03-.22.04a2.17 2.17 0 00-.35.12h-.01a.11.11 0 01-.15-.05.12.12 0 01.05-.15zm3.2-.27h.21c.06 0 .13 0 .21.02a2.3 2.3 0 01.47.12l.1.04.1.05.07.04.06.04.05.04a.11.11 0 01-.04.2l-.08-.01h-.01l-.05-.03-.04-.03-.07-.03-.08-.03a1.44 1.44 0 00-.5-.1h-.19l-.13.01h-.04c-.05.01-.1 0-.13-.03a.17.17 0 01-.03-.24.17.17 0 01.1-.06z"/><path fill="#f6ada0" d="M85.97 55.9c.28 0 .5-.22.5-.5a.5.5 0 10-.99 0c0 .27.22.5.5.5zm4.81 0c.27 0 .49-.22.49-.5a.5.5 0 10-.99 0c0 .27.22.5.5.5z"/><path fill="#fff" d="M78.81 63.84l-.34.43s1.44 2.16 3.6 2.1l-.03-.6a6.23 6.23 0 01-3.23-1.93zm18.89-1.89a6.7 6.7 0 01-3.1 3l.33.81s2.75-1.6 3.4-3.21l-.64-.6z"/><path fill="#e2e4c3" d="M96.7 73.11l-.46-1.91z"/><path fill="#00792a" d="M89.34 73.94c-3.62 0-6.66-.42-6.66-.42-.14-.68-.62-7.18-.62-7.18v-.17a28.76 28.76 0 01-.04-1.67c0-4.72 1.03-5.5 1.03-5.5h.01c.27-.13.59-.2.93-.24-.21 1.98-.73 12.29 12.25 12.44l.47 1.91a28 28 0 01-7.37.83z"/></g><path fill="#333" stroke-width=".58" d="M57.7 92.67c.06-.03.08-.13.05-.2-.15-.33-.63-1.15-1.62-1-.06.02-.1.09-.09.17.01.07.06.12.12.11.76-.12 1.45.96 1.41.87.03.06.08.08.13.05zM24.47 18.31c.01.15-.1.28-.26.29a.28.28 0 01-.29-.26c0-.15.1-.28.26-.28.15-.01.29.1.3.25zm2.63 0a.3.3 0 01-.27.29.28.28 0 01-.29-.26c0-.15.1-.28.26-.28.15-.01.28.1.3.25z"/><path fill="none" stroke="#f6ada0" stroke-linecap="round" stroke-miterlimit="10" stroke-width=".23" d="M25.49 18.23s-.04.53-.13.8c-.1.26-.02.52.3.57"/><path fill="#333" stroke-width=".58" d="M54.23 9.73c0 .15-.1.28-.26.29a.28.28 0 01-.3-.26.3.3 0 01.27-.29c.15 0 .28.1.3.26zm2.38-.43c0 .16-.1.29-.26.3a.28.28 0 01-.3-.26.3.3 0 01.27-.29c.15 0 .28.1.29.26zm-.47-.69c-.13.04-.37.15-.4.06-.02-.03 0-.06.03-.08.23-.17.52-.26.75-.28.22-.02.3-.02.46.04.07.03.11.05.11.13 0 .1-.22.02-.33.02-.26 0-.48.07-.62.11zm-2.19.37c.15 0 .42.03.43-.07.01-.04-.02-.07-.05-.08-.3-.1-.62-.12-.86-.06-.23.06-.32.08-.46.2-.06.06-.1.1-.08.18.03.11.24-.05.35-.09.27-.09.52-.08.67-.08z"/><path fill="none" stroke="#f6ada0" stroke-linecap="round" stroke-miterlimit="10" stroke-width=".23" d="M55.15 9.6s.2.65.37.83c.17.19.16.22-.14.37"/><path fill="none" stroke="#f6ada0" stroke-linecap="round" stroke-width=".23" d="M67.08 8.01c-.05.5-.23 1.55-.49 1.74-.33.24.33.47.41.55"/></svg>
