<svg xmlns="http://www.w3.org/2000/svg" viewBox="0 0 90 110"><path fill="#e8f1f7" d="M67.7 26.53l-7.26 4.6a40.71 40.71 0 00-41.09 1.54C.05 44.9-5.79 70.67 6.29 90.23a40.89 40.89 0 0056.8 13.24C82.36 91.23 88.21 65.46 76.13 45.9a41.5 41.5 0 00-9.37-10.61z"/><path fill="#f2b2a4" d="M64.4 76.75l1 8.04 12.1-10.45 6.62 1.62S77.3 90.48 71.9 96.23s-8.3 6.56-10.33 6.65c-2.8.13-4.07-3.32-4.07-3.32l-1.22-19.98z"/><path fill="#575757" d="M78.67 53.97h9.1c1.39 0 2.62 1.61 2.12 2.94l-9.16 18.07a2.07 2.07 0 01-1.84 1.14l-11.1-.02c-1.28-.18-1.74-1.6-1.21-2.38l8.83-17.7a3.62 3.62 0 013.26-2.05z"/><path fill="#2d2e2d" d="M79.29 55.05h9.1a1.54 1.54 0 011.36 2.25l-8.94 17.68a2.07 2.07 0 01-1.84 1.14H67.99a.9.9 0 01-.8-1.32l8.84-17.7a3.62 3.62 0 013.26-2.05z"/><path fill="#f2b2a4" d="M80.06 62.46l5.54 2.24 1.19 4.52-2.67 6.74-9.8 1.44 2.87-2.97-.36-2.58s-2.73-.87-2.8-1.3c-.07-.42.34-1.84.75-1.9.42-.08 3.29 1 3.29 1s-3.4-2.72-3.3-3.15c.1-.44.46-1.56 1.14-1.68.67-.12 6.15 2.49 6.15 2.49l.89 2.05.77-3.28s-4.86-1.38-3.66-3.62z"/><path fill="#d8816e" d="M79.36 73.06c.04.01.14-.2.19-.56a3.03 3.03 0 00-.95-2.6c-.27-.24-.48-.33-.5-.3-.06.06.67.6 1.02 1.59.37.98.16 1.86.24 1.87zm2.64-.97c.03-.02-.17-.55-.23-1.48-.04-.45-.06-1.02-.27-1.62-.11-.3-.27-.61-.51-.87a2.53 2.53 0 00-.91-.58 95.33 95.33 0 00-3.4-1.17 7.64 7.64 0 00-1.42-.4c-.02.04.5.26 1.36.6.85.33 2.05.76 3.35 1.24.32.12.6.28.81.5.22.22.36.5.47.77.2.55.26 1.1.32 1.56.11.93.39 1.47.42 1.45zm1.27-1.02c.07-.01.06-.51-.04-1.1-.1-.6-.24-1.08-.32-1.07-.07.02-.06.51.04 1.1.1.6.24 1.08.32 1.07z"/><path fill="#fafaf9" d="M83.42 58.46c0 .65-.52 1.18-1.16 1.18s-1.16-.53-1.16-1.18c0-.65.52-1.17 1.16-1.17s1.16.52 1.16 1.17z"/><path fill="#2d2e2d" d="M49.4 10.9c3.07 8.45 6.47 17.4 13.6 22.81a3.7 3.7 0 01-2.74-.4c1.56 2.55 3.14 5.14 3.94 8.03.8 2.88.73 6.15-.88 8.67l-.56-.96c1.78 6.14-.99 13.33-6.42 16.65-2.35 1.43-5.48 2.13-7.78.62-1.74-1.15-2.57-3.26-3.29-5.24l-14.04-38.5c-1.3-3.57-2.63-7.36-1.99-11.12a11.15 11.15 0 018.33-8.78c4.16-.93 8.79.9 11.22 4.42"/><path fill="#f2b2a4" d="M40.05 6.12c6.32.3 11.29 5.58 11.3 11.99.01 4.97-.06 10.37-.38 13.57-.72 7.46-6.25 8.74-6.25 8.74s.17 4.63.42 9.02c.23 4.19-3.16 7.87-7.57 8.23-4.38.36-8.12-2.68-8.42-6.82l-1.48-32.17A11.93 11.93 0 0140.05 6.12z"/><path fill="#d8816e" d="M44.75 40.42s-4.96.45-10-2.21c0 0 2.73 5.3 10.05 4.34z"/><path fill="#17282f" d="M35.86 18.06c.12.18.85-.13 1.77-.33.91-.21 1.7-.25 1.73-.47.05-.2-.82-.52-1.9-.27-1.07.24-1.72.91-1.6 1.07z"/><path fill="#2d2e2d" d="M17.29 51.43s2.59-5.21.97-9.9c-1.61-4.67-1-8.18 1.34-10.02 1.63-1.29 1.83-3.42 1.68-5.11-.27-2.83-.27-5.68.18-8.48.65-4.05 1.81-8.35 4.2-11.52 3.12-4.14 8.76-7.9 13.45-5.8 2.18.98 3.29.92 5.56 3 0 0 2.09.13 3.19.3 3.8.6 6.27 4.72 6.71 7.74 1.03 6.97-2.76 8.96-3.15 13.7 0 0-.69-9.88-1.55-12.42a8.4 8.4 0 00-3.74-4.35c-2.81.27-3.88 1.95-4.79 4.66-.91 2.71-1.4 4.86-3.64 6.6-2.1 1.66-3.62 4.43-7.47 3.04 0 0-1.2 2.29-.78 4.7.42 2.4 3.06 3.07 2.38 7.15-.67 4.08-3.12 7.42-3.05 8.94"/><path fill="#2d2e2d" d="M25.14 7.14c-1.6 2.46-2.82 4.42-4.67 6.49-1.85 2.06-3.7 4.43-3.82 7.21-.1 2.03.73 4.16-.06 6.02-.68 1.59-2.33 2.47-3.57 3.66a8.64 8.64 0 00-2.23 8.4c.53 1.86 1.72 3.7 1.3 5.59-.37 1.66-1.88 2.85-2.34 4.48-.45 1.55.14 3.2.83 4.67 1.05 2.23 2.61 4.53 5 5.07a5.83 5.83 0 004.67-1.18c1.33-1 2.31-2.4 3.12-3.88a23.88 23.88 0 002.8-9.19c.37-3.85-.2-7.72-.58-11.57-.68-7.05-.69-14.17-.01-21.23.16-1.72.84-3.4-.44-4.54z"/><path fill="#f2b2a4" d="M31.83 23.98c-.02-.5-1.28-1.4-1.76-1.39-1.12.03-2.92.56-2.95 3.7-.04 4.47 4.14 3.15 4.15 3.03 0-.1.65-3.61.56-5.34z"/><path fill="#d8816e" d="M30.22 27.6c-.02 0-.08.06-.21.12a.76.76 0 01-.57 0c-.47-.17-.86-.93-.87-1.73 0-.41.08-.8.23-1.12.13-.32.35-.55.58-.59.23-.05.4.1.45.22.06.12.03.21.06.22 0 .01.09-.07.06-.26a.5.5 0 00-.17-.28.57.57 0 00-.43-.12c-.34.02-.65.34-.8.69-.19.35-.3.79-.29 1.24.02.9.47 1.75 1.1 1.95.32.08.58-.01.71-.12.14-.1.16-.2.15-.21z"/><path fill="#fff" d="M27.64 29s-.12.13-.28.4c-.14.25-.34.68-.33 1.25.02.57.35 1.24.96 1.67.6.42 1.5.63 2.3.27a2.35 2.35 0 001.35-1.91 1.99 1.99 0 00-.76-1.76 2 2 0 00-1.2-.47c-.31 0-.47.07-.47.08 0 .03.17 0 .46.02.29.04.7.16 1.1.5.38.34.72.92.64 1.6-.06.67-.5 1.4-1.21 1.7-.71.32-1.53.15-2.08-.23a2 2 0 01-.9-1.48 2.4 2.4 0 01.23-1.2l.2-.43z"/><path fill="#e84842" d="M40.47 57.29c1.6-4.94 5.48-9.97 9.75-8.15 4.75 2.02 6.07 4.57 8.68 8.54 2.6 3.96 4.2 8.5 5.78 12.99.61 1.75 3.83 9.8 2.88 11.4-.81 1.38-8.89 11.7-10.42 12.1-2 .54-3.05-2.98-4.11-6.5-1.04-3.46-2.1-6.91-4.1-6.53-1.61.3-3.39.56-4.82-.26-1.81-1.05-2.36-3.38-2.74-5.46l-3.98-21.85z"/><path fill="#e84842" d="M44.84 47.16l6.25 2.73c3.16 2.52 4.05 6.84 3.95 10.91l2.4 33.8.2 11.67s-18.41 10.13-38.99-3l3.43-9.2-6.23-21.97c-.45-3.2-.72-9.84.1-13 2.12-8.08 7.78-10.5 13.59-12.12 0 0 5.81 4.94 11.48 3.9 0 0 3.46-.32 3.82-3.72z"/><path fill="#c5403b" d="M32.62 106.8a9.3 9.3 0 01-5.2-1.55c-3-2.03-5.67-7.48-5.04-11.08.4.12.78.22 1.14.29l.46 1.34a9.52 9.52 0 0015.3 2.52l13.8-13.88-10.46 15.37c-1.41 2.07-2.88 4.2-4.97 5.55a9.28 9.28 0 01-5.03 1.45z"/><path fill="#f2b2a4" d="M34.79 80.57l.95 3.72 18.99-14.02 5.81-8.37a5.24 5.24 0 017.32-1.28l5.41 3.9s-.14 2.94-1.46 2.35-3.94-2.06-3.94-2.06l-.73 7.08-3.21 2.37-3.22 2.5-21.43 21.57a9.5 9.5 0 01-15.3-2.53l-3.17-9.14z"/><path fill="#d8816e" d="M67.9 65.17c.03-.02-.06-.25-.28-.57-.22-.32-.6-.77-1.2-.99-.63-.21-1.24 0-1.54.3-.3.3-.3.6-.27.6.05.01.11-.23.4-.44.28-.21.8-.36 1.31-.19.52.19.89.57 1.14.85.26.28.4.47.44.44zm-3.4 1.89c.04.03.18-.1.44-.25.26-.14.65-.3 1.1-.3.44 0 .83.16 1.08.31.26.15.4.28.44.25.03-.02-.07-.2-.32-.42a1.94 1.94 0 00-2.41 0c-.26.2-.35.4-.33.41z"/><path fill="#e84842" d="M27.4 47.43c-4.27 1.8-8.71 3.74-11.66 7.35-3 3.67-4.05 8.66-3.83 13.41.22 4.76.19 9.2 1.54 13.76.54 1.78 1.64 6.14 2.6 8.1 1.1 2.23 6.28 4.6 8.76 4.54 4.1-.1 6.05-7.91 9.74-9.7 1.48-.73 3.78-3.87 4.45-5.39.86-1.93-1.66-5.58-2.57-7.48l-9.58-20z"/><g fill="#cf413c"><path d="M35.31 84.38c-.01-.01.03-.14.11-.37.08-.23.24-.58.27-1.03a1.94 1.94 0 00-.59-1.46c-.44-.44-1.2-.6-1.98-.49l-.16.03-.03-.17a12.69 12.69 0 00-5.27-8.48 16.63 16.63 0 00-5.57-2.31 31.51 31.51 0 00-8.27-.81c-.8.01-1.24.03-1.24 0s.43-.1 1.23-.17 1.95-.13 3.38-.07 3.14.24 5 .65a16.5 16.5 0 015.72 2.34 12.62 12.62 0 015.35 8.8l-.19-.13c.86-.12 1.71.1 2.21.63.5.52.65 1.16.6 1.66-.08.5-.26.83-.37 1.05-.11.22-.18.33-.2.33z"/><path d="M26.18 87.73c-.1-.07 1.19-1.9 3.18-3.77 1.98-1.88 3.87-3.04 3.93-2.94.08.1-1.68 1.41-3.64 3.26-1.96 1.85-3.37 3.53-3.47 3.45z"/><path d="M25.38 87.9a7.41 7.41 0 012.88-4.57 19.4 19.4 0 014.66-2.51l.01.07.03.17.16-.03.33-.03-.32.22c.12-.11.18-.18.16-.2h-.01c-.2 0-2.01 1.14-3.92 2.95-.8.74-1.47 1.48-2 2.1l-.4.37-1.58 1.47z"/><path d="M32.96 81.06l-.03-.17-.01-.07.17-.08.42.22a3.5 3.5 0 01-.06.04l-.33.03z"/><path d="M27.36 86.06c.53-.62 1.2-1.36 2-2.1 1.9-1.8 3.73-2.95 3.92-2.95h.01c.02.03-.04.1-.16.2a56.12 56.12 0 00-5.77 4.85zM55.14 69.6c-.05 0 0-.65.3-1.63.28-.99.8-2.3 1.52-3.68 1.41-2.77 3-4.75 3.12-4.65.05.04-.3.55-.82 1.42-.52.86-1.21 2.07-1.92 3.43a36.31 36.31 0 00-1.62 3.58c-.35.94-.51 1.54-.58 1.53zm2.5 33.97a3.4 3.4 0 01-.13-.9c-.06-.6-.11-1.44-.17-2.49a238.27 238.27 0 010-18.88c.04-.59.08-.9.1-.9.03 0 .06.32.07.9a587.12 587.12 0 01.06 10.69l.08 8.18.03 2.48c0 .6-.01.92-.04.92z"/></g><g fill="#e7e8e5"><path d="M50.02 67.26c-.04.01-.26-.98-.49-2.2a16.88 16.88 0 01-.34-2.24c.04 0 .26.98.49 2.21.23 1.23.38 2.23.34 2.23z"/><path d="M51.36 64.28c.02.03-.71.37-1.65.69-.93.32-1.7.5-1.72.47-.01-.05.75-.3 1.68-.62.92-.32 1.68-.58 1.7-.54z"/><path d="M48.88 66.73c-.04-.02.24-.8.62-1.74.39-.94.73-1.7.77-1.68.04.02-.24.8-.63 1.74-.38.95-.73 1.7-.76 1.68z"/><path d="M51.35 66.31c-.03.04-.76-.46-1.63-1.11-.88-.65-1.57-1.2-1.55-1.24.03-.04.76.46 1.64 1.11.87.65 1.56 1.2 1.54 1.24zm3.61 26.94c-.04.01-.26-.98-.49-2.2a17.18 17.18 0 01-.34-2.24c.05 0 .26.98.5 2.2.22 1.23.37 2.23.33 2.24z"/><path d="M56.3 90.26c.02.04-.7.37-1.64.7-.94.31-1.71.5-1.73.46 0-.04.75-.3 1.68-.62.93-.31 1.68-.58 1.7-.54z"/><path d="M53.82 92.72c-.04-.02.24-.8.63-1.74.38-.94.73-1.7.77-1.68.03.02-.25.8-.63 1.74-.39.94-.73 1.7-.77 1.68z"/><path d="M56.29 92.3c-.02.03-.76-.47-1.63-1.12-.88-.65-1.57-1.2-1.54-1.24.02-.03.75.47 1.63 1.12.87.65 1.57 1.2 1.54 1.24zm5.77-9.32c-.05 0-.26-.98-.5-2.21a16.77 16.77 0 01-.33-2.24c.04 0 .26.98.49 2.21.23 1.23.38 2.23.34 2.24z"/><path d="M63.4 80c.02.03-.71.36-1.65.68-.93.33-1.7.51-1.72.47-.01-.04.75-.3 1.67-.61.93-.32 1.69-.59 1.7-.55z"/><path d="M60.91 82.44c-.04-.01.25-.8.63-1.74.39-.94.73-1.7.77-1.67.04.01-.24.79-.63 1.73-.38.95-.73 1.7-.77 1.68z"/><path d="M63.39 82.03c-.03.03-.76-.47-1.64-1.12a13.1 13.1 0 01-1.54-1.24c.03-.03.76.47 1.63 1.12.88.65 1.57 1.2 1.55 1.24zm-11.12-24.5c-.05 0-.26-.98-.5-2.21a16.82 16.82 0 01-.33-2.24c.04 0 .26.98.49 2.21.23 1.23.38 2.23.34 2.24z"/><path d="M53.61 54.54c.02.04-.71.37-1.65.7-.93.31-1.7.5-1.72.46-.01-.04.75-.3 1.67-.62.93-.31 1.69-.58 1.7-.54z"/><path d="M51.12 57c-.03-.02.25-.8.63-1.75.39-.94.73-1.7.77-1.68.04.02-.24.8-.63 1.74-.38.95-.73 1.7-.77 1.68z"/><path d="M53.6 56.58c-.03.03-.76-.47-1.63-1.12a12.9 12.9 0 01-1.55-1.24c.03-.03.76.47 1.63 1.12.88.65 1.57 1.2 1.55 1.24zM42.78 75.75c-.05 0-.26-.98-.5-2.2a16.93 16.93 0 01-.33-2.24c.04-.01.26.98.49 2.2.22 1.23.38 2.23.34 2.24z"/><path d="M44.12 72.76c.02.04-.71.37-1.65.69-.93.32-1.71.5-1.72.47-.01-.04.74-.3 1.67-.62.93-.32 1.68-.58 1.7-.54z"/><path d="M41.63 75.22c-.04-.02.24-.8.63-1.74.39-.95.73-1.7.77-1.68.04.01-.24.8-.63 1.74-.38.94-.73 1.69-.77 1.68z"/><path d="M44.1 74.8c-.02.03-.75-.47-1.63-1.12a12.8 12.8 0 01-1.54-1.24c.03-.04.76.46 1.63 1.11.88.65 1.57 1.2 1.54 1.24zm.22 25.02c-.04 0-.26-.98-.49-2.21a16.9 16.9 0 01-.34-2.24c.04 0 .26.98.49 2.21.23 1.23.38 2.23.34 2.24z"/><path d="M45.66 96.82c.02.04-.71.38-1.65.7-.93.32-1.7.5-1.72.46-.01-.04.75-.29 1.68-.6.93-.33 1.68-.6 1.7-.56z"/><path d="M43.17 99.28c-.03-.01.25-.8.63-1.74.39-.94.73-1.7.77-1.67.04.01-.24.79-.63 1.73-.38.95-.73 1.7-.77 1.68z"/><path d="M45.65 98.86c-.03.03-.76-.47-1.63-1.11a15.5 15.5 0 01-1.55-1.24c.03-.04.76.46 1.64 1.11.87.65 1.56 1.2 1.54 1.24zm6.84 6.9c-.05 0-.26-.98-.5-2.21a17.09 17.09 0 01-.33-2.24c.04 0 .26.98.49 2.21.22 1.23.38 2.23.34 2.24z"/><path d="M53.83 102.76c.02.04-.71.38-1.65.7-.93.32-1.71.5-1.72.47-.01-.05.74-.3 1.67-.62.93-.32 1.69-.59 1.7-.55z"/><path d="M51.34 105.22c-.04-.01.24-.8.63-1.74s.73-1.7.77-1.67c.04.01-.24.79-.63 1.73-.38.95-.73 1.7-.77 1.68z"/><path d="M53.81 104.8c-.02.04-.75-.46-1.63-1.1a13.75 13.75 0 01-1.54-1.25c.03-.03.76.47 1.63 1.12.88.65 1.57 1.2 1.54 1.24zm-16.98 4.07c-.04 0-.26-.98-.49-2.2a16.8 16.8 0 01-.33-2.24c.04 0 .25.98.48 2.2a17 17 0 01.34 2.24z"/><path d="M38.18 105.89c.01.03-.72.37-1.65.69a9.5 9.5 0 01-1.72.47c-.02-.04.74-.3 1.67-.62.93-.32 1.68-.58 1.7-.54z"/><path d="M35.69 108.34c-.04-.02.24-.8.63-1.74.38-.94.73-1.7.77-1.68.04.02-.25.8-.63 1.74-.39.94-.73 1.7-.77 1.68z"/><path d="M38.16 107.92c-.03.04-.76-.46-1.63-1.11-.88-.65-1.57-1.2-1.54-1.24.02-.03.75.46 1.63 1.11.87.65 1.56 1.2 1.54 1.24zM23.45 104c-.04 0-.26-.98-.49-2.21a16.83 16.83 0 01-.34-2.23c.04-.01.26.97.5 2.2.22 1.23.37 2.23.33 2.24z"/><path d="M24.8 101c0 .05-.72.38-1.65.7-.94.32-1.72.5-1.73.47 0-.04.75-.3 1.68-.62.93-.32 1.68-.58 1.7-.54z"/><path d="M22.3 103.46c-.03-.02.25-.8.63-1.74.4-.95.73-1.7.77-1.68.04.02-.24.8-.63 1.74-.38.94-.73 1.7-.76 1.68z"/><path d="M24.78 103.04c-.03.04-.76-.46-1.63-1.11-.88-.65-1.57-1.2-1.55-1.24.03-.04.76.46 1.64 1.11.87.65 1.56 1.2 1.54 1.24zm17.06-43.75c-.04 0-.26-.98-.49-2.2a17 17 0 01-.33-2.24c.04-.01.26.98.48 2.2.23 1.23.38 2.23.34 2.24z"/><path d="M43.19 56.3c.01.04-.72.37-1.65.7-.94.31-1.71.5-1.73.46 0-.04.75-.3 1.68-.61.93-.32 1.68-.6 1.7-.55z"/><path d="M40.7 58.75c-.04-.01.24-.8.63-1.73.38-.95.73-1.7.77-1.68.03.01-.25.8-.63 1.73-.39.95-.73 1.7-.77 1.68z"/><path d="M43.17 58.34c-.02.03-.75-.47-1.63-1.12-.88-.65-1.57-1.2-1.54-1.24.02-.03.75.47 1.63 1.12.88.65 1.57 1.2 1.54 1.24zm-24.93 7.79c-.04 0-.26-.98-.48-2.21a16.85 16.85 0 01-.34-2.24c.04 0 .26.98.49 2.21a17 17 0 01.33 2.24z"/><path d="M19.59 63.14c.01.04-.72.37-1.65.69-.93.32-1.71.5-1.72.47-.01-.04.74-.3 1.67-.62.93-.32 1.68-.58 1.7-.54z"/><path d="M17.1 65.6c-.04-.03.24-.8.63-1.75.39-.94.73-1.7.77-1.68.04.02-.24.8-.63 1.74-.38.95-.73 1.7-.77 1.68z"/><path d="M19.57 65.17c-.02.04-.75-.46-1.63-1.11a13.1 13.1 0 01-1.54-1.24c.03-.03.76.47 1.63 1.12.88.65 1.57 1.2 1.54 1.23zm13.18 6.81c-.04.01-.26-.98-.48-2.2a16.81 16.81 0 01-.34-2.24c.04 0 .26.98.49 2.2.22 1.23.37 2.23.33 2.24z"/><path d="M34.1 68.99c.02.04-.71.37-1.65.7-.93.31-1.71.5-1.72.46-.01-.04.74-.3 1.67-.61.93-.32 1.68-.6 1.7-.55z"/><path d="M31.61 71.44c-.04-.01.24-.8.63-1.74s.73-1.7.77-1.68c.04.02-.24.8-.63 1.74-.39.95-.73 1.7-.77 1.68z"/><path d="M34.08 71.03c-.02.03-.75-.47-1.63-1.12a12.6 12.6 0 01-1.54-1.24c.03-.03.76.47 1.63 1.12.88.65 1.57 1.2 1.54 1.24zm-15.34 7.8c-.05 0-.26-.98-.5-2.2a16.6 16.6 0 01-.33-2.24c.04-.01.26.98.49 2.2s.38 2.23.34 2.24z"/><path d="M20.08 75.84c.02.04-.71.37-1.65.69-.93.32-1.7.5-1.72.47-.01-.04.75-.3 1.67-.62.93-.32 1.69-.58 1.7-.54z"/><path d="M17.6 78.3c-.05-.02.24-.8.62-1.74.39-.95.73-1.7.77-1.68.04.02-.24.8-.63 1.74-.38.94-.73 1.7-.77 1.68z"/><path d="M20.07 77.88c-.03.03-.76-.46-1.64-1.12a13.7 13.7 0 01-1.54-1.23c.03-.04.76.46 1.63 1.11.88.65 1.57 1.2 1.55 1.24zm7.41 3.86c-.04 0-.26-.98-.49-2.2a16.9 16.9 0 01-.34-2.25c.05 0 .26.98.5 2.21.22 1.23.37 2.23.33 2.24z"/><path d="M28.82 78.75c.02.04-.71.37-1.64.7-.94.32-1.72.5-1.73.46 0-.04.75-.3 1.68-.61.93-.32 1.68-.59 1.7-.55z"/><path d="M26.34 81.2c-.04-.01.24-.79.62-1.73.4-.95.73-1.7.77-1.68.04.01-.24.8-.63 1.74-.38.94-.73 1.7-.76 1.67z"/><path d="M28.8 80.79c-.02.03-.75-.47-1.62-1.12-.88-.65-1.57-1.2-1.54-1.24.02-.03.75.47 1.63 1.12.87.65 1.56 1.2 1.54 1.24zm-6.9 9.31c-.05 0-.27-.99-.5-2.21a16.78 16.78 0 01-.33-2.24c.04 0 .26.98.48 2.2.23 1.24.38 2.24.34 2.24z"/><path d="M23.24 87.1c.01.04-.72.37-1.65.7-.94.32-1.71.5-1.73.46 0-.04.75-.3 1.68-.61.93-.32 1.68-.59 1.7-.55z"/><path d="M20.75 89.56c-.04-.02.24-.8.63-1.74.38-.94.73-1.7.77-1.68.03.02-.25.8-.63 1.74-.39.95-.73 1.7-.77 1.68z"/><path d="M23.22 89.14c-.02.03-.76-.47-1.63-1.12a12.8 12.8 0 01-1.54-1.24c.02-.03.75.47 1.63 1.12.87.65 1.56 1.2 1.54 1.24z"/></g><path fill="#2d2e2d" d="M31.77 34.5a7.83 7.83 0 00.13 7.74c.93 1.52 2.37 2.7 3.08 4.33.86 2 .47 4.27.21 6.43-.25 2.16-.3 4.56 1.07 6.24.57.7 1.34 1.22 1.91 1.91.58.7.94 1.71.51 2.51-.3.55-.9.86-1.48 1.08a11.56 11.56 0 01-12.67-3.32l-.34 2.3a17.08 17.08 0 01-3.72-20.85m28.47-22.81l.3-.19c-.02-.03-.48-.8-1.27-.9-.52-.06-1.03.17-1.53.68l.25.26c.42-.42.84-.62 1.24-.57.6.07 1 .71 1 .72zm-8.14 0l.3-.19c-.02-.03-.48-.8-1.27-.9-.51-.06-1.03.17-1.53.68l.26.26c.41-.42.83-.62 1.23-.57.6.07 1 .71 1 .72z"/><path fill="#d8816e" d="M45.94 31.4c.1 0 .17-.04.23-.12.48-.68-1.5-6.74-2.1-8.58l-.35.12c1.22 3.65 2.35 7.66 2.17 8.22-.79 0-2.07-.03-2.07-.03v.37l2.12.02zm5.14-1.04c-1.17 0-2.01-1.13-2.01-2.3 0-1.19.94-2.14 2.1-2.14.22.33 0 .95 0 2.13s-.1 1.42-.1 2.31zM36 30.19a2.12 2.12 0 01-2.1-2.14c0-1.18.94-2.13 2.1-2.13 1.17 0 2.11.95 2.11 2.13s-.94 2.14-2.1 2.14z"/><path fill="#202751" d="M47.85 24.46c-.35 0-.64-.44-.64-.97s.29-.98.64-.98c.35 0 .64.44.64.98s-.29.97-.64.97zm-7.97 0c-.35 0-.63-.44-.63-.97s.28-.98.63-.98.64.44.64.98-.29.97-.64.97z"/><path fill="#d8816e" d="M42.75 34.16h.17a1.65 1.65 0 001.08-.64l-.3-.21s-.3.42-.82.48c-.4.05-.82-.12-1.26-.51l-.24.27c.47.41.92.61 1.37.61z"/></svg>
