<svg xmlns="http://www.w3.org/2000/svg" fill="none" viewBox="0 0 199 152"><path fill="#F0F6FB" d="M45.8 138.94s106.7 43.19 145.63-28.8C230.36 38.17 90.5-13.66 34.27 20.9-21.97 55.44-1.76 127.3 45.8 138.94z"/><path fill="#F08304" d="M114.96 15.74s-5.42-9.07 3.42-13.76c8.84-4.7 14.55 3.64 14.94 7.67.4 4.02-.75 14.05-14.06 8.86l-4.3-2.77z"/><path fill="#93491E" d="M133.37 11.62l-.07-.17s-7.77 6.09-11.62 5a11.04 11.04 0 01-7.82-9.74c-1.69 4.37 1.1 9.03 1.1 9.03l4.3 2.77c11.45 4.46 13.9-2.35 14.11-6.9z" opacity=".5"/><path fill="#fff" d="M111.92 18.22s1.32-3.6 5.13-2.16c0 0 2.03.87 2.18 3.23l-7.31-1.07z"/><path fill="#000" d="M119.38 19.45l-7.66-1.12.06-.16c.03-.07.6-1.6 2.1-2.28a4.1 4.1 0 013.22.03c.02.02 2.11.94 2.27 3.35l.01.18zm-7.26-1.35l6.94 1.02a3.76 3.76 0 00-2.07-2.93 3.83 3.83 0 00-3-.04 4.06 4.06 0 00-1.87 1.95z"/><path fill="#F08304" d="M79.65 74.33s5.56-2.85.8-11.33c-4.74-8.49 4.39-12.88 6.67-14.24 2.28-1.35 7.4-7.2 5.95-14.13-1.46-6.93 9.17-18.16 21.66-16.44 11.62 1.6 12.61 8.36 14.63 12.14 2.01 3.78 2.95 9.18 13.9 11.22 10.96 2.03 22.15 6.66 25.47 15.35 3.32 8.7-5.01 14.58 2.02 20.69 7.03 6.1 10 14.41 6.44 19.01-3.55 4.6-6.83 7.13-13.85 4.08-7.01-3.05-8.77 5.8-8.77 5.8l-49.92 7.9s-40.3-11.14-25-40.05z"/><path fill="#93491E" d="M142.34 84.52c-8.19-4.72-11.74-18.96-9.12-26.63 2.61-7.67.1-7.5.1-7.5l-8.94 6.27s-3.2 21.93-.15 35.38c2.48 10.93 11.47 13.14 18.08 16.38l12.26-1.94s1.48-7.43 7.12-6.33c-4.05-8.54-11.27-10.97-19.35-15.63zM79.2 75.2l-.2.43-.13.26-.17.38-.13.27-.16.37a13.07 13.07 0 00-.26.62l-.11.28-.14.35-.1.28-.12.34-.1.27-.11.34-.1.27-.1.34-.08.26-.1.34-.07.26-.09.34-.06.25-.1.36c0 .08-.03.15-.04.22l-.1.44-.02.14-.11.57-.03.19-.06.37-.03.24-.05.32-.02.25-.03.3-.03.26-.02.3-.02.25a122.09 122.09 0 01-.03.82v1.06l.02.25.01.26.02.26.02.26.02.25.03.25.03.26.03.24a227.63 227.63 0 00.17 1.01l.04.2.06.28.05.21.06.27.06.2.07.27c.02.07.03.14.06.2l.07.27.06.2.09.26.06.2.1.26.06.19.1.27.07.17.1.27a4.72 4.72 0 00.2.44l.06.15.13.29.06.12.14.31.03.06a21.76 21.76 0 00.86 1.56l.2.33.04.07.2.3.06.1.2.29.06.1.2.28.07.1.2.28.07.09.21.29.06.08.23.3.05.05.25.3c0 .02.02.03.03.04a31.3 31.3 0 003.47 3.57c5.81-2.34 12.53-5.31 14.38-6.63 3.08-2.2 14.07-4.2 15.42-15.57 1.34-11.36-2.34-27.82-3.97-29.62-1.63-1.8-7.33-20.06-7.33-20.06s-5.07-.25-8.04 6.06c.07 1.56-6.23 9.69-8.07 10.78-2.28 1.35-11.4 5.75-6.66 14.24 4.75 8.48-.8 11.33-.8 11.33a87.08 87.08 0 00-.44.87z" opacity=".5"/><mask id="a" width="199" height="143" x="0" y="9" maskUnits="userSpaceOnUse"><path fill="#fff" d="M45.8 138.94s106.7 43.19 145.63-28.8C230.36 38.17 90.5-13.66 34.27 20.9-21.96 55.44-1.76 127.3 45.8 138.94z"/></mask><g mask="url(#a)"><path fill="#4153A0" d="M83 103s6.06-14.79 19.92-17.18c13.86-2.39 33.19-1.88 42.77 2.74 9.58 4.6 15.23 12.81 14.88 44.92-.34 32.11-76.13 15.38-76.13 15.38l-1.43-45.87z"/><path fill="#F3B9AC" d="M88.66 140.05s7.97-.57 11.87-.17c0 0 2.18 6.73-1.37 10.74 0 0-6.86-1.15-8.7-1.55l-1.8-9.02zM104.38 85.58l2.76-13.52s-10.79 1.4-10.46-21.49l.28-13.68s.39-4.28 5.56-4.85c3.54-.39 3.12 2.7 3.12 2.7s2.2-3.53 5.66-3.2c3.45.31 4.17 2.93 4.34 8.68.17 5.75 6.94 11.13 11.78 9.35 4.85-1.78 6.77.02 6.45 3.76-.33 3.74-2.41 5.46-5.95 3.6 0 0 .22 17.69 2.23 23.03 2 5.34 3.75 5.08 4.38 5.48 5.67 3.6-12.83 20.3-22.98 21.1-15.15 1.2-9.78-20.76-7.17-20.96z"/><path fill="#101533" d="M85.85 133.12l5.39-16.1s-4.13 16.84.69 22.86l-4.36.45-1.72-7.21z" opacity=".5"/><path fill="#DC8A79" d="M130.84 55.76c-.02 0-.05 0-.07-.02a.14.14 0 01-.05-.2c1.04-1.8 1.33-3.18.85-3.96-.42-.67-1.32-.75-1.65-.76l-.13 2.6c0 .08-.07.14-.15.14a.14.14 0 01-.14-.15l.14-2.87h.13c.06-.01 1.43-.09 2.04.9.56.88.27 2.31-.84 4.25a.16.16 0 01-.13.07z"/><path fill="#F08304" d="M97.43 46.26l.1-.23c.05-.15.16-.35.31-.58.08-.11.16-.24.26-.36l.33-.39c.12-.13.27-.25.4-.37.16-.11.32-.24.5-.34.17-.1.34-.21.53-.3l.28-.13.29-.06.3-.03.27.04.26.06.23.1c.14.07.27.13.37.22a2.3 2.3 0 01.37.42l.05.07c.02.04 0 .1-.03.12h-.01l-.01.01-.08.03a3.26 3.26 0 01-.48.17c-.1.03-.22.08-.33.1l-.17.05-.18.05-.17.04-.19.04h-.39c-.15 0-.3.02-.45.06-.14.03-.28.09-.43.14-.13.07-.28.11-.41.18l-.2.1-.19.12-.34.22c-.41.29-.67.53-.67.53a.08.08 0 01-.1 0 .07.07 0 01-.02-.08zM114.29 44.36l-.07-.04-.17-.1a7 7 0 00-1.08-.47l-.5-.15c-.17-.03-.34-.08-.52-.1l-.27-.05-.28-.03c-.18-.02-.36 0-.53.01-.18 0-.35.05-.51.05-.16-.01-.32 0-.47-.03l-.44-.06-.4-.08a3.72 3.72 0 01-.64-.17h-.01a.09.09 0 01-.06-.11l.02-.03.05-.07.16-.18c.07-.08.16-.17.28-.26.1-.1.24-.16.4-.24.15-.08.32-.15.51-.2.2-.04.4-.1.6-.07.22.01.44.03.66.1l.63.21.31.11c.1.05.2.1.3.13.2.08.38.2.55.3.17.11.34.2.48.32l.4.33c.12.1.22.21.3.3.1.1.17.17.22.25a2.85 2.85 0 01.18.22c.02.04.01.08-.02.1a.08.08 0 01-.08.01z"/><path fill="#F08304" d="M97.43 46.27l.1-.24c.05-.14.16-.34.31-.58.08-.1.16-.24.26-.36.1-.13.21-.26.33-.38.12-.14.27-.26.4-.38.16-.11.32-.23.5-.33.17-.1.34-.22.53-.3.09-.05.18-.1.28-.13l.29-.07c.1-.01.2-.03.3-.02.09 0 .18.02.27.04l.26.05.23.1c.14.07.27.14.37.22a2.29 2.29 0 01.37.42l.05.07c.02.04 0 .1-.03.13h-.02l-.08.04a3.26 3.26 0 01-.48.16l-.33.11-.17.04-.18.06c-.06.01-.11.03-.17.03l-.19.04h-.39c-.15 0-.3.03-.45.06-.14.03-.28.1-.43.14-.13.07-.28.11-.41.19l-.2.1-.19.11-.34.22c-.41.3-.67.53-.67.53a.08.08 0 01-.1 0 .07.07 0 01-.02-.07zM114.29 44.36l-.07-.04-.17-.1a7 7 0 00-1.08-.47l-.5-.15c-.17-.03-.34-.08-.52-.1l-.27-.05-.28-.03c-.18-.02-.36 0-.53.01-.18 0-.35.05-.51.05-.16-.01-.32 0-.47-.03l-.44-.06-.4-.08a3.72 3.72 0 01-.64-.17h-.01a.09.09 0 01-.06-.11l.02-.03.05-.07.16-.18c.07-.08.16-.17.28-.26.1-.1.24-.16.4-.24.15-.08.32-.15.51-.2.2-.04.4-.1.6-.07.22.01.44.03.66.1l.63.21.31.11c.1.05.2.1.3.13.2.08.38.2.55.3.17.11.34.2.48.32l.4.33c.12.1.22.21.3.3.1.1.17.17.22.25a2.85 2.85 0 01.18.22c.02.04.01.08-.02.1a.08.08 0 01-.08.01z" opacity=".5"/><path fill="#8A4233" d="M127.97 58.99l-.04-2.07c-.68-.44-1.29-2.18-1.29-2.18a8.36 8.36 0 001.33 4.25z" opacity=".5"/><path fill="#E3A393" d="M114.69 35.25c2.41 5.99-2.74 8.7 5.8 13.14.48.25.9.44 1.28.59-3.25-1.61-6.03-5.11-6.13-8.77-.17-5.75-.9-8.37-4.35-8.69-1.3-.12-2.42.3-3.31.88 1.37-.7 4.8-1.86 6.7 2.85z" opacity=".5"/><path fill="#DC8A79" d="M107.45 59.21a.6.6 0 01-.07 0c-3.47-.52-3.6-.98-3.66-1.22a.53.53 0 01.21-.57c.5-.6.64-6.42.47-11.69 0-.24.18-.44.42-.44.23 0 .44.17.44.41 0 .03.1 2.86.06 5.75-.04 4.32-.33 5.76-.59 6.3.54.2 1.74.45 2.78.6a.43.43 0 01-.06.86z"/><path fill="#AB1E01" d="M112.06 60.76s-1.66 3.34-5.13 4.62c0 0 2.67.98 4.77-.8 2.06-1.74.36-3.82.36-3.82z" opacity=".5"/><path fill="#36332F" d="M111.27 49.77c.54-.15.83-.84.64-1.54-.19-.7-.78-1.15-1.33-1-.54.14-.83.82-.64 1.53.19.7.78 1.15 1.33 1zM101.03 51.33c.48-.14.7-.8.51-1.46-.2-.66-.75-1.09-1.22-.95-.48.15-.7.8-.51 1.47.2.66.74 1.09 1.22.94z"/><path fill="#BAC2E4" d="M17.38 134.27l-8.44-33.93s-2.05-4.56 5.93-4.56c7.98 0 62.5-3.19 62.5-3.19s3.88-1.36 5.48 9.34c1.6 10.7 8.9 51.47 8.9 51.47l-74.37-19.13z"/><path fill="#8A98C8" d="M17.38 134.27l-8.44-33.93s-2.05-4.56 5.93-4.56c7.98 0 62.5-3.19 62.5-3.19s3.88-1.36 5.48 9.34c1.6 10.7 8.9 51.47 8.9 51.47l-74.37-19.13z"/><path fill="#BAC2E4" d="M88.4 152.56c-1.05-5.88-7.29-40.82-8.75-50.62-1-6.8-2.94-8.72-4.22-9.22-9.71.56-53.47 3.08-60.56 3.08-7.98 0-5.93 4.55-5.93 4.55l8.44 33.94 71.02 18.27z"/><path fill="#101533" d="M140.45 136.03l.28-19.1s-.56 18.64-5.91 20.13c-5.35 1.48-27.13 1.83-27.13 1.83s30.23 1.45 30.83 1.97c0 0-.78-1.15-.85-1.62-.07-.47.78.32 1.47.83.68.5-.3-1.63-.22-1.95.08-.31-.18-.73.46-.52.64.2 1.1-1 1.07-1.57z" opacity=".5"/><path fill="#36332F" d="M33.92 82.04l-.56.4 5.1 7.15.56-.4-5.1-7.15zM43.62 68.74l-.69.02.62 17.26.69-.03-.62-17.25zM55.14 78.2l-4.92 9.44.61.32 4.92-9.44-.61-.32z"/><path fill="#EB856C" d="M98.08 150.43l1.07.18c3.56-4 1.38-10.74 1.38-10.74l-.3-.03-.04.03s2.15 4.47-2.07 10.48l-.04.08zM114.08 85.68l3.27-16.44s-4.2 2.47-10.22 2.88l-2.75 13.45c-1.85.14-5.1 11.25-1.4 17.26-1.12-3.37-4.15-15.76 11.1-17.15z" opacity=".5"/><path fill="#fff" d="M32.65 125.47l-.69-3.15c-.01-.07.03-.14.1-.14l.33.01c.07 0 .14.07.16.15l.69 3.14c-.2-.15-.44-.15-.59 0z"/><path fill="#fff" d="M32.22 122.19h-.16c-.07 0-.12.06-.1.13l.7 3.15c.06-.07.15-.1.26-.1l-.7-3.18z"/><path fill="#fff" d="M32.55 122.34c-.02-.08-.09-.15-.16-.15h-.33c-.07 0-.11.06-.1.14h.6zM33.15 119.84h-.2s-.03-.1.03-.1h.15l.02.1z"/><path fill="#fff" d="M33.37 125.6c-.03 0-.06-.04-.07-.07l-.72-3.25c-.01-.07-.08-.14-.15-.14H32c-.07 0-.1.05-.1.13l.72 3.25c0 .03-.01.06-.04.06s-.06-.03-.07-.07l-.71-3.25c-.03-.14.05-.25.17-.25l.44.01c.13 0 .26.12.3.26l.7 3.25c.02.03 0 .06-.03.06z"/><path fill="#fff" d="M32.25 122.33h-.29c-.01-.08.03-.15.1-.15h.16l.03.15zM34.82 125.62c-.03 0-.06-.03-.07-.06l-.71-3.25c-.02-.07-.08-.13-.15-.13l-.44-.01c-.07 0-.11.05-.1.13l.72 3.25c0 .03-.01.06-.04.06s-.07-.03-.07-.07l-.72-3.25c-.03-.14.05-.25.18-.25l.44.01c.13 0 .26.12.29.27l.71 3.24c.01.04 0 .06-.04.06z"/><path fill="#fff" d="M34.1 125.5l-.68-3.14c-.02-.08.02-.15.1-.14h.32c.07 0 .14.07.16.15l.7 3.14c-.21-.14-.45-.15-.6 0z"/><path fill="#fff" d="M33.67 122.22h-.16c-.07 0-.12.06-.1.14l.7 3.14c.06-.07.15-.1.26-.1l-.7-3.18z"/><path fill="#fff" d="M34 122.37c-.02-.08-.09-.15-.16-.15h-.33c-.07 0-.12.06-.1.14h.6z"/><path fill="#fff" d="M33.7 122.36h-.28c-.02-.09.02-.15.1-.15h.16l.03.15zM36.27 125.65c-.03 0-.06-.03-.07-.06l-.71-3.25c-.02-.07-.08-.13-.15-.14h-.44c-.07 0-.1.05-.1.13l.72 3.25c.01.03 0 .06-.03.06s-.07-.02-.08-.05v-.02l-.71-3.24c-.03-.15.04-.26.17-.26l.44.01c.13 0 .26.12.29.26l.71 3.25c.01.04 0 .06-.04.06z"/><path fill="#fff" d="M35.56 125.53l-.7-3.14c-.01-.08.03-.15.1-.14h.33c.07 0 .15.07.16.15l.7 3.14c-.21-.14-.45-.15-.6 0z"/><path fill="#fff" d="M35.13 122.25h-.16c-.07 0-.12.06-.1.14l.7 3.14c.06-.07.15-.1.26-.1l-.7-3.18z"/><path fill="#fff" d="M35.45 122.4c-.01-.08-.09-.15-.16-.15h-.32c-.07 0-.12.06-.1.14h.58z"/><path fill="#fff" d="M35.16 122.4l-.3-.01c-.01-.08.03-.15.1-.14h.17l.03.14zM36.4 122.15l-.04-.01-2.82-2.16-.03-.03a.3.3 0 01-.14-.2c0-.03-.04-.06-.07-.06h-.36c-.03 0-.05.02-.04.06.02.08 0 .15-.06.2l-.02.01-1.88 2.06c-.02.02-.06.02-.08-.01-.03-.03-.04-.07-.02-.09l1.9-2.06.02-.02c.03-.03.04-.04.03-.09-.02-.1.04-.18.13-.18h.36c.09 0 .18.1.2.2.02.05.03.05.08.1l.03.02 2.82 2.16c.03.02.04.06.03.08-.01.02-.02.02-.04.02z"/><path fill="#fff" d="M32.9 120l-1.79 1.92c.1 0 .2.02.3.08 0 0 1.92-.86 1.82-1.8l-.08-.36h-.2c.01.06 0 .13-.05.17zM33.49 120.02l2.65 2.01c-.1 0-.2.01-.27.07 0 0-2.32-.96-2.64-1.9l-.08-.36h.21c.02.07.07.14.13.18z"/><path fill="#fff" d="M33.15 119.84h.21s-.01-.09-.07-.09h-.16l.02.1zM40.01 120.81l.42 1.99.22.02.2 1.03-.39-.02-.15-.6-1.3-.05.1.61-.37-.01-.24-1.03h.19c.05-.17.08-.35.1-.53 0-.25-.02-.5-.09-.8l-.13-.65 1.44.04zm-.82.73a3 3 0 01.07.8c-.01.14-.04.29-.07.4l.73.03-.32-1.53-.48-.02.07.32zM42.76 122.08c.17.8-.17 1.26-.82 1.24-.66-.02-1.15-.58-1.3-1.27-.15-.72.16-1.25.81-1.22.68.02 1.17.59 1.31 1.25zm-1.59-.02c.1.47.37.81.7.83.34 0 .47-.34.37-.8-.1-.44-.36-.82-.7-.83-.34-.01-.47.33-.37.8zM45.01 122.46l-.23-1c-.01.31-.03.66-.06.94l-.07.93-.39-.02-.43-.94c-.13-.29-.28-.63-.4-.95l.17 1 .15.92-.46-.02-.37-2.41.67.02.38.81.37.87.04-.86.06-.8.66.03.62 2.42-.48-.02-.23-.92zM46.22 121.17c.13-.1.34-.18.64-.17.49.02.83.3.9.65.07.3-.08.5-.32.56.29.06.58.27.64.6.12.53-.34.7-.76.69-.23 0-.49-.07-.7-.2l.02-.4c.11.05.36.15.57.15.25.01.38-.1.34-.3-.06-.27-.32-.33-.53-.33l-.21-.01-.09-.4h.2c.24.01.38-.1.34-.29-.03-.15-.18-.27-.39-.27a.9.9 0 00-.45.12l-.2-.4zM48.55 121.1l.2.93.82.03-.2-.93.5.02.51 2.41-.5-.01-.2-1.02-.83-.02.2 1-.5-.01-.5-2.42.5.02zM51.2 122.98l-.02.61-.52-.01.17-2.4.66.02 1.19 2.44-.54-.02-.3-.62-.64-.02zm.48-.4l-.25-.5-.2-.48h-.01v.46l-.03.51.49.02zM52.96 121.25l.2.93.82.03-.2-.93.5.02.51 2.42-.5-.02-.2-1.01-.83-.03.21 1h-.5l-.5-2.42.5.01zM55.19 121.33l.15.71.2 1.1h.01c.06-.28.14-.6.22-.85l.27-.93.51.01.51 2.42-.46-.02-.15-.71c-.08-.37-.14-.7-.18-1.02-.05.29-.12.6-.2.85l-.27.86-.57-.02-.5-2.42.46.02zM57.45 121.4l.15.72c.08.38.15.77.2 1.09h.01c.06-.28.14-.6.22-.85l.27-.93.51.02.51 2.41-.46-.01-.15-.72c-.08-.37-.14-.7-.18-1.01-.05.28-.12.6-.2.84l-.27.86-.57-.02-.5-2.42.46.02zm.2-.54c.02.14.08.22.18.22.1 0 .13-.07.11-.2h.33c.05.31-.1.44-.4.43-.29-.01-.48-.16-.57-.46h.34zM39.97 124.99c.09.4-.09.6-.36.58-.27 0-.51-.25-.59-.6-.08-.36.08-.59.36-.58.29.01.53.26.6.6zm-.8-.01c.05.24.21.46.43.47.21.01.29-.2.23-.46-.04-.23-.2-.47-.43-.48-.22 0-.29.22-.23.47zM40.16 124.44l.1.48.51.01-.1-.47h.14l.24 1.14h-.14l-.11-.54-.5-.01.1.53h-.13l-.24-1.14h.13zM41.74 124.5l.23 1.14h-.13l-.21-1.03h-.35l.07.34c.05.24.1.52-.02.62a.24.24 0 01-.15.05l-.04-.12c.04 0 .07-.03.1-.05.06-.09.02-.31-.02-.5l-.1-.48.62.02zM42.3 125.3l-.03.35h-.14l.12-1.14h.16l.6 1.16h-.14l-.19-.36-.38-.02zm.32-.1l-.17-.34a4.41 4.41 0 01-.1-.21v.2l-.04.33.31.01zM43.05 124.54l.1.48.09.48.12-.37.21-.57h.14l.23 1.14h-.12l-.1-.49a6.05 6.05 0 01-.09-.46c-.03.12-.07.25-.12.37l-.2.56h-.15l-.24-1.15h.13zm.12-.24c.02.06.04.11.12.11.07 0 .08-.04.07-.1h.1c.02.11-.03.18-.16.18s-.2-.08-.24-.2l.11.01zM44.08 124.58l.1.47.5.02-.1-.48h.14l.24 1.15h-.14l-.11-.54-.5-.02.1.54h-.13l-.24-1.15h.14zM45.4 125.24l.02.1h-.38l-.02-.12.38.02zM46.45 125.21c.08.4-.1.6-.37.58-.27 0-.51-.25-.59-.6-.07-.36.08-.59.36-.58.29.02.53.26.6.6zm-.81-.01c.05.24.22.47.43.47.21.01.29-.2.23-.46-.04-.22-.2-.46-.43-.47-.22-.01-.28.21-.23.46zM47.09 124.68l.03.12-.46-.01.07.3h.13c.1 0 .2.03.28.09.1.05.17.15.2.28.01.1 0 .19-.04.25-.07.08-.2.12-.34.11l-.22-.02-.24-1.14.59.02zm-.24 1.01l.12.01c.08 0 .16-.02.2-.08a.2.2 0 00.02-.17.3.3 0 00-.12-.18.4.4 0 00-.21-.07h-.11l.1.5zM47.36 124.68l.31.5.12.2.02-.2.07-.49.14.01-.1.58c-.02.15-.05.32-.1.43-.05.09-.12.13-.2.13l-.09-.01-.01-.12h.05c.1 0 .15-.1.16-.18.01-.03 0-.05-.01-.07l-.51-.78h.15zM48.26 124.72l.08.36c.03.15.12.24.27.25.07 0 .15-.02.2-.06l-.12-.54h.14l.23 1.15h-.13l-.1-.5a.38.38 0 01-.24.07c-.14 0-.33-.07-.38-.36l-.09-.38h.14zM49.73 125.37l-.4-.02.08.42.45.01.03.12-.59-.02-.24-1.14.57.02.02.13-.43-.02.08.36.4.02.03.12zM49.96 124.77l.1.48.5.02-.1-.48h.14l.24 1.15h-.14l-.1-.55-.51-.01.1.54-.13-.01-.24-1.14h.14zM50.96 124.8l.1.49.1.48.1-.37.22-.57h.14l.24 1.14h-.13l-.1-.49a7.83 7.83 0 01-.09-.46c-.03.12-.07.25-.12.37l-.2.56h-.15l-.24-1.15h.13zM52.53 125.46l-.4-.01.08.41.45.02.03.12-.59-.02-.24-1.14.57.02.02.12-.43-.01.08.36.4.01.03.12z"/></g></svg>
