<svg xmlns="http://www.w3.org/2000/svg" fill="none" viewBox="0 0 173 168"><path fill="#E8F1F7" d="M130.7 167.5S6 172.15.78 110.84C-4.43 49.5 50.2 48.88 50.2 48.88s26.9-7.16 38.57-31.4C100.45-6.75 161.14-9.9 168.44 43.2c7.3 53.1 9.17 117.36-37.75 124.32z"/><mask id="a" width="173" height="168" x="0" y="0" maskUnits="userSpaceOnUse"><path fill="#F7F7F6" d="M130.7 167.51S5.98 172.15.77 110.83C-4.44 49.52 50.19 48.9 50.19 48.9s26.9-7.16 38.58-31.4c11.68-24.23 72.36-27.39 79.66 25.7 7.3 53.1 9.17 117.37-37.74 124.32z"/></mask><g mask="url(#a)"><path fill="#283432" d="M126.8 140.57l-5.16 23.89h-4.53l2.37-23.1 7.32-.8z"/><path fill="#F08C37" d="M57.8 80.17s-74.87-.04-83.53 1.93c-8.66 1.96-13.2 5.23-10.93 16.01 2.27 10.78 7.12 42.16 28.14 43.14C12.5 142.24 117 142.9 117 142.9s21.03 1.3 26.53-15.69c5.5-17 16.82-45.1 1.94-45.43-14.88-.33-87.66-1.6-87.66-1.6z"/><path fill="#F08C37" d="M106.42 120.44H9.82s-23.81 2.08-27.7 17.92a19.2 19.2 0 009.36 2.9c21.03.98 125.51 1.63 125.51 1.63s15.74.97 23.54-9.77c-3.84-5.52-12.9-12.68-34.1-12.68z" opacity=".5"/><path fill="#F08C37" d="M145.46 81.76l-10.93-.22c-3.83 12.15-14.51 57.89-.72 44.56 10.45-10.1 14.78-30.16 16.52-42.58a7.11 7.11 0 00-4.87-1.76z" opacity=".5"/><path fill="#FD5D05" d="M-11.77 140.82c24.12 1.14 117.47 1.93 131.47 2.05 5.85-.3 19.54-2.44 23.83-15.68 4.93-15.24 14.53-39.4 5.74-44.46-2.07 20.04-8.9 49.17-32.2 48.97-33.87-.28-115.98-.02-115.98-.02s-33.13 5.18-34.1-40.09c-.04-2.43-.1-4.65-.14-6.7-3.55 2.37-4.97 6.2-3.5 13.22 2.13 10.2 6.6 38.82 24.88 42.7z"/><path fill="#283432" d="M100.96 63.6s-5.24-5.56-2.62-8.56c2.62-3 5.8-3.2 3.74-10.72-2.06-7.51 6.36-4.8 5.8-11.12-.56-6.3 2.81-13.11 10.57-11.62 7.77 1.51 6.43 9.02 10.32 10.72 3.9 1.7 13.48.69 16.41 9.5 2.93 8.83-1.75 8.53 3.02 12.53s-.4 11.6-7.6 9.1c0 0-2.55-8.83-13.08-9.6-13.63-.98-17.44-.3-26.56 9.78z"/><path fill="#F3B9AC" d="M115.18 49.93s-8.29.23-5-19.7c0 0 8.5-1.68 9.26 2.78.75 4.48 2.23 5.55 5.53 4.08 4.36-1.93 4.16 2.06 3.63 2.8-.42.57-1.7 1.97-3.06 1.26 0 0-.57 10.15 1.99 12.69 0 0-8.86 8.14-13.16 1.2 0 0 .75-2.13.81-5.1z"/><path fill="#283432" d="M112.51 38.57c.23 0 .42-.33.42-.74 0-.4-.19-.74-.42-.74-.23 0-.42.33-.42.74 0 .4.2.74.42.74zm6.65 0c.23 0 .42-.33.42-.74 0-.4-.2-.74-.42-.74-.23 0-.42.33-.42.74 0 .4.19.74.42.74zm-5.95-2.24c-.26-.29-.53-.42-.83-.41-.47 0-.81.4-.81.4l-.2-.16c.01-.02.42-.5 1-.51.37-.01.72.16 1.03.5l-.19.18zm6.75.22c-.26-.28-.53-.42-.81-.42h-.02c-.47 0-.8.4-.8.41l-.21-.17c.02-.02.42-.5 1-.5.38-.02.72.16 1.03.5l-.2.18z"/><path fill="#C47360" d="M116.03 43.76h-1.69a.22.22 0 01-.17-.08c-.38-.52.84-4.95 1.23-6.3l.25.08c-.77 2.7-1.45 5.65-1.28 6.04h1.66v.26zm.07 2.37h-.11c-.48-.08-.73-.55-.75-.57l.24-.12s.2.37.54.43c.26.03.54-.12.86-.45l.2.19c-.34.34-.66.52-.98.52zm9.7-6.79l-.27-.03c0-.04.1-.8.66-1.21.3-.23.67-.31 1.1-.24l-.03.26c-.36-.06-.67.01-.9.2a1.71 1.71 0 00-.57 1.02z"/><path fill="#F3B9AC" d="M109.81 54.94s-4.31 2.82-14.79 17.58c0 0-2.91 3.7-12.04 4.41l1.56 6.6s11.1 1.81 15.15-2.42c4.04-4.24 5.38-6.83 5.38-6.83l4.75-19.34z"/><path fill="#C16A54" d="M107.64 63.79v-3.65s-.63 1.92-2.36 6.33c-1.73 4.42-.88 5.02-3.16 10.1-2.13 4.78-5.3 6.3-5.69 6.46a7.9 7.9 0 003.26-1.92c4.04-4.23 5.38-6.83 5.38-6.83l2.57-10.49z" opacity=".5"/><path fill="#E84842" d="M114.82 53.27s-3.66-.03-5 1.66c-1.39 1.77-6.93 15.98-4.82 20.65 2.11 4.68 7.38 18.7 2.11 29.2 0 0 17.79-.17 28.94 10.47 0 0 4.97-31.44 3.01-43.22 0 0-9.48-5.57-6.48-17.03 0 0-.88-.9-5.52-1.78 0 0-3.59 4.95-8.32 4.6-4.63-.32-3.92-4.55-3.92-4.55z"/><path fill="#475BB4" d="M136.04 115.27s1.35 16.12-16.28 14.03l-17.63-2.1s3.92 12.9 3.31 24.52c-.6 11.6 1.36 24.68 1.36 24.68s-4.82 1.78-5.58 1.78c-.75 0-13.1-38.4-14.47-48.88 0 0-7.09 30.16-9.34 34.36-2.26 4.19-3.92 12.1-3.92 12.1l-5.58-.81s3.4-47.11 5.42-59.68c1.59-9.84 13.85-10.95 16.28-10.81 2.88.16 17.48.31 17.48.31s15.81-2.25 28.95 10.5z"/><path fill="#283432" d="M64.48 62.11l9.44 33.87H87.4l-8.6-37.02-14.32 3.15z"/><path fill="#475BB4" d="M113.66 104.81c.04.01 15.75 3.25 22.25 13.45.22-1.75.12-3 .12-3a37.3 37.3 0 00-22.37-10.45z" opacity=".5"/><path fill="#D4413A" d="M138.3 82.11s-1.96-15.3-6-16c0 0 .15 1.28 1.28 2.83 1.14 1.55 5.18 15.31-6.84 30.77-12.03 15.47 9.32-7.2 9.32-7.2l2.23-10.4z" opacity=".5"/><path fill="#E7A494" d="M67.23 68.34s-1.32 2.58-.3 2.56c1.04-.02 4.56.46 4.77 3.37.2 2.91-2.96 4.84-3.38 4.3-.41-.54-3.89-4.42-2.7-8.83 1.2-4.42 2.06-2.41 1.61-1.4z"/><path fill="#B73229" d="M138.76 93.14c-2.38 1.08-13.48 15-13.48 15l4.42 2.15s4.7-6.04 8.87-15.04l.2-2.1z" opacity=".5"/><path fill="#F3B9AC" d="M114.9 108.88s-2.22 2.83 1.17 4.28c3.39 1.45 18.04-9.92 22.65-19.6 6.65-13.96 5.15-34.77-6.16-38.55 0 0-4.52 6.13 1.14 13.15 0 0 4.29 7.7 1.58 16.1-2.7 8.4-10.1 17.86-12.36 20-2.26 2.13-5.86-.88-5.84.23.02 1.11 1.66 2.02 1.66 2.02s-2.52.92-3.84 2.37z"/><path fill="#D18E7D" d="M120.05 49.01c-2.65 1.12-4.87.92-4.87.92a18.9 18.9 0 01-.36 3.33c4.12-.21 5.23-4.25 5.23-4.25z" opacity=".5"/><path fill="#E7A494" d="M119.16 33.48c1.32 4.4 3 4.19 3 4.19-1.43-.26-2.24-1.72-2.72-4.65-.75-4.48-9.27-2.79-9.27-2.79s7.67-1.15 8.99 3.25z" opacity=".5"/><g opacity=".5"><path fill="#475BB4" d="M88.3 110.92a7.2 7.2 0 011.78-.64s-.83 0-1.79.64z" opacity=".5"/><path fill="#050B2C" d="M88.3 110.92c-5.47 2.82-4.82 11.85-4.55 16.11.3 4.68-6.33 36.62-6.33 36.62 2.26-4.19 9.35-34.35 9.35-34.35-3.17-12.89-.51-17.04 1.52-18.38z" opacity=".5"/></g><path fill="#CE4C47" d="M55.32 114.82s15.02 2.11 14.97 6.77c-.06 4.66-2.56 13.98-28.48 7.17l-5.37-.77s-3.2 7.07-4.63 7.7c-.92.4-.6-.05-.6-.05l1.2-6.29s-3.83 2.46-3.36 4.84c.48 2.37 6.15 23.65 6.15 23.65l-7.24 12.54 1.52-10.85s-17.53-26.57-15.36-33.02c2.18-6.45 16.7-11.96 16.7-11.96l24.5.27z"/><path fill="#FAC7C8" d="M28.74 120.76l1.78 3.11s.06.55-.26.27c-.33-.29-.83-.8-.87-.27-.05.52.5 1.49.78 1.65.3.17-.36.42-.54.33-.2-.09.06.2-.47.09-.54-.13-.05.28-.8.02s-2.68-.76-3.82-4.15l3.87-1.42m39.83-6.06l3.68 1.35s.6-.03.23-.33c-.36-.3-1.01-.76-.45-.9.56-.15 1.7.25 1.93.55.24.29.37-.48.24-.67-.13-.19.23.04 0-.52s.3-.11-.12-.89c-.43-.77-1.33-2.79-5.2-3.39l-.78 4.52"/><path fill="#F8A89A" d="M72.18 115.62c-.05-.04-.11-.08-.16-.08-.26 0-1.82-.67-2.73-1.3-.78-.54-.1-3.64.12-4.54-.27-.07-.54-.14-.84-.18l-.79 4.52.45.28 3.68 1.36s.17 0 .27-.06zm-46.27 7.77c-.2-.86 1.62-2.33 2.51-2.97l-.01-.02-3.87 1.42c1.14 3.4 3.07 3.88 3.82 4.15.75.26.27-.15.8-.03s.28-.18.47-.08c.18.08.84-.16.54-.33-.23-.13-.6-.74-.74-1.26l-.06-.03c-.9-.46-3.2.26-3.46-.85z"/><path fill="#9F3A33" d="M43.53 122.03s18.45-1.28 13.24-2.92c-5.2-1.63-8.45-1.36-8.45-1.36l-17.38-2.15s8.35 3.72 8.87 6.64l3.72-.21z" opacity=".5"/><path fill="#0E9B4A" d="M49.38 83.22s11.89 1.3 13.62 23.3l6.26 3.1s-1.5 1.96-1.15 4.9c0 0-10.45-.61-12-2.15l-.12 2.57s-8.44 8.06-26.31-.08l1.2-13.07.26-1.5s-2.9 1.14-2.97 12.2c-.07 9.03.5 7.87.5 7.87s-2.32.4-3.7 3.2c0 0-5.88-17.66-1.74-25.82 4.14-8.17 8.09-16.6 20.42-15.24l5.73.72z"/><path fill="#FAC7C8" d="M40.3 82.31l-.57.88s-.4 4.49 4.8 4.08c4.53-.36 2.9-5.06 2.9-5.06s-7.13.22-7.13.1z"/><path fill="#F8A89A" d="M47.48 82.38l-.44-.17c-1.48.05-6.75.2-6.75.1l-.57.88s-.39 4.38 4.62 4.09c-1.95-.23-3.74-1.66-1.13-1.5 2.65.15 4.1-2.95 4.28-3.35v-.05z"/><path fill="#FAC7C8" d="M43.96 83.22c4.8 0 8.68-4.35 8.68-9.72 0-5.37-3.89-9.73-8.68-9.73-4.8 0-8.7 4.36-8.7 9.73s3.9 9.72 8.7 9.72z"/><path fill="#F8A89A" d="M43.38 64.64s-3.8 6.56-7.5 7.83c0 0-.25-.14-.6-.08l.14-.67 7.96-7.08z"/><path fill="#F5821F" d="M43.38 64.64s-6.38 8.89-9.84 7.19c-3.47-1.7 5.4-15.32 8.67-10.88 0 0 4.27-4.56 10.25 2s1.4 16.92-9.08 1.7z"/><path fill="#FAC7C8" d="M35.44 76.49c1 0 1.8-.93 1.8-2.06 0-1.14-.8-2.06-1.8-2.06s-1.8.92-1.8 2.06c0 1.13.8 2.06 1.8 2.06zm17.16 0c1 0 1.8-.93 1.8-2.06 0-1.14-.8-2.06-1.8-2.06s-1.8.92-1.8 2.06c0 1.13.8 2.06 1.8 2.06z"/><path fill="#F8A89A" d="M43 79.68s3.2 1.89 4.18-1.7c0 0-1.48 1.66-4.18 1.7z"/><path stroke="#F8A89A" stroke-linecap="round" stroke-miterlimit="10" stroke-width=".28" d="M35.5 73.55s-.9.06-.7 1.05c.2.99 1.04.63 1.04.63m16.82-1.63c.06 0 .88-.28.76.85s-.62.84-.62.84"/><path fill="#484199" d="M41.16 74.14c.3 0 .55-.32.55-.7 0-.39-.25-.7-.55-.7-.3 0-.54.31-.54.7 0 .38.24.7.54.7zm6.19-.21c.3 0 .53-.3.53-.66 0-.36-.23-.65-.53-.65-.29 0-.52.3-.52.65 0 .37.23.66.52.66z"/><path stroke="#F8A89A" stroke-linecap="round" stroke-miterlimit="10" stroke-width=".56" d="M44.3 72.75s-.04 2.16-.35 2.8c-.32.63-.22 1.01.57 1.06"/><path fill="#F1625B" d="M44.9 63.72c-.72-2.03-.6-3.23-.26-4.13-1.54.41-2.43 1.36-2.43 1.36-3.26-4.44-12.14 9.18-8.67 10.88 3.46 1.7 9.84-7.19 9.84-7.19 3.19 4.64 5.84 6.9 7.8 7.62a20.1 20.1 0 01-6.28-8.54z" opacity=".5"/><path fill="#F8A89A" d="M51.61 76.13v.05c.15.26.34.47.52.64l.12-.38-.64-.3zm-15.79.79c.3-.28.47-.77.47-.77-.23.23-.55.3-.6.31.03.16.08.31.13.46z"/><path fill="#F2655A" d="M39.38 70.9a5.4 5.4 0 012.82-.6c.2.01.33.19.31.38a.35.35 0 01-.38.32h-.03a4.86 4.86 0 00-2.5.33h-.02a.24.24 0 01-.31-.11.24.24 0 01.11-.31zm6.77-.56c.5-.02.95.03 1.4.14.46.11.9.3 1.3.6.1.07.12.22.03.33a.24.24 0 01-.31.06v-.01a2.84 2.84 0 00-1.13-.4 4.1 4.1 0 00-1.21-.01h-.02a.36.36 0 01-.4-.31.36.36 0 01.3-.4h.04z"/><path fill="#F8A89A" d="M39.2 78.1c.57 0 1.04-.47 1.04-1.06 0-.58-.47-1.05-1.04-1.05a1.05 1.05 0 000 2.12zm10.16 0c.58 0 1.05-.47 1.05-1.06 0-.58-.47-1.05-1.05-1.05a1.05 1.05 0 000 2.12z"/><path fill="#248C44" d="M54.5 97.8c.23-1.73 1.4 5.62 2.34 8.94.9 3.18 10.38 6.89 11.22 7.22l.05.56s-10.45-.61-12-2.16l-.12 2.58c-.01 0-1.72-15.42-1.5-17.14z" opacity=".5"/><path fill="#F14F4A" d="M31.48 130.03c.52-.42.92-.68.92-.68l-1.2 6.29 2.53-12.7-1.99 1.63-.26 5.46z" opacity=".5"/><path fill="#283432" d="M32.4 129.35l-1.2 6.3s-.3.43.6.04c1.44-.63 4.64-7.7 4.64-7.7l1.73.25.05-.08.73-5.74-5.11.2-1.44 6.73z"/><path fill="#3A7E3F" d="M29.67 114.86c5.82 2.65 10.63 3.58 14.5 3.63-.05-.04-.22-.07-.57-.09-2.3-.12-8.36-1.81-10.67-3.2-2.31-1.39-.16-17.38-.94-16.71-.78.67-2.23 3.32-2.23 3.43v.16c.7-1.52 1.37-1.8 1.37-1.8l-.26 1.5-1.2 13.08z" opacity=".5"/></g></svg>
