<svg id="il_timetable_coming_soon" xmlns="http://www.w3.org/2000/svg" viewBox="0 0 460 306"><path fill="#3f51b5" fill-rule="evenodd" d="M.92 162.39c5.72 49.69 43.6 92.36 86.5 118.03 35.78 21.42 81.05-2 121.83 6.65 33.92 7.2 57.43 25.94 90.69 16.17 33.17-9.75 32.88-39.4 60.25-60.53 47.16-36.42 93.37-21 99.3-80.32 5.64-56.44-35.97-59.8-82-92.91-27.5-19.78-45.8-50-77.55-61.75C267.24-4.4 232.79.82 197.98 2.99c-48.29 3-102.57-10.62-140.2 19.82C17.76 55.18-4.96 111.22.92 162.39z" clip-rule="evenodd" opacity=".1"/><path fill="#fff" d="M26.98 25.27h397.7v229.39H26.98z"/><g fill="#eee"><path d="M418.24 209.56h-66.5v26.2h66.5zM409.87 243.06H360.1v4.3h49.77zM409.87 250.8H360.1v3.44h49.77z"/></g><g fill="#e0e0e0"><path d="M424.68 254.66H26.98V25.27h397.7zm-396.84-.86h395.98V26.13H27.84z"/><path d="M424.25 33.9H27.41v.86h396.84zM45 41.16H32.11v.86H45zM45 44.6H32.11v.86H45zM45 48.04H32.11v.86H45zM301.12 48.9H141.53v-7.74h159.59zm-158.74-.86h157.88v-6.02H142.38z"/></g><path fill="#2f2e41" d="M294.68 46.1a1.71 1.71 0 01-1.68-2.05 1.72 1.72 0 111.68 2.05zm0-2.57a.86.86 0 00-.84 1.02.86.86 0 10.84-1.02z"/><path fill="#2f2e41" d="M295.87 45.01l-.6.62 1.7 1.64.6-.61z"/><g fill="#e0e0e0"><path d="M397.22 48.9h-8.58v-7.74h8.58zm-7.72-.86h6.86v-6.02h-6.86zM407.94 48.9h-8.58v-7.74h8.58zm-7.72-.86h6.86v-6.02h-6.86zM418.67 48.9h-8.58v-7.74h8.58zm-7.72-.86h6.86v-6.02h-6.86z"/></g><g fill="#eee"><path d="M320 233.61h-7.72v6.87H320zM330.72 233.61H323v6.87h7.72zM341.45 233.61h-7.72v6.87h7.72z"/></g><g fill="#e0e0e0"><path d="M341.02 228.89H48.43V62.22h292.59zm-291.73-.86h290.87V63.07H49.29z"/><path d="M92.88 213.59v4.04l-6.7-4.1a.23.23 0 00-.11-.03.24.24 0 00-.12.03.24.24 0 00-.12.2v8.85a.23.23 0 00.12.2.23.23 0 00.23 0l6.7-4.09v4.04a.12.12 0 00.12.12h2.07c.04 0 .06-.02.09-.04a.12.12 0 00.03-.08v-9.14a.12.12 0 00-.12-.12H93a.12.12 0 00-.12.12zM75.03 222.84h-1.87c-.03 0-.06 0-.09-.02a.24.24 0 01-.13-.12.24.24 0 01-.02-.1v-8.9a.24.24 0 01.24-.23h1.87a.24.24 0 01.16.06.24.24 0 01.07.17v8.9a.24.24 0 01-.23.24zm5.14 0h-1.86c-.03 0-.06 0-.1-.02a.24.24 0 01-.15-.22v-8.9a.24.24 0 01.25-.23h1.86l.1.01.07.05a.24.24 0 01.07.17v8.9a.24.24 0 01-.24.24z"/></g><path fill="#3f51b5" d="M60.87 213.71v8.89a.23.23 0 00.34.2l7.04-4.44a.25.25 0 00.1-.2.25.25 0 00-.1-.22l-7.04-4.44a.23.23 0 00-.12-.03.23.23 0 00-.23.24z"/><path fill="#2f2e41" d="M327.08 207.41H62.38v1.72h264.7z"/><path fill="#3f51b5" d="M108.49 207.41H62.37v1.72h46.12z"/><g fill="#eee"><path d="M170.27 234.47H48.86v4.73h121.41zM75.45 245.21h-26.6v4.73h26.6zM418.24 71.23h-66.5v26.2h66.5zM409.87 104.74H360.1v4.3h49.77zM409.87 112.47H360.1v4.3h49.77zM409.87 120.21H360.1v4.3h49.77zM418.24 140.4h-66.5v26.2h66.5zM409.87 173.9H360.1v4.3h49.77zM409.87 181.63H360.1v4.3h49.77zM409.87 189.37H360.1v4.3h49.77z"/></g><path fill="#3f3d56" d="M194.5 184.22a42.86 42.86 0 0042.83-42.89 42.86 42.86 0 00-42.83-42.89 42.86 42.86 0 00-42.83 42.89 42.86 42.86 0 0042.83 42.89z"/><path fill="#fff" d="M194.5 180.67a39.31 39.31 0 0039.29-39.34A39.31 39.31 0 00194.5 102a39.31 39.31 0 00-39.29 39.34 39.31 39.31 0 0039.29 39.34z"/><g fill="#3f3d56"><path d="M194.36 146.73a5.25 5.25 0 100-10.5 5.25 5.25 0 000 10.5zM195.49 103.98h-2.27v4.26h2.27zM195.49 174.7h-2.27v4.26h2.27zM161.17 142.61v-2.27h-4.25v2.27zM231.8 142.61v-2.27h-4.25v2.27z"/><path d="M192.85 143.75l1.94-4.44 24.3 13.48zM200.03 88.07h-11.06v12.79h11.06z"/><path d="M194.5 91.62c7.05 0 12.77-1.59 12.77-3.55 0-1.96-5.72-3.55-12.77-3.55s-12.77 1.6-12.77 3.55c0 1.96 5.72 3.55 12.77 3.55z"/></g><path fill="#eee" d="M27.85 26.14h395.96v7.84H27.85z"/><path fill="#ff5252" d="M33.84 32.14a1.72 1.72 0 100-3.43 1.72 1.72 0 000 3.43z"/><path fill="#ff0" d="M38.56 32.14a1.72 1.72 0 100-3.43 1.72 1.72 0 000 3.43z"/><path fill="#69f0ae" d="M43.28 32.14a1.72 1.72 0 100-3.43 1.72 1.72 0 000 3.43z"/></svg>
